# This file uses centimeters as units for non-parametric coordinates.

mtllib Axe in Stump.mtl
g default
v 1.533924 4.486033 0.205372
v 1.480062 4.339799 0.143011
v 1.398493 4.207010 0.205373
v 1.337000 4.165457 0.355925
v 1.331602 4.239477 0.506480
v 1.385465 4.385714 0.568842
v 1.467033 4.518500 0.506480
v 1.528527 4.560053 0.355925
v -3.732298 7.042133 -1.240121
v -3.786159 6.895898 -1.302484
v -3.867729 6.763112 -1.240121
v -3.929219 6.721557 -1.089567
v -3.934620 6.795579 -0.939012
v -3.880757 6.941815 -0.876653
v -3.799189 7.074600 -0.939012
v -3.737696 7.116153 -1.089568
v 1.432763 4.362755 0.355925
v -3.833459 6.918856 -1.089567
vt 1.068514 0.940383
vt 1.051648 0.923925
vt 1.931410 0.913159
vt 1.914953 0.930025
vt 1.028085 0.924213
vt 1.954974 0.912871
vt 1.011627 0.941079
vt 1.971839 0.929329
vt 1.011915 0.964642
vt 1.972128 0.952893
vt 1.028781 0.981100
vt 1.955669 0.969758
vt 1.052344 0.980812
vt 1.932106 0.970047
vt 1.068802 0.963946
vt 1.915241 0.953588
vt 1.040214 0.952512
vt 1.943540 0.941459
vt 1.066495 0.775440
vt 1.912934 0.765082
vt 1.913223 0.788646
vt 1.913511 0.812208
vt 1.913799 0.835772
vt 1.914087 0.859335
vt 1.914376 0.882898
vt 1.914664 0.906462
vt 1.066784 0.799003
vt 1.067072 0.822566
vt 1.067360 0.846130
vt 1.067649 0.869693
vt 1.067937 0.893256
vt 1.068225 0.916820
vn 0.473135 0.556281 -0.683151
vn 0.227561 -0.110454 -0.967479
vn 0.203738 -0.098891 -0.974018
vn 0.449311 0.567844 -0.689690
vn -0.144336 -0.715869 -0.683154
vn -0.168158 -0.704304 -0.689695
vn -0.424706 -0.905325 0.003269
vn -0.448529 -0.893762 -0.003269
vn -0.449311 -0.567843 0.689691
vn -0.473134 -0.556277 0.683154
vn -0.203738 0.098890 0.974018
vn -0.227562 0.110453 0.967479
vn 0.168162 0.704309 0.689688
vn 0.144339 0.715872 0.683150
vn 0.448529 0.893762 0.003270
vn 0.424706 0.905326 -0.003269
vn 0.873394 -0.423925 0.239733
vn -0.873393 0.423926 -0.239733
s 1
g Axe_Handle AxeLog
usemtl initialShadingGroup
f 1/1/1 2/32/2 10/26/3 9/4/4
f 2/32/2 3/31/5 11/25/6 10/26/3
f 3/31/5 4/30/7 12/24/8 11/25/6
f 4/30/7 5/29/9 13/23/10 12/24/8
f 5/29/9 6/28/11 14/22/12 13/23/10
f 6/28/11 7/27/13 15/21/14 14/22/12
f 7/27/13 8/19/15 16/20/16 15/21/14
f 8/15/15 1/1/1 9/4/4 16/16/16
f 2/2/2 1/1/1 17/17/17
f 3/5/5 2/2/2 17/17/17
f 4/7/7 3/5/5 17/17/17
f 5/9/9 4/7/7 17/17/17
f 6/11/11 5/9/9 17/17/17
f 7/13/13 6/11/11 17/17/17
f 8/15/15 7/13/13 17/17/17
f 1/1/1 8/15/15 17/17/17
f 9/4/4 10/3/3 18/18/18
f 10/3/3 11/6/6 18/18/18
f 11/6/6 12/8/8 18/18/18
f 12/8/8 13/10/10 18/18/18
f 13/10/10 14/12/12 18/18/18
f 14/12/12 15/14/14 18/18/18
f 15/14/14 16/16/16 18/18/18
f 16/16/16 9/4/4 18/18/18
g default
v -0.796759 4.044525 0.059436
v 0.565853 3.383147 0.433451
v -0.100009 5.387958 0.120164
v 1.169007 4.772007 0.468489
v -0.010074 5.344306 -0.284677
v 1.258943 4.728356 0.063647
v -0.728097 4.011200 -0.249643
v 0.634515 3.349822 0.124373
v -0.055041 5.366132 -0.082258
v 1.213976 4.750182 0.266068
v 0.579547 2.786597 0.336855
v -1.205254 3.652898 -0.153046
v -0.265391 5.098092 0.160922
v 1.024223 4.472146 0.514902
v 1.074330 4.317980 0.281649
v 1.133524 4.419095 0.022886
v -0.156091 5.045041 -0.331091
v -0.308211 4.989035 -0.097837
vt 1.374351 0.286869
vt 1.379805 0.061083
vt 1.449621 0.376474
vt 1.313144 0.279086
vt 1.313257 0.240867
vt 1.321107 0.107812
vt 1.532300 0.375374
vt 1.312313 0.202660
vt 1.598886 0.372150
vt 1.373336 0.193548
vt 1.591102 0.195891
vt 1.833446 0.360742
vt 1.695155 0.101800
vt 1.694553 0.236722
vt 1.403895 0.106481
vt 1.397650 0.239950
vt 1.148192 0.369859
vt 1.592014 0.279793
vt 1.602781 0.664903
vt 1.837561 0.670067
vt 1.381277 0.152630
vt 1.594779 0.144577
vt 1.382972 0.375022
vt 1.319986 0.070333
vt 1.386868 0.667776
vt 1.453454 0.664552
vt 1.942659 0.311360
vt 1.037704 0.323400
vt 1.043095 0.728566
vt 1.948050 0.716526
vt 1.152308 0.679184
vt 1.593456 0.062271
vt 1.490960 0.375924
vt 1.321191 0.145307
vt 1.494794 0.664002
vt 1.536132 0.663451
vn -0.231031 0.072690 0.970227
vn -0.231031 0.072690 0.970227
vn -0.155392 0.223947 0.962134
vn -0.155392 0.223947 0.962134
vn 0.436658 0.899628 -0.000000
vn 0.436658 0.899628 -0.000000
vn 0.436657 0.899628 -0.000000
vn 0.436657 0.899628 -0.000000
vn 0.272082 0.016468 -0.962133
vn 0.272082 0.016468 -0.962133
vn 0.200038 -0.136538 -0.970228
vn 0.200038 -0.136538 -0.970228
vn 0.081124 -0.358735 -0.929908
vn 0.081124 -0.358735 -0.929908
vn -0.436657 -0.899628 -0.000004
vn -0.436657 -0.899628 -0.000005
vn 0.913605 -0.329331 0.238466
vn 0.906146 -0.349015 0.238931
vn 0.922904 -0.358188 -0.141240
vn 0.929076 -0.337283 0.151848
vn -0.691200 0.425258 -0.584293
vn -0.834802 0.496002 -0.238930
vn -0.823956 0.514033 -0.238467
vn -0.801707 0.502783 -0.323225
vn 0.436658 0.899628 -0.000000
vn 0.436658 0.899628 -0.000000
vn 0.761726 -0.279956 0.584292
vn 0.891003 -0.318809 0.323225
vn -0.332031 -0.158198 0.929908
vn -0.332031 -0.158198 0.929908
vn -0.852376 0.503492 0.141249
vn -0.839774 0.521271 -0.151846
vn -0.249745 0.032738 0.967758
vn -0.249745 0.032738 0.967758
vn 0.669304 -0.250462 0.699500
vn 0.904695 -0.352710 0.239005
vn 0.888658 -0.356934 -0.287900
vn 0.180227 -0.175959 -0.967759
vn 0.180227 -0.175959 -0.967759
vn -0.610851 0.370897 -0.699498
vn -0.836805 0.492577 -0.239007
vn -0.830200 0.477363 0.287911
s 1
g AxeLog Axe_Head
usemtl initialShadingGroup
f 31/57/19 32/55/20 22/35/21 21/58/22
s 2
f 27/67/23 28/65/24 24/39/25 23/68/26
s 3
f 23/68/27 24/39/28 34/41/29 35/51/30
s 4
f 25/52/31 26/44/32 29/59/33 30/62/34
s 5
f 28/38/35 33/47/36 34/53/37 24/66/38
s 6
f 35/42/39 36/48/40 27/37/41 23/40/42
s 2
f 21/58/43 22/35/44 28/65/24 27/67/23
s 5
f 32/34/45 33/47/36 28/38/35 22/56/46
s 4
f 30/61/34 29/60/33 20/49/47 19/63/48
s 6
f 27/37/41 36/48/40 31/33/49 21/36/50
s 1
f 19/63/51 20/49/52 32/55/20 31/57/19
s 5
f 20/64/53 29/45/54 33/47/36 32/34/45
f 34/53/37 33/47/36 29/45/54 26/54/55
s 3
f 35/51/30 34/41/29 26/44/56 25/52/57
s 6
f 25/43/58 30/46/59 36/48/40 35/42/39
f 31/33/49 36/48/40 30/46/59 19/50/60
g default
v 2.673760 -0.108033 -1.498887
v 1.548280 -0.108033 -2.624362
v -0.670474 -0.108033 -3.036310
v -1.526568 -0.108033 -2.624362
v -2.652037 -0.108033 -1.498887
v -3.063991 -0.108033 0.038538
v -2.652037 -0.108033 1.575963
v -1.526568 -0.108033 2.701435
v 0.010854 -0.108033 3.113389
v 1.548280 -0.108033 2.701435
v 2.673760 -0.108033 1.575963
v 3.085712 -0.108033 0.038538
v 2.673760 3.503844 -1.498887
v 1.548280 3.503844 -2.624362
v 0.010854 3.503844 -3.036310
v -1.526568 3.503844 -2.624362
v -2.652037 3.503844 -1.498887
v -3.063991 3.503844 0.038538
v -2.652037 3.503844 1.575963
v -1.526568 3.503844 2.701435
v 0.010854 3.503844 3.113389
v 1.548280 3.503844 2.701435
v 2.673760 3.503844 1.575963
v 3.085712 3.503844 0.038538
v 0.010854 -0.108033 0.038538
v 0.010854 3.503844 0.038538
v 2.673760 0.614343 -1.498887
v 1.553655 0.362147 -2.624362
v 0.400920 0.941160 -3.036310
v -1.526568 0.614343 -2.624362
v -2.652037 1.172216 -1.498887
v -3.063991 0.614343 0.038538
v -2.652037 0.614343 1.575963
v -1.526568 0.614343 2.701435
v 0.010854 0.614343 3.113389
v 1.548280 0.614343 2.701435
v 2.673760 1.239876 1.575963
v 3.085712 0.614343 0.038538
v 1.472008 -0.108033 -4.164916
v 0.912707 -0.108033 -4.576870
v 0.849779 0.156469 -4.311639
v 1.190997 0.168632 -3.692087
v -4.226003 -0.108033 -1.758857
v -4.878086 -0.108033 -1.654495
v -4.202478 0.386812 -1.267793
v -3.812980 0.386812 -1.591097
v 2.727127 -0.108033 4.306693
v 3.051160 -0.108033 3.468588
v 2.665034 0.269556 2.754817
v 2.727127 0.169004 3.880289
vt 0.201270 0.740284
vt 0.563683 0.295797
vt 0.274917 0.974454
vt 0.199356 0.973844
vt 0.676045 0.335897
vt 0.350469 0.975149
vt 0.428395 0.742093
vt 0.426011 0.975835
vt 0.690721 0.643740
vt 0.501547 0.976635
vt 0.777161 0.614531
vt 0.577097 0.977427
vt 0.655074 0.744656
vt 0.652656 0.978216
vt 0.730640 0.745441
vt 0.728217 0.979003
vt 0.806204 0.746226
vt 0.803779 0.979789
vt 0.375521 0.537054
vt 0.879342 0.980576
vt 0.442338 0.644291
vt 0.954906 0.981362
vt 0.125703 0.739668
vt 0.123793 0.973231
vt 0.768786 0.181507
vt 0.114469 0.067954
vt 0.181323 0.195393
vt 0.805476 0.242141
vt 0.053884 0.262248
vt 0.686461 0.437825
vt 0.818835 0.568183
vt 0.248178 0.322832
vt 0.302941 0.272332
vt 0.325116 0.201215
vt 0.481749 0.280798
vt 0.548371 0.533422
vt 0.187145 0.051600
vt 0.175192 0.523636
vt 0.609903 0.167151
vt 0.661978 0.154598
vt 0.659763 0.194360
vt 0.615379 0.222789
vt 0.697288 0.507947
vt 0.724719 0.487492
vt 0.726814 0.544005
vt 0.704953 0.556257
vt 0.425758 0.383578
vt 0.473800 0.427335
vt 0.460060 0.500916
vt 0.428785 0.428189
vt 0.150926 0.402620
vt 0.214684 0.406700
vt 0.093669 0.430966
vt 0.058256 0.484143
vt 0.054176 0.547902
vt 0.082522 0.605159
vt 0.135699 0.640571
vt 0.199458 0.644651
vt 0.256715 0.616305
vt 0.292127 0.563128
vt 0.296207 0.499370
vt 0.267861 0.442113
vt 0.126178 0.681276
vt 0.201746 0.681892
vt 0.258262 0.073776
vt 0.308762 0.128539
vt 0.806811 0.687835
vt 0.731247 0.687050
vt 0.655681 0.686265
vt 0.175501 0.339186
vt 0.104385 0.317010
vt 0.429515 0.683629
vt 0.036241 0.221433
vt 0.059706 0.118455
vt 0.881769 0.747012
vt 0.956808 0.798361
vt 0.503466 0.788184
vt 0.579506 0.743872
vt 0.276826 0.720516
vt 0.334554 0.767809
vt 0.050612 0.680660
vt 0.882376 0.688621
vt 0.580115 0.685480
vt 0.504981 0.684884
vt 0.384504 0.682676
vt 0.277315 0.682510
vt 0.049724 0.789616
vt 0.048229 0.972616
vt 0.368810 0.235946
vt 0.379187 0.289781
vt 0.459981 0.375443
vt 0.319008 0.470429
vt 0.754539 0.470326
vt 0.785531 0.474158
vt 0.725385 0.373405
vt 0.633335 0.553479
vt 0.872092 0.185972
vt 0.903060 0.151194
vt 0.810047 0.035958
vt 0.526253 0.248790
vn 0.859196 0.000087 -0.511647
vn 0.638388 0.119976 -0.760307
vn 0.485819 0.427951 -0.762127
vn 0.792010 0.398462 -0.462546
vn 0.010465 0.108945 -0.993993
vn -0.007838 0.416276 -0.909204
vn -0.482443 0.019406 -0.875712
vn -0.426744 0.405514 -0.808361
vn -0.844633 0.076393 -0.529867
vn -0.777446 0.440573 -0.448858
vn -0.977887 0.126740 0.166355
vn -0.906388 0.422268 0.012317
vn -0.866026 0.000000 0.500000
vn -0.791693 0.405336 0.457084
vn -0.500001 0.000000 0.866025
vn -0.457085 0.405336 0.791692
vn 0.000000 0.000000 1.000000
vn 0.000000 0.405336 0.914168
vn 0.352469 0.179833 0.918382
vn 0.440661 0.424404 0.791011
vn 0.879755 0.049591 0.472833
vn 0.775458 0.445217 0.447713
vn 0.999728 -0.000000 -0.023331
vn 0.905366 0.424404 -0.013881
vn 0.173418 -0.977913 -0.116671
vn 0.401908 -0.889333 -0.218074
vn -0.000000 -1.000000 -0.000000
vn -0.233181 -0.866875 -0.440629
vn -0.359480 -0.755639 -0.547525
vn -0.162684 -0.916178 -0.366268
vn -0.361298 -0.908728 0.208988
vn -0.425343 -0.871079 0.245571
vn -0.245572 -0.871079 0.425342
vn -0.000000 -0.871079 0.491143
vn -0.056859 -0.959568 0.275676
vn 0.481593 -0.874100 0.063386
vn 0.565422 -0.824361 0.026962
vn 0.000000 1.000000 0.000000
vn 0.128655 -0.989998 -0.057889
vn -0.241484 -0.905934 -0.347806
vn -0.310816 0.742088 -0.593885
vn 0.620813 0.726856 -0.293721
vn -0.014613 -0.938779 -0.344210
vn -0.533851 -0.794341 0.289871
vn -0.688074 0.624075 0.370250
vn -0.238609 0.688519 -0.684841
vn -0.224693 -0.901368 0.370201
vn 0.306065 -0.951917 0.013360
vn 0.721329 0.658709 0.213980
vn -0.185799 0.731708 0.655807
s 1
g AxeLog Log
usemtl initialShadingGroup
f 63/69/61 64/147/62 50/71/63 49/72/64
f 64/147/62 65/148/65 51/74/66 50/71/63
f 65/148/65 66/75/67 52/76/68 51/74/66
f 66/75/67 67/145/69 53/78/70 52/76/68
f 67/145/69 68/146/71 54/80/72 53/78/70
f 68/146/71 69/81/73 55/82/74 54/80/72
f 69/81/73 70/83/75 56/84/76 55/82/74
f 70/83/75 71/85/77 57/86/78 56/84/76
f 71/85/77 72/143/79 58/88/80 57/86/78
f 72/143/79 73/144/81 59/90/82 58/88/80
f 73/155/81 74/91/83 60/92/84 59/156/82
f 74/91/83 63/69/61 49/72/64 60/92/84
f 38/142/85 37/94/86 61/95/87
f 39/141/88 38/142/85 61/95/87
f 40/97/89 39/141/88 61/95/87
f 41/139/90 40/97/89 61/95/87
f 42/138/91 41/139/90 61/95/87
f 43/100/92 42/138/91 61/95/87
f 44/101/93 43/100/92 61/95/87
f 45/102/94 44/101/93 61/95/87
f 46/134/95 45/102/94 61/95/87
f 47/133/96 46/134/95 61/95/87
f 48/105/97 47/133/96 61/95/87
f 37/94/86 48/105/97 61/95/87
f 49/120/64 50/130/63 62/106/98
f 50/130/63 51/129/66 62/106/98
f 51/129/66 52/128/68 62/106/98
f 52/128/68 53/127/70 62/106/98
f 53/127/70 54/126/72 62/106/98
f 54/126/72 55/125/74 62/106/98
f 55/125/74 56/124/76 62/106/98
f 56/124/76 57/123/78 62/106/98
f 57/123/78 58/122/80 62/106/98
f 58/122/80 59/121/82 62/106/98
f 59/121/82 60/119/84 62/106/98
f 60/119/84 49/120/64 62/106/98
f 37/132/86 38/154/85 64/147/62 63/69/61
f 75/107/99 76/108/100 77/109/101 78/110/102
f 39/153/88 40/140/89 66/75/67 65/148/65
f 40/140/89 41/152/90 67/145/69 66/75/67
f 79/111/103 80/112/104 81/113/105 82/114/106
f 42/151/91 43/137/92 69/81/73 68/146/71
f 43/137/92 44/136/93 70/83/75 69/81/73
f 44/136/93 45/135/94 71/85/77 70/83/75
f 45/135/94 46/150/95 72/143/79 71/85/77
f 83/115/107 84/116/108 85/117/109 86/118/110
f 47/149/96 48/131/97 74/91/83 73/155/81
f 48/131/97 37/132/86 63/69/61 74/91/83
f 38/93/85 39/167/88 76/166/100 75/165/99
f 39/96/88 65/73/65 77/109/101 76/108/100
f 65/73/65 64/70/62 78/110/102 77/109/101
f 64/70/62 38/168/85 75/107/99 78/110/102
f 41/98/90 42/163/91 80/162/104 79/161/103
f 42/99/91 68/79/71 81/113/105 80/112/104
f 68/79/71 67/77/69 82/114/106 81/113/105
f 67/77/69 41/164/90 79/111/103 82/114/106
f 46/103/95 47/159/96 84/158/108 83/157/107
f 47/104/96 73/89/81 85/117/109 84/116/108
f 73/89/81 72/87/79 86/118/110 85/117/109
f 72/87/79 46/160/95 83/115/107 86/118/110
