# This file uses centimeters as units for non-parametric coordinates.

mtllib Big tent.mtl
g default
v -15.934483 9.303783 13.550575
v 15.611927 9.303783 13.550575
v -15.934483 9.376124 13.550575
v 15.611927 9.376124 13.550575
v -15.934483 9.376124 -13.881591
v 15.611927 9.376124 -13.881591
v -15.934483 9.303783 -13.881591
v 15.611927 9.303783 -13.881591
v -0.161277 17.790104 13.550575
v -0.161277 17.790104 -13.881591
v -0.161277 17.862446 -13.881591
v -0.161277 17.862446 13.550575
v 3.694340 14.774405 13.550575
v 3.694340 14.846745 13.550575
v 3.694340 14.846745 -13.881591
v 3.694340 14.774405 -13.881591
v 9.999828 11.254071 13.550575
v 9.999828 11.326410 13.550575
v 9.999828 11.326410 -13.881591
v 9.999828 11.254071 -13.881591
v -4.573532 14.785491 13.550575
v -4.573532 14.785491 -13.881591
v -4.573532 14.857828 -13.881591
v -4.573532 14.857828 13.550575
v -10.363573 11.674164 13.550575
v -10.363573 11.674164 -13.881591
v -10.363573 11.746503 -13.881591
v -10.363573 11.746503 13.550575
vt 0.505769 0.952573
vt 0.505769 0.953420
vt 0.454307 0.091230
vt 0.437805 0.956137
vt 0.499528 0.492870
vt 0.417145 0.494222
vt 0.499654 0.432876
vt 0.439129 0.431700
vt 0.228936 0.981949
vt 0.253320 0.420050
vt 0.164231 0.510230
vt 0.228924 0.980762
vt 0.746681 0.425289
vt 0.783188 0.971155
vt 0.783201 0.971021
vt 0.835769 0.503097
vt 0.583586 0.955139
vt 0.568989 0.433517
vt 0.593903 0.491809
vt 0.583589 0.954179
vt 0.373001 0.082683
vt 0.327136 0.967851
vt 0.283110 0.499619
vt 0.340658 0.427709
vt 0.685413 0.962256
vt 0.717307 0.493366
vt 0.717319 0.494586
vt 0.685421 0.961187
vt 0.659659 0.431443
vt 0.593899 0.490680
vt 0.636226 0.087082
vt 0.561412 0.092415
vt 0.499529 0.491872
vt 0.504239 0.093608
vt 0.283123 0.498395
vt 0.164250 0.510404
vt 0.164250 0.508899
vt 0.327144 0.968946
vt 0.228936 0.980930
vt 0.300846 0.073027
vt 0.417150 0.493160
vt 0.437808 0.957078
vt 0.835750 0.501827
vt 0.835750 0.503240
vt 0.783188 0.972142
vt 0.708063 0.079559
vn 0.000000 0.000000 1.000000
vn 0.000000 0.000000 1.000000
vn 0.000000 0.000000 1.000000
vn 0.000000 0.000000 1.000000
vn 0.001341 0.999999 0.000000
vn 0.001341 0.999999 0.000000
vn 0.540986 0.841032 0.000000
vn 0.540986 0.841032 0.000000
vn 0.000000 0.000000 -1.000000
vn 0.000000 0.000000 -1.000000
vn 0.000000 0.000000 -1.000000
vn 0.000000 0.000000 -1.000000
vn -0.001341 -0.999999 0.000000
vn -0.001341 -0.999999 0.000000
vn -0.540986 -0.841032 0.000000
vn -0.540986 -0.841032 0.000000
vn 1.000000 0.000000 0.000000
vn 1.000000 0.000000 0.000000
vn 1.000000 0.000000 0.000000
vn 1.000000 0.000000 0.000000
vn -1.000000 0.000000 0.000000
vn -1.000000 0.000000 0.000000
vn -1.000000 0.000000 0.000000
vn -1.000000 0.000000 0.000000
vn 0.514160 -0.857695 0.000000
vn 0.514160 -0.857695 0.000000
vn 0.000000 0.000000 -1.000000
vn 0.000000 0.000000 -1.000000
vn -0.514160 0.857694 0.000000
vn -0.514160 0.857694 0.000000
vn 0.000000 0.000000 1.000000
vn 0.000000 0.000000 1.000000
vn 0.000000 0.000000 1.000000
vn 0.000000 0.000000 1.000000
vn 0.417184 0.908822 0.000000
vn 0.417184 0.908822 0.000000
vn 0.000000 0.000000 -1.000000
vn 0.000000 0.000000 -1.000000
vn -0.417184 -0.908822 0.000000
vn -0.417184 -0.908822 0.000000
vn 0.000000 0.000000 1.000000
vn 0.000000 0.000000 1.000000
vn 0.328258 0.944588 0.000000
vn 0.328258 0.944588 0.000000
vn 0.000000 0.000000 -1.000000
vn 0.000000 0.000000 -1.000000
vn -0.328258 -0.944588 0.000000
vn -0.328258 -0.944588 0.000000
vn 0.434563 -0.900641 0.000000
vn 0.434563 -0.900641 0.000000
vn -0.000000 0.000000 -1.000000
vn -0.000000 0.000000 -1.000000
vn -0.434563 0.900641 0.000000
vn -0.434563 0.900641 0.000000
vn -0.000000 0.000000 1.000000
vn -0.000000 0.000000 1.000000
vn 0.391524 -0.920168 0.000000
vn 0.391524 -0.920168 0.000000
vn -0.000000 0.000000 -1.000000
vn -0.000000 0.000000 -1.000000
vn -0.391524 0.920168 0.000000
vn -0.391524 0.920168 0.000000
vn -0.000000 0.000000 1.000000
vn -0.000000 0.000000 1.000000
s 1
g Big_Tent_Cloth Big_Tent
usemtl initialShadingGroup
f 12/1/1 9/2/2 13/42/3 14/4/4
s 2
f 11/5/5 12/1/6 14/4/7 15/6/8
s 3
f 10/33/9 11/5/10 15/6/11 16/41/12
s 4
f 9/34/13 10/7/14 16/8/15 13/3/16
s off
f 2/39/17 8/36/18 6/11/19 4/12/20
f 7/44/21 1/14/22 3/15/23 5/16/24
s 4
f 21/32/25 22/18/26 10/7/14 9/34/13
s 3
f 22/30/27 23/19/28 11/5/10 10/33/9
s 2
f 23/19/29 24/20/30 12/1/6 11/5/5
s 1
f 24/20/31 21/17/32 9/2/2 12/1/1
f 14/4/4 13/42/3 17/38/33 18/22/34
s 2
f 15/6/8 14/4/7 18/22/35 19/23/36
s 3
f 16/41/12 15/6/11 19/23/37 20/35/38
s 4
f 13/3/16 16/8/15 20/24/39 17/21/40
s 1
f 18/22/34 17/38/33 2/9/41 4/12/42
s 2
f 19/23/36 18/22/35 4/12/43 6/11/44
s 3
f 20/35/38 19/23/37 6/11/45 8/37/46
s 4
f 17/21/40 20/24/39 8/10/47 2/40/48
f 25/31/49 26/29/50 22/18/26 21/32/25
s 3
f 26/26/51 27/27/52 23/19/28 22/30/27
s 2
f 27/27/53 28/28/54 24/20/30 23/19/29
s 1
f 28/28/55 25/25/56 21/17/32 24/20/31
s 4
f 7/13/57 26/29/50 25/31/49 1/46/58
s 3
f 5/16/59 27/27/52 26/26/51 7/43/60
s 2
f 3/15/61 28/28/54 27/27/53 5/16/62
s 1
f 1/45/63 25/25/56 28/28/55 3/15/64
g default
v 0.075589 -1.728162 12.652011
v -0.144168 -1.728162 12.560985
v -0.363925 -1.728162 12.652011
v -0.454951 -1.728162 12.871768
v -0.363925 -1.728162 13.091525
v -0.144168 -1.728162 13.182552
v 0.075589 -1.728162 13.091525
v 0.166615 -1.728162 12.871768
v 0.075589 18.185314 12.652011
v -0.144168 18.185314 12.560985
v -0.363925 18.185314 12.652011
v -0.454951 18.185314 12.871768
v -0.363925 18.185314 13.091525
v -0.144168 18.185314 13.182552
v 0.075589 18.185314 13.091525
v 0.166615 18.185314 12.871768
v -0.144168 -1.728162 12.871768
v -0.144168 18.185314 12.871768
v 0.075589 -1.728162 -13.400666
v -0.144168 -1.728162 -13.491694
v -0.363925 -1.728162 -13.400666
v -0.454951 -1.728162 -13.180909
v -0.363925 -1.728162 -12.961152
v -0.144168 -1.728162 -12.870124
v 0.075589 -1.728162 -12.961152
v 0.166615 -1.728162 -13.180909
v 0.075589 18.185314 -13.400666
v -0.144168 18.185314 -13.491694
v -0.363925 18.185314 -13.400666
v -0.454951 18.185314 -13.180909
v -0.363925 18.185314 -12.961152
v -0.144168 18.185314 -12.870124
v 0.075589 18.185314 -12.961152
v 0.166615 18.185314 -13.180909
v -0.144168 -1.728162 -13.180909
v -0.144168 18.185314 -13.180909
v 15.104413 -2.121575 12.652011
v 14.884656 -2.121575 12.560985
v 14.664899 -2.121575 12.652011
v 14.573872 -2.121575 12.871768
v 14.664899 -2.121575 13.091525
v 14.884656 -2.121575 13.182552
v 15.104413 -2.121575 13.091525
v 15.195439 -2.121575 12.871768
v 15.104413 11.164630 12.652011
v 14.884656 11.164630 12.560985
v 14.664899 11.164630 12.652011
v 14.573872 11.164630 12.871768
v 14.664899 11.164630 13.091525
v 14.884656 11.164630 13.182552
v 15.104413 11.164630 13.091525
v 15.195439 11.164630 12.871768
v 14.884656 -2.121575 12.871768
v 14.884656 11.164630 12.871768
v 15.104413 -2.121575 -13.400666
v 14.884656 -2.121575 -13.491694
v 14.664899 -2.121575 -13.400666
v 14.573872 -2.121575 -13.180909
v 14.664899 -2.121575 -12.961152
v 14.884656 -2.121575 -12.870124
v 15.104413 -2.121575 -12.961152
v 15.195439 -2.121575 -13.180909
v 15.104413 11.164630 -13.400666
v 14.884656 11.164630 -13.491694
v 14.664899 11.164630 -13.400666
v 14.573872 11.164630 -13.180909
v 14.664899 11.164630 -12.961152
v 14.884656 11.164630 -12.870124
v 15.104413 11.164630 -12.961152
v 15.195439 11.164630 -13.180909
v 14.884656 -2.121575 -13.180909
v 14.884656 11.164630 -13.180909
v -14.889270 -2.121575 12.652011
v -15.109027 -2.121575 12.560985
v -15.328784 -2.121575 12.652011
v -15.419810 -2.121575 12.871768
v -15.328784 -2.121575 13.091525
v -15.109027 -2.121575 13.182552
v -14.889270 -2.121575 13.091525
v -14.798244 -2.121575 12.871768
v -14.889270 11.164630 12.652011
v -15.109027 11.164630 12.560985
v -15.328784 11.164630 12.652011
v -15.419810 11.164630 12.871768
v -15.328784 11.164630 13.091525
v -15.109027 11.164630 13.182552
v -14.889270 11.164630 13.091525
v -14.798244 11.164630 12.871768
v -15.109027 -2.121575 12.871768
v -15.109027 11.164630 12.871768
v -14.889270 -2.121575 -13.400666
v -15.109027 -2.121575 -13.491694
v -15.328784 -2.121575 -13.400666
v -15.419810 -2.121575 -13.180909
v -15.328784 -2.121575 -12.961152
v -15.109027 -2.121575 -12.870124
v -14.889270 -2.121575 -12.961152
v -14.798244 -2.121575 -13.180909
v -14.889270 11.164630 -13.400666
v -15.109027 11.164630 -13.491694
v -15.328784 11.164630 -13.400666
v -15.419810 11.164630 -13.180909
v -15.328784 11.164630 -12.961152
v -15.109027 11.164630 -12.870124
v -14.889270 11.164630 -12.961152
v -14.798244 11.164630 -13.180909
v -15.109027 -2.121575 -13.180909
v -15.109027 11.164630 -13.180909
vt 0.920198 0.526522
vt 0.923805 0.530275
vt 0.915226 0.965976
vt 0.911474 0.969584
vt 0.929010 0.530377
vt 0.920431 0.966078
vt 0.932762 0.526770
vt 0.924038 0.969831
vt 0.932865 0.521565
vt 0.923936 0.975035
vt 0.929257 0.517813
vt 0.920183 0.978643
vt 0.924053 0.517710
vt 0.914979 0.978540
vt 0.920300 0.521318
vt 0.911371 0.974788
vt 0.926531 0.524044
vt 0.917705 0.972309
vt 0.933584 0.522429
vt 0.929987 0.518685
vt 0.920782 0.978297
vt 0.924526 0.974700
vt 0.924796 0.518581
vt 0.915591 0.978193
vt 0.921053 0.522178
vt 0.911994 0.974449
vt 0.920949 0.527369
vt 0.912098 0.969258
vt 0.924545 0.531113
vt 0.915842 0.965662
vt 0.929736 0.531217
vt 0.921033 0.965765
vt 0.933480 0.527620
vt 0.924630 0.969509
vt 0.927266 0.524899
vt 0.918312 0.971979
vt 0.085265 0.086903
vt 0.089620 0.091269
vt 0.089169 0.435730
vt 0.084803 0.440085
vt 0.095787 0.091277
vt 0.095336 0.435738
vt 0.100153 0.086922
vt 0.099691 0.440104
vt 0.100161 0.080756
vt 0.099683 0.446271
vt 0.095806 0.076389
vt 0.095317 0.450626
vt 0.089639 0.076381
vt 0.089150 0.450618
vt 0.085273 0.080736
vt 0.084795 0.446251
vt 0.092713 0.083829
vt 0.092243 0.443178
vt 0.909442 0.102966
vt 0.903290 0.103052
vt 0.908485 0.476397
vt 0.914638 0.476311
vt 0.899000 0.107462
vt 0.904075 0.472107
vt 0.899086 0.113615
vt 0.903989 0.465955
vt 0.903496 0.117904
vt 0.908279 0.461544
vt 0.909649 0.117819
vt 0.914431 0.461459
vt 0.913938 0.113408
vt 0.918842 0.465748
vt 0.913853 0.107256
vt 0.918927 0.471901
vt 0.906469 0.110435
vt 0.911458 0.468928
vt 0.904076 0.119709
vt 0.910133 0.119643
vt 0.913777 0.459828
vt 0.907720 0.459894
vt 0.914369 0.115291
vt 0.918106 0.464088
vt 0.914304 0.109200
vt 0.918171 0.470178
vt 0.909975 0.104940
vt 0.913934 0.474531
vt 0.903919 0.105006
vt 0.907878 0.474597
vt 0.899682 0.109359
vt 0.903549 0.470337
vt 0.899747 0.115449
vt 0.903484 0.464246
vt 0.907026 0.112325
vt 0.910827 0.467212
vt 0.100774 0.080991
vt 0.096430 0.076604
vt 0.094592 0.451329
vt 0.098980 0.446984
vt 0.090255 0.076573
vt 0.088417 0.451298
vt 0.085867 0.080918
vt 0.084072 0.446911
vt 0.085836 0.087093
vt 0.084102 0.440736
vt 0.090181 0.091481
vt 0.088490 0.436391
vt 0.096356 0.091511
vt 0.094665 0.436421
vt 0.100744 0.087166
vt 0.099010 0.440809
vt 0.093305 0.084042
vt 0.091541 0.443860
vt 0.139581 0.091723
vt 0.137889 0.436633
vt 0.100840 0.436451
vt 0.107015 0.436481
vt 0.131714 0.436603
vt 0.125540 0.436572
vt 0.119365 0.436542
vt 0.113190 0.436512
vt 0.102531 0.091542
vt 0.108706 0.091572
vt 0.133406 0.091693
vt 0.127231 0.091663
vt 0.121056 0.091632
vt 0.114881 0.091602
vt 0.861680 0.120168
vt 0.865324 0.460353
vt 0.901663 0.459959
vt 0.895607 0.460025
vt 0.889550 0.460090
vt 0.883494 0.460156
vt 0.877437 0.460222
vt 0.871380 0.460287
vt 0.898020 0.119775
vt 0.891963 0.119840
vt 0.885906 0.119906
vt 0.879850 0.119971
vt 0.873793 0.120037
vt 0.867737 0.120103
vt 0.860431 0.118504
vt 0.865213 0.462144
vt 0.877518 0.461972
vt 0.883670 0.461887
vt 0.871366 0.462058
vt 0.902127 0.461630
vt 0.895975 0.461716
vt 0.889822 0.461801
vt 0.872735 0.118332
vt 0.878888 0.118247
vt 0.866583 0.118418
vt 0.897344 0.117990
vt 0.891192 0.118076
vt 0.885040 0.118161
vt 0.138955 0.091334
vt 0.138504 0.435794
vt 0.126171 0.435778
vt 0.132338 0.435786
vt 0.120004 0.435770
vt 0.113837 0.435762
vt 0.107670 0.435754
vt 0.101503 0.435746
vt 0.126621 0.091318
vt 0.132788 0.091326
vt 0.120454 0.091310
vt 0.114287 0.091302
vt 0.108121 0.091293
vt 0.101954 0.091285
vt 0.966070 0.531944
vt 0.957367 0.966493
vt 0.926224 0.965869
vt 0.931414 0.965973
vt 0.952177 0.966389
vt 0.946986 0.966285
vt 0.941795 0.966181
vt 0.936605 0.966077
vt 0.934927 0.531321
vt 0.940117 0.531425
vt 0.960880 0.531840
vt 0.955689 0.531736
vt 0.950498 0.531632
vt 0.945308 0.531529
vt 0.965440 0.531095
vt 0.956861 0.966796
vt 0.946453 0.966591
vt 0.951657 0.966693
vt 0.941248 0.966488
vt 0.936044 0.966386
vt 0.930839 0.966283
vt 0.925635 0.966181
vt 0.955032 0.530890
vt 0.960236 0.530992
vt 0.949827 0.530787
vt 0.944623 0.530685
vt 0.939418 0.530582
vt 0.934214 0.530480
vn 0.707095 -0.005852 -0.707094
vn 0.000000 -0.005852 -0.999983
vn 0.000000 0.005853 -0.999983
vn 0.707095 0.005853 -0.707094
vn -0.707095 -0.005853 -0.707094
vn -0.707095 0.005853 -0.707094
vn -0.999983 -0.005853 0.000000
vn -0.999983 0.005853 0.000000
vn -0.707095 -0.005853 0.707094
vn -0.707095 0.005853 0.707094
vn 0.000000 -0.005853 0.999983
vn 0.000000 0.005852 0.999983
vn 0.707095 -0.005853 0.707094
vn 0.707095 0.005852 0.707094
vn 0.999983 -0.005853 0.000000
vn 0.999983 0.005853 -0.000000
vn 0.000000 -1.000000 0.000000
vn 0.000000 1.000000 0.000000
vn 0.707097 -0.005853 -0.707093
vn 0.000000 -0.005852 -0.999983
vn 0.000000 0.005852 -0.999983
vn 0.707097 0.005853 -0.707093
vn -0.707097 -0.005853 -0.707093
vn -0.707097 0.005853 -0.707093
vn -0.999983 -0.005853 0.000000
vn -0.999983 0.005853 0.000000
vn -0.707097 -0.005853 0.707093
vn -0.707097 0.005853 0.707093
vn 0.000000 -0.005852 0.999983
vn 0.000000 0.005852 0.999983
vn 0.707097 -0.005853 0.707093
vn 0.707097 0.005853 0.707093
vn 0.999983 -0.005853 0.000000
vn 0.999983 0.005853 -0.000000
vn 0.000000 -1.000000 0.000000
vn 0.000000 1.000000 0.000000
vn 0.707076 -0.008772 -0.707083
vn 0.000000 -0.008771 -0.999962
vn 0.000000 0.008771 -0.999962
vn 0.707076 0.008772 -0.707083
vn -0.707076 -0.008771 -0.707083
vn -0.707076 0.008771 -0.707083
vn -0.999962 -0.008772 0.000000
vn -0.999962 0.008772 0.000000
vn -0.707081 -0.008771 0.707078
vn -0.707081 0.008771 0.707078
vn 0.000000 -0.008771 0.999962
vn 0.000000 0.008771 0.999962
vn 0.707081 -0.008772 0.707078
vn 0.707081 0.008772 0.707078
vn 0.999962 -0.008772 0.000000
vn 0.999962 0.008772 0.000000
vn 0.000000 -1.000000 0.000000
vn 0.000000 1.000000 0.000000
vn 0.707083 -0.008772 -0.707077
vn 0.000000 -0.008771 -0.999962
vn 0.000000 0.008771 -0.999962
vn 0.707083 0.008771 -0.707077
vn -0.707083 -0.008772 -0.707077
vn -0.707083 0.008772 -0.707077
vn -0.999962 -0.008772 0.000000
vn -0.999962 0.008772 0.000000
vn -0.707081 -0.008772 0.707078
vn -0.707081 0.008772 0.707078
vn 0.000000 -0.008771 0.999962
vn 0.000000 0.008771 0.999962
vn 0.707081 -0.008771 0.707078
vn 0.707081 0.008772 0.707078
vn 0.999962 -0.008772 0.000000
vn 0.999962 0.008772 0.000000
vn 0.000000 -1.000000 0.000000
vn 0.000000 1.000000 0.000000
vn 0.707076 -0.008772 -0.707083
vn 0.000000 -0.008772 -0.999962
vn 0.000000 0.008772 -0.999962
vn 0.707076 0.008772 -0.707083
vn -0.707076 -0.008772 -0.707083
vn -0.707076 0.008772 -0.707083
vn -0.999962 -0.008772 0.000000
vn -0.999962 0.008772 0.000000
vn -0.707081 -0.008772 0.707078
vn -0.707081 0.008772 0.707078
vn 0.000000 -0.008772 0.999962
vn 0.000000 0.008772 0.999962
vn 0.707081 -0.008772 0.707078
vn 0.707081 0.008772 0.707078
vn 0.999962 -0.008772 0.000000
vn 0.999962 0.008772 0.000000
vn 0.000000 -1.000000 0.000000
vn 0.000000 1.000000 0.000000
vn 0.707083 -0.008772 -0.707077
vn 0.000000 -0.008772 -0.999962
vn 0.000000 0.008772 -0.999962
vn 0.707083 0.008772 -0.707077
vn -0.707083 -0.008772 -0.707077
vn -0.707083 0.008772 -0.707077
vn -0.999962 -0.008772 0.000000
vn -0.999962 0.008772 0.000000
vn -0.707081 -0.008772 0.707078
vn -0.707081 0.008772 0.707078
vn 0.000000 -0.008772 0.999962
vn 0.000000 0.008772 0.999962
vn 0.707081 -0.008772 0.707078
vn 0.707081 0.008772 0.707078
vn 0.999962 -0.008772 0.000000
vn 0.999962 0.008772 0.000000
vn 0.000000 -1.000000 0.000000
vn 0.000000 1.000000 0.000000
s 1
g Big_Tent Big_Tent_Sticks
usemtl initialShadingGroup
f 29/234/65 30/225/66 38/226/67 37/228/68
f 30/48/66 31/51/69 39/52/70 38/49/67
f 31/51/69 32/238/71 40/232/72 39/52/70
f 32/238/71 33/237/73 41/231/74 40/232/72
f 33/237/73 34/236/75 42/230/76 41/231/74
f 34/236/75 35/235/77 43/229/78 42/230/76
f 35/235/77 36/233/79 44/227/80 43/229/78
f 36/233/79 29/234/65 37/228/68 44/227/80
f 30/48/66 29/47/65 45/63/81
f 31/51/69 30/48/66 45/63/81
f 32/53/71 31/51/69 45/63/81
f 33/55/73 32/53/71 45/63/81
f 34/57/75 33/55/73 45/63/81
f 35/59/77 34/57/75 45/63/81
f 36/61/79 35/59/77 45/63/81
f 29/47/65 36/61/79 45/63/81
f 37/50/68 38/49/67 46/64/82
f 38/49/67 39/52/70 46/64/82
f 39/52/70 40/54/72 46/64/82
f 40/54/72 41/56/74 46/64/82
f 41/56/74 42/58/76 46/64/82
f 42/58/76 43/60/78 46/64/82
f 43/60/78 44/62/80 46/64/82
f 44/62/80 37/50/68 46/64/82
s 2
f 47/220/83 48/224/84 56/218/85 55/214/86
f 48/224/84 49/223/87 57/217/88 56/218/85
f 49/223/87 50/222/89 58/216/90 57/217/88
f 50/222/89 51/221/91 59/215/92 58/216/90
f 51/221/91 52/211/93 60/212/94 59/215/92
f 52/75/93 53/77/95 61/78/96 60/76/94
f 53/77/95 54/219/97 62/213/98 61/78/96
f 54/219/97 47/220/83 55/214/86 62/213/98
f 48/66/84 47/65/83 63/81/99
f 49/69/87 48/66/84 63/81/99
f 50/71/89 49/69/87 63/81/99
f 51/73/91 50/71/89 63/81/99
f 52/75/93 51/73/91 63/81/99
f 53/77/95 52/75/93 63/81/99
f 54/79/97 53/77/95 63/81/99
f 47/65/83 54/79/97 63/81/99
f 55/68/86 56/67/85 64/82/100
f 56/67/85 57/70/88 64/82/100
f 57/70/88 58/72/90 64/82/100
f 58/72/90 59/74/92 64/82/100
f 59/74/92 60/76/94 64/82/100
f 60/76/94 61/78/96 64/82/100
f 61/78/96 62/80/98 64/82/100
f 62/80/98 55/68/86 64/82/100
s 3
f 65/206/101 66/197/102 74/198/103 73/200/104
f 66/84/102 67/87/105 75/88/106 74/85/103
f 67/87/105 68/210/107 76/204/108 75/88/106
f 68/210/107 69/209/109 77/203/110 76/204/108
f 69/209/109 70/208/111 78/202/112 77/203/110
f 70/208/111 71/207/113 79/201/114 78/202/112
f 71/207/113 72/205/115 80/199/116 79/201/114
f 72/205/115 65/206/101 73/200/104 80/199/116
f 66/84/102 65/83/101 81/99/117
f 67/87/105 66/84/102 81/99/117
f 68/89/107 67/87/105 81/99/117
f 69/91/109 68/89/107 81/99/117
f 70/93/111 69/91/109 81/99/117
f 71/95/113 70/93/111 81/99/117
f 72/97/115 71/95/113 81/99/117
f 65/83/101 72/97/115 81/99/117
f 73/86/104 74/85/103 82/100/118
f 74/85/103 75/88/106 82/100/118
f 75/88/106 76/90/108 82/100/118
f 76/90/108 77/92/110 82/100/118
f 77/92/110 78/94/112 82/100/118
f 78/94/112 79/96/114 82/100/118
f 79/96/114 80/98/116 82/100/118
f 80/98/116 73/86/104 82/100/118
s 4
f 83/192/119 84/196/120 92/190/121 91/186/122
f 84/196/120 85/195/123 93/189/124 92/190/121
f 85/195/123 86/194/125 94/188/126 93/189/124
f 86/194/125 87/109/127 95/110/128 94/188/126
f 87/109/127 88/111/129 96/112/130 95/110/128
f 88/183/129 89/193/131 97/187/132 96/184/130
f 89/193/131 90/191/133 98/185/134 97/187/132
f 90/191/133 83/192/119 91/186/122 98/185/134
f 84/102/120 83/101/119 99/117/135
f 85/105/123 84/102/120 99/117/135
f 86/107/125 85/105/123 99/117/135
f 87/109/127 86/107/125 99/117/135
f 88/111/129 87/109/127 99/117/135
f 89/113/131 88/111/129 99/117/135
f 90/115/133 89/113/131 99/117/135
f 83/101/119 90/115/133 99/117/135
f 91/104/122 92/103/121 100/118/136
f 92/103/121 93/106/124 100/118/136
f 93/106/124 94/108/126 100/118/136
f 94/108/126 95/110/128 100/118/136
f 95/110/128 96/112/130 100/118/136
f 96/112/130 97/114/132 100/118/136
f 97/114/132 98/116/134 100/118/136
f 98/116/134 91/104/122 100/118/136
s 5
f 101/119/137 102/120/138 110/121/139 109/122/140
f 102/169/138 103/182/141 111/176/142 110/170/139
f 103/182/141 104/181/143 112/175/144 111/176/142
f 104/181/143 105/180/145 113/174/146 112/175/144
f 105/180/145 106/179/147 114/173/148 113/174/146
f 106/179/147 107/178/149 115/172/150 114/173/148
f 107/178/149 108/177/151 116/171/152 115/172/150
f 108/177/151 101/119/137 109/122/140 116/171/152
f 102/120/138 101/119/137 117/135/153
f 103/123/141 102/120/138 117/135/153
f 104/125/143 103/123/141 117/135/153
f 105/127/145 104/125/143 117/135/153
f 106/129/147 105/127/145 117/135/153
f 107/131/149 106/129/147 117/135/153
f 108/133/151 107/131/149 117/135/153
f 101/119/137 108/133/151 117/135/153
f 109/122/140 110/121/139 118/136/154
f 110/121/139 111/124/142 118/136/154
f 111/124/142 112/126/144 118/136/154
f 112/126/144 113/128/146 118/136/154
f 113/128/146 114/130/148 118/136/154
f 114/130/148 115/132/150 118/136/154
f 115/132/150 116/134/152 118/136/154
f 116/134/152 109/122/140 118/136/154
s 6
f 119/164/155 120/168/156 128/162/157 127/158/158
f 120/168/156 121/167/159 129/161/160 128/162/157
f 121/167/159 122/166/161 130/160/162 129/161/160
f 122/166/161 123/165/163 131/159/164 130/160/162
f 123/165/163 124/155/165 132/156/166 131/159/164
f 124/147/165 125/149/167 133/150/168 132/148/166
f 125/149/167 126/163/169 134/157/170 133/150/168
f 126/163/169 119/164/155 127/158/158 134/157/170
f 120/138/156 119/137/155 135/153/171
f 121/141/159 120/138/156 135/153/171
f 122/143/161 121/141/159 135/153/171
f 123/145/163 122/143/161 135/153/171
f 124/147/165 123/145/163 135/153/171
f 125/149/167 124/147/165 135/153/171
f 126/151/169 125/149/167 135/153/171
f 119/137/155 126/151/169 135/153/171
f 127/140/158 128/139/157 136/154/172
f 128/139/157 129/142/160 136/154/172
f 129/142/160 130/144/162 136/154/172
f 130/144/162 131/146/164 136/154/172
f 131/146/164 132/148/166 136/154/172
f 132/148/166 133/150/168 136/154/172
f 133/150/168 134/152/170 136/154/172
f 134/152/170 127/140/158 136/154/172
