# This file uses centimeters as units for non-parametric coordinates.

mtllib bucket.mtl
g default
v 1.416594 0.000545 -0.699001
v 1.041461 0.000545 -1.215328
v 0.488748 0.000545 -1.534436
v -0.145980 0.000545 -1.601148
v -0.752960 0.000545 -1.403928
v -1.227235 0.000545 -0.976879
v -1.486823 0.000545 -0.393840
v -1.486823 0.000545 0.244376
v -1.227235 0.000545 0.827415
v -0.752960 0.000545 1.254465
v -0.145980 0.000545 1.451684
v 0.488748 0.000545 1.384973
v 1.041461 0.000545 1.065865
v 1.416594 0.000545 0.549537
v 1.549285 0.000545 -0.074732
v 1.758985 3.828863 -0.853289
v 1.291139 3.828863 -1.497228
v 0.601815 3.828863 -1.895204
v -0.189777 3.828863 -1.978404
v -0.946761 3.828863 -1.732441
v -1.538276 3.828863 -1.199846
v -1.862022 3.828863 -0.472708
v -1.862022 3.828863 0.323244
v -1.538280 3.828863 1.050382
v -0.946761 3.828863 1.582978
v -0.189777 3.828863 1.828940
v 0.601815 3.828863 1.745741
v 1.291139 3.828863 1.347765
v 1.758985 3.828863 0.703826
v 1.924465 3.828863 -0.074732
v 0.014455 0.000545 -0.074732
v 1.438883 3.828863 -0.709046
v 1.057715 3.828863 -1.233683
v 0.496101 3.828863 -1.557925
v -0.148831 3.828863 -1.625711
v -0.765574 3.828863 -1.425318
v -1.247487 3.828863 -0.991396
v -1.511255 3.828863 -0.398975
v -1.511255 3.828863 0.249511
v -1.247498 3.828863 0.841933
v -0.765574 3.828863 1.275855
v -0.148831 3.828863 1.476248
v 0.496101 3.828863 1.408462
v 1.057715 3.828863 1.084220
v 1.438883 3.828863 0.559583
v 1.573709 3.828863 -0.074732
v 1.150307 0.668394 -0.579009
v 0.847280 0.668394 -0.996093
v 0.017678 0.668394 -0.074732
v 0.400800 0.668394 -1.253865
v -0.111920 0.668394 -1.307755
v -0.602226 0.668394 -1.148443
v -0.985348 0.668394 -0.803476
v -1.195045 0.668394 -0.332504
v -1.195045 0.668394 0.183040
v -0.985355 0.668394 0.654013
v -0.602226 0.668394 0.998979
v -0.111920 0.668394 1.158291
v 0.400800 0.668394 1.104402
v 0.847280 0.668394 0.846630
v 1.150307 0.668394 0.429546
v 1.257492 0.668394 -0.074732
v 1.694538 3.108323 -0.824250
v 1.244144 3.108323 -1.444171
v 0.580537 3.108323 -1.827302
v -0.181533 3.108323 -1.907399
v -0.910284 3.108323 -1.670611
v -1.479733 3.108323 -1.157880
v -1.791405 3.108323 -0.457864
v -1.791405 3.108323 0.308400
v -1.479736 3.108323 1.008416
v -0.910284 3.108323 1.521147
v -0.181533 3.108323 1.757936
v 0.580537 3.108323 1.677840
v 1.244144 3.108323 1.294708
v 1.694538 3.108323 0.674787
v 1.853852 3.108323 -0.074732
v 1.662906 2.754633 -0.809996
v 1.221077 2.754633 -1.418127
v 0.570088 2.754633 -1.793972
v -0.177484 2.754633 -1.872545
v -0.892383 2.754633 -1.640260
v -1.450996 2.754633 -1.137281
v -1.756739 2.754633 -0.450577
v -1.756739 2.754633 0.301114
v -1.450999 2.754633 0.987817
v -0.892383 2.754633 1.490797
v -0.177484 2.754633 1.723082
v 0.570088 2.754633 1.644509
v 1.221077 2.754633 1.268663
v 1.662906 2.754633 0.660533
v 1.819189 2.754633 -0.074732
v 1.815403 2.738260 -0.877890
v 1.332771 2.738216 -1.542174
v 1.355838 3.091905 -1.568218
v 1.847035 3.091949 -0.892145
v 0.621672 2.738150 -1.952719
v 0.632118 3.091839 -1.986050
v -0.194932 2.738076 -2.038541
v -0.198977 3.091766 -2.073395
v -0.975833 2.738006 -1.784803
v -0.993734 3.091696 -1.815154
v -1.586019 2.737951 -1.235382
v -1.614756 3.091641 -1.255981
v -1.919988 2.737921 -0.485277
v -1.954654 3.091611 -0.492564
v -1.919988 2.737920 0.335813
v -1.954654 3.091610 0.343100
v -1.586023 2.737949 1.085918
v -1.614760 3.091640 1.106517
v -0.975833 2.738005 1.635339
v -0.993734 3.091695 1.665690
v -0.194932 2.738076 1.889077
v -0.198977 3.091766 1.923931
v 0.621672 2.738150 1.803256
v 0.632118 3.091840 1.836587
v 1.332771 2.738216 1.392711
v 1.355838 3.091905 1.418755
v 1.815403 2.738259 0.728427
v 1.847035 3.091949 0.742682
v 1.986119 2.738274 -0.074732
v 2.020785 3.091964 -0.074732
vt 0.628164 0.767389
vt 0.570279 0.765520
vt 0.573106 0.844522
vt 0.631231 0.849712
vt 0.512373 0.764525
vt 0.514818 0.841702
vt 0.454459 0.764409
vt 0.456464 0.841267
vt 0.396551 0.765174
vt 0.398142 0.843226
vt 0.338662 0.766825
vt 0.339949 0.847587
vt 0.280806 0.769364
vt 0.281987 0.854351
vt 0.222996 0.772789
vt 0.224354 0.863510
vt 0.165237 0.777085
vt 0.167151 0.875049
vt 0.107790 0.782582
vt 0.110473 0.888944
vt 0.051463 0.787698
vt 0.054417 0.905163
vt 0.859118 0.783751
vt 0.860193 0.893875
vt 0.801535 0.778315
vt 0.803672 0.879352
vt 0.743818 0.773757
vt 0.746609 0.867141
vt 0.686015 0.770132
vt 0.689096 0.857256
vt 0.592907 0.389195
vt 0.592228 0.435231
vt 0.484276 0.410616
vt 0.574802 0.346863
vt 0.541045 0.315554
vt 0.497471 0.300683
vt 0.451617 0.304820
vt 0.411409 0.327250
vt 0.383801 0.364095
vt 0.373565 0.408984
vt 0.382472 0.454155
vt 0.408983 0.491798
vt 0.448512 0.515404
vt 0.494225 0.520892
vt 0.538218 0.507311
vt 0.572883 0.477011
vt 0.264451 0.167042
vt 0.673106 0.083789
vt 0.154701 0.144241
vt 0.639502 0.084824
vt 0.605885 0.084457
vt 0.572312 0.082682
vt 0.538844 0.079495
vt 0.505541 0.074900
vt 0.472461 0.068900
vt 0.439665 0.061507
vt 0.407209 0.052736
vt 0.871208 0.048561
vt 0.838896 0.057848
vt 0.806226 0.065779
vt 0.773254 0.072347
vt 0.740039 0.077543
vt 0.683615 0.290658
vt 0.725793 0.287602
vt 0.641346 0.291959
vt 0.599060 0.291497
vt 0.556831 0.289264
vt 0.514733 0.285257
vt 0.472841 0.279476
vt 0.431231 0.271929
vt 0.389978 0.262629
vt 0.349153 0.251597
vt 0.932802 0.246345
vt 0.892159 0.258027
vt 0.851063 0.268003
vt 0.809589 0.276265
vt 0.767809 0.282800
vt 0.626685 0.804669
vt 0.569371 0.802818
vt 0.569881 0.777245
vt 0.627588 0.779107
vt 0.512035 0.801834
vt 0.512152 0.776255
vt 0.454689 0.801719
vt 0.454416 0.776140
vt 0.397347 0.802478
vt 0.396688 0.776905
vt 0.340023 0.804114
vt 0.338978 0.778553
vt 0.282729 0.806627
vt 0.281301 0.781085
vt 0.225478 0.810018
vt 0.223671 0.784504
vt 0.168270 0.814289
vt 0.166113 0.788765
vt 0.110907 0.819269
vt 0.108630 0.794154
vt 0.913559 0.827529
vt 0.916675 0.801304
vt 0.855479 0.820542
vt 0.858207 0.795444
vt 0.798356 0.815371
vt 0.800484 0.789989
vt 0.741193 0.810955
vt 0.742891 0.785449
vt 0.683964 0.807383
vt 0.685262 0.781840
vt 0.568977 0.814574
vt 0.626113 0.816418
vt 0.511818 0.813595
vt 0.454652 0.813483
vt 0.397489 0.814241
vt 0.340345 0.815873
vt 0.283231 0.818380
vt 0.226163 0.821762
vt 0.169158 0.826007
vt 0.112280 0.830952
vt 0.909210 0.838945
vt 0.853990 0.832090
vt 0.797257 0.827065
vt 0.740268 0.822681
vt 0.683214 0.819122
vt 0.315612 0.715721
vt 0.368256 0.722201
vt 0.263274 0.707112
vt 0.211329 0.696386
vt 0.159863 0.683554
vt 0.108965 0.668631
vt 0.841317 0.683149
vt 0.789894 0.696147
vt 0.737976 0.707008
vt 0.685654 0.715708
vt 0.633016 0.722234
vt 0.580153 0.726577
vt 0.527156 0.728738
vt 0.474115 0.728722
vt 0.421119 0.726539
vt 0.681168 0.909741
vt 0.625461 0.902477
vt 0.736535 0.919256
vt 0.791471 0.931012
vt 0.845882 0.944993
vt 0.070162 0.955861
vt 0.124127 0.940247
vt 0.178691 0.926870
vt 0.233760 0.915762
vt 0.289243 0.906944
vt 0.345044 0.900432
vt 0.401066 0.896233
vt 0.457213 0.894347
vt 0.513390 0.894767
vt 0.569504 0.897482
vt 0.307695 0.978261
vt 0.354707 0.977763
vt 0.260808 0.979691
vt 0.213946 0.980940
vt 0.167270 0.982105
vt 0.123273 0.989073
vt 0.775015 0.989541
vt 0.728840 0.983413
vt 0.682310 0.979457
vt 0.635568 0.977016
vt 0.588911 0.974845
vt 0.542110 0.974332
vt 0.495263 0.974613
vt 0.448411 0.975420
vt 0.401561 0.976543
vt 0.307299 0.956395
vt 0.353956 0.954746
vt 0.260399 0.956685
vt 0.213439 0.957817
vt 0.165788 0.958208
vt 0.827465 0.975582
vt 0.778773 0.966351
vt 0.731451 0.959999
vt 0.684116 0.955942
vt 0.636902 0.952434
vt 0.589387 0.951243
vt 0.542109 0.950882
vt 0.494971 0.951282
vt 0.447907 0.952208
vt 0.400904 0.953434
vt 0.343392 0.522442
vt 0.388089 0.527943
vt 0.298955 0.515132
vt 0.254852 0.506025
vt 0.211156 0.495131
vt 0.832906 0.481960
vt 0.789737 0.494787
vt 0.746077 0.505822
vt 0.701997 0.515044
vt 0.657573 0.522431
vt 0.612881 0.527971
vt 0.567999 0.531659
vt 0.523002 0.533493
vt 0.477968 0.533480
vt 0.432972 0.531626
vt 0.899677 0.961186
vt 0.916072 0.910695
vt 0.167940 0.482460
vt 0.892161 0.668042
vt 0.053253 0.825864
vt 0.049654 0.799775
vt 0.914991 0.788983
vt 0.057478 0.837532
vt 0.264237 0.120432
vt 0.706637 0.081360
vt 0.245083 0.077938
vt 0.210301 0.046908
vt 0.165905 0.032709
vt 0.375152 0.042608
vt 0.119572 0.037794
vt 0.079314 0.061285
vt 0.820402 0.997063
vt 0.308830 0.238857
vt 0.052089 0.099120
vt 0.042608 0.144756
vt 0.052509 0.190304
vt 0.080080 0.227887
vt 0.120553 0.251007
vt 0.166930 0.255666
vt 0.211193 0.241058
vt 0.245689 0.209711
vt 0.114543 0.966598
vn 0.909206 -0.097631 -0.404737
vn 0.665993 -0.097891 -0.739507
vn 0.641134 0.285849 -0.712206
vn 0.875603 0.285126 -0.389900
vn 0.307647 -0.098273 -0.946412
vn 0.295898 0.286911 -0.911113
vn -0.103879 -0.098715 -0.989679
vn -0.100233 0.288123 -0.952333
vn -0.497433 -0.099137 -0.861819
vn -0.478727 0.289282 -0.828937
vn -0.804953 -0.099468 -0.584941
vn -0.774250 0.290186 -0.562431
vn -0.973272 -0.099649 -0.206908
vn -0.935916 0.290682 -0.198908
vn -0.973273 -0.099649 0.206906
vn -0.935917 0.290681 0.198906
vn -0.804953 -0.099468 0.584941
vn -0.774251 0.290183 0.562431
vn -0.497432 -0.099137 0.861820
vn -0.478726 0.289282 0.828937
vn -0.103880 -0.098715 0.989679
vn -0.100233 0.288123 0.952333
vn 0.307647 -0.098273 0.946412
vn 0.295898 0.286911 0.911113
vn 0.665993 -0.097891 0.739507
vn 0.641134 0.285849 0.712206
vn 0.909206 -0.097631 0.404737
vn 0.875603 0.285126 0.389900
vn 0.995232 -0.097538 -0.000000
vn 0.958566 0.284872 -0.000000
vn 0.637868 -0.302441 -0.708276
vn 0.870850 -0.302218 -0.387665
vn 0.000000 -1.000000 0.000000
vn 0.294633 -0.302769 -0.906378
vn -0.099477 -0.303147 -0.947738
vn -0.476317 -0.303504 -0.825232
vn -0.770738 -0.303787 -0.560068
vn -0.931866 -0.303941 -0.198104
vn -0.931866 -0.303942 0.198103
vn -0.770738 -0.303788 0.560068
vn -0.476316 -0.303504 0.825232
vn -0.099477 -0.303147 0.947737
vn 0.294633 -0.302769 0.906379
vn 0.637868 -0.302441 0.708276
vn 0.870850 -0.302218 0.387665
vn 0.953264 -0.302139 0.000000
vn -0.886550 0.241408 0.394652
vn -0.649375 0.241650 0.721053
vn 0.000000 1.000000 -0.000000
vn -0.299956 0.242007 0.922745
vn 0.101273 0.242416 0.964872
vn 0.484936 0.242807 0.840168
vn 0.784696 0.243113 0.570217
vn 0.948753 0.243279 0.201698
vn 0.948755 0.243280 -0.201691
vn 0.784696 0.243113 -0.570217
vn 0.484932 0.242808 -0.840169
vn 0.101273 0.242416 -0.964872
vn -0.299956 0.242007 -0.922746
vn -0.649375 0.241650 -0.721053
vn -0.886550 0.241408 -0.394652
vn -0.970445 0.241323 0.000000
vn -0.647649 0.250882 0.719450
vn -0.884457 0.250244 0.393846
vn -0.298928 0.251819 0.920451
vn 0.101272 0.252896 0.962179
vn 0.483722 0.253927 0.837576
vn 0.782378 0.254732 0.568328
vn 0.945771 0.255174 0.201004
vn 0.945773 0.255172 -0.200997
vn 0.782378 0.254732 -0.568328
vn 0.483719 0.253926 -0.837579
vn 0.101272 0.252896 -0.962178
vn -0.298928 0.251819 -0.920451
vn -0.647649 0.250882 -0.719450
vn -0.884457 0.250244 -0.393845
vn -0.968241 0.250018 -0.000000
vn 0.816940 -0.447619 -0.363655
vn 0.598366 -0.447835 -0.664381
vn 0.642372 0.279527 -0.713598
vn 0.877039 0.279775 -0.390550
vn 0.276386 -0.448158 -0.850156
vn 0.296590 0.279163 -0.913292
vn -0.093273 -0.448525 -0.888890
vn -0.100538 0.278745 -0.955088
vn -0.446684 -0.448875 -0.773941
vn -0.480355 0.278350 -0.831733
vn -0.722765 -0.449153 -0.525235
vn -0.777170 0.278037 -0.564538
vn -0.873847 -0.449309 -0.185777
vn -0.939635 0.277862 -0.199695
vn -0.873847 -0.449309 0.185775
vn -0.939636 0.277862 0.199693
vn -0.722765 -0.449153 0.525235
vn -0.777170 0.278036 0.564538
vn -0.446683 -0.448875 0.773941
vn -0.480355 0.278349 0.831733
vn -0.093273 -0.448525 0.888890
vn -0.100539 0.278745 0.955088
vn 0.276386 -0.448157 0.850156
vn 0.296590 0.279163 0.913292
vn 0.598366 -0.447835 0.664381
vn 0.642372 0.279527 0.713598
vn 0.816940 -0.447619 0.363655
vn 0.877039 0.279775 0.390550
vn 0.894261 -0.447546 -0.000000
vn 0.960040 0.279862 0.000000
vn 0.665837 -0.097889 -0.739648
vn 0.909159 -0.097627 -0.404845
vn 0.307389 -0.098273 -0.946496
vn -0.104160 -0.098715 -0.989649
vn -0.497647 -0.099137 -0.861696
vn -0.805056 -0.099467 -0.584800
vn -0.973285 -0.099649 -0.206849
vn -0.973285 -0.099649 0.206848
vn -0.805056 -0.099468 0.584799
vn -0.497646 -0.099137 0.861696
vn -0.104160 -0.098715 0.989649
vn 0.307389 -0.098273 0.946496
vn 0.665837 -0.097889 0.739648
vn 0.909159 -0.097627 0.404845
vn 0.995232 -0.097534 0.000000
vn -0.089205 -0.995219 0.039757
vn -0.065466 -0.995195 0.072811
vn 0.065467 0.995195 -0.072811
vn 0.089205 0.995220 -0.039756
vn -0.030288 -0.995158 0.093503
vn 0.030290 0.995158 -0.093505
vn 0.010408 -0.995116 0.098160
vn -0.010407 0.995116 -0.098162
vn 0.049624 -0.995076 0.085794
vn -0.049624 0.995076 -0.085795
vn 0.080467 -0.995045 0.058397
vn -0.080468 0.995045 -0.058398
vn 0.097424 -0.995028 0.020689
vn -0.097425 0.995028 -0.020689
vn 0.097427 -0.995028 -0.020690
vn -0.097427 0.995028 0.020690
vn 0.080473 -0.995044 -0.058401
vn -0.080472 0.995044 0.058402
vn 0.049627 -0.995076 -0.085797
vn -0.049626 0.995076 0.085798
vn 0.010409 -0.995116 -0.098160
vn -0.010408 0.995116 0.098162
vn -0.030288 -0.995158 -0.093502
vn 0.030289 0.995158 0.093503
vn -0.065467 -0.995195 -0.072811
vn 0.065468 0.995195 0.072810
vn -0.089207 -0.995219 -0.039758
vn 0.089206 0.995219 0.039757
vn -0.097578 -0.995228 -0.000000
vn 0.097576 0.995228 0.000000
s 1
g Bucket
usemtl initialShadingGroup
f 63/139/1 64/152/2 17/3/3 16/4/4
f 64/152/2 65/151/5 18/6/6 17/3/3
f 65/151/5 66/150/7 19/8/8 18/6/6
f 66/150/7 67/149/9 20/10/10 19/8/8
f 67/149/9 68/148/11 21/12/12 20/10/10
f 68/148/11 69/147/13 22/14/14 21/12/12
f 69/147/13 70/146/15 23/16/16 22/14/14
f 70/146/15 71/145/17 24/18/18 23/16/16
f 71/145/17 72/144/19 25/20/20 24/18/18
f 72/144/19 73/143/21 26/22/22 25/20/20
f 73/198/21 74/142/23 27/24/24 26/199/22
f 74/142/23 75/141/25 28/26/26 27/24/24
f 75/141/25 76/140/27 29/28/28 28/26/26
f 76/140/27 77/138/29 30/30/30 29/28/28
f 77/138/29 63/139/1 16/4/4 30/30/30
s 2
f 2/31/31 1/32/32 31/33/33
f 3/34/34 2/31/31 31/33/33
f 4/35/35 3/34/34 31/33/33
f 5/36/36 4/35/35 31/33/33
f 6/37/37 5/36/36 31/33/33
f 7/38/38 6/37/37 31/33/33
f 8/39/39 7/38/38 31/33/33
f 9/40/40 8/39/39 31/33/33
f 10/41/41 9/40/40 31/33/33
f 11/42/42 10/41/41 31/33/33
f 12/43/43 11/42/42 31/33/33
f 13/44/44 12/43/43 31/33/33
f 14/45/45 13/44/44 31/33/33
f 15/46/46 14/45/45 31/33/33
f 1/32/32 15/46/46 31/33/33
s 1
f 47/47/47 48/223/48 49/49/49
f 48/223/48 50/222/50 49/49/49
f 50/222/50 51/221/51 49/49/49
f 51/221/51 52/220/52 49/49/49
f 52/220/52 53/219/53 49/49/49
f 53/219/53 54/218/54 49/49/49
f 54/218/54 55/217/55 49/49/49
f 55/217/55 56/216/56 49/49/49
f 56/216/56 57/213/57 49/49/49
f 57/213/57 58/212/58 49/49/49
f 58/212/58 59/210/59 49/49/49
f 59/210/59 60/209/60 49/49/49
f 60/209/60 61/208/61 49/49/49
f 61/208/61 62/206/62 49/49/49
f 62/206/62 47/47/47 49/49/49
f 16/169/4 17/182/3 33/167/63 32/154/64
f 17/182/3 18/181/6 34/166/65 33/167/63
f 18/181/6 19/180/8 35/165/66 34/166/65
f 19/180/8 20/179/10 36/164/67 35/165/66
f 20/179/10 21/178/12 37/163/68 36/164/67
f 21/178/12 22/177/14 38/162/69 37/163/68
f 22/177/14 23/176/16 39/161/70 38/162/69
f 23/176/16 24/175/18 40/160/71 39/161/70
f 24/175/18 25/174/20 41/159/72 40/160/71
f 25/174/20 26/173/22 42/214/73 41/159/72
f 26/224/22 27/172/24 43/157/74 42/158/73
f 27/172/24 28/171/26 44/156/75 43/157/74
f 28/171/26 29/170/28 45/155/76 44/156/75
f 29/170/28 30/168/30 46/153/77 45/155/76
f 30/168/30 16/169/4 32/154/64 46/153/77
f 32/64/64 33/63/63 48/48/48 47/207/47
f 33/63/63 34/65/65 50/50/50 48/48/48
f 34/65/65 35/66/66 51/51/51 50/50/50
f 35/66/66 36/67/67 52/52/52 51/51/51
f 36/67/67 37/68/68 53/53/53 52/52/52
f 37/68/68 38/69/69 54/54/54 53/53/53
f 38/69/69 39/70/70 55/55/55 54/54/54
f 39/70/70 40/71/71 56/56/56 55/55/55
f 40/71/71 41/72/72 57/57/57 56/56/56
f 41/72/72 42/215/73 58/211/58 57/57/57
f 42/73/73 43/74/74 59/59/59 58/58/58
f 43/74/74 44/75/75 60/60/60 59/59/59
f 44/75/75 45/76/76 61/61/61 60/60/60
f 45/76/76 46/77/77 62/62/62 61/61/61
f 46/77/77 32/64/64 47/207/47 62/62/62
s 4
f 93/78/78 94/79/79 95/80/80 96/81/81
f 94/79/79 97/82/82 98/83/83 95/80/80
f 97/82/82 99/84/84 100/85/85 98/83/83
f 99/84/84 101/86/86 102/87/87 100/85/85
f 101/86/86 103/88/88 104/89/89 102/87/87
f 103/88/88 105/90/90 106/91/91 104/89/89
f 105/90/90 107/92/92 108/93/93 106/91/91
f 107/92/92 109/94/94 110/95/95 108/93/93
f 109/94/94 111/96/96 112/97/97 110/95/95
f 111/96/96 113/202/98 114/203/99 112/97/97
f 113/98/98 115/100/100 116/101/101 114/99/99
f 115/100/100 117/102/102 118/103/103 116/101/101
f 117/102/102 119/104/104 120/105/105 118/103/103
f 119/104/104 121/106/106 122/107/107 120/105/105
f 121/106/106 93/78/78 96/81/81 122/107/107
s 2
f 1/184/32 2/197/31 79/137/108 78/124/109
f 2/197/31 3/196/34 80/136/110 79/137/108
f 3/196/34 4/195/35 81/135/111 80/136/110
f 4/195/35 5/194/36 82/134/112 81/135/111
f 5/194/36 6/193/37 83/133/113 82/134/112
f 6/193/37 7/192/38 84/132/114 83/133/113
f 7/192/38 8/191/39 85/131/115 84/132/114
f 8/191/39 9/190/40 86/130/116 85/131/115
f 9/190/40 10/189/41 87/129/117 86/130/116
f 10/189/41 11/188/42 88/201/118 87/129/117
f 11/200/42 12/187/43 89/127/119 88/128/118
f 12/187/43 13/186/44 90/126/120 89/127/119
f 13/186/44 14/185/45 91/125/121 90/126/120
f 14/185/45 15/183/46 92/123/122 91/125/121
f 15/183/46 1/184/32 78/124/109 92/123/122
s 4
f 78/109/123 79/108/124 94/79/79 93/78/78
f 64/2/125 63/1/126 96/81/81 95/80/80
f 79/108/124 80/110/127 97/82/82 94/79/79
f 65/5/128 64/2/125 95/80/80 98/83/83
f 80/110/127 81/111/129 99/84/84 97/82/82
f 66/7/130 65/5/128 98/83/83 100/85/85
f 81/111/129 82/112/131 101/86/86 99/84/84
f 67/9/132 66/7/130 100/85/85 102/87/87
f 82/112/131 83/113/133 103/88/88 101/86/86
f 68/11/134 67/9/132 102/87/87 104/89/89
f 83/113/133 84/114/135 105/90/90 103/88/88
f 69/13/136 68/11/134 104/89/89 106/91/91
f 84/114/135 85/115/137 107/92/92 105/90/90
f 70/15/138 69/13/136 106/91/91 108/93/93
f 85/115/137 86/116/139 109/94/94 107/92/92
f 71/17/140 70/15/138 108/93/93 110/95/95
f 86/116/139 87/117/141 111/96/96 109/94/94
f 72/19/142 71/17/140 110/95/95 112/97/97
f 87/117/141 88/205/143 113/202/98 111/96/96
f 73/21/144 72/19/142 112/97/97 114/203/99
f 88/118/143 89/119/145 115/100/100 113/98/98
f 74/23/146 73/204/144 114/99/99 116/101/101
f 89/119/145 90/120/147 117/102/102 115/100/100
f 75/25/148 74/23/146 116/101/101 118/103/103
f 90/120/147 91/121/149 119/104/104 117/102/102
f 76/27/150 75/25/148 118/103/103 120/105/105
f 91/121/149 92/122/151 121/106/106 119/104/104
f 77/29/152 76/27/150 120/105/105 122/107/107
f 92/122/151 78/109/123 93/78/78 121/106/106
f 63/1/126 77/29/152 122/107/107 96/81/81
