# This file uses centimeters as units for non-parametric coordinates.

mtllib Flag 2.mtl
g default
v 0.221602 -0.131245 -0.335709
v 0.088286 -0.131245 -0.390930
v -0.045029 -0.131245 -0.335709
v -0.100251 -0.131245 -0.202394
v -0.045029 -0.131245 -0.069078
v 0.088286 -0.131245 -0.013857
v 0.221602 -0.131245 -0.069078
v 0.276823 -0.131245 -0.202394
v 0.221602 14.518858 -0.335709
v 0.088286 14.518858 -0.390930
v -0.045029 14.518858 -0.335709
v -0.100251 14.518858 -0.202394
v -0.045029 14.518858 -0.069078
v 0.088286 14.518858 -0.013857
v 0.221602 14.518858 -0.069078
v 0.276823 14.518858 -0.202394
v 0.088286 -0.131245 -0.202394
v 0.088286 14.518858 -0.202394
vt 0.604611 0.439209
vt 0.627625 0.460825
vt 0.630205 0.543291
vt 0.608589 0.566304
vt 0.659183 0.459838
vt 0.661764 0.542303
vt 0.680800 0.436825
vt 0.684777 0.563920
vt 0.679812 0.405266
vt 0.685764 0.595478
vt 0.656799 0.383650
vt 0.664148 0.618492
vt 0.625241 0.384637
vt 0.632589 0.619479
vt 0.603624 0.407650
vt 0.609576 0.597863
vt 0.642212 0.422238
vt 0.647177 0.580891
vt 0.880090 0.452925
vt 0.882671 0.535391
vt 0.819555 0.537366
vt 0.851113 0.536378
vt 0.787996 0.538353
vt 0.756438 0.539341
vt 0.724880 0.540328
vt 0.693322 0.541316
vt 0.816974 0.454900
vt 0.848532 0.453913
vt 0.785416 0.455888
vt 0.753858 0.456875
vt 0.722299 0.457863
vt 0.690741 0.458850
vn 0.707098 -0.004826 -0.707099
vn -0.000000 -0.004826 -0.999988
vn -0.000000 0.004826 -0.999988
vn 0.707098 0.004826 -0.707099
vn -0.707098 -0.004826 -0.707099
vn -0.707098 0.004826 -0.707099
vn -0.999988 -0.004826 -0.000000
vn -0.999988 0.004826 -0.000000
vn -0.707099 -0.004826 0.707098
vn -0.707099 0.004826 0.707098
vn -0.000000 -0.004826 0.999988
vn -0.000000 0.004826 0.999988
vn 0.707099 -0.004826 0.707099
vn 0.707099 0.004826 0.707099
vn 0.999988 -0.004826 0.000000
vn 0.999988 0.004826 -0.000000
vn 0.000000 -1.000000 0.000000
vn 0.000000 1.000000 -0.000001
s 1
g Flag_stick_1 Flag_2
usemtl initialShadingGroup
f 1/28/1 2/19/2 10/20/3 9/22/4
f 2/2/2 3/5/5 11/6/6 10/3/3
f 3/5/5 4/32/7 12/26/8 11/6/6
f 4/32/7 5/31/9 13/25/10 12/26/8
f 5/31/9 6/30/11 14/24/12 13/25/10
f 6/30/11 7/29/13 15/23/14 14/24/12
f 7/29/13 8/27/15 16/21/16 15/23/14
f 8/27/15 1/28/1 9/22/4 16/21/16
f 2/2/2 1/1/1 17/17/17
f 3/5/5 2/2/2 17/17/17
f 4/7/7 3/5/5 17/17/17
f 5/9/9 4/7/7 17/17/17
f 6/11/11 5/9/9 17/17/17
f 7/13/13 6/11/11 17/17/17
f 8/15/15 7/13/13 17/17/17
f 1/1/1 8/15/15 17/17/17
f 9/4/4 10/3/3 18/18/18
f 10/3/3 11/6/6 18/18/18
f 11/6/6 12/8/8 18/18/18
f 12/8/8 13/10/10 18/18/18
f 13/10/10 14/12/12 18/18/18
f 14/12/12 15/14/14 18/18/18
f 15/14/14 16/16/16 18/18/18
f 16/16/16 9/4/4 18/18/18
g default
v -2.610293 1.829686 0.078532
v 0.124810 1.829686 0.078532
v 2.859912 1.829686 0.078532
v -2.610293 7.736348 0.078532
v 0.124810 7.736348 0.078532
v 2.859912 7.736348 0.078532
v -2.610293 13.643010 0.078532
v 0.124810 13.643010 0.078532
v 2.859912 13.643010 0.078532
vt 0.105315 0.043012
vt 0.316348 0.038234
vt 0.319733 0.490717
vt 0.103436 0.493133
vt 0.529664 0.033403
vt 0.538429 0.488274
vt 0.323292 0.966398
vt 0.101461 0.966200
vt 0.547645 0.966597
vn 0.000000 0.000000 1.000000
vn 0.000000 0.000000 1.000000
vn 0.000000 0.000000 1.000000
vn 0.000000 0.000000 1.000000
vn 0.000000 0.000000 1.000000
vn 0.000000 0.000000 1.000000
vn 0.000000 0.000000 1.000000
vn 0.000000 0.000000 1.000000
vn 0.000000 0.000000 1.000000
s 1
g Flag_2 Flag_Cloth
usemtl initialShadingGroup
f 19/33/19 20/34/20 23/35/21 22/36/22
f 20/34/20 21/37/23 24/38/24 23/35/21
f 22/36/22 23/35/21 26/39/25 25/40/26
f 23/35/21 24/38/24 27/41/27 26/39/25
g default
v 3.202638 13.779655 -0.111402
v 3.202638 13.646340 -0.166624
v 3.202638 13.513024 -0.111402
v 3.202638 13.457803 0.021913
v 3.202638 13.513024 0.155229
v 3.202638 13.646340 0.210450
v 3.202638 13.779655 0.155229
v 3.202638 13.834876 0.021913
v -2.987178 13.779655 -0.111402
v -2.987178 13.646340 -0.166624
v -2.987178 13.513024 -0.111402
v -2.987178 13.457803 0.021913
v -2.987178 13.513024 0.155229
v -2.987178 13.646340 0.210450
v -2.987178 13.779655 0.155229
v -2.987178 13.834876 0.021913
v 3.202638 13.646340 0.021913
v -2.987178 13.646340 0.021913
vt 0.868888 0.849687
vt 0.846872 0.827920
vt 0.846411 0.747020
vt 0.868178 0.725004
vt 0.815913 0.828096
vt 0.815452 0.747196
vt 0.794146 0.850112
vt 0.793436 0.725430
vt 0.794322 0.881071
vt 0.793260 0.694471
vt 0.816338 0.902838
vt 0.815026 0.672455
vt 0.847298 0.902662
vt 0.845986 0.672278
vt 0.869064 0.880646
vt 0.868002 0.694045
vt 0.831605 0.865379
vt 0.830719 0.709737
vt 0.599199 0.829330
vt 0.598739 0.748430
vt 0.660657 0.748078
vt 0.629698 0.748254
vt 0.691616 0.747901
vt 0.722575 0.747725
vt 0.753534 0.747549
vt 0.784493 0.747373
vt 0.661118 0.828978
vt 0.630159 0.829154
vt 0.692077 0.828801
vt 0.723036 0.828625
vt 0.753995 0.828449
vt 0.784954 0.828273
vn 0.011421 0.707061 -0.707061
vn 0.011421 0.000000 -0.999935
vn -0.011421 0.000000 -0.999935
vn -0.011421 0.707061 -0.707061
vn 0.011421 -0.707061 -0.707061
vn -0.011421 -0.707061 -0.707061
vn 0.011421 -0.999935 0.000000
vn -0.011421 -0.999935 0.000000
vn 0.011421 -0.707061 0.707061
vn -0.011421 -0.707061 0.707061
vn 0.011421 -0.000000 0.999935
vn -0.011421 -0.000000 0.999935
vn 0.011421 0.707061 0.707061
vn -0.011421 0.707061 0.707061
vn 0.011421 0.999935 -0.000000
vn -0.011421 0.999935 -0.000000
vn 1.000000 0.000000 0.000000
vn -1.000000 0.000000 0.000000
s 1
g Flag_2 Flag_stick_2
usemtl initialShadingGroup
f 28/69/28 29/60/29 37/61/30 36/63/31
f 29/43/29 30/46/32 38/47/33 37/44/30
f 30/46/32 31/73/34 39/67/35 38/47/33
f 31/73/34 32/72/36 40/66/37 39/67/35
f 32/72/36 33/71/38 41/65/39 40/66/37
f 33/71/38 34/70/40 42/64/41 41/65/39
f 34/70/40 35/68/42 43/62/43 42/64/41
f 35/68/42 28/69/28 36/63/31 43/62/43
f 29/43/29 28/42/28 44/58/44
f 30/46/32 29/43/29 44/58/44
f 31/48/34 30/46/32 44/58/44
f 32/50/36 31/48/34 44/58/44
f 33/52/38 32/50/36 44/58/44
f 34/54/40 33/52/38 44/58/44
f 35/56/42 34/54/40 44/58/44
f 28/42/28 35/56/42 44/58/44
f 36/45/31 37/44/30 45/59/45
f 37/44/30 38/47/33 45/59/45
f 38/47/33 39/49/35 45/59/45
f 39/49/35 40/51/37 45/59/45
f 40/51/37 41/53/39 45/59/45
f 41/53/39 42/55/41 45/59/45
f 42/55/41 43/57/43 45/59/45
f 43/57/43 36/45/31 45/59/45
