# This file uses centimeters as units for non-parametric coordinates.

mtllib Rubbish bin 1.mtl
g default
v -3.892985 0.053125 3.817606
v 3.752336 0.053125 3.817606
v -3.518560 6.342564 3.443181
v 3.377911 6.342564 3.443181
v -3.518560 6.342564 -3.453291
v 3.377911 6.342564 -3.453291
v -3.892985 0.053125 -3.827716
v 3.752336 0.053125 -3.827716
v -3.892985 5.718762 3.817606
v 3.752336 5.718762 3.817606
v 3.752336 5.718762 -3.827716
v -3.892985 5.718762 -3.827716
v -4.180924 5.718762 4.105544
v 4.040275 5.718762 4.105544
v 4.040275 6.538167 4.105544
v -4.180924 6.538167 4.105544
v -4.180924 6.538167 -4.115652
v 4.040275 6.538167 -4.115652
v 4.040275 5.718762 -4.115652
v -4.180924 5.718762 -4.115652
v -3.518560 1.105043 3.443181
v 3.377911 1.105043 3.443181
v 3.377911 1.105043 -3.453291
v -3.518560 1.105043 -3.453291
vt 0.266593 0.883932
vt 0.497115 0.882829
vt 0.497245 0.909916
vt 0.266722 0.911019
vt 0.611546 0.426420
vt 0.610103 0.242966
vt 0.793557 0.241523
vt 0.795000 0.424977
vt 0.036199 0.912123
vt 0.727768 0.908812
vt 0.727638 0.881725
vt 0.036070 0.885036
vt 0.399416 0.638573
vt 0.219254 0.642087
vt 0.215741 0.461926
vt 0.395902 0.458412
vt 0.505151 0.874716
vt 0.274628 0.875820
vt 0.735674 0.873613
vt 0.044105 0.876924
vt 0.608811 0.078714
vt 0.447294 0.427712
vt 0.796292 0.589229
vt 0.957808 0.240231
vt 0.515912 0.929493
vt 0.746435 0.928389
vt 0.285389 0.930597
vt 0.054866 0.931700
vt 0.959252 0.423685
vt 0.792265 0.077271
vt 0.445851 0.244258
vt 0.612838 0.590672
vt 0.556814 0.635504
vt 0.392832 0.301014
vt 0.222324 0.799485
vt 0.058343 0.464996
vt 0.402486 0.795971
vt 0.061857 0.645157
vt 0.212671 0.304528
vt 0.553300 0.455342
vt 0.958291 0.907708
vt 0.958161 0.880621
vt 0.950049 0.872586
vt 0.719526 0.873690
vt 0.709290 0.928567
vt 0.939813 0.927463
vt 0.248244 0.930774
vt 0.478767 0.929671
vt 0.489003 0.874794
vt 0.258480 0.875897
vn 0.000000 0.000000 1.000000
vn 0.000000 0.000000 1.000000
vn 0.000000 0.000000 1.000000
vn 0.000000 0.000000 1.000000
vn 0.000000 1.000000 0.000000
vn 0.000000 1.000000 0.000000
vn 0.000000 1.000000 0.000000
vn 0.000000 1.000000 0.000000
vn 0.000000 0.000000 -1.000000
vn 0.000000 0.000000 -1.000000
vn 0.000000 0.000000 -1.000000
vn 0.000000 0.000000 -1.000000
vn 0.000000 -1.000000 0.000000
vn 0.000000 -1.000000 0.000000
vn 0.000000 -1.000000 0.000000
vn 0.000000 -1.000000 0.000000
vn 1.000000 0.000000 0.000000
vn 1.000000 0.000000 0.000000
vn 1.000000 0.000000 0.000000
vn 1.000000 0.000000 0.000000
vn -1.000000 0.000000 0.000000
vn -1.000000 0.000000 0.000000
vn -1.000000 0.000000 0.000000
vn -1.000000 0.000000 0.000000
vn 0.000000 0.000000 1.000000
vn 0.000000 0.000000 1.000000
vn 0.000000 0.000000 1.000000
vn 0.000000 0.000000 1.000000
vn 1.000000 0.000000 0.000000
vn 1.000000 0.000000 0.000000
vn 1.000000 0.000000 0.000000
vn 1.000000 0.000000 0.000000
vn 0.000000 0.000000 -1.000000
vn 0.000000 0.000000 -1.000000
vn 0.000000 0.000000 -1.000000
vn 0.000000 0.000000 -1.000000
vn -1.000000 0.000000 0.000000
vn -1.000000 0.000000 0.000000
vn -1.000000 0.000000 0.000000
vn -1.000000 0.000000 0.000000
vn 0.000000 -1.000000 0.000000
vn 0.000000 -1.000000 0.000000
vn 0.000000 -1.000000 0.000000
vn 0.000000 -1.000000 0.000000
vn -0.144537 0.978886 -0.144537
vn 0.144537 0.978886 -0.144537
vn 0.144537 0.978886 -0.144537
vn -0.144537 0.978886 -0.144537
vn 0.144537 0.978886 0.144538
vn -0.144537 0.978886 0.144538
vn -0.144538 0.978886 0.144537
vn 0.144538 0.978886 0.144537
vn 0.000000 -1.000000 -0.000000
vn 0.000000 -1.000000 -0.000000
vn 0.000000 -1.000000 -0.000000
vn 0.000000 -1.000000 -0.000000
vn 0.000000 0.000000 -1.000000
vn 0.000000 0.000000 -1.000000
vn 0.000000 0.000000 -1.000000
vn 0.000000 0.000000 -1.000000
vn -1.000000 0.000000 0.000000
vn -1.000000 0.000000 0.000000
vn -1.000000 0.000000 0.000000
vn -1.000000 0.000000 0.000000
vn 0.000000 0.000000 1.000000
vn 0.000000 0.000000 1.000000
vn 0.000000 0.000000 1.000000
vn 0.000000 0.000000 1.000000
vn 1.000000 0.000000 0.000000
vn 1.000000 0.000000 0.000000
vn 1.000000 0.000000 0.000000
vn 1.000000 0.000000 0.000000
s off
g Rubbish_Bin_1
usemtl initialShadingGroup
f 13/1/1 14/2/2 15/3/3 16/4/4
f 21/5/5 22/6/6 23/7/7 24/8/8
f 17/41/9 18/10/10 19/11/11 20/42/12
f 7/13/13 8/14/14 2/15/15 1/16/16
f 14/2/17 19/11/18 18/10/19 15/3/20
f 20/12/21 13/1/22 16/4/23 17/9/24
f 1/16/25 2/15/26 10/39/27 9/34/28
f 2/15/29 8/14/30 11/38/31 10/36/32
f 12/37/33 11/35/34 8/14/35 7/13/36
f 7/13/37 1/16/38 9/40/39 12/33/40
s 1
f 9/18/41 10/49/42 14/2/43 13/1/44
s 2
f 4/48/45 3/27/46 16/4/47 15/3/48
f 5/46/49 6/26/50 18/10/51 17/41/52
s 1
f 11/19/53 12/43/54 20/42/55 19/11/56
f 10/17/42 11/44/53 19/11/56 14/2/43
s 2
f 6/45/50 4/25/45 15/3/48 18/10/51
s 1
f 12/20/54 9/50/41 13/1/44 20/12/55
s 2
f 3/47/46 5/28/49 17/9/52 16/4/47
s off
f 3/22/57 4/31/58 22/6/59 21/5/60
f 4/21/61 6/30/62 23/7/63 22/6/64
f 6/24/65 5/29/66 24/8/67 23/7/68
f 5/23/69 3/32/70 21/5/71 24/8/72
