# This file uses centimeters as units for non-parametric coordinates.

mtllib Rubbish bin 2.mtl
g default
v -3.629008 -0.008778 4.415555
v 3.723289 -0.008778 4.415555
v -3.629008 7.343517 4.415555
v 3.723289 7.343517 4.415555
v -3.629008 7.343517 -4.317177
v 3.723289 7.343517 -4.317177
v -3.629008 -0.008778 -4.317177
v 3.723289 -0.008778 -4.317177
v -3.629008 6.111022 4.415555
v 3.723289 6.111022 4.415555
v 3.723289 6.111022 -4.317177
v -3.629008 6.111022 -4.317177
v 4.468851 6.111022 4.415555
v 4.468851 6.111022 -4.317177
v 4.468851 7.343517 -4.317177
v 4.468851 7.343517 4.415555
v -4.374569 6.111022 -4.317177
v -4.374569 6.111022 4.415555
v -4.374569 7.343517 4.415555
v -4.374569 7.343517 -4.317177
v 3.723289 7.343517 0.049189
v 4.468851 7.343517 0.049189
v 4.468851 6.111022 0.049189
v 3.723289 6.111022 0.049189
v 3.723289 -0.008778 0.049189
v -3.629008 -0.008778 0.049189
v -3.629008 6.111022 0.049189
v -4.374569 6.111022 0.049189
v -4.374569 7.343517 0.049189
v -3.629008 7.343517 0.049189
v 3.723289 7.343517 3.105645
v 4.468851 7.343517 3.105645
v 4.468851 6.111022 3.105645
v 3.723289 6.111022 3.105645
v 3.723289 -0.008778 3.105645
v -3.629008 -0.008778 3.105645
v -3.629008 6.111022 3.105645
v -4.374569 6.111022 3.105645
v -4.374569 7.343517 3.105645
v -3.629008 7.343517 3.105645
v -3.629008 7.343517 -3.007267
v -4.374569 7.343517 -3.007267
v -4.374569 6.111022 -3.007267
v -3.629008 6.111022 -3.007267
v -3.629008 -0.008778 -3.007267
v 3.723289 -0.008778 -3.007267
v 3.723289 6.111022 -3.007267
v 4.468851 6.111022 -3.007267
v 4.468851 7.343517 -3.007267
v 3.723289 7.343517 -3.007267
v 0.047141 6.111022 4.415555
v 0.047141 -0.008778 4.415555
v 0.047141 -0.008778 3.105645
v 0.047141 -0.008778 0.049189
v 0.047141 -0.008778 -3.007267
v 0.047141 -0.008778 -4.317177
v 0.047141 6.111022 -4.317177
v 0.047141 7.343517 -4.317177
v 0.047141 7.343517 -3.007267
v 0.047141 7.343517 3.105645
v 0.047141 7.343517 4.415555
v 2.988060 7.343517 4.415555
v 2.988060 7.343517 3.105645
v 2.988060 7.343517 0.049189
v 2.988060 7.343517 -3.007267
v 2.988060 7.343517 -4.317177
v 2.988060 6.111022 -4.317177
v 2.988060 -0.008778 -4.317177
v 2.988060 -0.008778 -3.007267
v 2.988060 -0.008778 0.049189
v 2.988060 -0.008778 3.105645
v 2.988060 -0.008778 4.415555
v 2.988060 6.111022 4.415555
v -2.893778 6.111022 4.415555
v -2.893778 -0.008778 4.415555
v -2.893778 -0.008778 3.105645
v -2.893778 -0.008778 0.049189
v -2.893778 -0.008778 -3.007267
v -2.893778 -0.008778 -4.317177
v -2.893778 6.111022 -4.317177
v -2.893778 7.343517 -4.317177
v -2.893778 7.343517 -3.007267
v -2.893778 7.343517 0.049189
v -2.893778 7.343517 3.105645
v -2.893778 7.343517 4.415555
v 0.047141 7.343517 -2.476277
v 2.477141 7.343517 0.049189
v 2.477141 7.343517 -2.476277
v 0.047141 7.343517 2.574655
v 2.477141 7.343517 2.574655
v -2.382860 7.343517 -2.476277
v -2.382860 7.343517 0.049189
v -2.382860 7.343517 2.574655
v 2.988060 7.603010 0.049189
v 2.988060 7.603010 -3.007267
v 2.477141 7.603010 -2.476277
v 2.477141 7.603010 0.049189
v 0.047141 7.603010 -3.007267
v 0.047141 7.603010 -2.476277
v 0.047141 7.603010 3.105644
v 2.988060 7.603010 3.105645
v 2.477141 7.603010 2.574654
v 0.047141 7.603010 2.574654
v -2.893778 7.603010 -3.007267
v -2.893778 7.603010 0.049189
v -2.382860 7.603010 0.049189
v -2.382860 7.603010 -2.476277
v -2.893778 7.603010 3.105645
v -2.382860 7.603010 2.574654
v 0.047141 2.041480 -2.476279
v 0.047141 2.041480 0.049189
v 2.477141 2.041480 0.049189
v 2.477141 2.041479 -2.476279
v 0.047141 2.041480 2.574656
v 2.477141 2.041480 2.574656
v -2.382860 2.041480 -2.476279
v -2.382860 2.041480 0.049189
v -2.382860 2.041480 2.574656
vt 0.028974 0.635609
vt 0.063101 0.635725
vt 0.062826 0.717157
vt 0.028699 0.717041
vt 0.813764 0.272200
vt 0.748058 0.271392
vt 0.748834 0.208169
vt 0.814541 0.208977
vt 0.643811 0.637685
vt 0.677938 0.637800
vt 0.677663 0.719233
vt 0.643536 0.719117
vt 0.353456 0.636705
vt 0.438087 0.636991
vt 0.437812 0.718423
vt 0.353181 0.718137
vt 0.352355 0.962719
vt 0.352470 0.928592
vt 0.437102 0.928878
vt 0.436987 0.963006
vt 0.439188 0.310976
vt 0.439073 0.345103
vt 0.354442 0.344817
vt 0.354557 0.310690
vt 0.232554 0.636297
vt 0.232279 0.717729
vt 0.352540 0.907948
vt 0.353112 0.738495
vt 0.437744 0.738781
vt 0.437171 0.908234
vt 0.474358 0.637113
vt 0.474083 0.718545
vt 0.439003 0.365747
vt 0.438431 0.535200
vt 0.353800 0.534915
vt 0.354372 0.365461
vt 0.643468 0.739475
vt 0.677595 0.739591
vt 0.677525 0.760235
vt 0.473372 0.929001
vt 0.713865 0.739713
vt 0.798496 0.739999
vt 0.028630 0.737399
vt 0.062757 0.737515
vt 0.062687 0.758159
vt 0.231453 0.962312
vt 0.063444 0.533934
vt 0.029317 0.533819
vt 0.029387 0.513175
vt 0.233540 0.344409
vt 0.799184 0.536419
vt 0.714553 0.536133
vt 0.678282 0.536010
vt 0.644155 0.535895
vt 0.644225 0.515251
vt 0.475459 0.311098
vt 0.883128 0.740285
vt 0.267724 0.962434
vt 0.267839 0.928307
vt 0.267909 0.907663
vt 0.268481 0.738209
vt 0.268825 0.636419
vt 0.268550 0.717851
vt 0.269168 0.534629
vt 0.269740 0.365175
vt 0.269810 0.344531
vt 0.269925 0.310404
vt 0.883815 0.536704
vt 0.682351 0.270585
vt 0.683128 0.207362
vt 0.232210 0.738087
vt 0.232898 0.534506
vt 0.517086 0.268554
vt 0.671337 0.042450
vt 0.474702 0.535323
vt 0.474014 0.738903
vt 0.979029 0.274230
vt 0.979969 0.197714
vt 0.063376 0.554292
vt 0.232829 0.554864
vt 0.269100 0.554987
vt 0.353731 0.555273
vt 0.438362 0.555558
vt 0.474633 0.555681
vt 0.644086 0.556253
vt 0.678213 0.556368
vt 0.824778 0.500335
vt 0.812987 0.335423
vt 0.747281 0.334615
vt 0.681574 0.333808
vt 0.516146 0.345070
vt 0.029249 0.554177
vt 0.750859 0.043427
vt 0.745256 0.499357
vt 0.750776 0.050178
vt 0.973218 0.197631
vt 0.959239 0.210755
vt 0.750612 0.063471
vt 0.972277 0.274147
vt 0.958462 0.273978
vt 0.523838 0.268637
vt 0.671254 0.049201
vt 0.684906 0.062664
vt 0.537653 0.268807
vt 0.971337 0.350663
vt 0.745339 0.492606
vt 0.745503 0.479313
vt 0.957685 0.337201
vt 0.522898 0.345153
vt 0.536876 0.332030
vt 0.952488 0.210672
vt 0.750530 0.070223
vt 0.951711 0.273895
vt 0.684823 0.069415
vt 0.544404 0.268890
vt 0.745586 0.472561
vt 0.811292 0.473369
vt 0.543627 0.332113
vt 0.920017 0.557185
vt 0.233725 0.289638
vt 0.920086 0.536827
vt 0.919467 0.720049
vt 0.919742 0.638617
vt 0.436917 0.983649
vt 0.473187 0.983772
vt 0.439258 0.290332
vt 0.354626 0.290046
vt 0.269995 0.289760
vt 0.267654 0.983078
vt 0.352285 0.983364
vt 0.475528 0.290454
vt 0.678352 0.515366
vt 0.233655 0.310282
vt 0.475343 0.345225
vt 0.475274 0.365870
vt 0.233470 0.365053
vt 0.063514 0.513290
vt 0.919398 0.740407
vt 0.231383 0.982955
vt 0.028560 0.758043
vt 0.473257 0.963128
vt 0.231568 0.928184
vt 0.473442 0.908357
vt 0.643398 0.760119
vt 0.799115 0.556777
vt 0.883746 0.557062
vt 0.714484 0.556491
vt 0.883472 0.638495
vt 0.798565 0.719641
vt 0.713934 0.719355
vt 0.883196 0.719927
vt 0.714209 0.637923
vt 0.231638 0.907540
vt 0.679879 0.471754
vt 0.950934 0.337117
vt 0.545181 0.205667
vt 0.816236 0.071030
vt 0.665817 0.491629
vt 0.679796 0.478506
vt 0.665735 0.498380
vt 0.824861 0.493583
vt 0.811209 0.480120
vt 0.978089 0.350746
vt 0.524778 0.192121
vt 0.538430 0.205584
vt 0.518027 0.192038
vt 0.830298 0.051155
vt 0.816319 0.064279
vt 0.830380 0.044404
vn 0.000000 0.000000 1.000000
vn 0.000000 0.000000 1.000000
vn 0.000000 0.000000 1.000000
vn 0.000000 0.000000 1.000000
vn 0.000000 1.000000 0.000000
vn 0.000000 1.000000 -0.000000
vn 0.000000 1.000000 -0.000000
vn 0.000000 1.000000 0.000000
vn 0.000000 0.000000 -1.000000
vn 0.000000 0.000000 -1.000000
vn 0.000000 0.000000 -1.000000
vn 0.000000 0.000000 -1.000000
vn 0.000000 -1.000000 0.000000
vn 0.000000 -1.000000 0.000000
vn 0.000000 -1.000000 0.000000
vn 0.000000 -1.000000 0.000000
vn 1.000000 0.000000 0.000000
vn 1.000000 0.000000 0.000000
vn 1.000000 0.000000 0.000000
vn 1.000000 0.000000 0.000000
vn -1.000000 0.000000 0.000000
vn -1.000000 0.000000 0.000000
vn -1.000000 0.000000 0.000000
vn -1.000000 0.000000 0.000000
vn 0.000000 0.000000 1.000000
vn 0.000000 0.000000 1.000000
vn 0.000000 0.000000 1.000000
vn 0.000000 0.000000 1.000000
vn 1.000000 0.000000 0.000000
vn 1.000000 0.000000 0.000000
vn 1.000000 0.000000 0.000000
vn 1.000000 0.000000 0.000000
vn 0.000000 0.000000 -1.000000
vn 0.000000 0.000000 -1.000000
vn 0.000000 0.000000 -1.000000
vn 0.000000 0.000000 -1.000000
vn -1.000000 0.000000 0.000000
vn -1.000000 0.000000 0.000000
vn -1.000000 0.000000 0.000000
vn -1.000000 0.000000 0.000000
vn 0.000000 -1.000000 0.000000
vn 0.000000 -1.000000 0.000000
vn 0.000000 -1.000000 0.000000
vn 0.000000 -1.000000 0.000000
vn 0.000000 0.000000 -1.000000
vn 0.000000 0.000000 -1.000000
vn 0.000000 0.000000 -1.000000
vn 0.000000 0.000000 -1.000000
vn 0.000000 1.000000 -0.000000
vn 0.000000 1.000000 -0.000000
vn 0.000000 1.000000 -0.000000
vn 0.000000 1.000000 -0.000000
vn 0.000000 0.000000 1.000000
vn 0.000000 0.000000 1.000000
vn 0.000000 0.000000 1.000000
vn 0.000000 0.000000 1.000000
vn 0.000000 -1.000000 0.000000
vn 0.000000 -1.000000 0.000000
vn 0.000000 -1.000000 0.000000
vn 0.000000 -1.000000 0.000000
vn 0.000000 0.000000 1.000000
vn 0.000000 0.000000 1.000000
vn 0.000000 0.000000 1.000000
vn 0.000000 0.000000 1.000000
vn 0.000000 1.000000 0.000000
vn 0.000000 1.000000 0.000000
vn 0.000000 1.000000 0.000000
vn 0.000000 1.000000 0.000000
vn 0.000000 0.000000 -1.000000
vn 0.000000 0.000000 -1.000000
vn 0.000000 0.000000 -1.000000
vn 0.000000 0.000000 -1.000000
vn 0.000000 1.000000 0.000000
vn 0.000000 1.000000 0.000000
vn 1.000000 0.000000 0.000000
vn 1.000000 0.000000 0.000000
vn 0.000000 -1.000000 0.000000
vn 0.000000 -1.000000 0.000000
vn 1.000000 0.000000 0.000000
vn 1.000000 0.000000 0.000000
vn 0.000000 -1.000000 0.000000
vn 0.000000 -1.000000 0.000000
vn -1.000000 0.000000 0.000000
vn -1.000000 0.000000 0.000000
vn 0.000000 -1.000000 0.000000
vn 0.000000 -1.000000 0.000000
vn -1.000000 0.000000 0.000000
vn -1.000000 0.000000 0.000000
vn 0.000000 1.000000 -0.000000
vn 0.000000 1.000000 -0.000000
vn 0.000000 1.000000 -0.000000
vn 0.000000 1.000000 -0.000000
vn 0.000000 1.000000 0.000000
vn 0.000000 1.000000 0.000000
vn 1.000000 0.000000 0.000000
vn 1.000000 0.000000 0.000000
vn 0.000000 -1.000000 0.000000
vn 0.000000 -1.000000 0.000000
vn 1.000000 0.000000 0.000000
vn 1.000000 0.000000 0.000000
vn 0.000000 -1.000000 0.000000
vn 0.000000 -1.000000 0.000000
vn -1.000000 0.000000 0.000000
vn -1.000000 0.000000 0.000000
vn 0.000000 -1.000000 0.000000
vn 0.000000 -1.000000 0.000000
vn -1.000000 0.000000 0.000000
vn -1.000000 0.000000 0.000000
vn 0.000000 1.000000 0.000000
vn 0.000000 1.000000 0.000000
vn 0.000000 1.000000 0.000000
vn 0.000000 1.000000 0.000000
vn 0.000000 1.000000 0.000000
vn 0.000000 1.000000 0.000000
vn 0.000000 1.000000 0.000000
vn 0.000000 1.000000 0.000000
vn -1.000000 0.000000 0.000000
vn -1.000000 0.000000 0.000000
vn 0.000000 -1.000000 0.000000
vn 0.000000 -1.000000 0.000000
vn -1.000000 0.000000 0.000000
vn -1.000000 0.000000 0.000000
vn 0.000000 -1.000000 0.000000
vn 0.000000 -1.000000 0.000000
vn 1.000000 0.000000 0.000000
vn 1.000000 0.000000 0.000000
vn 0.000000 -1.000000 0.000000
vn 0.000000 -1.000000 0.000000
vn 1.000000 0.000000 0.000000
vn 1.000000 0.000000 0.000000
vn 0.000000 1.000000 0.000000
vn 0.000000 1.000000 0.000000
vn 0.000000 1.000000 -0.000000
vn 0.000000 1.000000 -0.000000
vn 0.000000 1.000000 -0.000000
vn 0.000000 1.000000 -0.000000
vn 0.000000 0.000000 1.000000
vn 0.000000 0.000000 1.000000
vn 0.000000 -1.000000 0.000000
vn 0.000000 -1.000000 0.000000
vn 0.000000 -1.000000 0.000000
vn 0.000000 -1.000000 0.000000
vn 0.000000 -1.000000 0.000000
vn 0.000000 0.000000 -1.000000
vn 0.000000 0.000000 -1.000000
vn 0.000000 0.000000 -1.000000
vn 0.000000 0.000000 -1.000000
vn 0.000000 1.000000 -0.000000
vn 0.000000 1.000000 -0.000000
vn 0.000000 1.000000 0.000000
vn 0.000000 1.000000 -0.000000
vn 0.000000 1.000000 -0.000000
vn 0.000000 1.000000 0.000000
vn 0.000000 1.000000 0.000000
vn 0.000000 0.000000 1.000000
vn 0.000000 0.000000 1.000000
vn 0.000000 1.000000 0.000000
vn 0.000000 1.000000 0.000000
vn 0.000000 1.000000 0.000000
vn 0.000000 1.000000 0.000000
vn 0.000000 1.000000 -0.000000
vn 0.000000 1.000000 0.000000
vn 0.000000 0.000000 -1.000000
vn 0.000000 0.000000 -1.000000
vn 0.000000 0.000000 -1.000000
vn 0.000000 0.000000 -1.000000
vn 0.000000 -1.000000 0.000000
vn 0.000000 -1.000000 0.000000
vn 0.000000 -1.000000 0.000000
vn 0.000000 -1.000000 0.000000
vn 0.000000 -1.000000 0.000000
vn 0.000000 0.000000 1.000000
vn 0.000000 0.000000 1.000000
vn 0.000000 0.000000 1.000000
vn 0.000000 0.000000 1.000000
vn 0.000000 0.000000 1.000000
vn 0.000000 0.000000 1.000000
vn 0.000000 -1.000000 0.000000
vn 0.000000 -1.000000 0.000000
vn 0.000000 -1.000000 0.000000
vn 0.000000 -1.000000 0.000000
vn 0.000000 -1.000000 0.000000
vn 0.000000 0.000000 -1.000000
vn 0.000000 0.000000 -1.000000
vn 0.000000 0.000000 -1.000000
vn 0.000000 0.000000 -1.000000
vn 0.000000 1.000000 -0.000000
vn 0.000000 1.000000 0.000000
vn 0.000000 1.000000 0.000000
vn 0.000000 1.000000 0.000000
vn 0.000000 1.000000 0.000000
vn 0.000000 1.000000 0.000000
vn 0.000000 0.000000 1.000000
vn 0.000000 0.000000 1.000000
vn 0.000000 1.000000 0.000000
vn 0.000000 1.000000 0.000000
vn 0.000000 1.000000 0.000000
vn 0.000000 1.000000 0.000000
vn 0.000000 1.000000 0.000001
vn 0.000000 1.000000 0.000001
vn 0.000000 1.000000 0.000001
vn 0.000000 1.000000 0.000001
vn 0.000000 1.000000 -0.000001
vn 0.000000 1.000000 -0.000001
vn 0.000000 1.000000 -0.000001
vn 0.000000 1.000000 -0.000001
vn 0.000000 1.000000 -0.000000
vn 0.000000 1.000000 -0.000000
vn 0.000000 1.000000 -0.000000
vn 0.000000 1.000000 -0.000000
vn -0.000000 1.000000 0.000000
vn -0.000000 1.000000 0.000000
vn -0.000000 1.000000 0.000000
vn -0.000000 1.000000 0.000000
vn 0.000000 1.000000 0.000001
vn 0.000000 1.000000 0.000001
vn 0.000000 1.000000 0.000001
vn 0.000000 1.000000 0.000001
vn -0.000000 1.000000 -0.000000
vn -0.000000 1.000000 -0.000000
vn -0.000000 1.000000 -0.000000
vn -0.000000 1.000000 -0.000000
vn 0.000000 1.000000 -0.000001
vn 0.000000 1.000000 -0.000001
vn 0.000000 1.000000 -0.000001
vn 0.000000 1.000000 -0.000001
vn 1.000000 -0.000000 0.000000
vn 1.000000 -0.000001 0.000000
vn 1.000000 -0.000001 0.000000
vn 1.000000 -0.000000 0.000000
vn -1.000000 -0.000000 0.000000
vn -1.000000 -0.000000 0.000000
vn -1.000000 -0.000000 0.000000
vn -1.000000 -0.000001 0.000000
vn -0.000000 0.000001 -1.000000
vn 0.000000 0.000001 -1.000000
vn 0.000000 0.000001 -1.000000
vn -0.000000 0.000001 -1.000000
vn 0.000000 -0.000000 1.000000
vn 0.000000 -0.000000 1.000000
vn 0.000000 -0.000001 1.000000
vn 0.000000 -0.000001 1.000000
vn 0.000000 0.000001 1.000000
vn 0.000000 0.000001 1.000000
vn 0.000000 0.000001 1.000000
vn 0.000000 0.000001 1.000000
vn 0.000000 -0.000000 -1.000000
vn 0.000000 -0.000000 -1.000000
vn 0.000000 -0.000001 -1.000000
vn 0.000000 -0.000001 -1.000000
vn 1.000000 0.000000 0.000000
vn 1.000000 0.000000 0.000000
vn -1.000000 -0.000000 0.000000
vn -1.000000 0.000000 0.000000
vn -1.000000 -0.000001 0.000000
vn -1.000000 -0.000000 0.000000
vn -1.000000 -0.000000 0.000000
vn -1.000000 -0.000001 0.000000
vn 1.000000 -0.000000 0.000000
vn 1.000000 0.000000 0.000000
vn 1.000000 0.000000 0.000000
vn 1.000000 -0.000000 0.000000
vn 0.000000 0.000001 -1.000000
vn 0.000000 0.000001 -1.000000
vn 0.000000 -0.000000 1.000000
vn 0.000000 -0.000001 1.000000
vn -1.000000 0.000000 0.000000
vn -1.000000 0.000000 0.000000
vn 1.000000 -0.000000 0.000000
vn 1.000000 -0.000001 0.000000
vn 0.000000 0.000001 1.000000
vn 0.000000 0.000001 1.000000
vn -0.000000 -0.000000 -1.000000
vn -0.000000 -0.000001 -1.000000
vn -1.000000 0.000000 0.000000
vn -1.000000 -0.000000 0.000000
vn 0.000000 -0.000000 1.000000
vn 0.000000 -0.000000 1.000000
vn 0.000000 -0.000000 -1.000000
vn 0.000000 -0.000000 -1.000000
vn -1.000000 -0.000000 0.000000
vn 1.000000 0.000000 0.000000
vn 1.000000 0.000000 0.000000
vn 0.000000 -0.000000 1.000000
vn 1.000000 0.000000 0.000000
vn 0.000000 -0.000000 -1.000000
s 1
g Rubbish_Bin_2
usemtl initialShadingGroup
f 61/1/1 51/2/2 73/3/3 62/4/4
s 2
f 110/5/5 111/6/6 112/7/7 113/8/8
s 3
f 57/9/9 58/10/10 66/11/11 67/12/12
s 4
f 54/13/13 55/14/14 69/15/15 70/16/16
s 5
f 22/17/17 23/18/18 48/19/19 49/20/20
s 6
f 42/21/21 43/22/22 28/23/23 29/24/24
s 7
f 51/2/25 52/25/26 72/26/27 73/3/28
s 8
f 24/27/29 25/28/30 46/29/31 47/30/32
s 9
f 56/31/33 57/9/34 67/12/35 68/32/36
s 10
f 44/33/37 45/34/38 26/35/39 27/36/40
s 11
f 23/18/41 24/27/42 47/30/43 48/19/44
s off
f 11/37/45 6/38/46 15/39/47 14/144/48
s 12
f 49/20/49 50/124/50 21/130/51 22/17/52
s off
f 4/43/53 10/44/54 13/45/55 16/140/56
s 13
f 43/22/57 44/33/58 27/36/59 28/23/60
s off
f 9/47/61 3/48/62 19/49/63 18/137/64
s 14
f 29/24/65 30/127/66 41/126/67 42/21/68
s off
f 5/53/69 12/54/70 17/55/71 20/132/72
s 12
f 22/17/52 21/130/51 31/129/73 32/58/74
s 5
f 32/58/75 33/59/76 23/18/18 22/17/17
s 11
f 33/59/77 34/60/78 24/27/42 23/18/41
s 8
f 34/60/79 35/61/80 25/28/30 24/27/29
s 4
f 53/62/81 54/13/13 70/16/16 71/63/82
s 10
f 27/36/40 26/35/39 36/64/83 37/65/84
s 13
f 28/23/60 27/36/59 37/65/85 38/66/86
s 6
f 29/24/24 28/23/23 38/66/87 39/67/88
s 14
f 39/67/89 40/128/90 30/127/66 29/24/65
s 2
f 111/6/6 114/69/91 115/70/92 112/7/7
s 12
f 32/58/74 31/129/73 4/139/93 16/46/94
s 5
f 13/142/95 33/59/76 32/58/75 16/46/96
s 11
f 10/153/97 34/60/78 33/59/77 13/142/98
s 8
f 2/71/99 35/61/80 34/60/79 10/153/100
s 4
f 52/25/101 53/62/81 71/63/82 72/26/102
s 10
f 37/65/84 36/64/83 1/72/103 9/136/104
s 13
f 38/66/86 37/65/85 9/136/105 18/50/106
s 6
f 39/67/88 38/66/87 18/50/107 19/133/108
s 14
f 3/120/109 40/128/90 39/67/89 19/133/110
s 15
f 60/148/111 61/123/112 62/122/113 63/151/114
s 14
f 42/21/68 41/126/67 5/131/115 20/56/116
s 6
f 17/134/117 43/22/22 42/21/21 20/56/118
s 13
f 12/135/119 44/33/58 43/22/57 17/134/120
s 10
f 7/75/121 45/34/38 44/33/37 12/135/122
s 4
f 55/14/14 56/31/123 68/32/124 69/15/15
s 8
f 47/30/32 46/29/31 8/76/125 11/143/126
s 11
f 48/19/44 47/30/43 11/143/127 14/40/128
s 5
f 49/20/20 48/19/19 14/40/129 15/141/130
s 12
f 6/125/131 50/124/50 49/20/49 15/141/132
s 15
f 58/10/133 59/152/134 65/150/135 66/11/136
s 7
f 74/79/137 75/80/138 52/25/26 51/2/25
s 4
f 75/80/139 76/81/140 53/62/81 52/25/101
f 76/81/140 77/82/141 54/13/13 53/62/81
f 77/82/141 78/83/142 55/14/14 54/13/13
f 78/83/142 79/84/143 56/31/123 55/14/14
s 9
f 79/84/144 80/85/145 57/9/34 56/31/33
s 3
f 80/85/146 81/86/147 58/10/10 57/9/9
s 15
f 81/86/148 82/147/149 59/152/134 58/10/133
s 2
f 116/88/150 117/89/151 111/6/6 110/5/5
f 117/89/151 118/90/152 114/69/91 111/6/6
s 15
f 84/146/153 85/119/154 61/123/112 60/148/111
s 1
f 85/92/155 74/79/156 51/2/2 61/1/1
s 15
f 63/151/114 62/122/113 4/138/157 31/57/158
f 64/149/159 63/151/114 31/57/158 21/42/160
f 65/150/135 64/149/159 21/42/160 50/41/161
f 66/11/136 65/150/135 50/41/161 6/38/162
s 3
f 67/12/12 66/11/11 6/38/163 11/37/164
s 9
f 68/32/36 67/12/35 11/37/165 8/76/166
s 4
f 69/15/15 68/32/124 8/76/167 46/29/168
f 70/16/16 69/15/15 46/29/168 25/28/169
f 71/63/82 70/16/16 25/28/169 35/61/170
f 72/26/102 71/63/82 35/61/170 2/71/171
s 7
f 73/3/28 72/26/27 2/71/172 10/44/173
s 1
f 62/4/4 73/3/3 10/44/174 4/43/175
s 7
f 1/72/176 75/80/138 74/79/137 9/47/177
s 4
f 36/64/178 76/81/140 75/80/139 1/72/179
f 26/35/180 77/82/141 76/81/140 36/64/178
f 45/34/181 78/83/142 77/82/141 26/35/180
f 7/75/182 79/84/143 78/83/142 45/34/181
s 9
f 12/54/183 80/85/145 79/84/144 7/75/184
s 3
f 5/53/185 81/86/147 80/85/146 12/54/186
s 15
f 41/52/187 82/147/149 81/86/148 5/53/188
f 30/51/189 83/145/190 82/147/149 41/52/187
f 40/68/191 84/146/153 83/145/190 30/51/189
f 3/121/192 85/119/154 84/146/153 40/68/191
s 1
f 9/47/193 74/79/156 85/92/155 3/48/194
s off
f 94/95/195 95/167/196 96/168/197 97/98/198
f 95/96/199 98/99/200 99/100/201 96/97/202
f 100/101/203 101/164/204 102/165/205 103/104/206
f 101/102/207 94/95/208 97/98/209 102/103/210
f 104/161/211 105/106/212 106/107/213 107/162/214
f 98/99/215 104/105/216 107/108/217 99/100/218
f 105/106/219 108/158/220 109/159/221 106/107/222
f 108/109/223 100/101/224 103/104/225 109/110/226
s 17
f 64/93/227 65/169/228 95/167/229 94/95/230
s 18
f 88/157/231 87/112/232 97/98/233 96/168/234
s 19
f 65/78/235 59/77/236 98/99/237 95/96/238
s 20
f 86/113/239 88/111/240 96/97/241 99/100/242
s 21
f 60/73/243 63/166/244 101/164/245 100/101/246
s 22
f 90/156/247 89/115/248 103/104/249 102/165/250
s 17
f 63/74/251 64/93/227 94/95/230 101/102/252
s 18
f 87/112/232 90/114/253 102/103/254 97/98/233
s 23
f 82/87/255 83/94/256 105/106/257 104/161/258
s 24
f 92/116/259 91/117/260 107/162/261 106/107/262
s 19
f 59/77/236 82/163/263 104/105/264 98/99/237
s 20
f 91/155/265 86/113/239 99/100/242 107/108/266
s 23
f 83/94/256 84/160/267 108/158/268 105/106/257
s 24
f 93/154/269 92/116/259 106/107/262 109/159/270
s 21
f 84/91/271 60/73/243 100/101/246 108/109/272
s 22
f 89/115/248 93/118/273 109/110/274 103/104/249
s 18
f 87/112/232 88/157/231 113/8/275 112/7/276
s 20
f 88/111/240 86/113/239 110/5/277 113/8/278
s 22
f 89/115/248 90/156/247 115/70/279 114/69/280
s 18
f 90/114/253 87/112/232 112/7/276 115/70/281
s 24
f 91/117/260 92/116/259 117/89/282 116/88/283
s 20
f 86/113/239 91/155/265 116/88/284 110/5/277
s 24
f 92/116/259 93/154/269 118/90/285 117/89/282
s 22
f 93/118/273 89/115/248 114/69/280 118/90/286
