# This file uses centimeters as units for non-parametric coordinates.

mtllib Tent.mtl
g default
v -10.001631 -0.152971 14.850629
v 10.155934 -0.152971 14.850629
v -10.001631 0.152795 14.850629
v 10.155934 0.152795 14.850629
v -10.001631 0.152795 -15.135385
v 10.155934 0.152795 -15.135385
v -10.001631 -0.152971 -15.135385
v 10.155934 -0.152971 -15.135385
v 0.077151 15.999831 14.850629
v 0.077151 15.999831 -15.135385
v 0.077151 16.305597 -15.135385
v 0.077151 16.305597 14.850629
v 1.696136 11.752097 14.850629
v 1.696136 12.057862 14.850629
v 1.696136 12.057862 -15.135385
v 1.696136 11.752097 -15.135385
v 6.534490 4.266299 14.850629
v 6.534490 4.572064 14.850629
v 6.534490 4.572064 -15.135385
v 6.534490 4.266299 -15.135385
v -2.136275 10.705055 14.850629
v -2.136275 10.705055 -15.135385
v -2.136275 11.010821 -15.135385
v -2.136275 11.010821 14.850629
v -4.862588 5.928686 14.850629
v -4.862588 5.928686 -15.135385
v -4.862588 6.234452 -15.135385
v -4.862588 6.234452 14.850629
vt 0.515401 0.604080
vt 0.535748 0.136902
vt 0.473453 0.133636
vt 0.585671 0.603466
vt 0.539635 0.544836
vt 0.481640 0.549424
vt 0.539652 0.543272
vt 0.477442 0.547729
vt 0.250637 0.126186
vt 0.255017 0.559197
vt 0.259513 0.562194
vt 0.782620 0.601746
vt 0.773127 0.526849
vt 0.769607 0.148584
vt 0.248182 0.606413
vt 0.770933 0.529200
vt 0.610887 0.142409
vt 0.614685 0.536250
vt 0.611387 0.538211
vt 0.427810 0.604845
vt 0.341796 0.127554
vt 0.709511 0.602384
vt 0.350371 0.558637
vt 0.346128 0.556176
vt 0.679259 0.146409
vt 0.682994 0.530834
vt 0.351124 0.967597
vt 0.676704 0.144203
vt 0.348794 0.605535
vt 0.607551 0.140519
vt 0.680496 0.533093
vt 0.430140 0.966908
vt 0.535702 0.135343
vt 0.517732 0.966143
vt 0.711841 0.964447
vt 0.784951 0.963809
vt 0.345986 0.125017
vt 0.245532 0.126222
vt 0.588002 0.965529
vt 0.477625 0.131868
vt 0.767357 0.146282
vt 0.250512 0.968476
vt 0.249910 0.559248
vt 0.255056 0.123118
vt 0.776441 0.526803
vt 0.772926 0.148556
vn -0.000000 0.000000 1.000000
vn -0.000000 0.000000 1.000000
vn 0.000006 0.000000 1.000000
vn 0.000000 0.000000 1.000000
vn -0.263548 0.964646 -0.000000
vn -0.263548 0.964646 -0.000000
vn 0.876093 0.482142 0.000000
vn 0.876093 0.482142 0.000000
vn 0.000000 0.000000 -1.000000
vn 0.000000 0.000000 -1.000000
vn 0.000000 0.000000 -1.000000
vn 0.000006 0.000000 -1.000000
vn 0.263548 -0.964646 0.000000
vn 0.263548 -0.964646 0.000000
vn -0.876093 -0.482142 -0.000000
vn -0.876093 -0.482142 -0.000000
vn 1.000000 0.000000 0.000000
vn 1.000000 0.000000 0.000000
vn 1.000000 0.000000 0.000000
vn 1.000000 0.000000 0.000000
vn -1.000000 0.000000 -0.000000
vn -1.000000 0.000000 -0.000000
vn -1.000000 0.000000 -0.000000
vn -1.000000 0.000000 -0.000000
vn 0.897818 -0.440366 0.000000
vn 0.897818 -0.440366 0.000000
vn 0.000000 0.000000 -1.000000
vn 0.000000 0.000000 -1.000000
vn -0.897818 0.440366 -0.000000
vn -0.897818 0.440366 -0.000000
vn -0.000000 0.000000 1.000000
vn -0.000000 0.000000 1.000000
vn 0.000000 0.000000 1.000000
vn 0.000006 0.000000 1.000000
vn 0.815150 0.579250 0.000000
vn 0.815150 0.579250 0.000000
vn 0.000006 0.000000 -1.000000
vn 0.000000 0.000000 -1.000000
vn -0.815150 -0.579250 -0.000000
vn -0.815150 -0.579250 -0.000000
vn -0.000000 0.000000 1.000000
vn -0.000000 0.000000 1.000000
vn 0.773470 0.633833 0.000000
vn 0.773470 0.633833 0.000000
vn 0.000000 0.000000 -1.000000
vn 0.000000 0.000000 -1.000000
vn -0.773470 -0.633833 -0.000000
vn -0.773470 -0.633833 -0.000000
vn 0.809848 -0.586639 0.000000
vn 0.809848 -0.586639 0.000000
vn 0.000000 0.000000 -1.000000
vn 0.000000 0.000000 -1.000000
vn -0.809848 0.586639 -0.000000
vn -0.809848 0.586639 -0.000000
vn -0.000000 0.000000 1.000000
vn -0.000000 0.000000 1.000000
vn 0.763818 -0.645432 0.000000
vn 0.763818 -0.645432 0.000000
vn 0.000000 0.000000 -1.000000
vn 0.000000 0.000000 -1.000000
vn -0.763818 0.645432 -0.000000
vn -0.763818 0.645432 -0.000000
vn -0.000000 0.000000 1.000000
vn -0.000000 0.000000 1.000000
s 1
g Tent_Cloth Tent
usemtl initialShadingGroup
f 12/33/1 9/2/2 13/3/3 14/40/4
s 2
f 11/34/5 12/1/6 14/4/7 15/39/8
s 3
f 10/7/9 11/5/10 15/6/11 16/8/12
s 4
f 9/2/13 10/7/14 16/8/15 13/3/16
s off
f 2/9/17 8/10/18 6/43/19 4/38/20
f 7/13/21 1/14/22 3/46/23 5/45/24
s 4
f 21/17/25 22/18/26 10/7/14 9/2/13
s 3
f 22/18/27 23/19/28 11/5/10 10/7/9
s 2
f 23/32/29 24/20/30 12/1/6 11/34/5
s 1
f 24/30/31 21/17/32 9/2/2 12/33/1
f 14/40/4 13/3/3 17/21/33 18/37/34
s 2
f 15/39/8 14/4/7 18/22/35 19/35/36
s 3
f 16/8/12 15/6/11 19/23/37 20/24/38
s 4
f 13/3/16 16/8/15 20/24/39 17/21/40
s 1
f 18/37/34 17/21/33 2/9/41 4/44/42
s 2
f 19/35/36 18/22/35 4/12/43 6/36/44
s 3
f 20/24/38 19/23/37 6/11/45 8/10/46
s 4
f 17/21/40 20/24/39 8/10/47 2/9/48
f 25/25/49 26/26/50 22/18/26 21/17/25
s 3
f 26/26/51 27/31/52 23/19/28 22/18/27
s 2
f 27/27/53 28/29/54 24/20/30 23/32/29
s 1
f 28/28/55 25/25/56 21/17/32 24/30/31
s 4
f 7/13/57 26/26/50 25/25/49 1/14/58
s 3
f 5/16/59 27/31/52 26/26/51 7/13/60
s 2
f 3/15/61 28/29/54 27/27/53 5/42/62
s 1
f 1/14/63 25/25/56 28/28/55 3/41/64
g default
v 0.322606 -2.124816 -14.374719
v 0.102849 -2.124816 -14.465747
v -0.116908 -2.124816 -14.374719
v -0.207935 -2.124816 -14.154961
v -0.116908 -2.124816 -13.935204
v 0.102849 -2.124816 -13.844176
v 0.322606 -2.124816 -13.935204
v 0.413632 -2.124816 -14.154961
v 0.322606 17.788662 -14.374719
v 0.102849 17.788662 -14.465747
v -0.116908 17.788662 -14.374719
v -0.207935 17.788662 -14.154961
v -0.116908 17.788662 -13.935204
v 0.102849 17.788662 -13.844176
v 0.322606 17.788662 -13.935204
v 0.413632 17.788662 -14.154961
v 0.102849 -2.124816 -14.154961
v 0.102849 17.788662 -14.154961
v 0.322606 -2.124816 13.549079
v 0.102849 -2.124816 13.458053
v -0.116908 -2.124816 13.549079
v -0.207935 -2.124816 13.768836
v -0.116908 -2.124816 13.988593
v 0.102849 -2.124816 14.079620
v 0.322606 -2.124816 13.988593
v 0.413632 -2.124816 13.768836
v 0.322606 17.788662 13.549079
v 0.102849 17.788662 13.458053
v -0.116908 17.788662 13.549079
v -0.207935 17.788662 13.768836
v -0.116908 17.788662 13.988593
v 0.102849 17.788662 14.079620
v 0.322606 17.788662 13.988593
v 0.413632 17.788662 13.768836
v 0.102849 -2.124816 13.768836
v 0.102849 17.788662 13.768836
vt 0.965244 0.427519
vt 0.971642 0.427522
vt 0.971330 0.963099
vt 0.964933 0.963095
vt 0.976168 0.423001
vt 0.975851 0.967625
vt 0.976172 0.416604
vt 0.975847 0.974022
vt 0.971651 0.412078
vt 0.971321 0.978543
vt 0.965253 0.412074
vt 0.964923 0.978540
vt 0.960727 0.416595
vt 0.960403 0.974013
vt 0.960723 0.422992
vt 0.960406 0.967616
vt 0.968447 0.419798
vt 0.968127 0.970819
vt 0.042220 0.403430
vt 0.037640 0.398875
vt 0.039236 0.970755
vt 0.043790 0.966175
vt 0.031182 0.398893
vt 0.032778 0.970773
vt 0.026628 0.403473
vt 0.028198 0.966219
vt 0.026646 0.409932
vt 0.028180 0.959760
vt 0.031225 0.414486
vt 0.032734 0.955181
vt 0.037684 0.414468
vt 0.039193 0.955163
vt 0.042238 0.409888
vt 0.043772 0.959717
vt 0.034433 0.406681
vt 0.035985 0.962968
vt 0.082894 0.414342
vt 0.084402 0.955037
vt 0.045651 0.955145
vt 0.052110 0.955127
vt 0.077944 0.955055
vt 0.071485 0.955073
vt 0.065027 0.955091
vt 0.058568 0.955109
vt 0.044142 0.414450
vt 0.050601 0.414432
vt 0.076435 0.414360
vt 0.069977 0.414378
vt 0.063518 0.414396
vt 0.057059 0.414414
vt 0.920463 0.427492
vt 0.920151 0.963069
vt 0.958535 0.963091
vt 0.952138 0.963087
vt 0.945740 0.963084
vt 0.939343 0.963080
vt 0.932946 0.963076
vt 0.926548 0.963073
vt 0.958847 0.427515
vt 0.952450 0.427511
vt 0.946052 0.427507
vt 0.939655 0.427504
vt 0.933257 0.427500
vt 0.926860 0.427496
vn 0.707097 -0.005852 -0.707093
vn 0.000000 -0.005852 -0.999983
vn 0.000000 0.005852 -0.999983
vn 0.707097 0.005852 -0.707093
vn -0.707097 -0.005852 -0.707093
vn -0.707097 0.005852 -0.707093
vn -0.999983 -0.005853 -0.000000
vn -0.999983 0.005853 0.000000
vn -0.707098 -0.005852 0.707091
vn -0.707098 0.005852 0.707091
vn 0.000000 -0.005852 0.999983
vn 0.000000 0.005852 0.999983
vn 0.707098 -0.005852 0.707091
vn 0.707098 0.005852 0.707091
vn 0.999983 -0.005852 0.000000
vn 0.999983 0.005852 -0.000000
vn 0.000000 -1.000000 0.000000
vn 0.000000 1.000000 -0.000000
vn 0.707095 -0.005852 -0.707094
vn 0.000000 -0.005852 -0.999983
vn 0.000000 0.005852 -0.999983
vn 0.707095 0.005852 -0.707094
vn -0.707095 -0.005852 -0.707094
vn -0.707095 0.005852 -0.707094
vn -0.999983 -0.005853 -0.000000
vn -0.999983 0.005853 0.000000
vn -0.707095 -0.005852 0.707094
vn -0.707095 0.005852 0.707094
vn 0.000000 -0.005852 0.999983
vn 0.000000 0.005852 0.999983
vn 0.707095 -0.005852 0.707094
vn 0.707095 0.005852 0.707094
vn 0.999983 -0.005852 0.000000
vn 0.999983 0.005852 -0.000000
vn 0.000000 -1.000000 0.000000
vn 0.000000 1.000000 -0.000000
s 1
g Tent Tent_long_sticks
usemtl initialShadingGroup
f 29/47/65 30/48/66 38/49/67 37/50/68
f 30/97/66 31/110/69 39/104/70 38/98/67
f 31/110/69 32/109/71 40/103/72 39/104/70
f 32/109/71 33/108/73 41/102/74 40/103/72
f 33/108/73 34/107/75 42/101/76 41/102/74
f 34/107/75 35/106/77 43/100/78 42/101/76
f 35/106/77 36/105/79 44/99/80 43/100/78
f 36/105/79 29/47/65 37/50/68 44/99/80
f 30/48/66 29/47/65 45/63/81
f 31/51/69 30/48/66 45/63/81
f 32/53/71 31/51/69 45/63/81
f 33/55/73 32/53/71 45/63/81
f 34/57/75 33/55/73 45/63/81
f 35/59/77 34/57/75 45/63/81
f 36/61/79 35/59/77 45/63/81
f 29/47/65 36/61/79 45/63/81
f 37/50/68 38/49/67 46/64/82
f 38/49/67 39/52/70 46/64/82
f 39/52/70 40/54/72 46/64/82
f 40/54/72 41/56/74 46/64/82
f 41/56/74 42/58/76 46/64/82
f 42/58/76 43/60/78 46/64/82
f 43/60/78 44/62/80 46/64/82
f 44/62/80 37/50/68 46/64/82
s 2
f 47/92/83 48/96/84 56/90/85 55/86/86
f 48/96/84 49/95/87 57/89/88 56/90/85
f 49/95/87 50/94/89 58/88/90 57/89/88
f 50/94/89 51/93/91 59/87/92 58/88/90
f 51/93/91 52/83/93 60/84/94 59/87/92
f 52/75/93 53/77/95 61/78/96 60/76/94
f 53/77/95 54/91/97 62/85/98 61/78/96
f 54/91/97 47/92/83 55/86/86 62/85/98
f 48/66/84 47/65/83 63/81/99
f 49/69/87 48/66/84 63/81/99
f 50/71/89 49/69/87 63/81/99
f 51/73/91 50/71/89 63/81/99
f 52/75/93 51/73/91 63/81/99
f 53/77/95 52/75/93 63/81/99
f 54/79/97 53/77/95 63/81/99
f 47/65/83 54/79/97 63/81/99
f 55/68/86 56/67/85 64/82/100
f 56/67/85 57/70/88 64/82/100
f 57/70/88 58/72/90 64/82/100
f 58/72/90 59/74/92 64/82/100
f 59/74/92 60/76/94 64/82/100
f 60/76/94 61/78/96 64/82/100
f 61/78/96 62/80/98 64/82/100
f 62/80/98 55/68/86 64/82/100
g default
v -9.030967 -0.835051 14.192027
v -9.147296 -0.889935 14.138747
v -9.263625 -0.944820 14.192027
v -9.311813 -0.967554 14.320655
v -9.263625 -0.944820 14.449283
v -9.147296 -0.889935 14.502563
v -9.030967 -0.835051 14.449283
v -8.982780 -0.812317 14.320655
v -9.969070 1.455217 14.063205
v -10.201907 1.345366 13.956565
v -10.434745 1.235514 14.063205
v -10.531188 1.190010 14.320655
v -10.434745 1.235514 14.578105
v -10.201907 1.345366 14.684745
v -9.969070 1.455217 14.578105
v -9.872626 1.500719 14.320655
v -9.147296 -0.889935 14.320655
v -10.201907 1.345366 14.320655
v -9.030967 -0.835051 -14.854319
v -9.147296 -0.889935 -14.907597
v -9.263625 -0.944820 -14.854319
v -9.311813 -0.967554 -14.725692
v -9.263625 -0.944820 -14.597064
v -9.147296 -0.889935 -14.543786
v -9.030967 -0.835051 -14.597064
v -8.982780 -0.812317 -14.725692
v -9.969070 1.455217 -14.983144
v -10.201907 1.345366 -15.089782
v -10.434745 1.235514 -14.983144
v -10.531188 1.190010 -14.725692
v -10.434745 1.235514 -14.468240
v -10.201907 1.345366 -14.361602
v -9.969070 1.455217 -14.468240
v -9.872626 1.500719 -14.725692
v -9.147296 -0.889935 -14.725692
v -10.201907 1.345366 -14.725692
v 9.426213 -0.939064 14.192027
v 9.310647 -0.882586 14.138747
v 9.195084 -0.826107 14.192027
v 9.147214 -0.802713 14.320655
v 9.195084 -0.826107 14.449283
v 9.310647 -0.882586 14.502563
v 9.426213 -0.939064 14.449283
v 9.474084 -0.962457 14.320655
v 10.627179 1.224974 14.063205
v 10.395871 1.338015 13.956565
v 10.164567 1.451056 14.063205
v 10.068757 1.497879 14.320655
v 10.164567 1.451056 14.578105
v 10.395871 1.338015 14.684745
v 10.627179 1.224974 14.578105
v 10.722989 1.178150 14.320655
v 9.310647 -0.882586 14.320655
v 10.395871 1.338015 14.320655
v 9.426213 -0.939064 -14.854319
v 9.310647 -0.882586 -14.907597
v 9.195084 -0.826107 -14.854319
v 9.147214 -0.802713 -14.725692
v 9.195084 -0.826107 -14.597064
v 9.310647 -0.882586 -14.543786
v 9.426213 -0.939064 -14.597064
v 9.474084 -0.962457 -14.725692
v 10.627179 1.224974 -14.983144
v 10.395871 1.338015 -15.089782
v 10.164567 1.451056 -14.983144
v 10.068757 1.497879 -14.725692
v 10.164567 1.451056 -14.468240
v 10.395871 1.338015 -14.361602
v 10.627179 1.224974 -14.468240
v 10.722989 1.178150 -14.725692
v 9.310647 -0.882586 -14.725692
v 10.395871 1.338015 -14.725692
vt 0.156618 0.287433
vt 0.153835 0.289224
vt 0.133854 0.362480
vt 0.137438 0.368049
vt 0.153134 0.292458
vt 0.135258 0.356008
vt 0.154925 0.295240
vt 0.140826 0.352425
vt 0.158158 0.295941
vt 0.147298 0.353828
vt 0.160940 0.294151
vt 0.150882 0.359397
vt 0.161642 0.290917
vt 0.149478 0.365869
vt 0.159851 0.288135
vt 0.143910 0.369453
vt 0.157388 0.291687
vt 0.142368 0.360939
vt 0.836578 0.278569
vt 0.837163 0.281823
vt 0.844891 0.347334
vt 0.846062 0.353847
vt 0.839878 0.283710
vt 0.848667 0.341900
vt 0.843132 0.283125
vt 0.855179 0.340728
vt 0.845018 0.280410
vt 0.860613 0.344505
vt 0.844433 0.277156
vt 0.861785 0.351017
vt 0.841718 0.275269
vt 0.858009 0.356451
vt 0.838464 0.275855
vt 0.851496 0.357623
vt 0.840798 0.279490
vt 0.853338 0.349176
vt 0.845099 0.280454
vt 0.844536 0.277214
vt 0.861367 0.350790
vt 0.860239 0.344305
vt 0.841846 0.275321
vt 0.857579 0.356174
vt 0.838606 0.275885
vt 0.851093 0.357302
vt 0.836713 0.278575
vt 0.845710 0.353513
vt 0.837277 0.281815
vt 0.844582 0.347028
vt 0.839966 0.283707
vt 0.848370 0.341645
vt 0.843206 0.283144
vt 0.854856 0.340517
vt 0.840906 0.279514
vt 0.852975 0.348909
vt 0.157848 0.295928
vt 0.160649 0.294108
vt 0.150793 0.360033
vt 0.147148 0.354427
vt 0.161342 0.290839
vt 0.149405 0.366575
vt 0.159522 0.288038
vt 0.143798 0.370219
vt 0.156254 0.287345
vt 0.137257 0.368831
vt 0.153453 0.289166
vt 0.133613 0.363225
vt 0.152759 0.292434
vt 0.135001 0.356683
vt 0.154580 0.295235
vt 0.140607 0.353039
vt 0.157051 0.291637
vt 0.142203 0.361629
vt 0.181083 0.295556
vt 0.193654 0.353681
vt 0.187081 0.354910
vt 0.180449 0.355767
vt 0.173780 0.356250
vt 0.167094 0.356358
vt 0.160413 0.356089
vt 0.153757 0.355444
vt 0.177799 0.296170
vt 0.174486 0.296598
vt 0.171154 0.296839
vt 0.167813 0.296893
vt 0.164475 0.296759
vt 0.161150 0.296437
vt 0.817122 0.282498
vt 0.802647 0.339224
vt 0.809069 0.340671
vt 0.841832 0.342406
vt 0.835261 0.342798
vt 0.828678 0.342821
vt 0.822105 0.342473
vt 0.815561 0.341755
vt 0.820330 0.283221
vt 0.836699 0.284088
vt 0.833416 0.284284
vt 0.830128 0.284295
vt 0.826843 0.284121
vt 0.823574 0.283763
vt 0.816907 0.282629
vt 0.802690 0.339736
vt 0.828879 0.343198
vt 0.835496 0.343137
vt 0.822269 0.342887
vt 0.815687 0.342205
vt 0.809154 0.341153
vt 0.842099 0.342704
vt 0.829991 0.284359
vt 0.833297 0.284328
vt 0.826689 0.284203
vt 0.823401 0.283862
vt 0.820136 0.283337
vt 0.836596 0.284112
vt 0.181171 0.295677
vt 0.193359 0.353298
vt 0.167044 0.355830
vt 0.173666 0.355754
vt 0.160428 0.355534
vt 0.153839 0.354866
vt 0.186844 0.354486
vt 0.180273 0.355306
vt 0.168023 0.296941
vt 0.171332 0.296903
vt 0.164718 0.296793
vt 0.161426 0.296460
vt 0.177916 0.296270
vt 0.174633 0.296679
vn 0.675825 0.217800 -0.704147
vn 0.038990 -0.082656 -0.995815
vn -0.000564 0.001182 -0.999999
vn 0.638946 0.302899 -0.707107
vn -0.597832 -0.383110 -0.704147
vn -0.640062 -0.300533 -0.707107
vn -0.861616 -0.507561 0.000001
vn -0.904954 -0.425509 0.000001
vn -0.597833 -0.383110 0.704147
vn -0.640062 -0.300534 0.707107
vn 0.038997 -0.082656 0.995815
vn -0.000556 0.001181 0.999999
vn 0.675826 0.217801 0.704146
vn 0.638947 0.302899 0.707105
vn 0.939608 0.342252 0.000001
vn 0.903838 0.427875 0.000001
vn 0.426688 -0.904399 0.000000
vn -0.426692 0.904397 -0.000000
vn 0.675825 0.217799 -0.704148
vn 0.038994 -0.082655 -0.995815
vn -0.000560 0.001182 -0.999999
vn 0.638946 0.302898 -0.707107
vn -0.597830 -0.383110 -0.704149
vn -0.640060 -0.300534 -0.707109
vn -0.861615 -0.507563 0.000000
vn -0.904954 -0.425510 0.000000
vn -0.597831 -0.383111 0.704148
vn -0.640060 -0.300535 0.707108
vn 0.038994 -0.082657 0.995815
vn -0.000560 0.001181 0.999999
vn 0.675825 0.217798 0.704148
vn 0.638946 0.302898 0.707107
vn 0.939609 0.342250 0.000000
vn 0.903839 0.427874 0.000000
vn 0.426697 -0.904395 -0.000000
vn -0.426690 0.904398 -0.000000
vn 0.592505 -0.391289 -0.704153
vn -0.040120 -0.082113 -0.995815
vn 0.000580 0.001174 -0.999999
vn 0.635867 -0.309302 -0.707111
vn -0.672768 0.227064 -0.704149
vn -0.634724 0.311651 -0.707106
vn -0.934819 0.355125 -0.000000
vn -0.897876 0.440248 -0.000000
vn -0.672773 0.227063 0.704144
vn -0.634729 0.311650 0.707102
vn -0.040127 -0.082113 0.995815
vn 0.000575 0.001175 0.999999
vn 0.592510 -0.391286 0.704150
vn 0.635872 -0.309299 0.707107
vn 0.854559 -0.519355 0.000000
vn 0.899021 -0.437906 0.000000
vn -0.439078 -0.898449 -0.000000
vn 0.439074 0.898451 -0.000000
vn 0.592508 -0.391286 -0.704152
vn -0.040128 -0.082114 -0.995815
vn 0.000573 0.001173 -0.999999
vn 0.635869 -0.309300 -0.707110
vn -0.672766 0.227064 -0.704150
vn -0.634723 0.311650 -0.707108
vn -0.934818 0.355129 -0.000001
vn -0.897875 0.440251 -0.000001
vn -0.672770 0.227063 0.704147
vn -0.634727 0.311649 0.707105
vn -0.040132 -0.082114 0.995815
vn 0.000570 0.001174 0.999999
vn 0.592503 -0.391289 0.704155
vn 0.635865 -0.309302 0.707112
vn 0.854561 -0.519351 0.000001
vn 0.899023 -0.437902 0.000001
vn -0.439082 -0.898447 -0.000000
vn 0.439078 0.898449 0.000000
s 1
g Tent Tent_Nails
usemtl initialShadingGroup
f 65/234/101 66/238/102 74/232/103 73/228/104
f 66/238/102 67/237/105 75/231/106 74/232/103
f 67/237/105 68/225/107 76/226/108 75/231/106
f 68/117/107 69/119/109 77/120/110 76/118/108
f 69/119/109 70/236/111 78/230/112 77/120/110
f 70/236/111 71/235/113 79/229/114 78/230/112
f 71/235/113 72/233/115 80/227/116 79/229/114
f 72/233/115 65/234/101 73/228/104 80/227/116
f 66/112/102 65/111/101 81/127/117
f 67/115/105 66/112/102 81/127/117
f 68/117/107 67/115/105 81/127/117
f 69/119/109 68/117/107 81/127/117
f 70/121/111 69/119/109 81/127/117
f 71/123/113 70/121/111 81/127/117
f 72/125/115 71/123/113 81/127/117
f 65/111/101 72/125/115 81/127/117
f 73/114/104 74/113/103 82/128/118
f 74/113/103 75/116/106 82/128/118
f 75/116/106 76/118/108 82/128/118
f 76/118/108 77/120/110 82/128/118
f 77/120/110 78/122/112 82/128/118
f 78/122/112 79/124/114 82/128/118
f 79/124/114 80/126/116 82/128/118
f 80/126/116 73/114/104 82/128/118
s 2
f 83/220/119 84/224/120 92/218/121 91/214/122
f 84/224/120 85/133/123 93/134/124 92/218/121
f 85/133/123 86/135/125 94/136/126 93/134/124
f 86/211/125 87/223/127 95/217/128 94/212/126
f 87/223/127 88/222/129 96/216/130 95/217/128
f 88/222/129 89/221/131 97/215/132 96/216/130
f 89/221/131 90/219/133 98/213/134 97/215/132
f 90/219/133 83/220/119 91/214/122 98/213/134
f 84/130/120 83/129/119 99/145/135
f 85/133/123 84/130/120 99/145/135
f 86/135/125 85/133/123 99/145/135
f 87/137/127 86/135/125 99/145/135
f 88/139/129 87/137/127 99/145/135
f 89/141/131 88/139/129 99/145/135
f 90/143/133 89/141/131 99/145/135
f 83/129/119 90/143/133 99/145/135
f 91/132/122 92/131/121 100/146/136
f 92/131/121 93/134/124 100/146/136
f 93/134/124 94/136/126 100/146/136
f 94/136/126 95/138/128 100/146/136
f 95/138/128 96/140/130 100/146/136
f 96/140/130 97/142/132 100/146/136
f 97/142/132 98/144/134 100/146/136
f 98/144/134 91/132/122 100/146/136
s 3
f 101/205/137 102/210/138 110/204/139 109/199/140
f 102/210/138 103/209/141 111/203/142 110/204/139
f 103/209/141 104/208/143 112/202/144 111/203/142
f 104/208/143 105/207/145 113/201/146 112/202/144
f 105/207/145 106/206/147 114/200/148 113/201/146
f 106/206/147 107/159/149 115/160/150 114/200/148
f 107/159/149 108/161/151 116/162/152 115/160/150
f 108/197/151 101/205/137 109/199/140 116/198/152
f 102/148/138 101/147/137 117/163/153
f 103/151/141 102/148/138 117/163/153
f 104/153/143 103/151/141 117/163/153
f 105/155/145 104/153/143 117/163/153
f 106/157/147 105/155/145 117/163/153
f 107/159/149 106/157/147 117/163/153
f 108/161/151 107/159/149 117/163/153
f 101/147/137 108/161/151 117/163/153
f 109/150/140 110/149/139 118/164/154
f 110/149/139 111/152/142 118/164/154
f 111/152/142 112/154/144 118/164/154
f 112/154/144 113/156/146 118/164/154
f 113/156/146 114/158/148 118/164/154
f 114/158/148 115/160/150 118/164/154
f 115/160/150 116/162/152 118/164/154
f 116/162/152 109/150/140 118/164/154
s 4
f 119/165/155 120/196/156 128/190/157 127/168/158
f 120/196/156 121/195/159 129/189/160 128/190/157
f 121/195/159 122/194/161 130/188/162 129/189/160
f 122/194/161 123/193/163 131/187/164 130/188/162
f 123/193/163 124/192/165 132/186/166 131/187/164
f 124/192/165 125/191/167 133/185/168 132/186/166
f 125/191/167 126/183/169 134/184/170 133/185/168
f 126/179/169 119/165/155 127/168/158 134/180/170
f 120/166/156 119/165/155 135/181/171
f 121/169/159 120/166/156 135/181/171
f 122/171/161 121/169/159 135/181/171
f 123/173/163 122/171/161 135/181/171
f 124/175/165 123/173/163 135/181/171
f 125/177/167 124/175/165 135/181/171
f 126/179/169 125/177/167 135/181/171
f 119/165/155 126/179/169 135/181/171
f 127/168/158 128/167/157 136/182/172
f 128/167/157 129/170/160 136/182/172
f 129/170/160 130/172/162 136/182/172
f 130/172/162 131/174/164 136/182/172
f 131/174/164 132/176/166 136/182/172
f 132/176/166 133/178/168 136/182/172
f 133/178/168 134/180/170 136/182/172
f 134/180/170 127/168/158 136/182/172
