# This file uses centimeters as units for non-parametric coordinates.

mtllib Axe Mold.mtl
g default
v 2.880600 -0.704832 -10.141609
v 2.880600 -0.704832 -15.902810
v 2.598695 0.704832 -10.423513
v 2.880600 0.422927 -10.141609
v 2.598695 0.704832 -15.620907
v 2.880600 0.422927 -15.902810
v 0.000000 -0.704832 -10.141609
v 0.000000 -0.704832 -15.902810
v 0.000000 0.422927 -15.902810
v 0.000000 0.704832 -15.620907
v -0.000000 0.704832 -10.423513
v -0.000000 0.422927 -10.141609
v 0.000000 -0.704832 -12.162211
v 2.880600 -0.704832 -12.162211
v 2.880600 0.422927 -12.162211
v 2.598695 0.704832 -12.218592
v 0.000000 0.704832 -12.125686
v 1.819087 0.704832 -10.423513
v 1.628352 0.704832 -11.865356
v 1.819087 0.704832 -15.620907
v 2.016420 0.422927 -15.902810
v 2.016420 -0.704832 -15.902810
v 2.016420 -0.704832 -12.162211
v 2.016420 -0.704832 -10.141609
v 2.016420 0.422927 -10.141609
v 0.000000 -0.704832 -13.890572
v 2.016420 -0.704832 -13.890572
v 2.880600 -0.704832 -13.890572
v 2.880600 0.422927 -13.890572
v 2.598695 0.704832 -13.777810
v 1.628352 0.704832 -14.131047
v -0.000000 0.704832 -13.870717
v 1.008210 -0.704832 -10.141609
v 1.008210 -0.704832 -12.162211
v 1.008210 -0.704832 -13.890572
v 1.008210 -0.704832 -15.902810
v 1.008210 0.422927 -15.902810
v 0.909543 0.704832 -15.620907
v 0.710702 0.704832 -13.704380
v 0.710702 0.704832 -12.292025
v 0.909543 0.704832 -10.423513
v 1.008210 0.422927 -10.141609
v 0.302463 -0.704832 -10.141609
v 0.302463 -0.704832 -12.162211
v 0.302463 -0.704832 -13.890572
v 0.302463 -0.704832 -15.902810
v 0.302463 0.422927 -15.902810
v 0.272863 0.704832 -15.620907
v 0.471263 0.704832 -13.691605
v 0.471263 0.704832 -12.304798
v 0.272863 0.704832 -10.423513
v 0.302463 0.422927 -10.141609
v 0.000000 -0.704832 -13.026392
v 1.819087 0.704832 -12.998203
v 2.598695 0.704832 -12.998203
v 2.880600 0.422927 -13.026392
v 2.880600 -0.704832 -13.026392
v 2.016420 -0.704832 -13.026392
v 1.008210 -0.704832 -13.026392
v 0.302463 -0.704832 -13.026392
v -2.880600 -0.704832 -10.141609
v -2.880600 -0.704832 -15.902810
v -2.598695 0.704832 -10.423513
v -2.880600 0.422927 -10.141609
v -2.598695 0.704832 -15.620907
v -2.880600 0.422927 -15.902810
v -2.880600 -0.704832 -12.162211
v -2.880600 0.422927 -12.162211
v -2.598695 0.704832 -12.218592
v -1.819087 0.704832 -10.423513
v -1.628352 0.704832 -11.865356
v -1.819087 0.704832 -15.620907
v -2.016420 0.422927 -15.902810
v -2.016420 -0.704832 -15.902810
v -2.016420 -0.704832 -12.162211
v -2.016420 -0.704832 -10.141609
v -2.016420 0.422927 -10.141609
v -2.016420 -0.704832 -13.890572
v -2.880600 -0.704832 -13.890572
v -2.880600 0.422927 -13.890572
v -2.598695 0.704832 -13.777810
v -1.628352 0.704832 -14.131047
v -1.008210 -0.704832 -10.141609
v -1.008210 -0.704832 -12.162211
v -1.008210 -0.704832 -13.890572
v -1.008210 -0.704832 -15.902810
v -1.008210 0.422927 -15.902810
v -0.909543 0.704832 -15.620907
v -0.710702 0.704832 -13.704380
v -0.710702 0.704832 -12.292025
v -0.909543 0.704832 -10.423513
v -1.008210 0.422927 -10.141609
v -0.302463 -0.704832 -10.141609
v -0.302463 -0.704832 -12.162211
v -0.302463 -0.704832 -13.890572
v -0.302463 -0.704832 -15.902810
v -0.302463 0.422927 -15.902810
v -0.272863 0.704832 -15.620907
v -0.471263 0.704832 -13.691605
v -0.471263 0.704832 -12.304798
v -0.272863 0.704832 -10.423513
v -0.302463 0.422927 -10.141609
v -1.819087 0.704832 -12.998203
v -2.598695 0.704832 -12.998203
v -2.880600 0.422927 -13.026392
v -2.880600 -0.704832 -13.026392
v -2.016420 -0.704832 -13.026392
v -1.008210 -0.704832 -13.026392
v -0.302463 -0.704832 -13.026392
v 1.628352 0.297493 -14.131047
v 0.710702 0.297493 -13.704380
v 0.909543 0.297493 -12.998203
v 1.819087 0.297493 -12.998203
v 0.462546 0.297493 -12.998203
v 0.471263 0.297493 -13.691605
v -0.000000 0.297493 -12.998203
v -0.000000 0.297493 -13.870717
v 0.471263 0.297493 -12.304798
v -0.000000 0.297493 -12.125686
v 0.710702 0.297493 -12.292025
v 1.628352 0.297493 -11.865356
v -1.819087 0.297493 -12.998203
v -1.628352 0.297493 -14.131047
v -0.909543 0.297493 -12.998203
v -0.710702 0.297493 -13.704380
v -0.471263 0.297493 -13.691605
v -0.462546 0.297493 -12.998203
v -0.471263 0.297493 -12.304798
v -0.710702 0.297493 -12.292025
v -1.628352 0.297493 -11.865356
vt 0.625000 0.750000
vt 0.625000 1.000000
vt 0.625000 0.000000
vt 0.612767 0.262233
vt 0.612767 0.487767
vt 0.625000 0.549995
vt 0.875000 0.000000
vt 0.875000 0.200005
vt 0.625000 0.200005
vt 0.500000 0.000000
vt 0.500000 1.000000
vt 0.500000 0.750000
vt 0.500000 0.549995
vt 0.500000 0.487767
vt 0.500000 0.262233
vt 0.500000 0.200005
vt 0.500000 0.900000
vt 0.625000 0.900000
vt 0.725000 0.000000
vt 0.625000 0.340001
vt 0.725000 0.200005
vt 0.612767 0.352447
vt 0.500000 0.352447
vt 0.578937 0.262233
vt 0.578937 0.352447
vt 0.578937 0.487767
vt 0.587500 0.549995
vt 0.587500 0.750000
vt 0.587500 0.900000
vt 0.587500 0.000000
vt 0.587500 1.000000
vt 0.587500 0.200005
vt 0.500000 0.825000
vt 0.587500 0.825000
vt 0.625000 0.825000
vt 0.800000 0.000000
vt 0.625000 0.444998
vt 0.800000 0.200005
vt 0.612767 0.420107
vt 0.578937 0.420107
vt 0.500000 0.420107
vt 0.543750 0.000000
vt 0.543750 1.000000
vt 0.543750 0.900000
vt 0.543750 0.825000
vt 0.543750 0.750000
vt 0.543750 0.549995
vt 0.539468 0.487767
vt 0.539468 0.420107
vt 0.539468 0.352447
vt 0.539468 0.262233
vt 0.543750 0.200005
vt 0.513125 0.000000
vt 0.513125 1.000000
vt 0.513125 0.900000
vt 0.513125 0.825000
vt 0.513125 0.750000
vt 0.513125 0.549995
vt 0.511841 0.487767
vt 0.511841 0.420107
vt 0.511841 0.352447
vt 0.511841 0.262233
vt 0.513125 0.200005
vt 0.500000 0.862500
vt 0.500000 0.386277
vt 0.511841 0.386277
vt 0.539468 0.386277
vt 0.578937 0.386277
vt 0.612767 0.386277
vt 0.625000 0.392500
vt 0.762500 0.200005
vt 0.625000 0.862500
vt 0.762500 0.000000
vt 0.587500 0.862500
vt 0.543750 0.862500
vt 0.513125 0.862500
vt 0.543750 1.000000
vt 0.543750 0.900000
vt 0.587500 0.900000
vt 0.587500 1.000000
vt 0.539468 0.262233
vt 0.543750 0.200005
vt 0.587500 0.200005
vt 0.578937 0.262233
vt 0.612767 0.262233
vt 0.625000 0.200005
vt 0.625000 0.340001
vt 0.612767 0.352447
vt 0.543750 0.549995
vt 0.539468 0.487767
vt 0.578937 0.487767
vt 0.587500 0.549995
vt 0.543750 0.000000
vt 0.587500 0.000000
vt 0.578937 0.352447
vt 0.539468 0.352447
vt 0.543750 0.750000
vt 0.587500 0.750000
vt 0.625000 0.000000
vt 0.725000 0.000000
vt 0.725000 0.200005
vt 0.587500 0.862500
vt 0.543750 0.862500
vt 0.543750 0.825000
vt 0.587500 0.825000
vt 0.762500 0.200005
vt 0.762500 0.000000
vt 0.800000 0.000000
vt 0.800000 0.200005
vt 0.612767 0.386277
vt 0.625000 0.392500
vt 0.625000 0.444998
vt 0.612767 0.420107
vt 0.578937 0.420107
vt 0.539468 0.420107
vt 0.539468 0.386277
vt 0.578937 0.386277
vt 0.612767 0.487767
vt 0.625000 0.549995
vt 0.625000 0.750000
vt 0.625000 0.862500
vt 0.625000 0.825000
vt 0.625000 0.900000
vt 0.625000 1.000000
vt 0.875000 0.000000
vt 0.875000 0.200005
vt 0.513125 1.000000
vt 0.513125 0.900000
vt 0.513125 0.862500
vt 0.513125 0.825000
vt 0.513125 0.750000
vt 0.513125 0.549995
vt 0.511841 0.487767
vt 0.511841 0.420107
vt 0.511841 0.386277
vt 0.511841 0.352447
vt 0.511841 0.262233
vt 0.513125 0.200005
vt 0.513125 0.000000
vt 0.500000 1.000000
vt 0.500000 0.900000
vt 0.500000 0.825000
vt 0.500000 0.862500
vt 0.500000 0.750000
vt 0.500000 0.549995
vt 0.500000 0.487767
vt 0.500000 0.420107
vt 0.500000 0.386277
vt 0.500000 0.352447
vt 0.500000 0.262233
vt 0.500000 0.200005
vt 0.500000 0.000000
vt 0.578937 0.420107
vt 0.539468 0.420107
vt 0.578937 0.386277
vt 0.511841 0.420107
vt 0.500000 0.420107
vt 0.500000 0.352447
vt 0.511841 0.352447
vt 0.539468 0.352447
vt 0.578937 0.352447
vt 0.578937 0.420107
vt 0.578937 0.386277
vt 0.539468 0.420107
vt 0.511841 0.420107
vt 0.500000 0.420107
vt 0.511841 0.352447
vt 0.500000 0.352447
vt 0.539468 0.352447
vt 0.578937 0.352447
vn 0.000000 -1.000000 0.000000
vn 0.000000 -1.000000 0.000000
vn 0.000000 -1.000000 0.000000
vn 0.000000 -1.000000 0.000000
vn 0.000000 0.707106 0.707108
vn 0.000000 0.707106 0.707108
vn 0.000000 0.707106 0.707108
vn 0.000000 0.707106 0.707108
vn 0.707107 0.707107 0.000000
vn 0.707107 0.707107 0.000000
vn 0.707107 0.707107 0.000000
vn 0.707107 0.707107 0.000000
vn 0.000000 0.707105 -0.707108
vn 0.000000 0.707105 -0.707108
vn 0.000000 0.707105 -0.707108
vn 0.000000 0.707105 -0.707108
vn 0.000000 0.000000 1.000000
vn 0.000000 0.000000 1.000000
vn 0.000000 0.000000 1.000000
vn 0.000000 0.000000 1.000000
vn 0.000000 1.000000 0.000000
vn 0.000000 1.000000 0.000000
vn 0.000000 1.000000 0.000000
vn 0.000000 1.000000 0.000000
vn 0.000000 0.000000 -1.000000
vn 0.000000 0.000000 -1.000000
vn 0.000000 0.000000 -1.000000
vn 0.000000 0.000000 -1.000000
vn 1.000000 0.000000 0.000000
vn 1.000000 0.000000 0.000000
vn 1.000000 0.000000 0.000000
vn 1.000000 0.000000 0.000000
vn 0.000000 -1.000000 0.000000
vn 0.000000 -1.000000 0.000000
vn 0.000000 -1.000000 0.000000
vn 0.000000 -1.000000 0.000000
vn 1.000000 0.000000 0.000000
vn 1.000000 0.000000 0.000000
vn 1.000000 0.000000 0.000000
vn 1.000000 0.000000 0.000000
vn 0.707107 0.707107 0.000000
vn 0.707107 0.707107 0.000000
vn 0.707107 0.707107 0.000000
vn 0.707107 0.707107 0.000000
vn 0.000000 1.000000 -0.000000
vn 0.000000 1.000000 0.000000
vn 0.000000 1.000000 -0.000000
vn 0.000000 1.000000 -0.000000
vn 0.000000 1.000000 0.000000
vn 0.000000 1.000000 0.000000
vn 0.000000 1.000000 0.000000
vn 0.000000 1.000000 0.000000
vn 0.000000 1.000000 0.000000
vn 0.000000 1.000000 0.000000
vn 0.000000 0.707105 -0.707108
vn 0.000000 0.707105 -0.707108
vn 0.000000 0.000000 -1.000000
vn 0.000000 0.000000 -1.000000
vn 0.000000 -1.000000 0.000000
vn 0.000000 -1.000000 0.000000
vn 0.000000 -1.000000 0.000000
vn 0.000000 -1.000000 0.000000
vn 0.000000 0.000000 1.000000
vn 0.000000 0.000000 1.000000
vn 0.000000 0.707106 0.707108
vn 0.000000 0.707106 0.707108
vn 0.000000 -1.000000 0.000000
vn 0.000000 -1.000000 0.000000
vn 0.000000 -1.000000 0.000000
vn 1.000000 0.000000 0.000000
vn 1.000000 0.000000 0.000000
vn 0.707107 0.707107 0.000000
vn 0.707107 0.707107 0.000000
vn 0.000000 1.000000 0.000000
vn 0.000000 1.000000 0.000000
vn 0.000000 1.000000 -0.000000
vn 0.000000 1.000000 -0.000000
vn 0.000000 -1.000000 0.000000
vn 0.000000 -1.000000 0.000000
vn 0.000000 -1.000000 0.000000
vn 0.000000 -1.000000 0.000000
vn 0.000000 -1.000000 0.000000
vn 0.000000 0.000000 -1.000000
vn 0.000000 0.000000 -1.000000
vn 0.000000 0.707105 -0.707108
vn 0.000000 0.707105 -0.707108
vn 0.000000 1.000000 -0.000000
vn 0.000000 1.000000 -0.000000
vn 0.000000 1.000000 -0.000000
vn 0.000000 1.000000 0.000000
vn 0.000000 1.000000 0.000000
vn 0.000000 1.000000 0.000000
vn 0.000000 0.707106 0.707108
vn 0.000000 0.707106 0.707108
vn 0.000000 0.000000 1.000000
vn 0.000000 0.000000 1.000000
vn 0.000000 -1.000000 0.000000
vn 0.000000 -1.000000 0.000000
vn 0.000000 -1.000000 0.000000
vn 0.000000 -1.000000 0.000000
vn 0.000000 -1.000000 0.000000
vn 0.000000 0.000000 -1.000000
vn 0.000000 0.000000 -1.000000
vn 0.000000 0.707105 -0.707108
vn 0.000000 0.707105 -0.707108
vn 0.000000 1.000000 -0.000000
vn 0.000000 1.000000 -0.000000
vn 0.000000 1.000000 0.000000
vn 0.000000 1.000000 0.000000
vn 0.000000 1.000000 0.000000
vn 0.000000 1.000000 0.000000
vn 0.000000 0.707106 0.707108
vn 0.000000 0.707106 0.707108
vn 0.000000 0.000000 1.000000
vn 0.000000 0.000000 1.000000
vn 0.000000 1.000000 -0.000000
vn 0.000000 1.000000 0.000000
vn 0.000000 1.000000 -0.000000
vn 0.000000 1.000000 -0.000000
vn 0.000000 -1.000000 0.000000
vn 0.000000 -1.000000 0.000000
vn 0.000000 -1.000000 0.000000
vn 0.000000 -1.000000 0.000000
vn 0.000000 0.707106 0.707108
vn 0.000000 0.707106 0.707108
vn 0.000000 0.707106 0.707108
vn 0.000000 0.707106 0.707108
vn -0.707107 0.707107 0.000000
vn -0.707107 0.707107 0.000000
vn -0.707107 0.707107 0.000000
vn -0.707107 0.707107 0.000000
vn 0.000000 0.707105 -0.707108
vn 0.000000 0.707105 -0.707108
vn 0.000000 0.707105 -0.707108
vn 0.000000 0.707105 -0.707108
vn 0.000000 0.000000 1.000000
vn 0.000000 0.000000 1.000000
vn 0.000000 0.000000 1.000000
vn 0.000000 0.000000 1.000000
vn 0.000000 1.000000 -0.000000
vn 0.000000 1.000000 0.000000
vn 0.000000 1.000000 0.000000
vn 0.000000 1.000000 -0.000000
vn 0.000000 0.000000 -1.000000
vn 0.000000 0.000000 -1.000000
vn 0.000000 0.000000 -1.000000
vn 0.000000 0.000000 -1.000000
vn -1.000000 0.000000 0.000000
vn -1.000000 0.000000 0.000000
vn -1.000000 0.000000 0.000000
vn -1.000000 0.000000 0.000000
vn 0.000000 -1.000000 0.000000
vn 0.000000 -1.000000 0.000000
vn 0.000000 -1.000000 0.000000
vn 0.000000 -1.000000 0.000000
vn -1.000000 0.000000 0.000000
vn -1.000000 0.000000 0.000000
vn -1.000000 0.000000 0.000000
vn -1.000000 0.000000 0.000000
vn -0.707107 0.707107 0.000000
vn -0.707107 0.707107 0.000000
vn -0.707107 0.707107 0.000000
vn -0.707107 0.707107 0.000000
vn -0.000000 1.000000 0.000000
vn -0.000000 1.000000 0.000000
vn -0.000000 1.000000 0.000000
vn -0.000000 1.000000 0.000000
vn 0.000000 1.000000 0.000000
vn 0.000000 1.000000 0.000000
vn 0.000000 1.000000 -0.000000
vn 0.000000 1.000000 0.000000
vn 0.000000 1.000000 0.000000
vn 0.000000 1.000000 -0.000000
vn 0.000000 0.707105 -0.707108
vn 0.000000 0.707105 -0.707108
vn 0.000000 0.000000 -1.000000
vn 0.000000 0.000000 -1.000000
vn 0.000000 -1.000000 0.000000
vn 0.000000 -1.000000 0.000000
vn 0.000000 -1.000000 0.000000
vn 0.000000 -1.000000 0.000000
vn 0.000000 0.000000 1.000000
vn 0.000000 0.000000 1.000000
vn 0.000000 0.707106 0.707108
vn 0.000000 0.707106 0.707108
vn 0.000000 -1.000000 0.000000
vn 0.000000 -1.000000 0.000000
vn 0.000000 -1.000000 0.000000
vn -1.000000 0.000000 0.000000
vn -1.000000 0.000000 0.000000
vn -0.707107 0.707107 0.000000
vn -0.707107 0.707107 0.000000
vn 0.000000 1.000000 -0.000000
vn 0.000000 1.000000 -0.000000
vn 0.000000 1.000000 -0.000000
vn 0.000000 1.000000 -0.000000
vn 0.000000 -1.000000 0.000000
vn 0.000000 -1.000000 0.000000
vn 0.000000 -1.000000 0.000000
vn 0.000000 -1.000000 0.000000
vn 0.000000 -1.000000 0.000000
vn 0.000000 0.000000 -1.000000
vn 0.000000 0.000000 -1.000000
vn 0.000000 0.707105 -0.707108
vn 0.000000 0.707105 -0.707108
vn 0.000000 1.000000 -0.000000
vn 0.000000 1.000000 -0.000000
vn -0.000000 1.000000 -0.000000
vn -0.000000 1.000000 0.000000
vn 0.000000 1.000000 0.000000
vn 0.000000 1.000000 0.000000
vn 0.000000 0.707106 0.707108
vn 0.000000 0.707106 0.707108
vn 0.000000 0.000000 1.000000
vn 0.000000 0.000000 1.000000
vn -0.000000 1.000000 -0.000000
vn -0.000000 1.000000 0.000000
vn -0.000000 1.000000 0.000000
vn 0.421611 0.000000 0.906777
vn 0.355040 0.000000 0.934851
vn 0.355040 0.000000 0.934851
vn 0.421611 0.000000 0.906777
vn -1.000000 0.000000 0.000000
vn -0.986121 0.000000 0.166031
vn -0.986121 0.000000 0.166031
vn -1.000000 0.000000 0.000000
vn -0.227888 0.000000 0.973687
vn -0.227888 0.000000 0.973687
vn -0.355273 0.000000 0.934763
vn -0.355273 0.000000 0.934763
vn -0.355273 0.000000 -0.934763
vn -0.227890 0.000000 -0.973687
vn -0.227890 0.000000 -0.973687
vn -0.355273 0.000000 -0.934763
vn 0.355040 0.000000 -0.934851
vn 0.355040 0.000000 -0.934851
vn 0.421613 0.000000 -0.906776
vn 0.421613 0.000000 -0.906776
vn -0.986121 0.000000 -0.166030
vn -0.986121 0.000000 -0.166030
vn 0.986121 0.000000 0.166031
vn 1.000000 0.000000 0.000000
vn 1.000000 0.000000 0.000000
vn 0.986121 0.000000 0.166031
vn -0.355040 0.000000 0.934851
vn -0.421611 0.000000 0.906777
vn -0.421611 0.000000 0.906777
vn -0.355040 0.000000 0.934851
vn 0.227888 0.000000 0.973687
vn 0.227888 0.000000 0.973687
vn 0.355273 0.000000 0.934763
vn 0.355273 0.000000 0.934763
vn 0.227890 0.000000 -0.973687
vn 0.355273 0.000000 -0.934763
vn 0.355273 0.000000 -0.934763
vn 0.227890 0.000000 -0.973687
vn -0.355040 0.000000 -0.934851
vn -0.355040 0.000000 -0.934851
vn 0.986121 0.000000 -0.166030
vn 0.986121 0.000000 -0.166030
vn -0.421613 0.000000 -0.906776
vn -0.421613 0.000000 -0.906776
s 1
g pCube3
usemtl initialShadingGroup
f 33/43/1 34/44/2 23/29/3 24/31/4
s 2
f 41/51/5 42/52/6 25/32/7 18/24/8
s 3
f 3/4/9 4/9/10 15/20/11 16/22/12
s 4
f 37/47/13 38/48/14 20/26/15 21/27/16
s 5
f 42/52/17 33/42/18 24/30/19 25/32/20
s 6
f 18/24/21 19/25/22 40/50/23 41/51/24
s 7
f 36/46/25 37/47/26 21/27/27 22/28/28
s 8
f 1/3/29 14/19/30 15/21/31 4/9/32
s 1
f 58/74/33 59/75/34 35/45/35 27/34/36
s 8
f 56/71/37 57/73/38 28/36/39 29/38/40
s 3
f 55/69/41 56/70/42 29/37/43 30/39/44
s 9
f 110/153/45 111/154/46 112/67/47 113/155/48
s 6
f 16/22/49 19/25/22 18/24/21 3/4/50
f 30/39/51 31/40/52 54/68/53 55/69/54
s 4
f 21/27/16 20/26/15 5/5/55 6/6/56
s 7
f 22/28/28 21/27/27 6/6/57 2/1/58
s 1
f 57/72/59 58/74/33 27/34/36 28/35/60
f 24/31/4 23/29/3 14/18/61 1/2/62
s 5
f 25/32/20 24/30/19 1/3/63 4/9/64
s 2
f 18/24/8 25/32/7 4/9/65 3/4/66
s 1
f 22/28/67 27/34/36 35/45/35 36/46/68
f 28/35/60 27/34/36 22/28/67 2/1/69
s 8
f 29/38/40 28/36/39 2/7/70 6/8/71
s 3
f 30/39/44 29/37/43 6/6/72 5/5/73
s 6
f 20/26/74 31/40/52 30/39/51 5/5/75
f 38/48/76 39/49/77 31/40/52 20/26/74
s 1
f 43/54/78 44/55/79 34/44/2 33/43/1
f 59/75/34 60/76/80 45/56/81 35/45/35
f 36/46/68 35/45/35 45/56/81 46/57/82
s 7
f 46/57/83 47/58/84 37/47/26 36/46/25
s 4
f 47/58/85 48/59/86 38/48/14 37/47/13
s 6
f 48/59/87 49/60/88 39/49/77 38/48/76
s 9
f 114/66/89 112/67/47 111/154/46 115/156/90
s 6
f 41/51/24 40/50/23 50/61/91 51/62/92
s 2
f 51/62/93 52/63/94 42/52/6 41/51/5
s 5
f 52/63/95 43/53/96 33/42/18 42/52/17
s 1
f 7/11/97 13/17/98 44/55/79 43/54/78
f 26/33/99 45/56/81 60/76/80 53/64/100
f 46/57/82 45/56/81 26/33/99 8/12/101
s 7
f 8/12/102 9/13/103 47/58/84 46/57/83
s 4
f 9/13/104 10/14/105 48/59/86 47/58/85
s 6
f 10/14/106 32/41/107 49/60/88 48/59/87
s 9
f 116/65/108 114/66/89 115/156/90 117/157/109
s 6
f 51/62/92 50/61/91 17/23/110 11/15/111
s 2
f 11/15/112 12/16/113 52/63/94 51/62/93
s 5
f 12/16/114 7/10/115 43/53/96 52/63/95
s 9
f 118/159/116 114/66/89 116/65/108 119/158/117
f 120/160/118 112/67/47 114/66/89 118/159/116
f 113/155/48 112/67/47 120/160/118 121/161/119
s 6
f 55/69/54 54/68/53 19/25/22 16/22/49
s 3
f 16/22/12 15/20/11 56/70/42 55/69/41
s 8
f 15/21/31 14/19/30 57/73/38 56/71/37
s 1
f 14/18/61 23/29/3 58/74/33 57/72/59
f 34/44/2 59/75/34 58/74/33 23/29/3
f 44/55/79 60/76/80 59/75/34 34/44/2
f 53/64/100 60/76/80 44/55/79 13/17/98
f 83/77/120 76/80/121 75/79/122 84/78/123
s 2
f 91/81/124 70/84/125 77/83/126 92/82/127
s 13
f 63/85/128 69/88/129 68/87/130 64/86/131
s 4
f 87/89/132 73/92/133 72/91/134 88/90/135
s 5
f 92/82/136 77/83/137 76/94/138 83/93/139
s 6
f 70/84/140 91/81/141 90/96/142 71/95/143
s 7
f 86/97/144 74/98/145 73/92/146 87/89/147
s 18
f 61/99/148 64/86/149 68/101/150 67/100/151
s 1
f 107/102/152 78/105/153 85/104/154 108/103/155
s 18
f 105/106/156 80/109/157 79/108/158 106/107/159
s 13
f 104/110/160 81/113/161 80/112/162 105/111/163
s 9
f 123/162/164 122/163/165 124/116/166 125/164/167
s 6
f 69/88/168 63/85/169 70/84/140 71/95/143
f 81/113/170 104/110/171 103/117/172 82/114/173
s 4
f 73/92/133 66/119/174 65/118/175 72/91/134
s 7
f 74/98/145 62/120/176 66/119/177 73/92/146
s 1
f 106/121/178 79/122/179 78/105/153 107/102/152
f 76/80/121 61/124/180 67/123/181 75/79/122
s 5
f 77/83/137 64/86/182 61/99/183 76/94/138
s 2
f 70/84/125 63/85/184 64/86/185 77/83/126
s 1
f 74/98/186 86/97/187 85/104/154 78/105/153
f 79/122/179 62/120/188 74/98/186 78/105/153
s 18
f 80/109/157 66/126/189 62/125/190 79/108/158
s 13
f 81/113/161 65/118/191 66/119/192 80/112/162
s 6
f 72/91/193 65/118/194 81/113/170 82/114/173
f 88/90/195 72/91/193 82/114/173 89/115/196
s 1
f 93/127/197 83/77/120 84/78/123 94/128/198
f 108/103/155 85/104/154 95/130/199 109/129/200
f 86/97/187 96/131/201 95/130/199 85/104/154
s 7
f 96/131/202 86/97/144 87/89/147 97/132/203
s 4
f 97/132/204 87/89/132 88/90/135 98/133/205
s 6
f 98/133/206 88/90/195 89/115/196 99/134/207
s 9
f 127/135/208 126/165/209 125/164/167 124/116/166
s 6
f 91/81/141 101/137/210 100/136/211 90/96/142
s 2
f 101/137/212 91/81/124 92/82/127 102/138/213
s 5
f 102/138/214 92/82/136 83/93/139 93/139/215
s 1
f 7/140/97 93/127/197 94/128/198 13/141/98
f 26/142/99 53/143/100 109/129/200 95/130/199
f 96/131/201 8/144/101 26/142/99 95/130/199
s 7
f 8/144/102 96/131/202 97/132/203 9/145/103
s 4
f 9/145/104 97/132/204 98/133/205 10/146/105
s 6
f 10/146/106 98/133/206 99/134/207 32/147/107
s 9
f 116/148/108 117/166/109 126/165/209 127/135/208
s 6
f 101/137/210 11/150/111 17/149/110 100/136/211
s 2
f 11/150/112 101/137/212 102/138/213 12/151/113
s 5
f 12/151/114 102/138/214 93/139/215 7/152/115
s 9
f 128/167/216 119/168/117 116/148/108 127/135/208
f 129/169/217 128/167/216 127/135/208 124/116/166
f 122/163/165 130/170/218 129/169/217 124/116/166
s 6
f 104/110/171 69/88/168 71/95/143 103/117/172
s 13
f 69/88/129 104/110/160 105/111/163 68/87/130
s 18
f 68/101/150 105/106/156 106/107/159 67/100/151
s 1
f 67/123/181 106/121/178 107/102/152 75/79/122
f 84/78/123 75/79/122 107/102/152 108/103/155
f 94/128/198 84/78/123 108/103/155 109/129/200
f 53/143/100 13/141/98 94/128/198 109/129/200
s 23
f 31/40/219 39/49/220 111/154/221 110/153/222
s 24
f 54/68/223 31/40/224 110/153/225 113/155/226
s 23
f 39/49/220 49/60/227 115/156/228 111/154/221
f 49/60/227 32/41/229 117/157/230 115/156/228
s 25
f 17/23/231 50/61/232 118/159/233 119/158/234
f 50/61/232 40/50/235 120/160/236 118/159/233
f 40/50/235 19/25/237 121/161/238 120/160/236
s 24
f 19/25/239 54/68/223 113/155/226 121/161/240
s 26
f 82/114/241 103/117/242 122/163/243 123/162/244
s 27
f 89/115/245 82/114/246 123/162/247 125/164/248
f 99/134/249 89/115/245 125/164/248 126/165/250
f 32/147/251 99/134/249 126/165/250 117/166/252
s 28
f 100/136/253 17/149/254 119/168/255 128/167/256
f 90/96/257 100/136/253 128/167/256 129/169/258
s 26
f 103/117/242 71/95/259 130/170/260 122/163/243
s 28
f 71/95/261 90/96/257 129/169/258 130/170/262
