# This file uses centimeters as units for non-parametric coordinates.

mtllib AxeMoldInner.mtl
g default
v 0.909543 0.271394 0.024006
v -0.909543 0.271394 0.024006
v 1.628352 0.271394 -1.108838
v 0.710702 0.271394 -0.682171
v 1.819087 0.271394 0.024006
v 0.471263 0.271394 -0.669395
v -0.000000 0.271394 -0.848508
v 0.000000 0.271394 0.896523
v 0.471263 0.271394 0.717411
v 0.710702 0.271394 0.730185
v 1.628352 0.271394 1.156853
v -1.628352 0.271394 -1.108838
v -1.819087 0.271394 0.024006
v -0.710702 0.271394 -0.682171
v -0.471263 0.271394 -0.669395
v -0.471263 0.271394 0.717411
v -0.710702 0.271394 0.730185
v -1.628352 0.271394 1.156853
v 1.628352 0.000000 -1.108838
v 0.710702 0.000000 -0.682171
v 1.819087 0.000000 0.024006
v 0.471263 0.000000 -0.669395
v -0.000000 0.000000 -0.848508
v 0.000000 0.000000 0.896523
v 0.471263 0.000000 0.717411
v 0.710702 0.000000 0.730185
v 1.628352 0.000000 1.156853
v -1.628352 0.000000 -1.108838
v -1.819087 0.000000 0.024006
v -0.710702 0.000000 -0.682171
v -0.471263 0.000000 -0.669395
v -0.471263 0.000000 0.717411
v -0.710702 0.000000 0.730185
v -1.628352 0.000000 1.156853
v -0.000000 0.271394 0.024008
v -0.000000 0.000000 0.024006
v 0.909544 0.000000 0.024006
v -0.909544 0.000000 0.024006
vt 0.578937 0.420107
vt 0.539468 0.420107
vt 0.539468 0.386277
vt 0.578937 0.386277
vt 0.511841 0.420107
vt 0.500000 0.420107
vt 0.511841 0.352447
vt 0.500000 0.352447
vt 0.539468 0.352447
vt 0.578937 0.352447
vt 0.578937 0.420107
vt 0.578937 0.386277
vt 0.539468 0.386277
vt 0.539468 0.420107
vt 0.511841 0.420107
vt 0.500000 0.420107
vt 0.511841 0.352447
vt 0.500000 0.352447
vt 0.539468 0.352447
vt 0.578937 0.352447
vt 0.000000 0.000000
vt 1.000000 0.000000
vt 1.000000 1.000000
vt 0.000000 1.000000
vt 0.000000 0.000000
vt 1.000000 0.000000
vt 1.000000 1.000000
vt 0.000000 1.000000
vt 0.000000 0.000000
vt 1.000000 0.000000
vt 1.000000 1.000000
vt 0.000000 1.000000
vt 0.000000 0.000000
vt 1.000000 0.000000
vt 1.000000 1.000000
vt 0.000000 1.000000
vt 0.000000 0.000000
vt 1.000000 0.000000
vt 1.000000 1.000000
vt 0.000000 1.000000
vt 0.000000 0.000000
vt 1.000000 0.000000
vt 1.000000 1.000000
vt 0.000000 1.000000
vt 0.000000 0.000000
vt 1.000000 0.000000
vt 1.000000 1.000000
vt 0.000000 1.000000
vt 0.000000 0.000000
vt 1.000000 0.000000
vt 1.000000 1.000000
vt 0.000000 1.000000
vt 0.000000 0.000000
vt 1.000000 0.000000
vt 1.000000 1.000000
vt 0.000000 1.000000
vt 0.000000 0.000000
vt 1.000000 0.000000
vt 1.000000 1.000000
vt 0.000000 1.000000
vt 0.000000 0.000000
vt 1.000000 0.000000
vt 1.000000 1.000000
vt 0.000000 1.000000
vt 0.000000 0.000000
vt 1.000000 0.000000
vt 1.000000 1.000000
vt 0.000000 1.000000
vt 0.000000 0.000000
vt 1.000000 0.000000
vt 1.000000 1.000000
vt 0.000000 1.000000
vt 0.000000 0.000000
vt 1.000000 0.000000
vt 1.000000 1.000000
vt 0.000000 1.000000
vt 0.000000 0.000000
vt 1.000000 0.000000
vt 1.000000 1.000000
vt 0.000000 1.000000
vt 0.000000 0.000000
vt 1.000000 0.000000
vt 1.000000 1.000000
vt 0.000000 1.000000
vt 0.500000 0.386277
vt 0.500000 0.386277
vt 0.000000 1.000000
vt 0.000000 1.000000
vt 0.000000 1.000000
vn 0.000000 1.000000 0.000000
vn 0.000000 1.000000 0.000000
vn 0.000000 1.000000 0.000000
vn 0.000000 1.000000 0.000000
vn 0.000000 1.000000 0.000000
vn 0.000000 1.000000 0.000000
vn 0.000000 1.000000 0.000000
vn 0.000000 1.000000 -0.000000
vn 0.000000 1.000000 0.000000
vn 0.000000 1.000000 0.000000
vn 0.000000 1.000000 0.000000
vn 0.000000 1.000000 0.000000
vn 0.000000 1.000000 0.000000
vn 0.000000 1.000000 0.000000
vn 0.000000 1.000000 0.000000
vn 0.000000 1.000000 0.000000
vn 0.000000 1.000000 0.000000
vn 0.000000 1.000000 -0.000000
vn 0.000000 1.000000 0.000000
vn 0.000000 1.000000 0.000000
vn 0.000000 1.000000 0.000000
vn 0.000000 1.000000 0.000000
vn 0.000000 1.000000 0.000000
vn 0.000000 1.000000 0.000000
vn -0.421612 0.000000 -0.906777
vn -0.421612 0.000000 -0.906777
vn -0.421612 0.000000 -0.906777
vn -0.421612 0.000000 -0.906777
vn 0.986121 0.000000 -0.166031
vn 0.986121 0.000000 -0.166031
vn 0.986121 0.000000 -0.166031
vn 0.986121 0.000000 -0.166031
vn -0.053280 0.000000 -0.998580
vn -0.053280 0.000000 -0.998580
vn -0.053280 0.000000 -0.998580
vn -0.053280 0.000000 -0.998580
vn 0.355274 0.000000 -0.934762
vn 0.355274 0.000000 -0.934762
vn 0.355274 0.000000 -0.934762
vn 0.355274 0.000000 -0.934762
vn 0.355274 0.000000 0.934762
vn 0.355274 0.000000 0.934762
vn 0.355274 0.000000 0.934762
vn 0.355274 0.000000 0.934762
vn -0.053272 0.000000 0.998580
vn -0.053272 0.000000 0.998580
vn -0.053272 0.000000 0.998580
vn -0.053272 0.000000 0.998580
vn -0.421612 0.000000 0.906776
vn -0.421612 0.000000 0.906776
vn -0.421612 0.000000 0.906776
vn -0.421612 0.000000 0.906776
vn 0.986121 0.000000 0.166031
vn 0.986121 0.000000 0.166031
vn 0.986121 0.000000 0.166031
vn 0.986121 0.000000 0.166031
vn -0.986121 0.000000 -0.166031
vn -0.986121 0.000000 -0.166031
vn -0.986121 0.000000 -0.166031
vn -0.986121 0.000000 -0.166031
vn 0.421612 0.000000 -0.906777
vn 0.421612 0.000000 -0.906777
vn 0.421612 0.000000 -0.906777
vn 0.421612 0.000000 -0.906777
vn 0.053280 0.000000 -0.998580
vn 0.053280 0.000000 -0.998580
vn 0.053280 0.000000 -0.998580
vn 0.053280 0.000000 -0.998580
vn -0.355274 0.000000 -0.934762
vn -0.355274 0.000000 -0.934762
vn -0.355274 0.000000 -0.934762
vn -0.355274 0.000000 -0.934762
vn -0.355274 0.000000 0.934762
vn -0.355274 0.000000 0.934762
vn -0.355274 0.000000 0.934762
vn -0.355274 0.000000 0.934762
vn 0.053272 0.000000 0.998580
vn 0.053272 0.000000 0.998580
vn 0.053272 0.000000 0.998580
vn 0.053272 0.000000 0.998580
vn -0.986121 0.000000 0.166031
vn -0.986121 0.000000 0.166031
vn -0.986121 0.000000 0.166031
vn -0.986121 0.000000 0.166031
vn 0.421612 0.000000 0.906776
vn 0.421612 0.000000 0.906776
vn 0.421612 0.000000 0.906776
vn 0.421612 0.000000 0.906776
vn 0.000000 -1.000000 0.000000
vn 0.000000 -1.000000 0.000000
vn 0.000000 -1.000000 0.000000
vn 0.000000 -1.000000 0.000000
vn 0.000000 1.000000 0.000000
vn 0.000000 1.000000 0.000000
vn 0.000000 1.000000 0.000000
vn 0.000000 1.000000 0.000000
vn 0.000000 1.000000 0.000000
vn 0.000000 1.000000 0.000000
vn 0.000000 1.000000 0.000000
vn 0.000000 1.000000 0.000000
vn 0.000000 -1.000000 0.000000
vn 0.000000 -1.000000 0.000000
vn 0.000000 -1.000000 0.000000
vn 0.000000 -1.000000 0.000000
vn 0.000000 -1.000000 0.000000
vn 0.000000 -1.000000 0.000000
vn 0.000000 -1.000000 0.000000
vn 0.000000 -1.000000 0.000000
vn 0.000000 -1.000000 0.000000
vn 0.000000 -1.000000 0.000000
vn 0.000000 -1.000000 0.000000
vn 0.000000 -1.000000 0.000000
vn 0.000000 -1.000000 0.000000
vn 0.000000 -1.000000 0.000000
vn 0.000000 -1.000000 0.000000
s off
g polySurface4
usemtl initialShadingGroup
f 3/1/1 4/2/2 1/3/3 5/4/4
s 1
f 1/3/5 4/2/6 6/5/7 35/85/8
s off
f 5/4/9 1/3/10 10/9/11 11/10/12
f 12/11/13 13/12/14 2/13/15 14/14/16
s 2
f 2/13/17 35/86/18 15/15/19 14/14/20
s off
f 13/12/21 18/20/22 17/19/23 2/13/24
f 4/21/25 3/22/26 19/23/27 20/24/28
f 3/25/29 5/26/30 21/27/31 19/28/32
f 6/29/33 4/30/34 20/31/35 22/32/36
f 7/33/37 6/34/38 22/35/39 23/36/40
f 9/37/41 8/38/42 24/39/43 25/40/44
f 10/41/45 9/42/46 25/43/47 26/44/48
f 11/45/49 10/46/50 26/47/51 27/48/52
f 5/49/53 11/50/54 27/51/55 21/52/56
f 13/53/57 12/54/58 28/55/59 29/56/60
f 12/57/61 14/58/62 30/59/63 28/60/64
f 14/61/65 15/62/66 31/63/67 30/64/68
f 15/65/69 7/66/70 23/67/71 31/68/72
f 8/69/73 16/70/74 32/71/75 24/72/76
f 16/73/77 17/74/78 33/75/79 32/76/80
f 18/77/81 13/78/82 29/79/83 34/80/84
f 17/81/85 18/82/86 34/83/87 33/84/88
s 3
f 30/64/89 38/89/90 29/56/91 28/60/92
s 1
f 35/85/8 6/5/7 7/6/93
f 9/7/94 35/85/8 8/8/95
s 2
f 16/17/96 8/18/97 35/86/18
f 15/15/19 35/86/18 7/16/98
f 16/17/96 35/86/18 2/13/17 17/19/99
s 1
f 1/3/5 35/85/8 9/7/94 10/9/100
s 3
f 22/32/101 36/87/102 23/36/103
f 36/87/102 25/40/104 24/72/105
f 29/56/91 38/89/90 33/84/106 34/80/107
f 20/24/108 19/28/109 21/52/110 37/88/111
f 26/44/112 37/88/111 21/52/110 27/48/113
f 23/36/103 36/87/102 31/68/114
f 32/76/115 36/87/102 24/72/105
f 33/84/106 38/89/90 36/87/102 32/76/115
f 31/68/114 36/87/102 38/89/90 30/64/89
f 20/24/108 37/88/111 36/87/102 22/32/101
f 36/87/102 37/88/111 26/44/112 25/40/104
