# This file uses centimeters as units for non-parametric coordinates.

mtllib Bench corner.mtl
g default
v -27.408605 -0.008777 25.682001
v -19.310526 -0.008777 25.682001
v -27.351727 7.343516 25.569277
v -19.310526 7.343516 25.569277
v -27.351727 7.343516 17.545305
v -19.310526 7.343516 17.545305
v -27.408605 -0.008777 17.545305
v -27.408605 6.111022 25.682001
v -19.310526 6.111022 25.682001
v -19.310526 6.111022 17.545305
v -27.408605 6.111022 17.545305
v -28.146275 6.111022 17.545305
v -28.146275 6.111022 25.668732
v -28.146275 7.343516 25.668732
v -28.146275 7.343516 17.545305
v -27.394188 6.111022 26.433959
v -19.310526 6.111022 26.433959
v -19.310526 7.343516 26.433959
v -27.394188 7.343516 26.433959
v -28.154186 7.343516 26.447561
v -28.154186 6.111022 26.447561
v -27.351727 7.343516 18.312373
v -19.310526 7.343516 18.312373
v -19.310526 6.111022 18.323150
v -19.310526 -0.008777 18.323150
v -27.408605 -0.008777 18.323150
v -27.408605 6.111022 18.323150
v -28.146275 6.111022 18.321881
v -28.146275 7.343516 18.321881
v -20.052749 -0.008777 25.682001
v -20.052747 -0.008777 18.323150
v -20.052749 -0.008777 17.545305
v -20.052747 6.111022 17.545305
v -20.047536 7.343516 17.545305
v -20.047536 7.343516 18.312373
v -20.047536 7.343516 25.569277
v -20.051426 7.343516 26.433959
v -20.051426 6.111022 26.433959
v -20.052749 6.111022 25.682001
v -20.046446 6.111022 18.318833
vt 0.375000 0.000000
vt 0.625000 0.000000
vt 0.375000 0.250000
vt 0.625000 0.250000
vt 0.375000 0.500000
vt 0.625000 0.500000
vt 0.375000 0.750000
vt 0.375000 1.000000
vt 0.625000 1.000000
vt 0.125000 0.000000
vt 0.125000 0.250000
vt 0.375000 0.208091
vt 0.625000 0.208091
vt 0.625000 0.541909
vt 0.125000 0.208091
vt 0.375000 0.541909
vt 0.125000 0.208091
vt 0.375000 0.208091
vt 0.375000 0.250000
vt 0.125000 0.250000
vt 0.375000 0.208091
vt 0.625000 0.208091
vt 0.625000 0.250000
vt 0.375000 0.250000
vt 0.375000 0.250000
vt 0.375000 0.208091
vt 0.148899 0.250000
vt 0.375000 0.476101
vt 0.625000 0.476101
vt 0.625000 0.509997
vt 0.851101 0.208091
vt 0.625000 0.773899
vt 0.851101 0.000000
vt 0.148899 0.000000
vt 0.375000 0.773899
vt 0.148899 0.208091
vt 0.148899 0.208091
vt 0.148899 0.250000
vt 0.602086 0.000000
vt 0.602086 1.000000
vt 0.602083 0.773903
vt 0.602086 0.750000
vt 0.602087 0.541909
vt 0.602086 0.500000
vt 0.602086 0.476101
vt 0.602086 0.250000
vt 0.602086 0.250000
vt 0.602086 0.208091
vt 0.602086 0.208091
vt 0.732659 0.361813
vt 0.726594 0.375000
vn 0.000000 0.000000 1.000000
vn 0.000000 0.000000 1.000000
vn 0.000000 0.000000 1.000000
vn 0.000000 0.000000 1.000000
vn 0.000000 1.000000 0.000000
vn 0.000000 1.000000 0.000000
vn 0.000000 1.000000 0.000000
vn 0.000000 1.000000 0.000000
vn 0.000000 0.000000 -1.000000
vn 0.000000 0.000000 -1.000000
vn 0.000000 0.000000 -1.000000
vn 0.000000 0.000000 -1.000000
vn -1.000000 0.000000 0.000000
vn -1.000000 0.000000 0.000000
vn -1.000000 0.000000 0.000000
vn -1.000000 0.000000 0.000000
vn 0.000000 0.000000 1.000000
vn 0.000000 0.000000 1.000000
vn 0.000000 0.000000 1.000000
vn 0.000000 0.000000 1.000000
vn -1.000000 0.000000 0.000000
vn -1.000000 0.000000 0.000000
vn -1.000000 0.000000 0.000000
vn -1.000000 0.000000 0.000000
vn 0.000000 -1.000000 0.000000
vn 0.000000 -1.000000 0.000000
vn 0.000000 -1.000000 0.000000
vn 0.000000 -1.000000 0.000000
vn 0.001679 0.000000 0.999999
vn 0.001679 0.000000 0.999999
vn 0.017894 0.000000 0.999840
vn 0.017894 0.000000 0.999840
vn 0.000000 1.000000 0.000000
vn 0.000000 1.000000 0.000000
vn 0.000000 1.000000 0.000000
vn 0.000000 1.000000 0.000000
vn 0.000000 0.000000 -1.000000
vn 0.000000 0.000000 -1.000000
vn 0.000000 0.000000 -1.000000
vn 0.000000 0.000000 -1.000000
vn 1.000000 0.000000 0.000000
vn 1.000000 0.000000 0.000000
vn 1.000000 0.000000 0.000000
vn 1.000000 0.000000 0.000000
vn 0.000000 -1.000000 -0.000000
vn 0.000000 -1.000000 -0.000000
vn 0.000000 -1.000000 0.000000
vn 0.000000 -1.000000 0.000000
vn 1.000000 0.000000 0.000000
vn 1.000000 0.000000 0.000000
vn 1.000000 0.000000 0.000000
vn 1.000000 0.000000 0.000000
vn 0.000000 1.000000 0.000000
vn 0.000000 1.000000 0.000000
vn 0.000000 1.000000 0.000000
vn 0.000000 1.000000 0.000000
vn 0.000000 1.000000 0.000000
vn 0.000000 1.000000 0.000000
vn 0.000000 1.000000 0.000000
vn 0.000000 1.000000 0.000000
vn -1.000000 0.000000 -0.000973
vn -1.000000 0.000000 -0.000973
vn -0.999948 0.000000 -0.010156
vn -0.999948 0.000000 -0.010156
vn 0.000000 -1.000000 0.000000
vn 0.000000 -1.000000 -0.000000
vn 0.000000 -1.000000 -0.000000
vn 0.000000 -1.000000 0.000000
vn 1.000000 0.000000 0.000000
vn 1.000000 0.000000 0.000000
vn 1.000000 0.000000 0.000000
vn 1.000000 0.000000 0.000000
vn 0.000000 -1.000000 0.000000
vn 0.000000 -1.000000 0.000000
vn 0.000000 -1.000000 0.000000
vn 0.000000 -1.000000 0.000000
vn -1.000000 0.000000 0.000000
vn -1.000000 0.000000 0.000000
vn 0.000000 -1.000000 0.000000
vn 0.000000 -1.000000 0.000000
vn 0.000000 -1.000000 0.000000
vn 0.000000 -1.000000 0.000000
vn 0.000000 0.000000 -1.000000
vn 0.000000 0.000000 -1.000000
vn 0.000000 0.000000 1.000000
vn 0.000000 0.000000 1.000000
vn 0.002920 -0.000354 -0.999996
vn 0.002920 -0.000354 -0.999996
vn 0.002920 -0.000354 -0.999996
vn 0.002920 -0.000354 -0.999996
vn 0.999992 -0.000516 -0.004063
vn 0.999992 -0.000516 -0.004063
vn 0.999992 -0.000516 -0.004063
vn 0.999992 -0.000516 -0.004063
vn 0.000000 -1.000000 0.000000
vn 0.000000 -1.000000 0.000000
vn 0.000000 -1.000000 0.000000
vn 0.000000 -1.000000 0.000000
s 1
g pasted__pasted__pasted__pCube6 pasted__pasted__group12 pasted__group16 group17
usemtl initialShadingGroup
f 37/47/1 38/48/2 17/22/3 18/23/4
s 2
f 34/44/5 35/45/6 23/29/7 6/6/8
s 3
f 33/43/9 34/44/10 6/6/11 10/14/12
s 4
f 12/17/13 28/37/14 29/38/15 15/20/16
s 5
f 39/49/17 30/39/18 2/2/19 9/13/20
s 6
f 7/10/21 26/34/22 27/36/23 11/15/24
s 7
f 11/15/25 27/36/26 28/37/27 12/17/28
s 1
f 16/21/29 19/24/30 20/25/31 21/26/32
s 2
f 29/38/33 22/27/34 5/11/35 15/20/36
s 3
f 5/11/37 11/15/38 12/17/39 15/20/40
s 9
f 6/6/41 23/29/42 24/30/43 10/14/44
s 7
f 38/48/45 39/49/46 9/13/47 17/22/48
s 9
f 9/13/49 4/4/50 18/23/51 17/22/52
s 2
f 4/4/53 36/46/54 37/47/55 18/23/56
f 3/3/57 14/19/58 20/25/59 19/24/60
s 4
f 14/19/61 13/18/62 21/26/63 20/25/64
s 7
f 13/18/65 8/12/66 16/21/67 21/26/68
s 2
f 35/45/6 36/46/54 4/4/53 23/29/7
s 9
f 24/30/43 23/29/42 4/4/50 9/13/49
s off
f 2/2/69 25/33/70 24/31/71 9/13/72
s 11
f 30/40/73 31/41/74 25/32/75 2/9/76
s 6
f 27/36/23 26/34/22 1/1/77 8/12/78
s 7
f 28/37/27 27/36/26 8/12/66 13/18/65
s 4
f 29/38/15 28/37/14 13/18/62 14/19/61
s 2
f 3/3/57 22/27/34 29/38/33 14/19/58
s 11
f 26/35/79 31/41/74 30/40/73 1/8/80
f 7/7/81 32/42/82 31/41/74 26/35/79
s 3
f 11/16/38 33/43/9 32/42/83 7/7/84
f 5/5/37 34/44/10 33/43/9 11/16/38
s 2
f 22/28/34 35/45/6 34/44/5 5/5/35
f 3/3/57 36/46/54 35/45/6 22/28/34
f 37/47/55 36/46/54 3/3/57 19/24/60
s 1
f 16/21/29 38/48/2 37/47/1 19/24/30
s 7
f 8/12/66 39/49/46 38/48/45 16/21/67
s 5
f 1/1/85 30/39/18 39/49/17 8/12/86
s off
f 24/31/87 25/33/88 31/50/89 40/51/90
f 40/51/91 31/50/92 32/42/93 33/43/94
f 33/43/95 10/14/96 24/31/97 40/51/98
