# This file uses centimeters as units for non-parametric coordinates.

mtllib Bench End.mtl
g default
v -27.402837 -0.008777 4.948936
v -20.050541 -0.008777 4.948936
v -27.402837 7.343516 4.948936
v -20.050541 7.343516 4.948936
v -27.402837 7.343516 -2.403358
v -20.050541 7.343516 -2.403358
v -27.402837 -0.008777 -2.403358
v -20.050541 -0.008777 -2.403358
v -27.402837 6.111022 4.948936
v -20.050541 6.111022 4.948936
v -20.050541 6.111022 -2.403358
v -27.402837 6.111022 -2.403358
v -19.304979 6.111022 4.948936
v -19.304979 6.111022 -2.403358
v -19.304979 7.343516 -2.403358
v -19.304979 7.343516 4.948936
v -28.148399 6.111022 -2.403358
v -28.148399 6.111022 4.948936
v -28.148399 7.343516 4.948936
v -28.148399 7.343516 -2.403358
v -27.402837 7.343516 -3.245968
v -20.050541 7.343516 -3.245968
v -20.050541 6.111022 -3.245968
v -27.402837 6.111022 -3.245968
v -19.304979 7.343516 -3.245968
v -19.304979 6.111022 -3.245968
v -28.148399 6.111022 -3.245968
v -28.148399 7.343516 -3.245968
vt 0.375000 0.000000
vt 0.625000 0.000000
vt 0.375000 0.250000
vt 0.625000 0.250000
vt 0.375000 0.500000
vt 0.625000 0.500000
vt 0.375000 0.750000
vt 0.625000 0.750000
vt 0.375000 1.000000
vt 0.625000 1.000000
vt 0.875000 0.000000
vt 0.875000 0.250000
vt 0.125000 0.000000
vt 0.125000 0.250000
vt 0.375000 0.208091
vt 0.625000 0.208091
vt 0.625000 0.541909
vt 0.875000 0.208091
vt 0.125000 0.208091
vt 0.375000 0.541909
vt 0.625000 0.208091
vt 0.875000 0.208091
vt 0.875000 0.250000
vt 0.625000 0.250000
vt 0.125000 0.208091
vt 0.375000 0.208091
vt 0.375000 0.250000
vt 0.125000 0.250000
vt 0.375000 0.500000
vt 0.625000 0.500000
vt 0.625000 0.541909
vt 0.375000 0.541909
vt 0.875000 0.250000
vt 0.875000 0.250000
vt 0.875000 0.208091
vt 0.875000 0.208091
vt 0.125000 0.208091
vt 0.125000 0.208091
vt 0.125000 0.250000
vt 0.125000 0.250000
vn 0.000000 0.000000 1.000000
vn 0.000000 0.000000 1.000000
vn 0.000000 0.000000 1.000000
vn 0.000000 0.000000 1.000000
vn 0.000000 1.000000 0.000000
vn 0.000000 1.000000 0.000000
vn 0.000000 1.000000 0.000000
vn 0.000000 1.000000 0.000000
vn 0.000000 0.000000 -1.000000
vn 0.000000 0.000000 -1.000000
vn 0.000000 0.000000 -1.000000
vn 0.000000 0.000000 -1.000000
vn 0.000000 -1.000000 0.000000
vn 0.000000 -1.000000 0.000000
vn 0.000000 -1.000000 0.000000
vn 0.000000 -1.000000 0.000000
vn 1.000000 0.000000 0.000000
vn 1.000000 0.000000 0.000000
vn 1.000000 0.000000 0.000000
vn 1.000000 0.000000 0.000000
vn -1.000000 0.000000 0.000000
vn -1.000000 0.000000 0.000000
vn -1.000000 0.000000 0.000000
vn -1.000000 0.000000 0.000000
vn 0.000000 0.000000 1.000000
vn 0.000000 0.000000 1.000000
vn 1.000000 0.000000 0.000000
vn 1.000000 0.000000 0.000000
vn 1.000000 0.000000 0.000000
vn 1.000000 0.000000 0.000000
vn 0.000000 0.000000 -1.000000
vn 0.000000 0.000000 -1.000000
vn 0.000000 0.000000 -1.000000
vn 0.000000 0.000000 -1.000000
vn -1.000000 0.000000 0.000000
vn -1.000000 0.000000 0.000000
vn -1.000000 0.000000 0.000000
vn -1.000000 0.000000 0.000000
vn 0.000000 -1.000000 0.000000
vn 0.000000 -1.000000 0.000000
vn 0.000000 -1.000000 0.000000
vn 0.000000 -1.000000 0.000000
vn 0.000000 0.000000 -1.000000
vn 0.000000 0.000000 -1.000000
vn 0.000000 1.000000 0.000000
vn 0.000000 1.000000 0.000000
vn 0.000000 0.000000 1.000000
vn 0.000000 0.000000 1.000000
vn 0.000000 -1.000000 0.000000
vn 0.000000 -1.000000 0.000000
vn 0.000000 -1.000000 0.000000
vn 0.000000 -1.000000 0.000000
vn 0.000000 0.000000 1.000000
vn 0.000000 0.000000 1.000000
vn 0.000000 1.000000 0.000000
vn 0.000000 1.000000 0.000000
vn 0.000000 0.000000 -1.000000
vn 0.000000 0.000000 -1.000000
vn 0.000000 1.000000 0.000000
vn 0.000000 1.000000 0.000000
vn 0.000000 -1.000000 0.000000
vn 0.000000 -1.000000 0.000000
vn 0.000000 1.000000 0.000000
vn 1.000000 0.000000 0.000000
vn 1.000000 0.000000 0.000000
vn 0.000000 -1.000000 0.000000
vn 0.000000 -1.000000 0.000000
vn -1.000000 0.000000 0.000000
vn -1.000000 0.000000 0.000000
vn 0.000000 1.000000 0.000000
s 1
g pasted__pasted__pasted__pCube6 pasted__pasted__group12 pasted__group16 group19
usemtl initialShadingGroup
f 9/15/1 10/16/2 4/4/3 3/3/4
s 2
f 3/3/5 4/4/6 6/6/7 5/5/8
s 3
f 21/29/9 22/30/10 23/31/11 24/32/12
s off
f 7/7/13 8/8/14 2/10/15 1/9/16
s 4
f 13/21/17 14/22/18 15/23/19 16/24/20
s 5
f 17/25/21 18/26/22 19/27/23 20/28/24
s 1
f 1/1/25 2/2/26 10/16/2 9/15/1
s off
f 2/2/27 8/11/28 11/18/29 10/16/30
f 12/20/31 11/17/32 8/8/33 7/7/34
f 7/13/35 1/1/36 9/15/37 12/19/38
s 6
f 10/16/39 11/18/40 14/22/41 13/21/42
s 3
f 23/36/11 22/33/10 25/34/43 26/35/44
s 2
f 6/12/7 4/4/6 16/24/45 15/23/46
s 1
f 4/4/3 10/16/2 13/21/47 16/24/48
s 6
f 12/19/49 9/15/50 18/26/51 17/25/52
s 1
f 9/15/1 3/3/4 19/27/53 18/26/54
s 2
f 3/3/5 5/14/8 20/28/55 19/27/56
s 3
f 21/40/9 24/37/12 27/38/57 28/39/58
s 2
f 5/5/8 6/6/7 22/30/59 21/29/60
s 6
f 11/17/40 12/20/49 24/32/61 23/31/62
s 2
f 6/12/7 15/23/46 25/34/63 22/33/59
s 4
f 15/23/19 14/22/18 26/35/64 25/34/65
s 6
f 14/22/41 11/18/40 23/36/62 26/35/66
f 12/19/49 17/25/52 27/38/67 24/37/61
s 5
f 17/25/21 20/28/24 28/39/68 27/38/69
s 2
f 20/28/55 5/14/8 21/40/60 28/39/70
