# This file uses centimeters as units for non-parametric coordinates.

mtllib Melting crucible.mtl
g default
v -3.380923 -1.125782 2.150359
v -4.016145 -1.125782 1.887241
v -4.651367 -1.125782 2.150359
v -4.914485 -1.125782 2.785581
v -4.651367 -1.125782 3.420803
v -4.016145 -1.125782 3.683920
v -3.380923 -1.125782 3.420803
v -3.117805 -1.125782 2.785581
v -3.262624 1.182944 2.032060
v -4.016145 1.182944 1.719942
v -4.769665 1.182944 2.032060
v -5.081784 1.182944 2.785581
v -4.769665 1.182944 3.539101
v -4.016145 1.182944 4.135862
v -3.262624 1.182944 3.539101
v -2.950506 1.182944 2.785581
v -4.016145 -1.125782 2.785581
v -3.458869 1.154138 2.240075
v -4.016145 1.154138 2.009243
v -4.573421 1.154138 2.240075
v -4.804252 1.154138 2.797350
v -4.573421 1.154138 3.354626
v -4.016145 1.154138 3.793096
v -3.458869 1.154138 3.354626
v -3.228038 1.154138 2.797350
v -3.488910 -0.680981 2.269481
v -4.016145 -0.680981 2.051093
v -4.016145 -0.680981 2.796716
v -4.543380 -0.680981 2.269481
v -4.761768 -0.680981 2.796716
v -4.543380 -0.680981 3.323951
v -4.016145 -0.680981 3.542339
v -3.488910 -0.680981 3.323951
v -3.270522 -0.680981 2.796716
v -3.262624 0.709767 2.032060
v -4.016145 0.709767 1.719942
v -4.769665 0.709767 2.032060
v -5.081784 0.709767 2.785581
v -4.769665 0.709767 3.539101
v -4.016145 0.709767 3.851220
v -3.262624 0.709767 3.539101
v -2.950506 0.709767 2.785581
v -3.458869 0.794561 2.240075
v -4.016145 0.794561 2.009243
v -4.573421 0.794561 2.240075
v -4.804252 0.794561 2.797350
v -4.573421 0.794561 3.354626
v -4.016145 0.794561 3.585457
v -3.458869 0.794561 3.354626
v -3.228038 0.794561 2.797350
v -3.639384 1.182944 3.695160
v -3.737507 1.154138 3.470042
v -4.294783 1.154138 3.470042
v -4.392905 1.182944 3.695160
v -3.303244 -0.502151 2.072680
v -4.016145 -0.502151 1.777387
v -4.729046 -0.502151 2.072680
v -5.024339 -0.502151 2.785581
v -4.729046 -0.502151 3.498481
v -4.016145 -0.502151 3.793775
v -3.303244 -0.502151 3.498481
v -3.007951 -0.502151 2.785581
v -3.458869 0.042774 2.240075
v -3.228038 0.042774 2.797350
v -3.458869 0.042774 3.354626
v -4.016145 0.042774 3.585457
v -4.573421 0.042774 3.354626
v -4.804252 0.042774 2.797350
v -4.573421 0.042774 2.240075
v -4.016145 0.042774 2.009243
vt 0.610485 0.045765
vt 0.500000 0.000000
vt 0.389515 0.045765
vt 0.343750 0.156250
vt 0.389515 0.266735
vt 0.500000 0.312500
vt 0.610485 0.266735
vt 0.656250 0.156250
vt 0.375000 0.312500
vt 0.406250 0.312500
vt 0.437500 0.312500
vt 0.468750 0.312500
vt 0.500000 0.312500
vt 0.531250 0.312500
vt 0.562500 0.312500
vt 0.593750 0.312500
vt 0.625000 0.312500
vt 0.375000 0.688440
vt 0.406250 0.688440
vt 0.437500 0.688440
vt 0.468750 0.688440
vt 0.500000 0.688440
vt 0.531250 0.688440
vt 0.562500 0.688440
vt 0.593750 0.688440
vt 0.625000 0.688440
vt 0.610485 0.733265
vt 0.500000 0.687500
vt 0.389515 0.733265
vt 0.343750 0.843750
vt 0.389515 0.954235
vt 0.500000 1.000000
vt 0.610485 0.954235
vt 0.656250 0.843750
vt 0.500000 0.150000
vt 0.500000 0.837500
vt 0.610485 0.954235
vt 0.500000 1.000000
vt 0.389515 0.954235
vt 0.343750 0.843750
vt 0.389515 0.733265
vt 0.500000 0.687500
vt 0.610485 0.733265
vt 0.656250 0.843750
vt 0.610485 0.954235
vt 0.500000 1.000000
vt 0.389515 0.954235
vt 0.343750 0.843750
vt 0.389515 0.733265
vt 0.500000 0.687500
vt 0.610485 0.733265
vt 0.656250 0.843750
vt 0.625000 0.613252
vt 0.375000 0.613252
vt 0.406250 0.613252
vt 0.437500 0.613252
vt 0.468750 0.613252
vt 0.500000 0.613252
vt 0.531250 0.613252
vt 0.562500 0.613252
vt 0.593750 0.613252
vt 0.610485 0.954235
vt 0.500000 1.000000
vt 0.389515 0.954235
vt 0.343750 0.843750
vt 0.389515 0.733265
vt 0.500000 0.687500
vt 0.610485 0.733265
vt 0.656250 0.843750
vt 0.555243 0.710382
vt 0.546875 0.688440
vt 0.555243 0.710382
vt 0.444757 0.710382
vt 0.444757 0.710382
vt 0.515625 0.688440
vt 0.625000 0.428213
vt 0.375000 0.428213
vt 0.406250 0.428213
vt 0.437500 0.428213
vt 0.468750 0.428213
vt 0.500000 0.428213
vt 0.531250 0.428213
vt 0.562500 0.428213
vt 0.593750 0.428213
vt 0.610485 0.954235
vt 0.656250 0.843750
vt 0.610485 0.733265
vt 0.500000 0.687500
vt 0.389515 0.733265
vt 0.343750 0.843750
vt 0.389515 0.954235
vt 0.500000 1.000000
vn 0.706705 -0.033683 -0.706706
vn 0.000000 -0.033683 -0.999433
vn 0.000000 0.000000 -1.000000
vn 0.707107 0.000000 -0.707107
vn -0.706705 -0.033683 -0.706706
vn -0.707107 0.000000 -0.707107
vn -0.999433 -0.033683 0.000000
vn -1.000000 0.000000 0.000000
vn -0.717559 -0.034939 0.695621
vn -0.747641 0.000000 0.664103
vn -0.446974 -0.061564 0.892426
vn -0.000000 -0.073255 0.997313
vn 0.000000 -0.515475 0.856905
vn 0.446974 -0.061564 0.892426
vn 0.717559 -0.034939 0.695621
vn 0.999433 -0.033683 -0.000000
vn 1.000000 0.000000 -0.000000
vn 0.747641 0.000000 0.664103
vn 0.000000 -1.000000 0.000000
vn 0.000000 -1.000000 0.000000
vn 0.000000 -1.000000 0.000000
vn 0.000000 -1.000000 0.000000
vn 0.000000 -1.000000 0.000000
vn 0.000000 -1.000000 0.000000
vn 0.000000 -1.000000 0.000000
vn 0.000000 -1.000000 0.000000
vn 0.000000 -1.000000 0.000000
vn 0.000000 1.000000 0.000000
vn 0.000000 1.000000 0.000000
vn 0.000000 1.000000 0.000000
vn 0.000000 1.000000 0.000000
vn 0.000000 1.000000 0.000000
vn 0.000000 1.000000 0.000000
vn -0.000000 1.000000 0.000000
vn -0.000000 1.000000 0.000000
vn 0.000000 1.000000 0.000000
vn -0.070156 0.994963 0.071598
vn -0.000000 0.995079 0.099082
vn -0.000000 0.995079 0.099082
vn -0.071344 0.994959 0.070477
vn 0.070156 0.994963 0.071598
vn 0.071344 0.994959 0.070477
vn 0.103175 0.994662 0.001527
vn 0.103278 0.994652 -0.000920
vn 0.085938 0.994253 -0.063834
vn 0.084833 0.994272 -0.065013
vn 0.070186 0.992888 -0.096162
vn 0.077505 0.992658 -0.092858
vn -0.000000 0.996453 -0.084148
vn 0.000000 0.996453 -0.084148
vn -0.077505 0.992658 -0.092858
vn -0.070186 0.992888 -0.096162
vn -0.085938 0.994253 -0.063834
vn -0.103175 0.994662 0.001527
vn -0.103278 0.994652 -0.000920
vn -0.084833 0.994272 -0.065013
vn -0.707107 -0.000000 0.707107
vn -0.000000 0.000000 1.000000
vn 0.000000 0.027730 0.999615
vn -0.706890 0.027852 0.706775
vn 0.707107 -0.000000 0.707107
vn 0.706890 0.027852 0.706775
vn 1.000000 0.000000 0.000000
vn 0.999604 0.028147 -0.000115
vn 0.719342 0.000000 -0.694656
vn 0.706763 0.028441 -0.706878
vn 0.000000 0.037213 -0.999307
vn 0.000000 0.028563 -0.999592
vn -0.719342 0.000000 -0.694656
vn -0.706763 0.028441 -0.706878
vn -1.000000 0.000000 0.000000
vn -0.999604 0.028147 -0.000115
vn 0.704442 -0.086737 -0.704442
vn 0.000000 -0.086737 -0.996231
vn -0.704442 -0.086737 -0.704442
vn -0.996231 -0.086737 0.000000
vn -0.704442 -0.086737 0.704442
vn -0.000000 -0.086737 0.996231
vn 0.704442 -0.086737 0.704442
vn 0.996231 -0.086737 -0.000000
vn -0.707107 -0.000000 0.707107
vn 0.000000 0.000000 1.000000
vn 0.707107 -0.000000 0.707107
vn 1.000000 -0.000000 -0.000000
vn 0.747641 -0.000000 -0.664103
vn 0.447052 0.059952 -0.892497
vn 0.000000 0.500066 -0.865987
vn -0.447052 0.059952 -0.892497
vn -0.747641 -0.000000 -0.664103
vn -1.000000 -0.000000 0.000000
vn 0.696385 -0.173482 -0.696385
vn 0.000000 -0.173482 -0.984837
vn -0.696385 -0.173482 -0.696385
vn -0.984837 -0.173482 0.000000
vn -0.696385 -0.173482 0.696385
vn 0.000000 -0.173482 0.984837
vn 0.696385 -0.173482 0.696385
vn 0.984837 -0.173482 -0.000000
vn -0.705801 0.057982 0.706034
vn -0.998282 0.058599 0.000233
vn -0.705982 0.059215 -0.705750
vn 0.000000 0.059471 -0.998230
vn 0.705982 0.059215 -0.705750
vn 0.998282 0.058599 0.000233
vn 0.705801 0.057982 0.706034
vn 0.000000 0.057727 0.998332
s 1
g pCylinder6
usemtl initialShadingGroup
f 35/54/1 36/55/2 10/19/3 9/18/4
f 36/55/2 37/56/5 11/20/6 10/19/3
f 37/56/5 38/57/7 12/21/8 11/20/6
f 38/57/7 39/58/9 13/22/10 12/21/8
f 54/75/11 40/59/12 14/23/13
f 40/59/12 51/71/14 14/23/13
f 41/60/15 42/61/16 16/25/17 15/24/18
f 42/61/16 35/53/1 9/26/4 16/25/17
s 3
f 2/2/19 1/1/20 17/35/21
f 3/3/22 2/2/19 17/35/21
f 4/4/23 3/3/22 17/35/21
f 5/5/24 4/4/23 17/35/21
f 6/6/25 5/5/24 17/35/21
f 7/7/26 6/6/25 17/35/21
f 8/8/27 7/7/26 17/35/21
f 1/1/20 8/8/27 17/35/21
s 4
f 26/45/28 27/46/29 28/36/30
f 27/46/29 29/47/31 28/36/30
f 29/47/31 30/48/32 28/36/30
f 30/48/32 31/49/33 28/36/30
f 31/49/33 32/50/34 28/36/30
f 32/50/34 33/51/35 28/36/30
f 33/51/35 34/52/36 28/36/30
f 34/52/36 26/45/28 28/36/30
s 5
f 9/33/37 10/32/38 19/38/39 18/37/40
f 10/32/38 11/31/41 20/39/42 19/38/39
f 11/31/41 12/30/43 21/40/44 20/39/42
f 12/30/43 13/29/45 22/41/46 21/40/44
f 53/73/47 54/74/48 14/28/49 23/42/50
f 14/28/49 51/70/51 52/72/52 23/42/50
f 15/27/53 16/34/54 25/44/55 24/43/56
f 16/34/54 9/33/37 18/37/40 25/44/55
s 6
f 43/62/57 44/63/58 70/92/59 63/85/60
f 44/63/58 45/64/61 69/91/62 70/92/59
f 45/64/61 46/65/63 68/90/64 69/91/62
f 46/65/63 47/66/65 67/89/66 68/90/64
f 47/66/65 48/67/67 66/88/68 67/89/66
f 48/67/67 49/68/69 65/87/70 66/88/68
f 49/68/69 50/69/71 64/86/72 65/87/70
f 50/69/71 43/62/57 63/85/60 64/86/72
s 1
f 55/77/73 56/78/74 36/55/2 35/54/1
f 56/78/74 57/79/75 37/56/5 36/55/2
f 57/79/75 58/80/76 38/57/7 37/56/5
f 58/80/76 59/81/77 39/58/9 38/57/7
f 59/81/77 60/82/78 40/59/12 39/58/9
f 60/82/78 61/83/79 41/60/15 40/59/12
f 61/83/79 62/84/80 42/61/16 41/60/15
f 62/84/80 55/76/73 35/53/1 42/61/16
s 6
f 18/37/81 19/38/82 44/63/58 43/62/57
f 19/38/82 20/39/83 45/64/61 44/63/58
f 20/39/83 21/40/84 46/65/63 45/64/61
f 21/40/84 22/41/85 47/66/65 46/65/63
f 48/67/67 53/73/86 23/42/87
f 23/42/87 52/72/88 48/67/67
f 24/43/89 25/44/90 50/69/71 49/68/69
f 25/44/90 18/37/81 43/62/57 50/69/71
s 1
f 40/59/12 41/60/15 15/24/18 51/71/14
s 5
f 52/72/52 51/70/51 15/27/53 24/43/56
s 6
f 48/67/67 52/72/88 24/43/89 49/68/69
f 22/41/85 53/73/86 48/67/67 47/66/65
s 5
f 13/29/45 54/74/48 53/73/47 22/41/46
s 1
f 39/58/9 40/59/12 54/75/11 13/22/10
f 1/9/91 2/10/92 56/78/74 55/77/73
f 2/10/92 3/11/93 57/79/75 56/78/74
f 3/11/93 4/12/94 58/80/76 57/79/75
f 4/12/94 5/13/95 59/81/77 58/80/76
f 5/13/95 6/14/96 60/82/78 59/81/77
f 6/14/96 7/15/97 61/83/79 60/82/78
f 7/15/97 8/16/98 62/84/80 61/83/79
f 8/16/98 1/17/91 55/76/73 62/84/80
s 6
f 64/86/72 63/85/60 26/45/99 34/52/100
f 65/87/70 64/86/72 34/52/100 33/51/101
f 66/88/68 65/87/70 33/51/101 32/50/102
f 67/89/66 66/88/68 32/50/102 31/49/103
f 68/90/64 67/89/66 31/49/103 30/48/104
f 69/91/62 68/90/64 30/48/104 29/47/105
f 70/92/59 69/91/62 29/47/105 27/46/106
f 63/85/60 70/92/59 27/46/106 26/45/99
