# This file uses centimeters as units for non-parametric coordinates.

mtllib Sword Mold.mtl
g default
v -10.690010 -0.732645 -10.152597
v -4.930482 -0.732645 -10.152597
v -10.690010 -0.732645 -15.912126
v -4.930482 -0.732645 -15.912126
v -10.690010 0.439617 -10.152597
v -10.396981 0.732645 -10.445626
v -5.223511 0.732645 -10.445626
v -4.930482 0.439617 -10.152597
v -10.396981 0.732645 -15.619098
v -10.690010 0.439617 -15.912126
v -5.223511 0.732645 -15.619098
v -4.930482 0.439617 -15.912126
v -7.810246 -0.732645 -10.152597
v -7.810246 -0.732645 -15.912126
v -7.810246 0.439617 -15.912126
v -7.810246 0.732645 -15.619098
v -7.810246 0.732645 -10.445626
v -7.810246 0.439617 -10.152597
v -5.740858 0.732645 -10.445626
v -5.740858 0.732645 -15.619098
v -5.506434 0.439617 -15.912126
v -5.506434 -0.732645 -15.912126
v -5.506434 -0.732645 -10.152597
v -5.506434 0.439617 -10.152597
v -10.114058 -0.732645 -10.152597
v -10.114058 -0.732645 -15.912126
v -10.114058 0.439617 -15.912126
v -9.879634 0.732645 -15.619098
v -9.879634 0.732645 -10.445626
v -10.114058 0.439617 -10.152597
v -10.690010 -0.732645 -13.032362
v -10.114058 -0.732645 -13.032362
v -7.810246 -0.732645 -13.032362
v -5.506434 -0.732645 -13.032362
v -4.930482 -0.732645 -13.032362
v -4.930482 0.439617 -13.032362
v -5.223511 0.732645 -13.032362
v -5.740858 0.732645 -13.032362
v -9.879634 0.732645 -13.032362
v -10.396981 0.732645 -13.032362
v -10.690010 0.439617 -13.032362
v -10.396981 0.732645 -10.962972
v -9.879634 0.732645 -10.962972
v -7.810246 0.732645 -10.962972
v -5.740858 0.732645 -10.962972
v -5.223511 0.732645 -10.962972
v -4.930482 0.439617 -10.728550
v -4.930482 -0.732645 -10.728550
v -5.506434 -0.732645 -10.728550
v -7.810246 -0.732645 -10.728550
v -10.114058 -0.732645 -10.728550
v -10.690010 -0.732645 -10.728550
v -10.690010 0.439617 -10.728550
v -10.690010 -0.732645 -15.336172
v -10.114058 -0.732645 -15.336172
v -7.810246 -0.732645 -15.336172
v -5.506434 -0.732645 -15.336172
v -4.930482 -0.732645 -15.336172
v -4.930482 0.439617 -15.336172
v -5.223511 0.732645 -15.101752
v -5.740858 0.732645 -15.101752
v -7.810246 0.732645 -15.101752
v -9.879634 0.732645 -15.101752
v -10.396981 0.732645 -15.101752
v -10.690010 0.439617 -15.336172
v -5.740858 0.732645 -11.997666
v -6.775552 0.732645 -13.032362
v -7.810246 0.732645 -14.067056
v -8.844940 0.732645 -15.101752
v -6.775552 0.732645 -10.962972
v -7.810246 0.732645 -11.997666
v -8.844940 0.732645 -13.032362
v -9.879634 0.732645 -14.067056
v -9.362288 0.732645 -13.549710
v -8.327593 0.732645 -14.584404
v -8.586266 0.732645 -14.325730
v -9.362288 0.732645 -15.101752
v -9.103614 0.732645 -13.808382
v -9.879634 0.732645 -14.584404
v -9.620960 0.732645 -14.843076
v -6.775552 0.310085 -13.032362
v -7.810246 0.310085 -14.067056
v -7.810246 0.310085 -13.549710
v -7.810246 0.310085 -13.032362
v -5.740858 0.310085 -11.997666
v -5.740858 0.310085 -10.962972
v -7.810246 0.310085 -11.997666
v -6.775552 0.310085 -10.962972
v -8.327593 0.310085 -13.032362
v -8.844940 0.310085 -13.032362
v -9.103614 0.310085 -13.808382
v -9.362288 0.310085 -13.549710
v -8.586266 0.310085 -14.325730
v -8.844940 0.310085 -14.067056
v -8.327593 0.310085 -14.584404
v -9.879634 0.310085 -14.584404
v -9.620960 0.310085 -14.843076
v -9.362288 0.310085 -15.101752
vt 0.625000 0.750000
vt 0.375000 1.000000
vt 0.625000 1.000000
vt 0.375000 0.549995
vt 0.387719 0.487281
vt 0.625000 0.000000
vt 0.375000 0.200005
vt 0.387719 0.262719
vt 0.612281 0.262719
vt 0.612281 0.487281
vt 0.625000 0.549995
vt 0.375000 0.750000
vt 0.875000 0.000000
vt 0.875000 0.200005
vt 0.625000 0.200005
vt 0.125000 0.000000
vt 0.375000 0.000000
vt 0.125000 0.200005
vt 0.500000 0.000000
vt 0.500000 1.000000
vt 0.500000 0.750000
vt 0.500000 0.549995
vt 0.500000 0.487281
vt 0.500000 0.262719
vt 0.500000 0.200005
vt 0.589825 0.262719
vt 0.589825 0.487281
vt 0.600000 0.549995
vt 0.600000 0.750000
vt 0.600000 0.000000
vt 0.600000 1.000000
vt 0.600000 0.200005
vt 0.400000 0.000000
vt 0.400000 1.000000
vt 0.400000 0.750000
vt 0.400000 0.549995
vt 0.410175 0.487281
vt 0.410175 0.262719
vt 0.400000 0.200005
vt 0.250000 0.000000
vt 0.375000 0.875000
vt 0.400000 0.875000
vt 0.500000 0.875000
vt 0.600000 0.875000
vt 0.625000 0.875000
vt 0.750000 0.000000
vt 0.625000 0.375000
vt 0.750000 0.200005
vt 0.612281 0.375000
vt 0.589825 0.375000
vt 0.500000 0.375000
vt 0.410175 0.375000
vt 0.387719 0.375000
vt 0.375000 0.375000
vt 0.250000 0.200005
vt 0.387719 0.285175
vt 0.410175 0.285175
vt 0.500000 0.285175
vt 0.589825 0.285175
vt 0.612281 0.285175
vt 0.625000 0.235004
vt 0.650000 0.200005
vt 0.625000 0.975000
vt 0.650000 0.000000
vt 0.600000 0.975000
vt 0.500000 0.975000
vt 0.400000 0.975000
vt 0.350000 0.000000
vt 0.375000 0.975000
vt 0.375000 0.235004
vt 0.350000 0.200005
vt 0.150000 0.000000
vt 0.375000 0.775000
vt 0.400000 0.775000
vt 0.500000 0.775000
vt 0.600000 0.775000
vt 0.625000 0.775000
vt 0.850000 0.000000
vt 0.625000 0.514996
vt 0.850000 0.200005
vt 0.612281 0.464825
vt 0.589825 0.464825
vt 0.500000 0.464825
vt 0.410175 0.464825
vt 0.387719 0.464825
vt 0.375000 0.514996
vt 0.150000 0.200005
vt 0.589825 0.330088
vt 0.544912 0.375000
vt 0.500000 0.419912
vt 0.455088 0.464825
vt 0.544912 0.285175
vt 0.500000 0.330088
vt 0.455088 0.375000
vt 0.410175 0.419912
vt 0.432632 0.397456
vt 0.455088 0.419912
vt 0.477544 0.442368
vt 0.500000 0.397456
vt 0.466316 0.431140
vt 0.432632 0.464825
vt 0.477544 0.375000
vt 0.443860 0.408684
vt 0.410175 0.442368
vt 0.421404 0.453597
vt 0.544912 0.375000
vt 0.500000 0.419912
vt 0.589825 0.330088
vt 0.589825 0.285175
vt 0.500000 0.330088
vt 0.544912 0.285175
vt 0.455088 0.375000
vt 0.443860 0.408684
vt 0.432632 0.397456
vt 0.477544 0.442368
vt 0.466316 0.431140
vt 0.410175 0.442368
vt 0.421404 0.453597
vt 0.432632 0.464825
vn 0.000000 -1.000000 0.000000
vn 0.000000 -1.000000 0.000000
vn 0.000000 -1.000000 0.000000
vn 0.000000 -1.000000 0.000000
vn -0.707107 0.707107 0.000000
vn -0.707107 0.707107 0.000000
vn -0.707107 0.707107 0.000000
vn -0.707107 0.707107 0.000000
vn 0.000000 0.707107 0.707107
vn 0.000000 0.707107 0.707107
vn 0.000000 0.707107 0.707107
vn 0.000000 0.707107 0.707107
vn 0.707106 0.707107 0.000000
vn 0.707106 0.707107 0.000000
vn 0.707106 0.707107 0.000000
vn 0.707106 0.707107 0.000000
vn 0.000000 0.707106 -0.707108
vn 0.000000 0.707106 -0.707108
vn 0.000000 0.707106 -0.707108
vn 0.000000 0.707106 -0.707108
vn 0.000000 0.000000 1.000000
vn 0.000000 0.000000 1.000000
vn 0.000000 0.000000 1.000000
vn 0.000000 0.000000 1.000000
vn 0.000000 1.000000 0.000000
vn 0.000000 1.000000 0.000000
vn 0.000000 1.000000 0.000000
vn 0.000000 0.000000 -1.000000
vn 0.000000 0.000000 -1.000000
vn 0.000000 0.000000 -1.000000
vn 0.000000 0.000000 -1.000000
vn 1.000000 0.000000 0.000000
vn 1.000000 0.000000 0.000000
vn 1.000000 0.000000 0.000000
vn 1.000000 0.000000 0.000000
vn -1.000000 0.000000 0.000000
vn -1.000000 0.000000 0.000000
vn -1.000000 0.000000 0.000000
vn -1.000000 0.000000 0.000000
vn 0.000000 -1.000000 0.000000
vn 0.000000 -1.000000 0.000000
vn 0.000000 0.000000 -1.000000
vn 0.000000 0.000000 -1.000000
vn 0.000000 0.707106 -0.707108
vn 0.000000 0.707106 -0.707108
vn 0.000000 1.000000 0.000000
vn 0.000000 1.000000 0.000000
vn 0.000000 1.000000 0.000000
vn 0.000000 0.707107 0.707107
vn 0.000000 0.707107 0.707107
vn 0.000000 0.000000 1.000000
vn 0.000000 0.000000 1.000000
vn 0.000000 1.000000 0.000000
vn 0.000000 1.000000 0.000000
vn 0.000000 1.000000 0.000000
vn 0.000000 1.000000 0.000000
vn 0.000000 1.000000 0.000000
vn 0.000000 0.707106 -0.707108
vn 0.000000 0.707106 -0.707108
vn 0.000000 0.000000 -1.000000
vn 0.000000 0.000000 -1.000000
vn 0.000000 -1.000000 0.000000
vn 0.000000 -1.000000 0.000000
vn 0.000000 0.000000 1.000000
vn 0.000000 0.000000 1.000000
vn 0.000000 0.707107 0.707107
vn 0.000000 0.707107 0.707107
vn 0.000000 -1.000000 0.000000
vn 0.000000 -1.000000 0.000000
vn 0.000000 0.000000 -1.000000
vn 0.000000 0.000000 -1.000000
vn 0.000000 0.707106 -0.707108
vn 0.000000 0.707106 -0.707108
vn 0.000000 1.000000 0.000000
vn 0.000000 1.000000 0.000000
vn 0.000000 0.707107 0.707107
vn 0.000000 0.707107 0.707107
vn 0.000000 0.000000 1.000000
vn 0.000000 0.000000 1.000000
vn 0.000000 -1.000000 0.000000
vn 0.000000 -1.000000 0.000000
vn 0.000000 -1.000000 0.000000
vn 0.000000 -1.000000 0.000000
vn 0.000000 -1.000000 0.000000
vn 1.000000 0.000000 0.000000
vn 1.000000 0.000000 0.000000
vn 0.707106 0.707107 0.000000
vn 0.707106 0.707107 0.000000
vn 0.000000 1.000000 0.000000
vn 0.000000 1.000000 0.000000
vn 0.000000 1.000000 0.000000
vn 0.000000 1.000000 0.000000
vn 0.000000 1.000000 0.000000
vn 0.000000 1.000000 0.000000
vn 0.000000 1.000000 0.000000
vn 0.000000 1.000000 0.000000
vn 0.000000 1.000000 0.000000
vn 0.000000 1.000000 0.000000
vn 0.000000 1.000000 0.000000
vn -0.707107 0.707107 0.000000
vn -0.707107 0.707107 0.000000
vn -1.000000 0.000000 0.000000
vn -1.000000 0.000000 0.000000
vn 0.000000 1.000000 0.000000
vn 0.000000 1.000000 0.000000
vn 0.000000 1.000000 0.000000
vn 0.000000 1.000000 0.000000
vn 0.000000 1.000000 0.000000
vn 0.707106 0.707107 0.000000
vn 0.707106 0.707107 0.000000
vn 1.000000 0.000000 0.000000
vn 1.000000 0.000000 0.000000
vn 0.000000 -1.000000 0.000000
vn 0.000000 -1.000000 0.000000
vn 0.000000 -1.000000 0.000000
vn 0.000000 -1.000000 0.000000
vn 0.000000 -1.000000 0.000000
vn -1.000000 0.000000 0.000000
vn -1.000000 0.000000 0.000000
vn -0.707107 0.707107 0.000000
vn -0.707107 0.707107 0.000000
vn 0.000000 -1.000000 0.000000
vn 0.000000 -1.000000 0.000000
vn 0.000000 -1.000000 0.000000
vn 0.000000 -1.000000 0.000000
vn 0.000000 -1.000000 0.000000
vn 1.000000 0.000000 0.000000
vn 1.000000 0.000000 0.000000
vn 0.707106 0.707107 0.000000
vn 0.707106 0.707107 0.000000
vn 0.000000 1.000000 0.000000
vn 0.000000 1.000000 0.000000
vn 0.000000 1.000000 0.000000
vn 0.000000 1.000000 0.000000
vn 0.000000 1.000000 0.000000
vn 0.000000 1.000000 0.000000
vn 0.000000 1.000000 0.000000
vn 0.000000 1.000000 0.000000
vn -0.707107 0.707107 0.000000
vn -0.707107 0.707107 0.000000
vn -1.000000 0.000000 0.000000
vn -1.000000 0.000000 0.000000
vn 0.000000 1.000000 0.000000
vn 0.000000 1.000000 0.000000
vn 0.000000 1.000000 0.000000
vn 0.000000 1.000000 0.000000
vn 0.000000 1.000000 0.000000
vn 0.000000 1.000000 0.000000
vn 0.000000 1.000000 0.000000
vn 0.000000 1.000000 0.000000
vn 0.000000 1.000000 -0.000000
vn 0.000000 1.000000 0.000000
vn 0.000000 1.000000 0.000000
vn 0.000000 1.000000 -0.000000
vn 0.000000 1.000000 0.000000
vn 0.000000 1.000000 0.000000
vn 0.000000 1.000000 -0.000000
vn 0.000000 1.000000 0.000000
vn 0.000000 1.000000 0.000000
vn 0.000000 1.000000 0.000000
vn 0.000000 1.000000 0.000000
vn 0.000000 1.000000 0.000000
vn -0.707107 0.000000 0.707107
vn -0.707107 0.000000 0.707106
vn -0.707107 0.000000 0.707106
vn -0.707107 0.000000 0.707107
vn -0.707107 0.000000 0.707106
vn -0.707107 0.000000 0.707106
vn -1.000000 0.000000 0.000000
vn -1.000000 0.000000 0.000000
vn -1.000000 0.000000 0.000000
vn -1.000000 0.000000 0.000000
vn 0.707107 0.000000 -0.707107
vn 0.707107 0.000000 -0.707107
vn 0.707107 0.000000 -0.707107
vn 0.707107 0.000000 -0.707107
vn 0.000000 0.000000 -1.000000
vn 0.000000 0.000000 -1.000000
vn 0.000000 0.000000 -1.000000
vn 0.000000 0.000000 -1.000000
vn 0.707107 0.000000 -0.707107
vn 0.707107 0.000000 -0.707107
vn 0.707105 0.000000 0.707109
vn 0.707105 0.000000 0.707109
vn 0.707105 0.000000 0.707109
vn 0.707105 0.000000 0.707109
vn 0.707107 0.000000 -0.707107
vn 0.707107 0.000000 -0.707107
vn -0.707107 0.000000 0.707106
vn -0.707107 0.000000 0.707106
vn 0.707108 0.000000 0.707106
vn 0.707108 0.000000 0.707106
vn 0.707108 0.000000 0.707106
vn 0.707108 0.000000 0.707106
vn 0.707107 0.000000 -0.707106
vn 0.707107 0.000000 -0.707106
vn 0.707107 0.000000 -0.707106
vn 0.707107 0.000000 -0.707106
vn 0.707108 0.000000 0.707106
vn 0.707105 0.000000 0.707109
vn 0.707105 0.000000 0.707109
vn 0.707108 0.000000 0.707106
vn -0.707107 0.000000 0.707107
vn -0.707107 0.000000 0.707107
vn -0.707107 0.000000 0.707107
vn -0.707107 0.000000 0.707107
vn 0.707111 0.000000 0.707103
vn 0.707111 0.000000 0.707103
s 1
g pasted__pCube4 group5
usemtl initialShadingGroup
f 49/65/1 50/66/2 33/43/3 34/44/4
s 2
f 53/70/5 42/56/6 40/53/7 41/54/8
s 3
f 17/24/9 18/25/10 24/32/11 19/26/12
s 4
f 46/60/13 47/61/14 36/47/15 37/49/16
s 5
f 15/22/17 16/23/18 20/27/19 21/28/20
s 6
f 18/25/21 13/19/22 23/30/23 24/32/24
s 7
f 70/92/25 71/93/26 44/58/27
s 8
f 14/21/28 15/22/29 21/28/30 22/29/31
s 9
f 47/62/32 48/64/33 35/46/34 36/48/35
s 10
f 41/55/36 31/40/37 52/68/38 53/71/39
s 1
f 50/66/2 51/67/40 32/42/41 33/43/3
s 8
f 26/35/42 27/36/43 15/22/29 14/21/28
s 5
f 27/36/44 28/37/45 16/23/18 15/22/17
s 7
f 71/93/26 72/94/46 39/52/47 43/57/48 44/58/27
s 3
f 29/38/49 30/39/50 18/25/10 17/24/9
s 6
f 30/39/51 25/33/52 13/19/22 18/25/21
s 7
f 37/49/53 38/50/54 66/88/55 45/59/56 46/60/57
s 5
f 21/28/20 20/27/19 11/10/58 12/11/59
s 8
f 22/29/31 21/28/30 12/11/60 4/1/61
s 1
f 48/63/62 49/65/1 34/44/4 35/45/63
s 6
f 24/32/24 23/30/23 2/6/64 8/15/65
s 3
f 19/26/12 24/32/11 8/15/66 7/9/67
s 1
f 31/41/68 32/42/41 51/67/40 52/69/69
s 8
f 10/4/70 27/36/43 26/35/42 3/12/71
s 5
f 10/4/72 9/5/73 28/37/45 27/36/44
s 7
f 42/56/74 43/57/48 39/52/47 40/53/75
s 3
f 6/8/76 5/7/77 30/39/50 29/38/49
s 6
f 1/17/78 25/33/52 30/39/51 5/7/79
s 1
f 54/73/80 55/74/81 32/42/41 31/41/68
f 33/43/3 32/42/41 55/74/81 56/75/82
f 34/44/4 33/43/3 56/75/82 57/76/83
f 35/45/63 34/44/4 57/76/83 58/77/84
s 9
f 36/48/35 35/46/34 58/78/85 59/80/86
s 4
f 37/49/16 36/47/15 59/79/87 60/81/88
s 7
f 60/81/89 61/82/90 38/50/54 37/49/53
s 12
f 81/106/91 82/107/92 83/99/93 84/51/94
s 7
f 72/94/46 74/96/95 73/95/96 39/52/47
f 40/53/75 39/52/47 73/95/96 79/104/97 63/84/98 64/85/99
s 2
f 41/54/8 40/53/7 64/85/100 65/86/101
s 10
f 65/87/102 54/72/103 31/40/37 41/55/36
s 7
f 6/8/104 29/38/105 43/57/48 42/56/74
f 44/58/27 43/57/48 29/38/105 17/24/106
f 45/59/56 70/92/25 44/58/27 17/24/106 19/26/107
f 7/9/108 45/59/56 19/26/107
s 4
f 7/9/109 8/15/110 47/61/14 46/60/13
s 9
f 2/6/111 48/64/33 47/62/32 8/15/112
s 1
f 23/31/113 49/65/1 48/63/62 2/3/114
f 13/20/115 50/66/2 49/65/1 23/31/113
f 25/34/116 51/67/40 50/66/2 13/20/115
f 52/69/69 51/67/40 25/34/116 1/2/117
s 10
f 53/71/39 52/68/38 1/17/118 5/7/119
s 2
f 5/7/120 6/8/121 42/56/6 53/70/5
s 1
f 3/12/122 26/35/123 55/74/81 54/73/80
f 56/75/82 55/74/81 26/35/123 14/21/124
f 57/76/83 56/75/82 14/21/124 22/29/125
f 58/77/84 57/76/83 22/29/125 4/1/126
s 9
f 59/80/86 58/78/85 4/13/127 12/14/128
s 4
f 60/81/88 59/79/87 12/11/129 11/10/130
s 7
f 20/27/131 61/82/90 60/81/89 11/10/132
f 16/23/133 62/83/134 61/82/90 20/27/131
f 28/37/135 63/84/98 77/101/136 69/91/137 62/83/134 16/23/133
f 64/85/99 63/84/98 9/5/138
s 2
f 65/86/101 64/85/100 9/5/139 10/4/140
s 10
f 3/16/141 54/72/103 65/87/102 10/18/142
s 7
f 46/60/57 45/59/56 7/9/108
s 12
f 85/108/143 81/106/91 84/51/94 86/109/144
s 7
f 80/105/145 77/101/136 63/84/98
f 9/5/138 63/84/98 28/37/135
f 38/50/54 67/89/146 66/88/55
f 61/82/90 62/83/134 68/90/147 67/89/146 38/50/54
f 62/83/134 69/91/137 75/98/148 68/90/147
s 12
f 86/109/144 84/51/94 87/110/149 88/111/150
f 84/51/94 89/102/151 90/112/152 87/110/149
s 7
f 74/96/95 78/103/153 79/104/97 73/95/96
s 12
f 89/102/151 91/113/154 92/114/155 90/112/152
f 83/99/93 93/116/156 94/97/157 84/51/94
f 82/107/92 95/115/158 93/116/156 83/99/93
s 7
f 77/101/136 76/100/159 75/98/148 69/91/137
s 12
f 84/51/94 94/97/157 91/113/154 89/102/151
s 7
f 79/104/97 80/105/145 63/84/98
s 12
f 96/117/160 91/113/154 94/97/157 97/118/161
f 94/97/157 93/116/156 98/119/162 97/118/161
s 13
f 67/89/163 68/90/164 82/107/165 81/106/166
f 66/88/167 67/89/163 81/106/166 85/108/168
s off
f 45/59/169 66/88/170 85/108/171 86/109/172
s 14
f 71/93/173 70/92/174 88/111/175 87/110/176
s off
f 70/92/177 45/59/178 86/109/179 88/111/180
s 14
f 72/94/181 71/93/173 87/110/176 90/112/182
s off
f 78/103/183 74/96/184 92/114/185 91/113/186
s 14
f 74/96/187 72/94/181 90/112/182 92/114/188
s 13
f 68/90/164 75/98/189 95/115/190 82/107/165
s off
f 75/98/191 76/100/192 93/116/193 95/115/194
f 79/104/195 78/103/196 91/113/197 96/117/198
s 15
f 80/105/199 79/104/200 96/117/201 97/118/202
s off
f 76/100/203 77/101/204 98/119/205 93/116/206
s 15
f 77/101/207 80/105/199 97/118/202 98/119/208
