# This file uses centimeters as units for non-parametric coordinates.

mtllib Ore 2.mtl
g default
v -0.421299 -0.624749 0.574339
v 0.651193 -0.624749 0.624818
v -0.342849 0.357966 0.734392
v 0.725516 0.654711 0.246073
v -0.314049 0.388469 -0.736507
v 1.013531 0.543957 -0.965931
v -0.421299 -0.481575 -0.440385
v 0.722268 -0.444087 -0.669809
v 0.176680 -0.644617 0.745377
v 0.114947 -0.761192 -0.576827
v 0.114947 0.428419 -0.872950
v 0.114947 0.463717 0.806348
v -0.557741 0.446126 0.397252
v 0.114947 0.741256 0.095862
v 0.869323 0.718611 -0.200261
v 0.787636 -0.617019 0.006593
v 0.114947 -0.653876 0.095862
v -0.557741 -0.761192 0.198146
v -0.557741 -0.199814 0.870835
v 0.114947 0.122589 1.102374
v 0.787636 -0.088503 0.472427
v 1.098577 -0.244087 -0.200261
v 0.753738 -0.088503 -1.102374
v 0.002090 0.125132 -0.978424
v -0.557741 -0.254811 -0.872950
v -1.149973 -0.088503 -0.200261
v -0.494445 0.166871 -0.711009
v 0.114947 0.247841 -0.872950
v 0.988032 0.373838 -0.940433
v 0.943525 0.454809 -0.200261
v 0.781585 0.373838 0.310487
v 0.114947 0.247841 0.870835
v -0.395802 0.166871 0.708894
v -0.794788 0.247841 -0.062026
v -0.570302 -0.343877 0.708894
v 0.114947 -0.424848 0.870835
v 0.625694 -0.343877 0.700132
v 0.953561 -0.543467 -0.200261
v 0.832142 -0.343877 -0.644310
v 0.114947 -0.424848 -0.872950
v -0.715967 -0.343877 -0.711009
v -0.989653 -0.359888 -0.200261
v -0.395802 -0.599251 -0.159512
v 0.114947 -0.748268 -0.240483
v 0.625694 -0.599251 -0.335469
v 0.994082 -0.176450 -0.558779
v 1.097701 0.182565 -0.766029
v 1.149973 0.454809 -0.766029
v 0.988032 0.629212 -0.685059
v 0.114947 0.575752 -0.240483
v -0.395802 0.422245 -0.159512
v -0.557741 0.247841 -0.240483
v -1.009117 0.086960 -0.536606
v -0.983110 -0.373998 -0.536606
v -0.395802 0.422245 0.453520
v 0.114947 0.584185 0.658466
v 0.781585 0.629212 0.055113
v 0.943525 0.454809 0.136083
v 0.922436 0.289198 0.136083
v 0.787636 -0.424848 0.136083
v 0.625694 -0.599251 0.453520
v 0.114947 -0.748659 0.343141
v -0.395802 -0.599251 0.453520
v -0.732242 -0.424848 0.136083
v -0.860857 -0.088503 0.136083
v -0.677078 0.247841 0.534490
v -0.140427 -0.599251 0.708894
v -0.221397 -0.761192 0.534490
v -0.221397 -0.761192 0.095862
v -0.221397 -0.761192 -0.240483
v -0.140427 -0.599251 -0.414886
v -0.338492 -0.424848 -0.872950
v -0.221397 0.135461 -1.036285
v -0.338492 0.247841 -0.872950
v -0.140427 0.422245 -0.711009
v -0.221397 0.584185 -0.240483
v -0.221397 0.639874 -0.111160
v -0.221397 0.584185 0.534490
v -0.140427 0.422245 0.708894
v -0.221397 0.247841 0.870835
v -0.221397 -0.199814 0.886096
v -0.221397 -0.424848 0.870835
v 0.370320 -0.599251 0.708894
v 0.451291 -0.761192 0.221785
v 0.451291 -0.791153 0.095862
v 0.451291 -0.761192 -0.240483
v 0.576768 -0.599251 -0.644310
v 0.334197 -0.424848 -0.872950
v 0.657739 -0.088503 -1.102374
v 0.540644 0.247841 -1.102374
v 0.576768 0.422245 -0.940433
v 0.813629 0.791153 -0.766029
v 0.607182 0.791153 -0.200261
v 0.451291 0.584185 0.136083
v 0.370320 0.422245 0.310487
v 0.451291 0.247841 0.747535
v 0.451291 0.014851 0.847924
v 0.451291 -0.424848 0.870835
vt 0.625000 0.187500
vt 0.562500 0.187500
vt 0.562500 0.125000
vt 0.625000 0.125000
vt 0.625000 0.437500
vt 0.562500 0.437500
vt 0.562500 0.375000
vt 0.625000 0.375000
vt 0.625000 0.625000
vt 0.562500 0.625000
vt 0.562500 0.562500
vt 0.625000 0.562500
vt 0.625000 0.875000
vt 0.562500 0.875000
vt 0.562500 0.812500
vt 0.625000 0.812500
vt 0.812500 0.125000
vt 0.812500 0.187500
vt 0.750000 0.187500
vt 0.750000 0.125000
vt 0.187500 0.187500
vt 0.187500 0.125000
vt 0.250000 0.125000
vt 0.250000 0.187500
vt 0.437500 0.875000
vt 0.437500 0.812500
vt 0.500000 0.812500
vt 0.500000 0.875000
vt 0.437500 0.625000
vt 0.437500 0.562500
vt 0.500000 0.562500
vt 0.500000 0.625000
vt 0.437500 0.437500
vt 0.437500 0.375000
vt 0.500000 0.375000
vt 0.500000 0.437500
vt 0.437500 0.187500
vt 0.437500 0.125000
vt 0.500000 0.125000
vt 0.500000 0.187500
vt 0.437500 0.312500
vt 0.500000 0.312500
vt 0.562500 0.312500
vt 0.625000 0.312500
vt 0.687500 0.187500
vt 0.687500 0.125000
vt 0.625000 0.937500
vt 0.562500 0.937500
vt 0.437500 0.937500
vt 0.500000 0.937500
vt 0.312500 0.125000
vt 0.312500 0.187500
vt 0.437500 0.062500
vt 0.500000 0.062500
vt 0.562500 0.062500
vt 0.625000 0.062500
vt 0.687500 0.062500
vt 0.750000 0.062500
vt 0.812500 0.062500
vt 0.625000 0.687500
vt 0.562500 0.687500
vt 0.437500 0.687500
vt 0.500000 0.687500
vt 0.187500 0.062500
vt 0.250000 0.062500
vt 0.312500 0.062500
vt 0.437500 0.500000
vt 0.500000 0.500000
vt 0.562500 0.500000
vt 0.625000 0.500000
vt 0.750000 0.250000
vt 0.812500 0.250000
vt 0.687500 0.250000
vt 0.562500 0.250000
vt 0.625000 0.250000
vt 0.437500 0.250000
vt 0.500000 0.250000
vt 0.250000 0.250000
vt 0.312500 0.250000
vt 0.187500 0.250000
vt 0.437500 0.000000
vt 0.500000 0.000000
vt 0.562500 0.000000
vt 0.625000 0.000000
vt 0.687500 0.000000
vt 0.750000 0.000000
vt 0.812500 0.000000
vt 0.562500 0.750000
vt 0.625000 0.750000
vt 0.437500 0.750000
vt 0.500000 0.750000
vt 0.187500 0.000000
vt 0.250000 0.000000
vt 0.312500 0.000000
vt 0.875000 0.062500
vt 0.875000 0.000000
vt 0.875000 0.125000
vt 0.875000 0.187500
vt 0.875000 0.250000
vt 0.125000 0.187500
vt 0.125000 0.250000
vt 0.125000 0.125000
vt 0.125000 0.062500
vt 0.125000 0.000000
vt 0.562500 1.000000
vt 0.625000 1.000000
vt 0.437500 1.000000
vt 0.500000 1.000000
vt 0.375000 0.062500
vt 0.375000 0.000000
vt 0.375000 0.125000
vt 0.375000 0.187500
vt 0.375000 0.250000
vt 0.375000 0.937500
vt 0.375000 1.000000
vt 0.375000 0.875000
vt 0.375000 0.812500
vt 0.375000 0.750000
vt 0.375000 0.687500
vt 0.375000 0.625000
vt 0.375000 0.562500
vt 0.375000 0.500000
vt 0.375000 0.437500
vt 0.375000 0.375000
vt 0.375000 0.312500
vn 0.566425 0.471734 0.675744
vn 0.595566 0.506432 0.623560
vn 0.664429 0.375333 0.646265
vn 0.753572 0.228756 0.616279
vn 0.678353 0.731054 -0.073469
vn -0.109275 0.922722 -0.369652
vn -0.092819 0.995632 -0.010036
vn 0.607194 0.760267 0.230887
vn 0.525753 -0.425171 -0.736759
vn 0.098876 -0.351815 -0.930833
vn -0.095203 0.268628 -0.958528
vn 0.546427 0.101937 -0.831280
vn 0.426980 -0.838328 -0.338960
vn 0.108606 -0.993632 -0.029993
vn 0.219324 -0.969766 -0.107006
vn 0.525820 -0.805255 -0.274002
vn 0.971149 0.102779 0.215187
vn 0.986630 0.160593 0.027757
vn 0.950890 0.234707 0.201794
vn 0.973749 0.114313 0.196837
vn -0.518039 0.805294 -0.288334
vn -0.413340 0.831499 -0.371159
vn -0.496209 0.865434 -0.069282
vn -0.474120 0.866482 -0.156267
vn -0.070397 -0.997184 -0.025839
vn -0.213211 -0.955079 -0.205829
vn -0.025127 -0.998502 -0.048605
vn 0.156822 -0.987626 0.000965
vn 0.067557 0.751550 -0.656207
vn -0.529086 0.478414 -0.700848
vn -0.226866 0.391454 -0.891794
vn -0.070143 -0.020504 -0.997326
vn -0.330163 0.893816 -0.303455
vn -0.427052 0.829422 -0.360119
vn -0.063939 0.991732 0.111261
vn -0.269113 0.906145 -0.326312
vn -0.370038 0.374643 0.850126
vn -0.385441 0.300222 0.872526
vn -0.105682 0.507049 0.855414
vn 0.138037 0.622280 0.770528
vn -0.282243 0.942732 0.177750
vn -0.323953 0.906967 0.269195
vn 0.205837 0.859452 0.467946
vn -0.063939 0.991732 0.111261
vn 0.607194 0.760267 0.230887
vn -0.092819 0.995632 -0.010036
vn 0.257976 0.873687 0.412455
vn 0.411464 0.807875 0.421943
vn 0.910084 0.283076 0.302680
vn 0.943906 0.148725 0.294826
vn 0.973749 0.114313 0.196837
vn 0.950890 0.234707 0.201794
vn 0.708864 -0.658785 0.252022
vn 0.225201 -0.962295 0.152553
vn 0.234721 -0.969292 0.073341
vn 0.791940 -0.487950 0.367063
vn -0.078197 -0.963871 0.254633
vn -0.070397 -0.997184 -0.025839
vn 0.156822 -0.987626 0.000965
vn 0.136265 -0.981347 -0.135608
vn -0.840337 0.337746 0.423982
vn -0.785757 0.358319 0.504176
vn -0.834709 0.411586 0.365865
vn -0.846464 0.383704 0.369147
vn -0.189531 -0.330241 0.924672
vn -0.235583 -0.479076 0.845569
vn 0.074595 -0.369744 0.926134
vn 0.161065 -0.238034 0.957809
vn 0.930403 -0.187283 0.315081
vn 0.487480 -0.100140 0.867373
vn 0.446716 -0.233009 0.863801
vn 0.834227 -0.118987 0.538431
vn 0.873728 -0.227968 0.429687
vn 0.874273 -0.234904 0.424813
vn 0.786051 -0.221789 0.577004
vn 0.771851 -0.213115 0.599022
vn 0.773141 -0.511643 -0.374799
vn 0.786945 -0.337149 -0.516767
vn 0.845847 -0.422092 -0.326162
vn 0.487054 -0.733710 -0.473759
vn 0.660321 -0.643334 -0.387424
vn -0.003395 -0.531345 -0.847149
vn 0.098876 -0.351815 -0.930833
vn 0.525753 -0.425171 -0.736759
vn -0.144039 -0.486594 -0.861672
vn 0.032530 -0.251261 -0.967373
vn -0.070143 -0.020504 -0.997326
vn -0.112631 -0.517050 -0.848512
vn -0.935268 -0.237957 -0.262013
vn -0.935268 -0.237957 -0.262013
vn -0.935268 -0.237957 -0.262013
vn -0.935268 -0.237957 -0.262013
vn -0.846195 -0.336679 0.413038
vn -0.825181 -0.341465 0.449976
vn -0.742552 -0.353034 0.569196
vn -0.742552 -0.353034 0.569196
vn -0.529086 0.478414 -0.700848
vn -0.228532 0.882756 -0.410507
vn -0.291987 0.835943 -0.464696
vn -0.226866 0.391454 -0.891794
vn 0.546427 0.101937 -0.831280
vn -0.095203 0.268628 -0.958528
vn -0.119740 0.396678 -0.910115
vn 0.042525 0.361292 -0.931483
vn 0.607194 0.760267 0.230887
vn 0.950890 0.234707 0.201794
vn 0.986630 0.160593 0.027757
vn 0.678353 0.731054 -0.073469
vn 0.411464 0.807875 0.421943
vn 0.910084 0.283076 0.302680
vn 0.950890 0.234707 0.201794
vn 0.607194 0.760267 0.230887
vn 0.441881 0.673296 0.592802
vn 0.595566 0.506432 0.623560
vn 0.566425 0.471734 0.675744
vn 0.120001 0.834559 0.537690
vn -0.328603 0.627131 0.706206
vn -0.370038 0.374643 0.850126
vn 0.138037 0.622280 0.770528
vn 0.318938 0.678061 0.662202
vn -0.590387 0.760090 0.271491
vn -0.834709 0.411586 0.365865
vn -0.785757 0.358319 0.504176
vn -0.520329 0.782872 0.341129
vn -0.605969 0.759222 -0.237453
vn -0.518039 0.805294 -0.288334
vn -0.474120 0.866482 -0.156267
vn -0.526768 0.807819 -0.264468
vn -0.235583 -0.479076 0.845569
vn -0.148592 -0.770013 0.620484
vn 0.073000 -0.841574 0.535187
vn 0.074595 -0.369744 0.926134
vn 0.834227 -0.118987 0.538431
vn 0.446716 -0.233009 0.863801
vn 0.224539 -0.826895 0.515584
vn 0.477051 -0.451172 0.754232
vn 0.874273 -0.234904 0.424813
vn 0.708864 -0.658785 0.252022
vn 0.791940 -0.487950 0.367063
vn 0.786051 -0.221789 0.577004
vn 0.525820 -0.805255 -0.274002
vn 0.773141 -0.511643 -0.374799
vn 0.487054 -0.733710 -0.473759
vn 0.426980 -0.838328 -0.338960
vn 0.220016 -0.595171 -0.772894
vn -0.003395 -0.531345 -0.847149
vn 0.660321 -0.643334 -0.387424
vn 0.407560 -0.407560 -0.817184
vn -0.298187 -0.824861 -0.480300
vn -0.144039 -0.486594 -0.861672
vn -0.112631 -0.517050 -0.848512
vn -0.298187 -0.824861 -0.480300
vn -0.248746 -0.916377 -0.313655
vn -0.340982 -0.881912 -0.325520
vn -0.353196 -0.892835 -0.279462
vn -0.343195 -0.898213 -0.274647
vn -0.603053 -0.722233 0.338683
vn -0.767701 -0.363384 0.527814
vn -0.759094 -0.285916 0.584832
vn -0.658855 -0.533723 0.530141
vn -0.213211 -0.955079 -0.205829
vn -0.371399 -0.870869 -0.321947
vn -0.311318 -0.897865 -0.311318
vn -0.025127 -0.998502 -0.048605
vn 0.525820 -0.805255 -0.274002
vn 0.219324 -0.969766 -0.107006
vn 0.440136 -0.886380 -0.143562
vn 0.705291 -0.702286 -0.096737
vn 0.660321 -0.643334 -0.387424
vn 0.773141 -0.511643 -0.374799
vn 0.525820 -0.805255 -0.274002
vn 0.705291 -0.702286 -0.096737
vn 0.525753 -0.425171 -0.736759
vn 0.786945 -0.337149 -0.516767
vn 0.773141 -0.511643 -0.374799
vn 0.660321 -0.643334 -0.387424
vn 0.546427 0.101937 -0.831280
vn 0.986630 0.160593 0.027757
vn 0.786945 -0.337149 -0.516767
vn 0.525753 -0.425171 -0.736759
vn 0.678353 0.731054 -0.073469
vn 0.986630 0.160593 0.027757
vn 0.546427 0.101937 -0.831280
vn 0.831707 0.392597 -0.392597
vn -0.318101 0.826273 -0.464848
vn -0.109275 0.922722 -0.369652
vn 0.678353 0.731054 -0.073469
vn 0.110595 0.677486 -0.727174
vn -0.228532 0.882756 -0.410507
vn -0.330163 0.893816 -0.303455
vn -0.269113 0.906145 -0.326312
vn -0.291987 0.835943 -0.464696
vn -0.539669 0.659415 -0.523382
vn -0.518039 0.805294 -0.288334
vn -0.605969 0.759222 -0.237453
vn -0.612959 0.737564 -0.283337
vn -0.459884 0.629203 -0.626586
vn -0.413340 0.831499 -0.371159
vn -0.518039 0.805294 -0.288334
vn -0.539669 0.659415 -0.523382
vn -0.555945 -0.130148 -0.820967
vn -0.602375 -0.088754 -0.793263
vn -0.602375 -0.088754 -0.793263
vn -0.379350 -0.265821 -0.886247
vn -0.251999 -0.919524 -0.301617
vn -0.340982 -0.881912 -0.325520
vn -0.248746 -0.916377 -0.313655
vn -0.194014 -0.935156 -0.296380
vn -0.323953 0.906967 0.269195
vn -0.328603 0.627131 0.706206
vn 0.318938 0.678061 0.662202
vn 0.205837 0.859452 0.467946
vn 0.411464 0.807875 0.421943
vn 0.257976 0.873687 0.412455
vn 0.441881 0.673296 0.592802
vn 0.120001 0.834559 0.537690
vn 0.566425 0.471734 0.675744
vn 0.910084 0.283076 0.302680
vn 0.411464 0.807875 0.421943
vn 0.120001 0.834559 0.537690
vn 0.753572 0.228756 0.616279
vn 0.943906 0.148725 0.294826
vn 0.910084 0.283076 0.302680
vn 0.566425 0.471734 0.675744
vn 0.834227 -0.118987 0.538431
vn 0.874273 -0.234904 0.424813
vn 0.873728 -0.227968 0.429687
vn 0.930403 -0.187283 0.315081
vn 0.963411 -0.186189 0.192805
vn 0.708864 -0.658785 0.252022
vn 0.874273 -0.234904 0.424813
vn 0.834227 -0.118987 0.538431
vn 0.224539 -0.826895 0.515584
vn 0.225201 -0.962295 0.152553
vn 0.708864 -0.658785 0.252022
vn 0.215529 -0.952415 0.215529
vn -0.148592 -0.770013 0.620484
vn -0.078197 -0.963871 0.254633
vn 0.043060 -0.968437 0.245511
vn 0.073000 -0.841574 0.535187
vn -0.762162 -0.471139 0.444001
vn -0.767701 -0.363384 0.527814
vn -0.603053 -0.722233 0.338683
vn -0.563959 -0.703436 0.432584
vn -0.690744 -0.394374 0.606087
vn -0.825181 -0.341465 0.449976
vn -0.846195 -0.336679 0.413038
vn -0.762162 -0.471139 0.444001
vn -0.638241 0.312506 0.703554
vn -0.785757 0.358319 0.504176
vn -0.840337 0.337746 0.423982
vn -0.675568 0.234922 0.698870
vn -0.520329 0.782872 0.341129
vn -0.785757 0.358319 0.504176
vn -0.638241 0.312506 0.703554
vn -0.511542 0.595556 0.619385
vn -0.603053 -0.722233 0.338683
vn -0.078197 -0.963871 0.254633
vn -0.148592 -0.770013 0.620484
vn -0.563959 -0.703436 0.432584
vn -0.658855 -0.533723 0.530141
vn -0.070397 -0.997184 -0.025839
vn -0.078197 -0.963871 0.254633
vn -0.603053 -0.722233 0.338683
vn -0.340982 -0.881912 -0.325520
vn -0.213211 -0.955079 -0.205829
vn -0.070397 -0.997184 -0.025839
vn -0.353196 -0.892835 -0.279462
vn -0.251999 -0.919524 -0.301617
vn -0.371399 -0.870869 -0.321947
vn -0.213211 -0.955079 -0.205829
vn -0.340982 -0.881912 -0.325520
vn -0.194014 -0.935156 -0.296380
vn -0.318555 -0.930081 -0.182954
vn -0.371399 -0.870869 -0.321947
vn -0.251999 -0.919524 -0.301617
vn -0.379350 -0.265821 -0.886247
vn 0.032530 -0.251261 -0.967373
vn -0.144039 -0.486594 -0.861672
vn -0.555945 -0.130148 -0.820967
vn -0.539669 0.659415 -0.523382
vn -0.529086 0.478414 -0.700848
vn -0.712942 0.310975 -0.628497
vn -0.459884 0.629203 -0.626586
vn -0.612959 0.737564 -0.283337
vn -0.228532 0.882756 -0.410507
vn -0.529086 0.478414 -0.700848
vn -0.539669 0.659415 -0.523382
vn -0.605969 0.759222 -0.237453
vn -0.330163 0.893816 -0.303455
vn -0.228532 0.882756 -0.410507
vn -0.612959 0.737564 -0.283337
vn -0.526768 0.807819 -0.264468
vn -0.427052 0.829422 -0.360119
vn -0.330163 0.893816 -0.303455
vn -0.605969 0.759222 -0.237453
vn -0.520329 0.782872 0.341129
vn -0.323953 0.906967 0.269195
vn -0.282243 0.942732 0.177750
vn -0.590387 0.760090 0.271491
vn -0.511542 0.595556 0.619385
vn -0.328603 0.627131 0.706206
vn -0.323953 0.906967 0.269195
vn -0.520329 0.782872 0.341129
vn -0.638241 0.312506 0.703554
vn -0.370038 0.374643 0.850126
vn -0.328603 0.627131 0.706206
vn -0.511542 0.595556 0.619385
vn -0.675568 0.234922 0.698870
vn -0.385441 0.300222 0.872526
vn -0.370038 0.374643 0.850126
vn -0.638241 0.312506 0.703554
vn -0.762162 -0.471139 0.444001
vn -0.235583 -0.479076 0.845569
vn -0.189531 -0.330241 0.924672
vn -0.690744 -0.394374 0.606087
vn -0.563959 -0.703436 0.432584
vn -0.148592 -0.770013 0.620484
vn -0.235583 -0.479076 0.845569
vn -0.762162 -0.471139 0.444001
vn 0.073000 -0.841574 0.535187
vn 0.043060 -0.968437 0.245511
vn 0.225201 -0.962295 0.152553
vn 0.224539 -0.826895 0.515584
vn 0.234721 -0.969292 0.073341
vn 0.225201 -0.962295 0.152553
vn 0.043060 -0.968437 0.245511
vn -0.242800 -0.955767 -0.166005
vn 0.219324 -0.969766 -0.107006
vn 0.108606 -0.993632 -0.029993
vn -0.216972 -0.971731 0.093073
vn -0.001499 -0.998518 -0.054409
vn 0.440136 -0.886380 -0.143562
vn 0.219324 -0.969766 -0.107006
vn -0.001499 -0.998518 -0.054409
vn 0.167260 -0.971621 -0.167260
vn 0.093458 -0.691537 -0.716270
vn -0.112631 -0.517050 -0.848512
vn -0.003395 -0.531345 -0.847149
vn 0.220016 -0.595171 -0.772894
vn 0.098876 -0.351815 -0.930833
vn -0.003395 -0.531345 -0.847149
vn -0.112631 -0.517050 -0.848512
vn -0.070143 -0.020504 -0.997326
vn -0.095203 0.268628 -0.958528
vn 0.098876 -0.351815 -0.930833
vn -0.070143 -0.020504 -0.997326
vn -0.226866 0.391454 -0.891794
vn -0.119740 0.396678 -0.910115
vn -0.095203 0.268628 -0.958528
vn -0.226866 0.391454 -0.891794
vn -0.285028 0.421688 -0.860778
vn -0.291987 0.835943 -0.464696
vn -0.269113 0.906145 -0.326312
vn -0.109275 0.922722 -0.369652
vn -0.318101 0.826273 -0.464848
vn -0.092819 0.995632 -0.010036
vn -0.109275 0.922722 -0.369652
vn -0.269113 0.906145 -0.326312
vn -0.063939 0.991732 0.111261
vn 0.257976 0.873687 0.412455
vn -0.092819 0.995632 -0.010036
vn -0.063939 0.991732 0.111261
vn 0.205837 0.859452 0.467946
vn 0.441881 0.673296 0.592802
vn 0.257976 0.873687 0.412455
vn 0.205837 0.859452 0.467946
vn 0.318938 0.678061 0.662202
vn 0.318938 0.678061 0.662202
vn 0.138037 0.622280 0.770528
vn 0.595566 0.506432 0.623560
vn 0.441881 0.673296 0.592802
vn 0.664429 0.375333 0.646265
vn 0.595566 0.506432 0.623560
vn 0.138037 0.622280 0.770528
vn -0.105682 0.507049 0.855414
vn 0.446716 -0.233009 0.863801
vn 0.487480 -0.100140 0.867373
vn 0.161065 -0.238034 0.957809
vn 0.074595 -0.369744 0.926134
vn 0.224539 -0.826895 0.515584
vn 0.446716 -0.233009 0.863801
vn 0.074595 -0.369744 0.926134
vn 0.073000 -0.841574 0.535187
s off
g pasted__pCube13group31
usemtl initialShadingGroup
f 31/1/1 96/2/2 97/3/3 21/4/4
f 49/5/5 92/6/6 93/7/7 15/8/8
f 23/9/9 89/10/10 90/11/11 29/12/12
f 16/13/13 85/14/14 86/15/15 45/16/16
f 47/17/17 48/18/18 30/19/19 22/20/20
f 52/21/21 53/22/22 26/23/23 34/24/24
f 69/25/25 70/26/26 44/27/27 17/28/28
f 73/29/29 74/30/30 28/31/31 24/32/32
f 76/33/33 77/34/34 14/35/35 50/36/36
f 80/37/37 81/38/38 20/39/39 32/40/40
f 77/34/41 78/41/42 56/42/43 14/35/44
f 15/8/45 93/7/46 94/43/47 57/44/48
f 58/45/49 59/46/50 22/20/51 30/19/52
f 61/47/53 84/48/54 85/14/55 16/13/56
f 68/49/57 69/25/58 17/28/59 62/50/60
f 65/51/61 66/52/62 34/24/63 26/23/64
f 81/38/65 82/53/66 36/54/67 20/39/68
f 21/4/69 97/3/70 98/55/71 37/56/72
f 59/46/73 60/57/74 38/58/75 22/20/76
f 46/59/77 47/17/78 22/20/79 38/58/80
f 39/60/81 88/61/82 89/10/83 23/9/84
f 72/62/85 73/29/86 24/32/87 40/63/88
f 53/22/89 54/64/90 42/65/91 26/23/92
f 64/66/93 65/51/94 26/23/95 42/65/96
f 74/30/97 75/67/98 11/68/99 28/31/100
f 29/12/101 90/11/102 91/69/103 6/70/104
f 15/71/105 30/19/106 48/18/107 49/72/108
f 57/73/109 58/45/110 30/19/111 15/71/112
f 95/74/113 96/2/114 31/1/115 4/75/116
f 79/76/117 80/37/118 32/40/119 12/77/120
f 13/78/121 34/24/122 66/52/123 55/79/124
f 51/80/125 52/21/126 34/24/127 13/78/128
f 82/53/129 67/81/130 9/82/131 36/54/132
f 37/56/133 98/55/134 83/83/135 2/84/136
f 60/57/137 61/85/138 16/86/139 38/58/140
f 45/87/141 46/59/142 38/58/143 16/86/144
f 87/88/145 88/61/146 39/60/147 8/89/148
f 71/90/149 72/62/150 40/63/151 10/91/152
f 54/64/153 43/92/154 18/93/155 42/65/156
f 63/94/157 64/66/158 42/65/159 18/93/160
f 70/26/161 71/90/162 10/91/163 44/27/164
f 45/16/165 86/15/166 87/88/167 8/89/168
f 39/95/169 46/59/170 45/87/171 8/96/172
f 23/97/173 47/17/174 46/59/175 39/95/176
f 29/98/177 48/18/178 47/17/179 23/97/180
f 49/72/181 48/18/182 29/98/183 6/99/184
f 91/69/185 92/6/186 49/5/187 6/70/188
f 75/67/189 76/33/190 50/36/191 11/68/192
f 27/100/193 52/21/194 51/80/195 5/101/196
f 25/102/197 53/22/198 52/21/199 27/100/200
f 41/103/201 54/64/202 53/22/203 25/102/204
f 7/104/205 43/92/206 54/64/207 41/103/208
f 78/41/209 79/76/210 12/77/211 56/42/212
f 57/44/213 94/43/214 95/74/215 4/75/216
f 31/1/217 58/45/218 57/73/219 4/75/220
f 21/4/221 59/46/222 58/45/223 31/1/224
f 37/56/225 60/57/226 59/46/227 21/4/228
f 2/84/229 61/85/230 60/57/231 37/56/232
f 83/105/233 84/48/234 61/47/235 2/106/236
f 67/107/237 68/49/238 62/50/239 9/108/240
f 35/109/241 64/66/242 63/94/243 1/110/244
f 19/111/245 65/51/246 64/66/247 35/109/248
f 33/112/249 66/52/250 65/51/251 19/111/252
f 55/79/253 66/52/254 33/112/255 3/113/256
f 63/114/257 68/49/258 67/107/259 1/115/260
f 18/116/261 69/25/262 68/49/263 63/114/264
f 43/117/265 70/26/266 69/25/267 18/116/268
f 7/118/269 71/90/270 70/26/271 43/117/272
f 41/119/273 72/62/274 71/90/275 7/118/276
f 25/120/277 73/29/278 72/62/279 41/119/280
f 27/121/281 74/30/282 73/29/283 25/120/284
f 5/122/285 75/67/286 74/30/287 27/121/288
f 51/123/289 76/33/290 75/67/291 5/122/292
f 13/124/293 77/34/294 76/33/295 51/123/296
f 55/125/297 78/41/298 77/34/299 13/124/300
f 3/113/301 79/76/302 78/41/303 55/125/304
f 33/112/305 80/37/306 79/76/307 3/113/308
f 19/111/309 81/38/310 80/37/311 33/112/312
f 35/109/313 82/53/314 81/38/315 19/111/316
f 1/110/317 67/81/318 82/53/319 35/109/320
f 9/108/321 62/50/322 84/48/323 83/105/324
f 85/14/325 84/48/326 62/50/327 17/28/328
f 86/15/329 85/14/330 17/28/331 44/27/332
f 87/88/333 86/15/334 44/27/335 10/91/336
f 10/91/337 40/63/338 88/61/339 87/88/340
f 89/10/341 88/61/342 40/63/343 24/32/344
f 90/11/345 89/10/346 24/32/347 28/31/348
f 91/69/349 90/11/350 28/31/351 11/68/352
f 11/68/353 50/36/354 92/6/355 91/69/356
f 93/7/357 92/6/358 50/36/359 14/35/360
f 94/43/361 93/7/362 14/35/363 56/42/364
f 95/74/365 94/43/366 56/42/367 12/77/368
f 12/77/369 32/40/370 96/2/371 95/74/372
f 97/3/373 96/2/374 32/40/375 20/39/376
f 98/55/377 97/3/378 20/39/379 36/54/380
f 83/83/381 98/55/382 36/54/383 9/82/384
