# This file uses centimeters as units for non-parametric coordinates.

mtllib Ore 2.mtl
g default
v 7.315906 0.163528 -7.137155
v 8.446337 0.163528 -7.083950
v 7.398593 1.199333 -6.968456
v 8.524675 1.512108 -7.063225
v 7.428950 1.231484 -8.098887
v 8.610649 1.395371 -8.098887
v 7.315906 0.314437 -8.098887
v 8.303651 0.163528 -8.098887
v 7.946189 0.142588 -6.956878
v 7.881121 0.019715 -8.242700
v 7.881121 1.273592 -8.242700
v 7.881121 1.310797 -6.892613
v 7.172092 1.292255 -7.323809
v 7.881121 1.603329 -7.533671
v 8.676251 1.579460 -7.533671
v 8.590150 0.019715 -7.533671
v 7.881121 -0.167168 -7.533671
v 7.172092 0.019715 -7.533671
v 7.172092 0.611420 -6.824642
v 7.881121 0.951239 -6.580594
v 8.590150 0.728744 -6.824642
v 8.917889 0.564755 -7.533671
v 8.336822 0.728744 -8.242700
v 7.762168 0.953920 -8.353872
v 7.172092 0.553451 -8.242700
v 6.547867 0.728744 -7.533671
v 7.238808 0.997914 -8.072011
v 7.881121 1.083258 -8.242700
v 8.583773 1.216062 -8.072011
v 8.754462 1.301407 -7.533671
v 8.583773 1.216062 -6.995332
v 7.881121 1.083258 -6.824642
v 7.342781 0.997914 -6.995332
v 6.922240 1.083258 -7.744204
v 7.158853 0.459574 -6.995332
v 7.881121 0.374229 -6.824642
v 8.419461 0.459574 -6.995332
v 8.765039 0.374229 -7.533671
v 8.419461 0.459574 -8.072011
v 7.881121 0.374229 -8.242700
v 7.005319 0.459574 -8.072011
v 6.716847 0.209891 -7.533671
v 7.342781 0.190404 -7.802841
v 7.881121 -0.121966 -7.888186
v 8.419461 0.190404 -7.802841
v 8.590150 0.374229 -7.888186
v 8.699366 1.014456 -7.888186
v 8.754462 1.301407 -7.888186
v 8.583773 1.485232 -7.802841
v 7.881121 1.428884 -7.888186
v 7.342781 1.267084 -7.802841
v 7.172092 1.083258 -7.888186
v 6.696332 0.913686 -7.888186
v 6.723745 0.690459 -7.888186
v 7.342781 1.267084 -7.264501
v 7.881121 1.437773 -7.048483
v 8.583773 1.485232 -7.264501
v 8.754462 1.301407 -7.179157
v 8.732232 1.126849 -7.179157
v 8.590150 0.374229 -7.179157
v 8.419461 0.190404 -7.264501
v 7.881121 -0.122378 -7.179157
v 7.342781 0.190404 -7.264501
v 6.988164 0.374229 -7.179157
v 6.852601 0.728744 -7.179157
v 7.046308 1.083258 -7.179157
v 7.611951 0.190404 -6.995332
v 7.526607 0.019715 -7.179157
v 7.526607 0.019715 -7.533671
v 7.526607 0.019715 -7.888186
v 7.611951 0.190404 -8.072011
v 7.403186 0.374229 -8.242700
v 7.526607 0.964807 -8.414860
v 7.403186 1.083258 -8.242700
v 7.611951 1.267083 -8.072011
v 7.526607 1.437773 -7.888186
v 7.526607 1.496469 -7.751877
v 7.526607 1.437773 -7.179157
v 7.611951 1.267083 -6.995332
v 7.526607 1.083258 -6.824642
v 7.526607 0.611420 -6.808557
v 7.526607 0.374229 -6.824642
v 8.150291 0.190404 -6.995332
v 8.235636 0.019715 -7.179157
v 8.235636 -0.167168 -7.533671
v 8.235636 0.019715 -7.888186
v 8.150291 0.190404 -8.072011
v 8.112215 0.374229 -8.242700
v 8.235636 0.728744 -8.242700
v 8.112215 1.083258 -8.242700
v 8.150291 1.267083 -8.072011
v 8.399948 1.655921 -7.888186
v 8.399948 1.655921 -7.533671
v 8.235636 1.437773 -7.179157
v 8.150291 1.267083 -6.995332
v 8.235636 1.083258 -6.824642
v 8.235636 0.837682 -6.718830
v 8.235636 0.374229 -6.824642
vt 0.375000 0.000000
vt 0.625000 0.000000
vt 0.375000 0.250000
vt 0.625000 0.250000
vt 0.375000 0.500000
vt 0.625000 0.500000
vt 0.375000 0.750000
vt 0.625000 0.750000
vt 0.375000 1.000000
vt 0.625000 1.000000
vt 0.875000 0.000000
vt 0.875000 0.250000
vt 0.125000 0.000000
vt 0.125000 0.250000
vt 0.500000 0.000000
vt 0.500000 1.000000
vt 0.500000 0.750000
vt 0.500000 0.500000
vt 0.500000 0.250000
vt 0.250000 0.250000
vt 0.375000 0.375000
vt 0.500000 0.375000
vt 0.625000 0.375000
vt 0.750000 0.250000
vt 0.625000 0.875000
vt 0.750000 0.000000
vt 0.500000 0.875000
vt 0.250000 0.000000
vt 0.375000 0.875000
vt 0.375000 0.125000
vt 0.500000 0.125000
vt 0.625000 0.125000
vt 0.750000 0.125000
vt 0.625000 0.625000
vt 0.875000 0.125000
vt 0.500000 0.625000
vt 0.125000 0.125000
vt 0.375000 0.625000
vt 0.250000 0.125000
vt 0.125000 0.187500
vt 0.375000 0.562500
vt 0.500000 0.562500
vt 0.625000 0.562500
vt 0.875000 0.187500
vt 0.750000 0.187500
vt 0.625000 0.187500
vt 0.500000 0.187500
vt 0.375000 0.187500
vt 0.250000 0.187500
vt 0.375000 0.062500
vt 0.500000 0.062500
vt 0.625000 0.062500
vt 0.750000 0.062500
vt 0.625000 0.687500
vt 0.875000 0.062500
vt 0.500000 0.687500
vt 0.125000 0.062500
vt 0.375000 0.687500
vt 0.250000 0.062500
vt 0.187500 0.000000
vt 0.375000 0.812500
vt 0.500000 0.812500
vt 0.625000 0.812500
vt 0.812500 0.000000
vt 0.812500 0.062500
vt 0.812500 0.125000
vt 0.812500 0.187500
vt 0.625000 0.437500
vt 0.812500 0.250000
vt 0.500000 0.437500
vt 0.187500 0.250000
vt 0.375000 0.437500
vt 0.187500 0.187500
vt 0.187500 0.125000
vt 0.187500 0.062500
vt 0.312500 0.250000
vt 0.375000 0.312500
vt 0.500000 0.312500
vt 0.625000 0.312500
vt 0.687500 0.250000
vt 0.687500 0.187500
vt 0.687500 0.125000
vt 0.687500 0.062500
vt 0.625000 0.937500
vt 0.687500 0.000000
vt 0.500000 0.937500
vt 0.312500 0.000000
vt 0.375000 0.937500
vt 0.312500 0.062500
vt 0.312500 0.125000
vt 0.312500 0.187500
vt 0.437500 0.000000
vt 0.437500 1.000000
vt 0.437500 0.937500
vt 0.437500 0.875000
vt 0.437500 0.812500
vt 0.437500 0.750000
vt 0.437500 0.687500
vt 0.437500 0.625000
vt 0.437500 0.562500
vt 0.437500 0.500000
vt 0.437500 0.437500
vt 0.437500 0.375000
vt 0.437500 0.312500
vt 0.437500 0.250000
vt 0.437500 0.187500
vt 0.437500 0.125000
vt 0.437500 0.062500
vt 0.562500 0.000000
vt 0.562500 1.000000
vt 0.562500 0.937500
vt 0.562500 0.875000
vt 0.562500 0.812500
vt 0.562500 0.750000
vt 0.562500 0.687500
vt 0.562500 0.625000
vt 0.562500 0.562500
vt 0.562500 0.500000
vt 0.562500 0.437500
vt 0.562500 0.375000
vt 0.562500 0.312500
vt 0.562500 0.250000
vt 0.562500 0.187500
vt 0.562500 0.125000
vt 0.562500 0.062500
vn 0.457917 0.363243 0.811398
vn 0.236057 0.463705 0.853964
vn 0.308274 0.456151 0.834801
vn 0.423095 0.308713 0.851873
vn 0.560111 0.712198 -0.423143
vn -0.021529 0.893984 -0.447581
vn 0.009893 0.993553 0.112935
vn 0.614748 0.781075 0.109579
vn 0.532322 -0.066960 -0.843889
vn 0.232619 -0.024097 -0.972269
vn 0.217482 0.248907 -0.943794
vn 0.546427 0.101937 -0.831280
vn 0.605496 -0.597499 -0.525708
vn 0.344573 -0.842590 -0.413897
vn 0.410590 -0.794562 -0.447310
vn 0.619604 -0.593544 -0.513611
vn 0.967045 0.102345 -0.233131
vn 0.922775 0.158011 -0.351452
vn 0.966835 0.251821 -0.042618
vn 0.989043 0.125426 -0.077865
vn -0.465218 0.714824 -0.522110
vn -0.482258 0.734180 -0.477919
vn -0.542996 0.830251 -0.125851
vn -0.487607 0.846104 -0.215285
vn -0.394886 -0.918730 -0.000163
vn -0.451315 -0.832072 -0.322446
vn -0.463839 -0.850889 -0.246661
vn -0.420666 -0.907215 -0.000253
vn 0.067557 0.751550 -0.656207
vn -0.529086 0.478414 -0.700848
vn 0.104370 0.411648 -0.905347
vn 0.112310 0.037575 -0.992963
vn -0.343981 0.826072 -0.446411
vn -0.379619 0.839202 -0.389398
vn -0.162515 0.982476 0.091268
vn -0.128346 0.872521 -0.471418
vn -0.370039 0.374643 0.850126
vn -0.385441 0.300222 0.872526
vn -0.173552 0.515029 0.839419
vn -0.094354 0.526000 0.845234
vn -0.302141 0.929377 0.212060
vn -0.338212 0.889762 0.306491
vn -0.080714 0.885751 0.457089
vn -0.019397 0.907290 0.420058
vn 0.411464 0.807875 0.421943
vn 0.910084 0.283076 0.302680
vn 0.943906 0.148725 0.294826
vn 0.615018 -0.607955 0.502139
vn 0.353623 -0.794470 0.493730
vn 0.344896 -0.842609 0.413590
vn 0.605496 -0.597499 0.525708
vn -0.364868 -0.848762 0.382720
vn -0.420194 -0.905629 0.057210
vn -0.644603 0.583727 0.493710
vn -0.629626 0.580372 0.516468
vn -0.688502 0.648346 0.324980
vn -0.689995 0.648369 0.321753
vn -0.189531 -0.330241 0.924672
vn -0.235583 -0.479076 0.845569
vn -0.001189 -0.410002 0.912084
vn 0.036603 -0.313769 0.948794
vn 0.760093 -0.374864 0.530788
vn 0.211048 -0.344028 0.914933
vn 0.258867 -0.406746 0.876097
vn 0.699459 -0.400524 0.591892
vn 0.832416 -0.281784 0.477160
vn 0.802411 -0.348006 0.484798
vn 0.753673 -0.324831 0.571368
vn 0.773835 -0.241986 0.585340
vn 0.743253 -0.317895 -0.588657
vn 0.753010 -0.176080 -0.634012
vn 0.773952 -0.244147 -0.584286
vn 0.751469 -0.333911 -0.569031
vn 0.671537 -0.241314 -0.700576
vn 0.244459 -0.194800 -0.949891
vn -0.095275 -0.299942 -0.949188
vn 0.032530 -0.251261 -0.967373
vn 0.068110 -0.232920 -0.970108
vn -0.880921 -0.233138 -0.411856
vn -0.880921 -0.233138 -0.411856
vn -0.880921 -0.233138 -0.411856
vn -0.880921 -0.233138 -0.411856
vn -0.715648 -0.288098 0.636276
vn -0.717249 -0.279190 0.638441
vn -0.721777 -0.251684 0.644743
vn -0.721777 -0.251684 0.644743
vn -0.246144 0.722519 -0.646049
vn -0.127464 0.686182 -0.716176
vn 0.112014 0.365998 -0.923850
vn 0.042524 0.361292 -0.931483
vn 0.117261 0.608246 0.785040
vn 0.115151 0.757105 0.643065
vn -0.328603 0.627131 0.706206
vn -0.000000 0.615814 0.787892
vn -0.591896 0.746166 0.304788
vn -0.523487 0.766137 0.372822
vn -0.576067 0.743682 -0.339241
vn -0.508349 0.802842 -0.311490
vn -0.244458 -0.639605 0.728798
vn 0.022781 -0.633141 0.773701
vn 0.287082 -0.618749 0.731255
vn 0.464189 -0.464189 0.754358
vn 0.356029 -0.284969 -0.889964
vn 0.319130 -0.319130 -0.892363
vn -0.288778 -0.389314 -0.874667
vn -0.288778 -0.389314 -0.874667
vn -0.399370 -0.681283 -0.613479
vn -0.412391 -0.739145 -0.532539
vn -0.336156 -0.658830 -0.673010
vn -0.330594 -0.604186 -0.725029
vn -0.351703 -0.800429 0.485406
vn -0.336705 -0.755262 0.562325
vn -0.281877 -0.747603 0.601360
vn -0.295884 -0.784881 0.544440
vn -0.482500 -0.720086 -0.498668
vn -0.493681 -0.715931 -0.493681
vn 0.477497 -0.737559 -0.477497
vn 0.599825 -0.648274 -0.468989
vn 0.831707 0.392596 -0.392596
vn -0.011028 0.706865 -0.707262
vn 0.110595 0.677486 -0.727174
vn -0.518102 0.499310 -0.694449
vn -0.550379 0.677727 -0.487615
vn -0.497944 0.452209 -0.739972
vn -0.552478 -0.186613 -0.812369
vn -0.638872 -0.127595 -0.758658
vn -0.638872 -0.127595 -0.758658
vn -0.362651 -0.293844 -0.884387
vn -0.490501 -0.804481 -0.334990
vn -0.552742 -0.821687 -0.138953
vn 0.832749 -0.391490 0.391491
vn 0.391491 -0.832749 0.391491
vn 0.072270 -0.818489 0.569959
vn -0.536680 -0.514926 0.668450
vn -0.443159 -0.707549 0.550440
vn -0.482269 -0.405720 0.776407
vn -0.470170 0.410607 0.781244
vn -0.455025 0.365876 0.811842
vn -0.511542 0.595556 0.619385
vn -0.343749 -0.774711 -0.530716
vn -0.712942 0.310975 -0.628497
vn 0.187128 -0.933754 0.305101
vn 0.186574 -0.933694 -0.305623
vn 0.324056 -0.860047 -0.394090
vn 0.493681 -0.715931 -0.493681
vn 0.388699 -0.253378 -0.885840
vn 0.304363 0.369544 -0.877952
s 1
g pCube13
usemtl initialShadingGroup
f 31/46/1 96/123/2 97/124/3 21/32/4
f 49/68/5 92/119/6 93/120/7 15/23/8
f 23/34/9 89/116/10 90/117/11 29/43/12
f 16/25/13 85/112/14 86/113/15 45/63/16
f 47/66/17 48/67/18 30/45/19 22/33/20
f 52/73/21 53/74/22 26/39/23 34/49/24
s 6
f 69/95/25 70/96/26 44/62/27 17/27/28
s 1
f 73/99/29 74/100/30 28/42/31 24/36/32
f 76/102/33 77/103/34 14/22/35 50/70/36
f 80/106/37 81/107/38 20/31/39 32/47/40
f 77/103/41 78/104/42 56/78/43 14/22/35
f 15/23/8 93/120/7 94/121/44 57/79/45
f 58/81/46 59/82/47 22/33/20 30/45/19
s 6
f 61/84/48 84/111/49 85/112/50 16/25/51
f 68/94/52 69/95/25 17/27/28 62/86/53
s 1
f 65/90/54 66/91/55 34/49/56 26/39/57
s 6
f 81/107/58 82/108/59 36/51/60 20/31/61
f 21/32/62 97/124/63 98/125/64 37/52/65
f 59/82/66 60/83/67 38/53/68 22/33/69
s 1
f 46/65/70 47/66/71 22/33/72 38/53/73
f 39/54/74 88/115/75 89/116/10 23/34/9
f 72/98/76 73/99/77 24/36/32 40/56/78
s off
f 53/74/79 54/75/80 42/59/81 26/39/82
s 6
f 64/89/83 65/90/84 26/39/85 42/59/86
s 1
f 74/100/30 75/101/87 11/18/88 28/42/31
f 29/43/12 90/117/11 91/118/89 6/6/90
f 15/24/8 30/45/19 48/67/18 49/69/5
f 57/80/45 58/81/46 30/45/19 15/24/8
f 95/122/91 96/123/2 31/46/1 4/4/92
f 79/105/93 80/106/37 32/47/40 12/19/94
f 13/20/95 34/49/56 66/91/55 55/76/96
f 51/71/97 52/73/21 34/49/24 13/20/98
s 6
f 82/108/59 67/92/99 9/15/100 36/51/60
f 37/52/65 98/125/64 83/109/101 2/2/102
f 60/83/67 61/85/48 16/26/51 38/53/68
s 1
f 45/64/16 46/65/70 38/53/73 16/26/13
f 87/114/103 88/115/75 39/54/74 8/8/104
f 71/97/105 72/98/76 40/56/78 10/17/106
s 6
f 54/75/107 43/60/108 18/28/109 42/59/110
f 63/87/111 64/89/112 42/59/113 18/28/114
f 70/96/26 71/97/115 10/17/116 44/62/27
s 1
f 45/63/16 86/113/15 87/114/117 8/8/118
f 39/55/74 46/65/70 45/64/16 8/11/118
f 23/35/9 47/66/71 46/65/70 39/55/74
f 29/44/12 48/67/18 47/66/71 23/35/9
f 49/69/5 48/67/18 29/44/12 6/12/119
f 91/118/120 92/119/6 49/68/5 6/6/121
f 75/101/87 76/102/33 50/70/36 11/18/88
f 27/40/122 52/73/21 51/71/97 5/14/123
f 25/37/124 53/74/22 52/73/21 27/40/122
f 41/57/125 54/75/126 53/74/127 25/37/128
s 6
f 7/13/129 43/60/108 54/75/107 41/57/130
s 1
f 78/104/42 79/105/93 12/19/94 56/78/43
f 57/79/45 94/121/44 95/122/91 4/4/92
f 31/46/1 58/81/46 57/80/45 4/4/92
f 21/32/4 59/82/47 58/81/46 31/46/1
s 6
f 37/52/65 60/83/67 59/82/66 21/32/62
f 2/2/131 61/85/48 60/83/67 37/52/65
f 83/110/101 84/111/49 61/84/48 2/10/132
f 67/93/99 68/94/52 62/86/133 9/16/100
f 35/50/134 64/89/112 63/87/111 1/1/135
f 19/30/136 65/90/84 64/89/83 35/50/134
s 1
f 33/48/137 66/91/55 65/90/54 19/30/138
f 55/76/96 66/91/55 33/48/137 3/3/139
s 6
f 63/88/111 68/94/52 67/93/99 1/9/135
f 18/29/114 69/95/25 68/94/52 63/88/111
f 43/61/108 70/96/26 69/95/25 18/29/109
f 7/7/129 71/97/115 70/96/26 43/61/108
f 41/58/130 72/98/140 71/97/115 7/7/129
s 1
f 25/38/128 73/99/77 72/98/76 41/58/125
f 27/41/122 74/100/30 73/99/141 25/38/124
f 5/5/123 75/101/87 74/100/30 27/41/122
f 51/72/97 76/102/33 75/101/87 5/5/123
f 13/21/98 77/103/34 76/102/33 51/72/97
f 55/77/96 78/104/42 77/103/41 13/21/95
f 3/3/139 79/105/93 78/104/42 55/77/96
f 33/48/137 80/106/37 79/105/93 3/3/139
f 19/30/138 81/107/38 80/106/37 33/48/137
s 6
f 35/50/134 82/108/59 81/107/58 19/30/136
f 1/1/135 67/92/99 82/108/59 35/50/134
f 9/16/100 62/86/133 84/111/49 83/110/101
f 85/112/50 84/111/49 62/86/133 17/27/142
s 1
f 86/113/15 85/112/14 17/27/143 44/62/144
f 87/114/117 86/113/15 44/62/144 10/17/145
f 10/17/146 40/56/78 88/115/75 87/114/103
f 89/116/10 88/115/75 40/56/78 24/36/32
f 90/117/11 89/116/10 24/36/32 28/42/31
f 91/118/89 90/117/11 28/42/31 11/18/147
f 11/18/88 50/70/36 92/119/6 91/118/120
f 93/120/7 92/119/6 50/70/36 14/22/35
f 94/121/44 93/120/7 14/22/35 56/78/43
f 95/122/91 94/121/44 56/78/43 12/19/94
f 12/19/94 32/47/40 96/123/2 95/122/91
f 97/124/3 96/123/2 32/47/40 20/31/39
s 6
f 98/125/64 97/124/63 20/31/61 36/51/60
f 83/109/101 98/125/64 36/51/60 9/15/100
