# This file uses centimeters as units for non-parametric coordinates.

mtllib Frog eyes.mtl
g default
v -1.484704 11.773120 -0.260346
v -1.882122 12.061861 -0.260346
v -2.373358 12.061861 -0.260346
v -2.770775 11.773120 -0.260346
v -2.922575 11.305927 -0.260346
v -2.770775 10.838735 -0.260346
v -2.373357 10.549994 -0.260346
v -1.882122 10.549994 -0.260346
v -1.484704 10.838735 -0.260346
v -1.332904 11.305927 -0.260346
v -1.318723 11.893713 0.260346
v -1.818723 12.256984 0.260346
v -2.436757 12.256984 0.260346
v -2.936757 11.893713 0.260346
v -3.127740 11.305927 0.260346
v -2.936757 10.718142 0.260346
v -2.436757 10.354871 0.260346
v -1.818723 10.354871 0.260346
v -1.318723 10.718142 0.260346
v -1.127740 11.305927 0.260346
v -2.127740 11.305927 -0.531172
v -2.127740 11.305927 0.260346
v -1.268942 11.929880 0.000000
v -1.799708 12.315504 0.000000
v -2.455771 12.315504 0.000000
v -2.986537 11.929880 0.000000
v -3.189272 11.305927 0.000000
v -2.986537 10.681974 0.000000
v -2.455771 10.296350 0.000000
v -1.799708 10.296350 0.000000
v -1.268942 10.681974 0.000000
v -1.066208 11.305927 0.000000
vt 0.573984 0.070866
vt 0.555016 0.072369
vt 0.553272 0.043365
vt 0.571139 0.041949
vt 0.536006 0.073151
vt 0.535363 0.044102
vt 0.516980 0.073210
vt 0.517440 0.044158
vt 0.497965 0.072548
vt 0.499527 0.043534
vt 0.478988 0.071165
vt 0.481650 0.042231
vt 0.460078 0.069062
vt 0.463837 0.040251
vt 0.441262 0.066244
vt 0.446111 0.037595
vt 0.422566 0.062713
vt 0.428498 0.034269
vt 0.611678 0.065707
vt 0.592880 0.068644
vt 0.588940 0.039857
vt 0.606649 0.037090
vt 0.355724 0.412614
vt 0.331532 0.457407
vt 0.274670 0.397780
vt 0.348967 0.362151
vt 0.313846 0.325295
vt 0.263775 0.316116
vt 0.217868 0.338113
vt 0.193637 0.382886
vt 0.200402 0.433358
vt 0.235527 0.470228
vt 0.285615 0.479415
vt 0.372955 0.897290
vt 0.290552 0.955911
vt 0.241545 0.799794
vt 0.189429 0.954901
vt 0.108213 0.894645
vt 0.077925 0.798160
vt 0.110134 0.702299
vt 0.192538 0.643678
vt 0.293660 0.644688
vt 0.374876 0.704943
vt 0.405164 0.801429
vt 0.442514 0.416786
vt 0.399262 0.511858
vt 0.421636 0.314492
vt 0.344650 0.244018
vt 0.240962 0.232238
vt 0.150141 0.283633
vt 0.106850 0.378602
vt 0.127645 0.480884
vt 0.204596 0.551431
vt 0.308344 0.563279
vn 0.768816 0.558577 -0.311309
vn 0.293661 0.903797 -0.311309
vn 0.159293 0.490253 0.856900
vn 0.417034 0.302993 0.856900
vn -0.293662 0.903798 -0.311309
vn -0.159293 0.490253 0.856900
vn -0.768816 0.558577 -0.311309
vn -0.417034 0.302993 0.856900
vn -0.950309 -0.000000 -0.311308
vn -0.515482 -0.000000 0.856900
vn -0.768816 -0.558577 -0.311308
vn -0.417034 -0.302993 0.856900
vn -0.293662 -0.903798 -0.311308
vn -0.159293 -0.490253 0.856900
vn 0.293662 -0.903797 -0.311309
vn 0.159293 -0.490253 0.856900
vn 0.768816 -0.558577 -0.311309
vn 0.417034 -0.302993 0.856900
vn 0.950309 -0.000000 -0.311308
vn 0.515482 -0.000000 0.856901
vn 0.172725 0.531593 -0.829202
vn 0.452199 0.328542 -0.829202
vn -0.000000 0.000000 -1.000000
vn -0.172725 0.531593 -0.829202
vn -0.452200 0.328542 -0.829202
vn -0.558949 -0.000000 -0.829202
vn -0.452200 -0.328542 -0.829202
vn -0.172725 -0.531592 -0.829202
vn 0.172725 -0.531593 -0.829202
vn 0.452200 -0.328542 -0.829202
vn 0.558949 -0.000000 -0.829202
vn 0.000000 0.000000 1.000000
s 1
g polySurface3 group56 pCylinder14
usemtl initialShadingGroup
f 23/1/1 24/2/2 12/3/3 11/4/4
f 24/2/2 25/5/5 13/6/6 12/3/3
f 25/5/5 26/7/7 14/8/8 13/6/6
f 26/7/7 27/9/9 15/10/10 14/8/8
f 27/9/9 28/11/11 16/12/12 15/10/10
f 28/11/11 29/13/13 17/14/14 16/12/12
f 29/13/13 30/15/15 18/16/16 17/14/14
f 30/15/15 31/17/17 19/18/18 18/16/16
f 31/19/17 32/20/19 20/21/20 19/22/18
f 32/20/19 23/1/1 11/4/4 20/21/20
f 2/23/21 1/24/22 21/25/23
f 3/26/24 2/23/21 21/25/23
f 4/27/25 3/26/24 21/25/23
f 5/28/26 4/27/25 21/25/23
f 6/29/27 5/28/26 21/25/23
f 7/30/28 6/29/27 21/25/23
f 8/31/29 7/30/28 21/25/23
f 9/32/30 8/31/29 21/25/23
f 10/33/31 9/32/30 21/25/23
f 1/24/22 10/33/31 21/25/23
f 11/34/4 12/35/3 22/36/32
f 12/35/3 13/37/6 22/36/32
f 13/37/6 14/38/8 22/36/32
f 14/38/8 15/39/10 22/36/32
f 15/39/10 16/40/12 22/36/32
f 16/40/12 17/41/14 22/36/32
f 17/41/14 18/42/16 22/36/32
f 18/42/16 19/43/18 22/36/32
f 19/43/18 20/44/20 22/36/32
f 20/44/20 11/34/4 22/36/32
f 1/24/22 2/23/21 24/45/2 23/46/1
f 2/23/21 3/26/24 25/47/5 24/45/2
f 3/26/24 4/27/25 26/48/7 25/47/5
f 4/27/25 5/28/26 27/49/9 26/48/7
f 5/28/26 6/29/27 28/50/11 27/49/9
f 6/29/27 7/30/28 29/51/13 28/50/11
f 7/30/28 8/31/29 30/52/15 29/51/13
f 8/31/29 9/32/30 31/53/17 30/52/15
f 9/32/30 10/33/31 32/54/19 31/53/17
f 10/33/31 1/24/22 23/46/1 32/54/19
g default
v 1.484704 11.773120 -0.260346
v 1.882122 12.061861 -0.260346
v 2.373358 12.061861 -0.260346
v 2.770775 11.773120 -0.260346
v 2.922575 11.305927 -0.260346
v 2.770775 10.838735 -0.260346
v 2.373357 10.549994 -0.260346
v 1.882122 10.549994 -0.260346
v 1.484704 10.838735 -0.260346
v 1.332904 11.305927 -0.260346
v 1.318722 11.893713 0.260346
v 1.818723 12.256984 0.260346
v 2.436757 12.256984 0.260346
v 2.936757 11.893713 0.260346
v 3.127740 11.305927 0.260346
v 2.936756 10.718142 0.260346
v 2.436756 10.354871 0.260346
v 1.818722 10.354871 0.260346
v 1.318723 10.718142 0.260346
v 1.127740 11.305927 0.260346
v 2.127740 11.305927 -0.531172
v 2.127740 11.305927 0.260346
v 1.268942 11.929880 0.000000
v 1.799708 12.315504 -0.000000
v 2.455771 12.315504 -0.000000
v 2.986537 11.929880 -0.000000
v 3.189272 11.305927 0.000000
v 2.986537 10.681974 -0.000000
v 2.455771 10.296350 -0.000000
v 1.799708 10.296350 0.000000
v 1.268942 10.681974 0.000000
v 1.066208 11.305927 0.000000
vt 0.441260 0.129914
vt 0.445867 0.093299
vt 0.468504 0.095712
vt 0.465289 0.132475
vt 0.491216 0.097264
vt 0.489399 0.134123
vt 0.513970 0.097953
vt 0.513553 0.134855
vt 0.536734 0.097778
vt 0.537718 0.134669
vt 0.559475 0.096740
vt 0.561858 0.133566
vt 0.582161 0.094839
vt 0.585940 0.131548
vt 0.604757 0.092078
vt 0.609927 0.128618
vt 0.627233 0.088462
vt 0.633785 0.124780
vt 0.393579 0.122066
vt 0.400950 0.085905
vt 0.423339 0.090028
vt 0.417345 0.126442
vt 0.756373 0.322769
vt 0.729907 0.397343
vt 0.707442 0.321445
vt 0.795190 0.352587
vt 0.809105 0.399517
vt 0.792685 0.445634
vt 0.752328 0.473312
vt 0.703415 0.471993
vt 0.664615 0.442180
vt 0.650735 0.395255
vt 0.667047 0.349111
vt 0.638947 0.893170
vt 0.765017 0.799398
vt 0.718142 0.949363
vt 0.815241 0.948275
vt 0.893157 0.890321
vt 0.922127 0.797637
vt 0.891087 0.705626
vt 0.811892 0.649433
vt 0.714792 0.650521
vt 0.636877 0.708476
vt 0.607907 0.801159
vt 0.694541 0.238902
vt 0.794440 0.248399
vt 0.869686 0.314794
vt 0.891555 0.412758
vt 0.851627 0.504841
vt 0.765213 0.555862
vt 0.665324 0.546358
vt 0.590095 0.479968
vt 0.568243 0.382035
vt 0.608135 0.289935
vn -0.768816 0.558577 -0.311309
vn -0.417034 0.302993 0.856900
vn -0.159293 0.490253 0.856900
vn -0.293662 0.903797 -0.311309
vn 0.159293 0.490253 0.856900
vn 0.293661 0.903797 -0.311309
vn 0.417034 0.302993 0.856900
vn 0.768816 0.558577 -0.311309
vn 0.515482 -0.000000 0.856901
vn 0.950309 -0.000000 -0.311308
vn 0.417033 -0.302993 0.856901
vn 0.768816 -0.558578 -0.311307
vn 0.159293 -0.490253 0.856900
vn 0.293662 -0.903798 -0.311308
vn -0.159293 -0.490253 0.856900
vn -0.293662 -0.903797 -0.311309
vn -0.417034 -0.302993 0.856900
vn -0.768816 -0.558577 -0.311308
vn -0.515482 -0.000000 0.856900
vn -0.950309 -0.000000 -0.311308
vn -0.172725 0.531593 -0.829202
vn 0.000000 -0.000000 -1.000000
vn -0.452199 0.328542 -0.829202
vn 0.172725 0.531593 -0.829202
vn 0.452199 0.328542 -0.829202
vn 0.558949 -0.000000 -0.829202
vn 0.452199 -0.328542 -0.829202
vn 0.172725 -0.531593 -0.829202
vn -0.172725 -0.531592 -0.829202
vn -0.452199 -0.328542 -0.829202
vn -0.558949 -0.000000 -0.829202
vn 0.000000 0.000000 1.000000
s 1
g group56 pCylinder14 polySurface4
usemtl initialShadingGroup
f 55/55/33 43/56/34 44/57/35 56/58/36
f 56/58/36 44/57/35 45/59/37 57/60/38
f 57/60/38 45/59/37 46/61/39 58/62/40
f 58/62/40 46/61/39 47/63/41 59/64/42
f 59/64/42 47/63/41 48/65/43 60/66/44
f 60/66/44 48/65/43 49/67/45 61/68/46
f 61/68/46 49/67/45 50/69/47 62/70/48
f 62/70/48 50/69/47 51/71/49 63/72/50
f 63/73/50 51/74/49 52/75/51 64/76/52
f 64/76/52 52/75/51 43/56/34 55/55/33
f 34/77/53 53/78/54 33/79/55
f 35/80/56 53/78/54 34/77/53
f 36/81/57 53/78/54 35/80/56
f 37/82/58 53/78/54 36/81/57
f 38/83/59 53/78/54 37/82/58
f 39/84/60 53/78/54 38/83/59
f 40/85/61 53/78/54 39/84/60
f 41/86/62 53/78/54 40/85/61
f 42/87/63 53/78/54 41/86/62
f 33/79/55 53/78/54 42/87/63
f 43/88/34 54/89/64 44/90/35
f 44/90/35 54/89/64 45/91/37
f 45/91/37 54/89/64 46/92/39
f 46/92/39 54/89/64 47/93/41
f 47/93/41 54/89/64 48/94/43
f 48/94/43 54/89/64 49/95/45
f 49/95/45 54/89/64 50/96/47
f 50/96/47 54/89/64 51/97/49
f 51/97/49 54/89/64 52/98/51
f 52/98/51 54/89/64 43/88/34
f 33/79/55 55/99/33 56/100/36 34/77/53
f 34/77/53 56/100/36 57/101/38 35/80/56
f 35/80/56 57/101/38 58/102/40 36/81/57
f 36/81/57 58/102/40 59/103/42 37/82/58
f 37/82/58 59/103/42 60/104/44 38/83/59
f 38/83/59 60/104/44 61/105/46 39/84/60
f 39/84/60 61/105/46 62/106/48 40/85/61
f 40/85/61 62/106/48 63/107/50 41/86/62
f 41/86/62 63/107/50 64/108/52 42/87/63
f 42/87/63 64/108/52 55/99/33 33/79/55
