# This file uses centimeters as units for non-parametric coordinates.

mtllib Frog eyes.mtl
g default
v -1.484704 11.773120 -0.260346
v -1.882122 12.061861 -0.260346
v -2.373358 12.061861 -0.260346
v -2.770775 11.773120 -0.260346
v -2.922575 11.305927 -0.260346
v -2.770775 10.838735 -0.260346
v -2.373357 10.549994 -0.260346
v -1.882122 10.549994 -0.260346
v -1.484705 10.838735 -0.260346
v -1.332904 11.305927 -0.260346
v -1.318723 11.893713 0.260346
v -1.818723 12.256984 0.260346
v -2.436757 12.256984 0.260346
v -2.936757 11.893713 0.260346
v -3.127740 11.305927 0.260346
v -2.936757 10.718142 0.260346
v -2.436757 10.354871 0.260346
v -1.818723 10.354871 0.260346
v -1.318723 10.718142 0.260346
v -1.127740 11.305927 0.260346
v -2.127740 11.305927 -0.531172
v -2.127740 11.305927 0.260346
v -1.268942 11.929880 0.000000
v -1.799708 12.315504 0.000000
v -2.455771 12.315504 0.000000
v -2.986538 11.929880 0.000000
v -3.189272 11.305927 0.000000
v -2.986537 10.681975 0.000000
v -2.455771 10.296351 0.000000
v -1.799708 10.296351 0.000000
v -1.268942 10.681975 0.000000
v -1.066208 11.305927 0.000000
v 1.484704 11.773120 -0.260346
v 1.882122 12.061861 -0.260346
v 2.373357 12.061861 -0.260346
v 2.770775 11.773120 -0.260346
v 2.922575 11.305927 -0.260346
v 2.770775 10.838735 -0.260346
v 2.373357 10.549994 -0.260346
v 1.882122 10.549994 -0.260346
v 1.484704 10.838735 -0.260346
v 1.332904 11.305927 -0.260346
v 1.318722 11.893713 0.260346
v 1.818723 12.256984 0.260346
v 2.436757 12.256984 0.260346
v 2.936757 11.893713 0.260346
v 3.127740 11.305927 0.260346
v 2.936756 10.718142 0.260346
v 2.436756 10.354871 0.260346
v 1.818722 10.354871 0.260346
v 1.318723 10.718142 0.260346
v 1.127740 11.305927 0.260346
v 2.127740 11.305927 -0.531172
v 2.127740 11.305927 0.260346
v 1.268942 11.929880 -0.000000
v 1.799708 12.315504 -0.000000
v 2.455771 12.315504 -0.000000
v 2.986537 11.929880 -0.000000
v 3.189272 11.305927 0.000000
v 2.986537 10.681975 -0.000000
v 2.455771 10.296351 -0.000000
v 1.799708 10.296351 0.000000
v 1.268942 10.681975 0.000000
v 1.066208 11.305927 0.000000
vt 0.573984 0.070866
vt 0.442514 0.416786
vt 0.553272 0.043365
vt 0.571139 0.041949
vt 0.421636 0.314492
vt 0.535363 0.044102
vt 0.344650 0.244018
vt 0.517440 0.044158
vt 0.240962 0.232238
vt 0.499527 0.043534
vt 0.150141 0.283633
vt 0.481650 0.042231
vt 0.106850 0.378602
vt 0.463837 0.040251
vt 0.127645 0.480884
vt 0.446111 0.037595
vt 0.204596 0.551431
vt 0.428498 0.034269
vt 0.308344 0.563279
vt 0.588940 0.039857
vt 0.355724 0.412614
vt 0.331532 0.457407
vt 0.274670 0.397780
vt 0.348967 0.362151
vt 0.313846 0.325295
vt 0.263775 0.316116
vt 0.217868 0.338113
vt 0.193637 0.382886
vt 0.200402 0.433358
vt 0.235527 0.470228
vt 0.285615 0.479415
vt 0.241545 0.799794
vt 0.694541 0.238902
vt 0.638947 0.893170
vt 0.718142 0.949363
vt 0.794440 0.248399
vt 0.815241 0.948275
vt 0.869686 0.314794
vt 0.893157 0.890321
vt 0.891555 0.412758
vt 0.922127 0.797637
vt 0.851627 0.504841
vt 0.891087 0.705626
vt 0.765213 0.555862
vt 0.811892 0.649433
vt 0.665324 0.546358
vt 0.714792 0.650521
vt 0.590095 0.479968
vt 0.636877 0.708476
vt 0.568243 0.382035
vt 0.607907 0.801159
vt 0.608135 0.289935
vt 0.756373 0.322769
vt 0.729907 0.397343
vt 0.707442 0.321445
vt 0.795190 0.352587
vt 0.809105 0.399517
vt 0.792685 0.445634
vt 0.752328 0.473312
vt 0.703415 0.471993
vt 0.664615 0.442180
vt 0.650735 0.395255
vt 0.667047 0.349111
vt 0.765017 0.799398
vt 0.423339 0.090028
vt 0.445867 0.093299
vt 0.627233 0.088462
vt 0.604757 0.092078
vt 0.582161 0.094839
vt 0.559475 0.096740
vt 0.536734 0.097778
vt 0.513970 0.097953
vt 0.491216 0.097264
vt 0.468504 0.095712
vt 0.405164 0.801429
vt 0.372955 0.897290
vt 0.374876 0.704943
vt 0.293660 0.644688
vt 0.192538 0.643678
vt 0.110134 0.702299
vt 0.077925 0.798160
vt 0.108213 0.894645
vt 0.189429 0.954901
vt 0.290552 0.955911
vt 0.417345 0.126442
vt 0.441260 0.129914
vt 0.393579 0.122066
vt 0.609927 0.128618
vt 0.585940 0.131548
vt 0.561858 0.133566
vt 0.537718 0.134669
vt 0.513553 0.134855
vt 0.489399 0.134123
vt 0.465289 0.132475
vt 0.592880 0.068644
vt 0.399262 0.511858
vt 0.422566 0.062713
vt 0.441262 0.066244
vt 0.460078 0.069062
vt 0.478988 0.071165
vt 0.497965 0.072548
vt 0.516980 0.073210
vt 0.536006 0.073151
vt 0.555016 0.072369
vt 0.633785 0.124780
vt 0.400950 0.085905
vt 0.611678 0.065707
vt 0.606649 0.037090
vn 0.763959 0.555049 -0.329070
vn 0.291806 0.898088 -0.329070
vn 0.156056 0.480291 0.863114
vn 0.408560 0.296836 0.863114
vn -0.291806 0.898088 -0.329070
vn -0.156056 0.480291 0.863114
vn -0.763959 0.555049 -0.329070
vn -0.408560 0.296836 0.863115
vn -0.944305 -0.000000 -0.329071
vn -0.505008 -0.000000 0.863115
vn -0.763959 -0.555049 -0.329070
vn -0.408560 -0.296836 0.863115
vn -0.291806 -0.898088 -0.329070
vn -0.156056 -0.480291 0.863114
vn 0.291806 -0.898088 -0.329070
vn 0.156056 -0.480291 0.863115
vn 0.763959 -0.555049 -0.329070
vn 0.408560 -0.296836 0.863114
vn 0.944305 -0.000000 -0.329070
vn 0.505008 -0.000000 0.863115
vn 0.168034 0.517156 -0.839234
vn 0.439919 0.319620 -0.839235
vn 0.000000 0.000000 -1.000000
vn -0.168034 0.517156 -0.839234
vn -0.439919 0.319620 -0.839235
vn -0.543769 -0.000000 -0.839235
vn -0.439919 -0.319620 -0.839235
vn -0.168034 -0.517156 -0.839234
vn 0.168034 -0.517156 -0.839234
vn 0.439919 -0.319620 -0.839235
vn 0.543769 -0.000000 -0.839235
vn 0.000000 0.000000 1.000000
vn -0.763959 0.555049 -0.329071
vn -0.408560 0.296837 0.863114
vn -0.156056 0.480291 0.863115
vn -0.291806 0.898088 -0.329070
vn 0.156056 0.480291 0.863114
vn 0.291806 0.898088 -0.329070
vn 0.408560 0.296837 0.863114
vn 0.763959 0.555049 -0.329071
vn 0.505008 -0.000000 0.863115
vn 0.944305 -0.000000 -0.329071
vn 0.408560 -0.296836 0.863115
vn 0.763959 -0.555049 -0.329070
vn 0.156056 -0.480292 0.863114
vn 0.291806 -0.898088 -0.329070
vn -0.156056 -0.480292 0.863114
vn -0.291806 -0.898088 -0.329070
vn -0.408560 -0.296836 0.863114
vn -0.763959 -0.555049 -0.329071
vn -0.505008 -0.000000 0.863115
vn -0.944305 -0.000000 -0.329070
vn -0.168034 0.517156 -0.839234
vn -0.000000 0.000000 -1.000000
vn -0.439919 0.319620 -0.839235
vn 0.168034 0.517156 -0.839234
vn 0.439919 0.319620 -0.839235
vn 0.543769 0.000000 -0.839235
vn 0.439919 -0.319620 -0.839235
vn 0.168034 -0.517156 -0.839234
vn -0.168034 -0.517156 -0.839235
vn -0.439919 -0.319620 -0.839235
vn -0.543769 -0.000000 -0.839235
vn 0.000000 0.000000 1.000000
s 1
g pCylinder14
usemtl initialShadingGroup
f 23/1/1 24/104/2 12/3/3 11/4/4
f 24/104/2 25/103/5 13/6/6 12/3/3
f 25/103/5 26/102/7 14/8/8 13/6/6
f 26/102/7 27/101/9 15/10/10 14/8/8
f 27/101/9 28/100/11 16/12/12 15/10/10
f 28/100/11 29/99/13 17/14/14 16/12/12
f 29/99/13 30/98/15 18/16/16 17/14/14
f 30/98/15 31/97/17 19/18/18 18/16/16
f 31/107/17 32/95/19 20/20/20 19/108/18
f 32/95/19 23/1/1 11/4/4 20/20/20
f 2/21/21 1/22/22 21/23/23
f 3/24/24 2/21/21 21/23/23
f 4/25/25 3/24/24 21/23/23
f 5/26/26 4/25/25 21/23/23
f 6/27/27 5/26/26 21/23/23
f 7/28/28 6/27/27 21/23/23
f 8/29/29 7/28/28 21/23/23
f 9/30/30 8/29/29 21/23/23
f 10/31/31 9/30/30 21/23/23
f 1/22/22 10/31/31 21/23/23
f 11/76/4 12/84/3 22/32/32
f 12/84/3 13/83/6 22/32/32
f 13/83/6 14/82/8 22/32/32
f 14/82/8 15/81/10 22/32/32
f 15/81/10 16/80/12 22/32/32
f 16/80/12 17/79/14 22/32/32
f 17/79/14 18/78/16 22/32/32
f 18/78/16 19/77/18 22/32/32
f 19/77/18 20/75/20 22/32/32
f 20/75/20 11/76/4 22/32/32
f 1/22/22 2/21/21 24/2/2 23/96/1
f 2/21/21 3/24/24 25/5/5 24/2/2
f 3/24/24 4/25/25 26/7/7 25/5/5
f 4/25/25 5/26/26 27/9/9 26/7/7
f 5/26/26 6/27/27 28/11/11 27/9/9
f 6/27/27 7/28/28 29/13/13 28/11/11
f 7/28/28 8/29/29 30/15/15 29/13/13
f 8/29/29 9/30/30 31/17/17 30/15/15
f 9/30/30 10/31/31 32/19/19 31/17/17
f 10/31/31 1/22/22 23/96/1 32/19/19
s 2
f 55/86/33 43/66/34 44/74/35 56/94/36
f 56/94/36 44/74/35 45/73/37 57/93/38
f 57/93/38 45/73/37 46/72/39 58/92/40
f 58/92/40 46/72/39 47/71/41 59/91/42
f 59/91/42 47/71/41 48/70/43 60/90/44
f 60/90/44 48/70/43 49/69/45 61/89/46
f 61/89/46 49/69/45 50/68/47 62/88/48
f 62/88/48 50/68/47 51/67/49 63/105/50
f 63/87/50 51/106/49 52/65/51 64/85/52
f 64/85/52 52/65/51 43/66/34 55/86/33
f 34/53/53 53/54/54 33/55/55
f 35/56/56 53/54/54 34/53/53
f 36/57/57 53/54/54 35/56/56
f 37/58/58 53/54/54 36/57/57
f 38/59/59 53/54/54 37/58/58
f 39/60/60 53/54/54 38/59/59
f 40/61/61 53/54/54 39/60/60
f 41/62/62 53/54/54 40/61/61
f 42/63/63 53/54/54 41/62/62
f 33/55/55 53/54/54 42/63/63
f 43/34/34 54/64/64 44/35/35
f 44/35/35 54/64/64 45/37/37
f 45/37/37 54/64/64 46/39/39
f 46/39/39 54/64/64 47/41/41
f 47/41/41 54/64/64 48/43/43
f 48/43/43 54/64/64 49/45/45
f 49/45/45 54/64/64 50/47/47
f 50/47/47 54/64/64 51/49/49
f 51/49/49 54/64/64 52/51/51
f 52/51/51 54/64/64 43/34/34
f 33/55/55 55/33/33 56/36/36 34/53/53
f 34/53/53 56/36/36 57/38/38 35/56/56
f 35/56/56 57/38/38 58/40/40 36/57/57
f 36/57/57 58/40/40 59/42/42 37/58/58
f 37/58/58 59/42/42 60/44/44 38/59/59
f 38/59/59 60/44/44 61/46/46 39/60/60
f 39/60/60 61/46/46 62/48/48 40/61/61
f 40/61/61 62/48/48 63/50/50 41/62/62
f 41/62/62 63/50/50 64/52/52 42/63/63
f 42/63/63 64/52/52 55/33/33 33/55/55
