# This file uses centimeters as units for non-parametric coordinates.

mtllib Hairther.mtl
g default
v 2.969922 -0.221422 -3.173954
v -0.022802 -0.221422 -3.602185
v -3.045353 -0.221422 -2.799725
v -3.624986 -0.221422 0.000000
v -3.071196 -0.221422 2.547130
v -0.022802 -0.221422 3.602185
v 2.524328 -0.221422 2.547130
v 3.579383 -0.221422 0.000000
v 2.270947 10.323048 -2.293748
v -0.022802 10.323048 -3.243849
v -2.316550 10.323048 -2.293748
v -3.266651 10.323048 0.000000
v -2.316550 10.323048 2.293748
v -0.022802 10.323048 3.243850
v 2.270947 10.323048 2.293749
v 3.221048 10.323048 0.000000
v -0.022802 -0.221422 0.000000
v 1.943421 10.793366 -1.966223
v -0.022802 10.793366 -2.780658
v -1.989025 10.793366 -1.966223
v -2.803460 10.793366 0.000000
v -1.989025 10.793366 1.966223
v -0.022802 10.793366 2.780659
v 1.943421 10.793366 1.966223
v 2.757858 10.793366 0.000000
v 1.220257 11.361894 -1.243058
v -0.022802 11.361894 -1.757950
v -1.265859 11.361894 -1.243058
v -1.780751 11.361894 0.000000
v -1.265859 11.361894 1.243058
v -0.022802 11.361894 1.757950
v 1.220257 11.361894 1.243058
v 1.735149 11.361894 0.000000
v 0.409861 11.676757 -0.432663
v -0.022801 11.676757 -0.611877
v -0.022801 11.798070 0.000000
v -0.455464 11.676757 -0.432663
v -0.634679 11.676757 0.000000
v -0.455464 11.676757 0.432663
v -0.022801 11.676757 0.611878
v 0.409861 11.676757 0.432663
v 0.589076 11.676757 0.000000
v 2.524328 9.524904 -2.547130
v -0.022802 9.524904 -3.602185
v -2.569932 9.524904 -2.547130
v -3.624986 9.524904 0.000000
v -2.569932 9.524904 2.547130
v -0.022802 9.524904 3.602185
v 2.524328 9.524904 2.547130
v 3.579383 9.524904 0.000000
v 2.524328 8.247609 -2.547130
v -0.022802 8.247609 -3.602185
v -2.569932 8.247609 -2.547130
v -3.624986 8.247609 0.000000
v -2.569932 8.247609 2.547130
v -0.022802 8.247609 3.602185
v 2.524328 8.247609 2.547130
v 3.579383 8.247609 0.000000
v -1.269487 -0.221422 3.829715
v -1.654504 8.247609 3.074657
v -1.654504 9.524904 3.074657
v -1.169676 10.323048 2.768799
v -1.005913 10.793366 2.373441
v -0.644330 11.361894 1.500504
v -0.239133 11.676757 0.522270
v 1.250763 -0.221422 3.540132
v 1.628632 8.247609 3.074657
v 1.628632 9.524904 3.074658
v 1.124073 10.323048 2.768799
v 0.960310 10.793366 2.373441
v 0.598727 11.361894 1.500504
v 0.193530 11.676757 0.522270
v 2.524328 8.886256 -2.547130
v 3.579383 8.886256 0.000000
v 2.524328 8.886256 2.547130
v 1.938233 8.886256 3.004612
v -1.979531 8.886256 3.004612
v -2.569932 8.886256 2.547130
v -3.624986 8.886256 0.000000
v -2.569932 8.886256 -2.547130
v -0.022802 8.886256 -3.602185
v -0.022259 8.260814 3.022954
v 1.448169 8.259575 2.495228
v 1.757770 8.886256 2.425182
v -0.022233 8.886256 2.995186
v -1.797983 8.886256 2.425578
v -1.472956 8.262053 2.495624
v 1.448170 9.512937 2.495228
v -0.022259 9.511698 3.022953
v -1.472956 9.510459 2.495624
v 2.499382 3.177234 -2.328167
v -0.022802 3.177234 -3.236159
v -2.569932 3.844041 -2.071718
v -3.454331 3.858534 0.000000
v -2.569932 3.177234 2.547130
v -1.440089 3.177234 3.551056
v -0.022802 3.177234 3.602185
v 0.934862 3.177234 3.202987
v 2.524328 3.177234 2.547130
v 3.299782 3.177234 0.000000
v 2.282855 6.056872 -2.692345
v 3.332669 6.056872 0.000000
v 2.524328 6.056872 2.547130
v 1.530886 6.056872 3.257733
v -0.022802 6.056872 3.602185
v -1.561862 6.056872 3.074657
v -2.569932 6.056872 2.547130
v -3.345944 6.056872 0.000000
v -2.569932 6.056872 -2.547130
v -0.022802 6.056872 -3.305227
vt 0.332726 0.427338
vt 0.410070 0.428077
vt 0.409222 0.454774
vt 0.333333 0.454134
vt 0.487442 0.432234
vt 0.485042 0.458876
vt 0.564911 0.441436
vt 0.560622 0.467705
vt 0.643289 0.455950
vt 0.634795 0.481834
vt 0.671588 0.469801
vt 0.668163 0.500412
vt 0.719030 0.498035
vt 0.145844 0.452352
vt 0.146244 0.483503
vt 0.109918 0.499329
vt 0.174775 0.440825
vt 0.254724 0.431696
vt 0.257109 0.458382
vt 0.181410 0.467770
vt 0.331877 0.387741
vt 0.411080 0.388757
vt 0.713514 0.604986
vt 0.842476 0.658404
vt 0.713514 0.780070
vt 0.584553 0.658404
vt 0.531135 0.787366
vt 0.584553 0.916327
vt 0.713514 0.969745
vt 0.649033 0.943036
vt 0.842476 0.916327
vt 0.777996 0.943036
vt 0.895894 0.787366
vt 0.268766 0.795552
vt 0.240959 0.800268
vt 0.249399 0.763919
vt 0.218045 0.783837
vt 0.213430 0.755812
vt 0.229915 0.732511
vt 0.243819 0.729964
vt 0.257767 0.727535
vt 0.269302 0.735734
vt 0.280769 0.744026
vt 0.285244 0.772350
vt 0.368536 0.952888
vt 0.202121 0.982783
vt 0.210466 0.941683
vt 0.345739 0.917704
vt 0.062628 0.886704
vt 0.097403 0.863250
vt 0.031178 0.719915
vt 0.072426 0.727544
vt 0.125955 0.579241
vt 0.150769 0.612871
vt 0.211211 0.556669
vt 0.219090 0.596393
vt 0.297866 0.548026
vt 0.372081 0.592963
vt 0.348119 0.625491
vt 0.288848 0.587796
vt 0.438606 0.649421
vt 0.465690 0.814930
vt 0.424916 0.805493
vt 0.402675 0.669280
vt 0.225228 0.870742
vt 0.306723 0.856733
vt 0.157615 0.823007
vt 0.143386 0.741056
vt 0.191384 0.672215
vt 0.232184 0.663966
vt 0.307964 0.681037
vt 0.273455 0.657215
vt 0.354768 0.788985
vt 0.341500 0.705905
vt 0.410568 0.408391
vt 0.332236 0.407551
vt 0.490591 0.392873
vt 0.489035 0.412557
vt 0.570226 0.402744
vt 0.567717 0.422075
vt 0.652106 0.415654
vt 0.648019 0.435994
vt 0.685270 0.419732
vt 0.669736 0.442052
vt 0.734437 0.440767
vt 0.126543 0.415674
vt 0.136721 0.427829
vt 0.085299 0.439896
vt 0.169125 0.400166
vt 0.251766 0.392634
vt 0.253082 0.412134
vt 0.171598 0.420698
vt 0.327278 0.229199
vt 0.416763 0.231379
vt 0.413453 0.320678
vt 0.339120 0.319489
vt 0.509075 0.257526
vt 0.495272 0.326904
vt 0.583055 0.266695
vt 0.577366 0.334417
vt 0.671426 0.258557
vt 0.659909 0.347133
vt 0.718495 0.266249
vt 0.695032 0.352217
vt 0.761671 0.275715
vt 0.106772 0.247374
vt 0.128911 0.333809
vt 0.079458 0.337067
vt 0.160842 0.242561
vt 0.246044 0.234935
vt 0.249247 0.324003
vt 0.166494 0.331172
vt 0.682243 0.445888
vt 0.693579 0.434666
vt 0.149512 0.425010
vt 0.136107 0.401538
vt 0.131992 0.443496
vt 0.092916 0.459846
vt 0.685999 0.461978
vt 0.739532 0.424989
vt 0.330670 0.116993
vt 0.421627 0.125282
vt 0.516593 0.128435
vt 0.602152 0.143108
vt 0.681656 0.152578
vt 0.748167 0.165689
vt 0.061940 0.147986
vt 0.100951 0.142684
vt 0.150498 0.138788
vt 0.234332 0.130079
vt 0.080692 0.402429
vt 0.745378 0.360430
vt 0.786350 0.174778
vt 0.074551 0.250638
vt 0.095664 0.476886
vt 0.723111 0.481264
vt 0.084683 0.418568
vt 0.732236 0.461987
vt 0.702951 0.519215
vn 0.689394 0.222422 -0.689394
vn -0.000000 0.222422 -0.974950
vn -0.000000 0.509959 -0.860199
vn 0.608252 0.509959 -0.608252
vn -0.000000 0.222422 -0.974950
vn -0.689394 0.222422 -0.689394
vn -0.608252 0.509960 -0.608252
vn -0.000000 0.509959 -0.860199
vn -0.689394 0.222422 -0.689394
vn -0.974950 0.222422 -0.000000
vn -0.860198 0.509960 -0.000000
vn -0.608252 0.509960 -0.608252
vn -0.974950 0.222422 -0.000000
vn -0.810439 0.252057 0.528825
vn -0.695233 0.520825 0.495371
vn -0.860198 0.509960 -0.000000
vn -0.810439 0.252057 0.528825
vn -0.258551 -0.058903 0.964200
vn -0.315528 0.538063 0.781621
vn -0.695233 0.520825 0.495371
vn 0.000248 -0.223788 0.974638
vn 0.261016 -0.058351 0.963569
vn 0.314453 0.539682 0.780937
vn 0.000000 0.537863 0.843032
vn 0.811594 0.252357 0.526907
vn 0.974951 0.222422 0.000000
vn 0.860199 0.509959 0.000000
vn 0.695651 0.521616 0.493951
vn 0.974951 0.222422 0.000000
vn 0.689394 0.222422 -0.689394
vn 0.608252 0.509959 -0.608252
vn 0.860199 0.509959 0.000000
vn -0.057066 -0.290906 -0.955048
vn 0.653523 -0.266398 -0.708478
vn 0.000000 -1.000000 0.000000
vn -0.671190 -0.237334 -0.702266
vn -0.057066 -0.290906 -0.955048
vn 0.000000 -1.000000 0.000000
vn -0.948286 -0.317293 -0.008844
vn -0.671190 -0.237334 -0.702266
vn 0.000000 -1.000000 0.000000
vn -0.786566 -0.438000 0.435282
vn -0.948286 -0.317293 -0.008844
vn 0.000000 -1.000000 0.000000
vn 0.074660 -0.816037 0.573158
vn -0.244238 -0.680653 0.690695
vn -0.786566 -0.438000 0.435282
vn 0.000000 -1.000000 0.000000
vn 0.723303 -0.472618 0.503454
vn 0.296677 -0.647047 0.702362
vn 0.074660 -0.816037 0.573158
vn 0.000000 -1.000000 0.000000
vn 0.932336 -0.359899 0.034953
vn 0.723303 -0.472618 0.503454
vn 0.000000 -1.000000 0.000000
vn 0.653523 -0.266398 -0.708478
vn 0.932336 -0.359899 0.034953
vn 0.000000 -1.000000 0.000000
vn 0.183586 0.965708 -0.183586
vn 0.000000 0.965708 -0.259631
vn 0.000000 1.000000 0.000000
vn 0.000000 0.965708 -0.259631
vn -0.183586 0.965708 -0.183587
vn 0.000000 1.000000 0.000000
vn -0.183586 0.965708 -0.183587
vn -0.259630 0.965708 0.000000
vn 0.000000 1.000000 0.000000
vn -0.259630 0.965708 0.000000
vn -0.205673 0.965609 0.159053
vn 0.000000 1.000000 0.000000
vn -0.205673 0.965609 0.159053
vn -0.103005 0.963094 0.248677
vn 0.000000 0.966920 0.255081
vn 0.000000 1.000000 0.000000
vn 0.000000 0.966920 0.255081
vn 0.103005 0.963094 0.248677
vn 0.205673 0.965609 0.159053
vn 0.000000 1.000000 0.000000
vn 0.205673 0.965609 0.159053
vn 0.259630 0.965708 0.000000
vn 0.000000 1.000000 0.000000
vn 0.259630 0.965708 0.000000
vn 0.183586 0.965708 -0.183586
vn 0.000000 1.000000 0.000000
vn 0.608252 0.509959 -0.608252
vn -0.000000 0.509959 -0.860199
vn -0.000000 0.789125 -0.614233
vn 0.434328 0.789125 -0.434328
vn -0.000000 0.509959 -0.860199
vn -0.608252 0.509960 -0.608252
vn -0.434328 0.789125 -0.434328
vn -0.000000 0.789125 -0.614233
vn -0.608252 0.509960 -0.608252
vn -0.860198 0.509960 -0.000000
vn -0.614233 0.789125 0.000000
vn -0.434328 0.789125 -0.434328
vn -0.860198 0.509960 -0.000000
vn -0.695233 0.520825 0.495371
vn -0.492529 0.786302 0.373021
vn -0.614233 0.789125 0.000000
vn -0.695233 0.520825 0.495371
vn -0.315528 0.538063 0.781621
vn -0.236936 0.785278 0.572014
vn -0.492529 0.786302 0.373021
vn 0.000000 0.537863 0.843032
vn 0.314453 0.539682 0.780937
vn 0.236936 0.785278 0.572014
vn 0.000000 0.789124 0.614233
vn 0.695651 0.521616 0.493951
vn 0.860199 0.509959 0.000000
vn 0.614233 0.789125 0.000000
vn 0.492528 0.786302 0.373021
vn 0.860199 0.509959 0.000000
vn 0.608252 0.509959 -0.608252
vn 0.434328 0.789125 -0.434328
vn 0.614233 0.789125 0.000000
vn 0.434328 0.789125 -0.434328
vn -0.000000 0.789125 -0.614233
vn 0.000000 0.900938 -0.433948
vn 0.306848 0.900938 -0.306848
vn -0.000000 0.789125 -0.614233
vn -0.434328 0.789125 -0.434328
vn -0.306848 0.900938 -0.306848
vn 0.000000 0.900938 -0.433948
vn -0.434328 0.789125 -0.434328
vn -0.614233 0.789125 0.000000
vn -0.433949 0.900938 0.000000
vn -0.306848 0.900938 -0.306848
vn -0.614233 0.789125 0.000000
vn -0.492529 0.786302 0.373021
vn -0.348590 0.899325 0.264008
vn -0.433949 0.900938 0.000000
vn -0.492529 0.786302 0.373021
vn -0.236936 0.785278 0.572014
vn -0.168210 0.898216 0.406095
vn -0.348590 0.899325 0.264008
vn 0.000000 0.789124 0.614233
vn 0.236936 0.785278 0.572014
vn 0.168210 0.898216 0.406095
vn 0.000000 0.900938 0.433949
vn 0.492528 0.786302 0.373021
vn 0.614233 0.789125 0.000000
vn 0.433949 0.900938 0.000000
vn 0.348590 0.899325 0.264008
vn 0.614233 0.789125 0.000000
vn 0.434328 0.789125 -0.434328
vn 0.306848 0.900938 -0.306848
vn 0.433949 0.900938 0.000000
vn 0.306848 0.900938 -0.306848
vn 0.000000 0.900938 -0.433948
vn 0.000000 0.965708 -0.259631
vn 0.183586 0.965708 -0.183586
vn 0.000000 0.900938 -0.433948
vn -0.306848 0.900938 -0.306848
vn -0.183586 0.965708 -0.183587
vn 0.000000 0.965708 -0.259631
vn -0.306848 0.900938 -0.306848
vn -0.433949 0.900938 0.000000
vn -0.259630 0.965708 0.000000
vn -0.183586 0.965708 -0.183587
vn -0.433949 0.900938 0.000000
vn -0.348590 0.899325 0.264008
vn -0.205673 0.965609 0.159053
vn -0.259630 0.965708 0.000000
vn -0.348590 0.899325 0.264008
vn -0.168210 0.898216 0.406095
vn -0.103005 0.963094 0.248677
vn -0.205673 0.965609 0.159053
vn 0.000000 0.900938 0.433949
vn 0.168210 0.898216 0.406095
vn 0.103005 0.963094 0.248677
vn 0.000000 0.966920 0.255081
vn 0.348590 0.899325 0.264008
vn 0.433949 0.900938 0.000000
vn 0.259630 0.965708 0.000000
vn 0.205673 0.965609 0.159053
vn 0.433949 0.900938 0.000000
vn 0.306848 0.900938 -0.306848
vn 0.183586 0.965708 -0.183586
vn 0.259630 0.965708 0.000000
vn 0.728446 -0.062027 -0.682289
vn -0.011108 -0.046299 -0.998866
vn 0.000000 0.000000 -1.000000
vn 0.707107 0.000000 -0.707107
vn -0.011108 -0.046299 -0.998866
vn -0.705432 -0.052448 -0.706835
vn -0.707107 0.000000 -0.707107
vn 0.000000 0.000000 -1.000000
vn -0.705432 -0.052448 -0.706835
vn -0.998810 -0.048763 0.000000
vn -1.000000 0.000000 0.000000
vn -0.707107 0.000000 -0.707107
vn -0.998810 -0.048763 0.000000
vn -0.854048 -0.042666 0.518441
vn -0.859459 0.000000 0.511205
vn -1.000000 0.000000 0.000000
vn -0.854048 -0.042666 0.518441
vn -0.332407 0.166466 0.928329
vn -0.095828 0.000000 0.995398
vn -0.859459 0.000000 0.511205
vn 0.000430 0.745954 0.665998
vn 0.065870 0.581034 0.811210
vn -0.219932 0.000000 0.975515
vn 0.000496 0.000000 1.000000
vn 0.860052 -0.029867 0.509332
vn 0.998063 -0.059560 -0.017958
vn 1.000000 0.000000 0.000000
vn 0.860951 -0.000000 0.508688
vn 0.998063 -0.059560 -0.017958
vn 0.728446 -0.062027 -0.682289
vn 0.707107 0.000000 -0.707107
vn 1.000000 0.000000 0.000000
vn 0.727328 0.097108 -0.679385
vn -0.050055 0.081654 -0.995403
vn -0.020899 -0.073421 -0.997082
vn 0.664338 -0.052271 -0.745602
vn -0.050055 0.081654 -0.995403
vn -0.720686 0.063072 -0.690387
vn -0.670002 -0.070689 -0.738986
vn -0.020899 -0.073421 -0.997082
vn -0.720686 0.063072 -0.690387
vn -0.998063 0.062203 0.001047
vn -0.999505 -0.028702 0.012847
vn -0.670002 -0.070689 -0.738986
vn -0.998063 0.062203 0.001047
vn -0.855875 0.064122 0.513192
vn -0.855712 -0.001876 0.517450
vn -0.999505 -0.028702 0.012847
vn -0.855875 0.064122 0.513192
vn -0.369843 0.062775 0.926971
vn -0.391413 0.034644 0.919563
vn -0.855712 -0.001876 0.517450
vn 0.081270 0.037334 0.995993
vn 0.372645 0.012847 0.927885
vn 0.386689 -0.014901 0.922090
vn 0.002492 0.019533 0.999806
vn 0.829430 0.017849 0.558326
vn 0.998554 0.052777 0.010233
vn 0.999105 -0.033808 -0.025430
vn 0.848586 -0.028159 0.528307
vn 0.998554 0.052777 0.010233
vn 0.727328 0.097108 -0.679385
vn 0.664338 -0.052271 -0.745602
vn 0.999105 -0.033808 -0.025430
vn 0.002492 0.019533 0.999806
vn -0.391413 0.034644 0.919563
vn -0.369843 0.062775 0.926971
vn 0.081270 0.037334 0.995993
vn 0.000496 0.000000 1.000000
vn 0.233849 0.000000 0.972273
vn -0.069248 0.576120 0.814426
vn 0.000430 0.745954 0.665998
vn -0.315528 0.538063 0.781621
vn -0.258551 -0.058903 0.964200
vn 0.000248 -0.223788 0.974638
vn 0.000000 0.537863 0.843032
vn -0.236936 0.785278 0.572014
vn -0.315528 0.538063 0.781621
vn 0.000000 0.537863 0.843032
vn 0.000000 0.789124 0.614233
vn -0.168210 0.898216 0.406095
vn -0.236936 0.785278 0.572014
vn 0.000000 0.789124 0.614233
vn 0.000000 0.900938 0.433949
vn -0.103005 0.963094 0.248677
vn -0.168210 0.898216 0.406095
vn 0.000000 0.900938 0.433949
vn 0.000000 0.966920 0.255081
vn 0.848586 -0.028159 0.528307
vn 0.386689 -0.014901 0.922090
vn 0.372645 0.012847 0.927885
vn 0.829430 0.017849 0.558326
vn 0.860951 -0.000000 0.508688
vn 0.089397 -0.000000 0.995996
vn 0.337224 0.200517 0.919822
vn 0.860052 -0.029867 0.509332
vn 0.314453 0.539682 0.780937
vn 0.261016 -0.058351 0.963569
vn 0.811594 0.252357 0.526907
vn 0.695651 0.521616 0.493951
vn 0.236936 0.785278 0.572014
vn 0.314453 0.539682 0.780937
vn 0.695651 0.521616 0.493951
vn 0.492528 0.786302 0.373021
vn 0.168210 0.898216 0.406095
vn 0.236936 0.785278 0.572014
vn 0.492528 0.786302 0.373021
vn 0.348590 0.899325 0.264008
vn 0.103005 0.963094 0.248677
vn 0.168210 0.898216 0.406095
vn 0.348590 0.899325 0.264008
vn 0.205673 0.965609 0.159053
vn 1.000000 0.000000 0.000000
vn 0.707107 0.000000 -0.707107
vn 0.689394 0.222422 -0.689394
vn 0.974951 0.222422 0.000000
vn 0.860951 -0.000000 0.508688
vn 1.000000 0.000000 0.000000
vn 0.974951 0.222422 0.000000
vn 0.811594 0.252357 0.526907
vn 0.261016 -0.058351 0.963569
vn 0.089397 -0.000000 0.995996
vn 0.860951 -0.000000 0.508688
vn 0.811594 0.252357 0.526907
vn 0.000496 0.000000 1.000000
vn -0.219932 0.000000 0.975515
vn 0.065870 -0.581033 0.811210
vn 0.000430 -0.745953 0.665998
vn -0.069248 -0.576120 0.814426
vn 0.233849 0.000000 0.972273
vn 0.000496 0.000000 1.000000
vn 0.000430 -0.745953 0.665998
vn -0.859459 0.000000 0.511205
vn -0.095828 0.000000 0.995398
vn -0.258551 -0.058903 0.964200
vn -0.810439 0.252057 0.528825
vn -1.000000 0.000000 0.000000
vn -0.859459 0.000000 0.511205
vn -0.810439 0.252057 0.528825
vn -0.974950 0.222422 -0.000000
vn -0.707107 0.000000 -0.707107
vn -1.000000 0.000000 0.000000
vn -0.974950 0.222422 -0.000000
vn -0.689394 0.222422 -0.689394
vn 0.000000 0.000000 -1.000000
vn -0.707107 0.000000 -0.707107
vn -0.689394 0.222422 -0.689394
vn -0.000000 0.222422 -0.974950
vn 0.707107 0.000000 -0.707107
vn 0.000000 0.000000 -1.000000
vn -0.000000 0.222422 -0.974950
vn 0.689394 0.222422 -0.689394
vn -0.027829 0.224706 0.974029
vn 0.337224 0.200517 0.919822
vn 0.065870 0.581034 0.811210
vn 0.000430 0.745954 0.665998
vn 0.337224 0.200517 0.919822
vn 0.089397 -0.000000 0.995996
vn -0.219932 0.000000 0.975515
vn 0.065870 0.581034 0.811210
vn -0.095828 0.000000 0.995398
vn -0.332407 0.166466 0.928329
vn -0.069248 0.576120 0.814426
vn 0.233849 0.000000 0.972273
vn -0.332407 0.166466 0.928329
vn -0.027829 0.224706 0.974029
vn 0.000430 0.745954 0.665998
vn -0.069248 0.576120 0.814426
vn 0.089397 -0.000000 0.995996
vn 0.261016 -0.058351 0.963569
vn 0.065870 -0.581033 0.811210
vn -0.219932 0.000000 0.975515
vn 0.261016 -0.058351 0.963569
vn 0.000248 -0.223788 0.974638
vn 0.000430 -0.745953 0.665998
vn 0.065870 -0.581033 0.811210
vn -0.258551 -0.058903 0.964200
vn -0.095828 0.000000 0.995398
vn 0.233849 0.000000 0.972273
vn -0.069248 -0.576120 0.814426
vn 0.000248 -0.223788 0.974638
vn -0.258551 -0.058903 0.964200
vn -0.069248 -0.576120 0.814426
vn 0.000430 -0.745953 0.665998
vn 0.653523 -0.266398 -0.708478
vn -0.057066 -0.290906 -0.955048
vn -0.050055 0.081654 -0.995403
vn 0.727328 0.097108 -0.679385
vn -0.057066 -0.290906 -0.955048
vn -0.671190 -0.237334 -0.702266
vn -0.720686 0.063072 -0.690387
vn -0.050055 0.081654 -0.995403
vn -0.671190 -0.237334 -0.702266
vn -0.948286 -0.317293 -0.008844
vn -0.998063 0.062203 0.001047
vn -0.720686 0.063072 -0.690387
vn -0.948286 -0.317293 -0.008844
vn -0.786566 -0.438000 0.435282
vn -0.855875 0.064122 0.513192
vn -0.998063 0.062203 0.001047
vn -0.786566 -0.438000 0.435282
vn -0.244238 -0.680653 0.690695
vn -0.369843 0.062775 0.926971
vn -0.855875 0.064122 0.513192
vn 0.081270 0.037334 0.995993
vn -0.369843 0.062775 0.926971
vn -0.244238 -0.680653 0.690695
vn 0.074660 -0.816037 0.573158
vn 0.074660 -0.816037 0.573158
vn 0.296677 -0.647047 0.702362
vn 0.372645 0.012847 0.927885
vn 0.081270 0.037334 0.995993
vn 0.829430 0.017849 0.558326
vn 0.372645 0.012847 0.927885
vn 0.296677 -0.647047 0.702362
vn 0.723303 -0.472618 0.503454
vn 0.723303 -0.472618 0.503454
vn 0.932336 -0.359899 0.034953
vn 0.998554 0.052777 0.010233
vn 0.829430 0.017849 0.558326
vn 0.932336 -0.359899 0.034953
vn 0.653523 -0.266398 -0.708478
vn 0.727328 0.097108 -0.679385
vn 0.998554 0.052777 0.010233
vn 0.999105 -0.033808 -0.025430
vn 0.664338 -0.052271 -0.745602
vn 0.728446 -0.062027 -0.682289
vn 0.998063 -0.059560 -0.017958
vn 0.848586 -0.028159 0.528307
vn 0.999105 -0.033808 -0.025430
vn 0.998063 -0.059560 -0.017958
vn 0.860052 -0.029867 0.509332
vn 0.337224 0.200517 0.919822
vn 0.386689 -0.014901 0.922090
vn 0.848586 -0.028159 0.528307
vn 0.860052 -0.029867 0.509332
vn 0.002492 0.019533 0.999806
vn 0.386689 -0.014901 0.922090
vn 0.337224 0.200517 0.919822
vn -0.027829 0.224706 0.974029
vn -0.332407 0.166466 0.928329
vn -0.391413 0.034644 0.919563
vn 0.002492 0.019533 0.999806
vn -0.027829 0.224706 0.974029
vn -0.855712 -0.001876 0.517450
vn -0.391413 0.034644 0.919563
vn -0.332407 0.166466 0.928329
vn -0.854048 -0.042666 0.518441
vn -0.999505 -0.028702 0.012847
vn -0.855712 -0.001876 0.517450
vn -0.854048 -0.042666 0.518441
vn -0.998810 -0.048763 0.000000
vn -0.670002 -0.070689 -0.738986
vn -0.999505 -0.028702 0.012847
vn -0.998810 -0.048763 0.000000
vn -0.705432 -0.052448 -0.706835
vn -0.020899 -0.073421 -0.997082
vn -0.670002 -0.070689 -0.738986
vn -0.705432 -0.052448 -0.706835
vn -0.011108 -0.046299 -0.998866
vn 0.664338 -0.052271 -0.745602
vn -0.020899 -0.073421 -0.997082
vn -0.011108 -0.046299 -0.998866
vn 0.728446 -0.062027 -0.682289
s off
g hair_body
usemtl Hairther_initialShadingGroup
f 43/1/1 44/2/2 10/3/3 9/4/4
f 44/2/5 45/5/6 11/6/7 10/3/8
f 45/5/9 46/7/10 12/8/11 11/6/12
f 46/7/13 47/9/14 13/10/15 12/8/16
f 47/9/17 61/11/18 62/12/19 13/10/20
f 48/135/21 68/14/22 69/15/23 14/16/24
f 49/17/25 50/18/26 16/19/27 15/20/28
f 50/18/29 43/1/30 9/4/31 16/19/32
f 2/23/33 1/24/34 17/25/35
f 3/26/36 2/23/37 17/25/38
f 4/27/39 3/26/40 17/25/41
f 5/28/42 4/27/43 17/25/44
f 6/29/45 59/30/46 5/28/47 17/25/48
f 7/31/49 66/32/50 6/29/51 17/25/52
f 8/33/53 7/31/54 17/25/55
f 1/24/56 8/33/57 17/25/58
f 34/34/59 35/35/60 36/36/61
f 35/35/62 37/37/63 36/36/64
f 37/37/65 38/38/66 36/36/67
f 38/38/68 39/39/69 36/36/70
f 39/39/71 65/40/72 40/41/73 36/36/74
f 40/41/75 72/42/76 41/43/77 36/36/78
f 41/43/79 42/44/80 36/36/81
f 42/44/82 34/34/83 36/36/84
f 9/45/85 10/46/86 19/47/87 18/48/88
f 10/46/89 11/49/90 20/50/91 19/47/92
f 11/49/93 12/51/94 21/52/95 20/50/96
f 12/51/97 13/53/98 22/54/99 21/52/100
f 13/53/101 62/55/102 63/56/103 22/54/104
f 14/57/105 69/58/106 70/59/107 23/60/108
f 15/61/109 16/62/110 25/63/111 24/64/112
f 16/62/113 9/45/114 18/48/115 25/63/116
f 18/48/117 19/47/118 27/65/119 26/66/120
f 19/47/121 20/50/122 28/67/123 27/65/124
f 20/50/125 21/52/126 29/68/127 28/67/128
f 21/52/129 22/54/130 30/69/131 29/68/132
f 22/54/133 63/56/134 64/70/135 30/69/136
f 23/60/137 70/59/138 71/71/139 31/72/140
f 24/64/141 25/63/142 33/73/143 32/74/144
f 25/63/145 18/48/146 26/66/147 33/73/148
f 26/66/149 27/65/150 35/35/151 34/34/152
f 27/65/153 28/67/154 37/37/155 35/35/156
f 28/67/157 29/68/158 38/38/159 37/37/160
f 29/68/161 30/69/162 39/39/163 38/38/164
f 30/69/165 64/70/166 65/40/167 39/39/168
f 31/72/169 71/71/170 72/42/171 40/41/172
f 32/74/173 33/73/174 42/44/175 41/43/176
f 33/73/177 26/66/178 34/34/179 42/44/180
f 51/21/181 52/22/182 81/75/183 73/76/184
f 52/22/185 53/77/186 80/78/187 81/75/188
f 53/77/189 54/79/190 79/80/191 80/78/192
f 54/79/193 55/81/194 78/82/195 79/80/196
f 55/81/197 60/83/198 77/84/199 78/82/200
f 82/137/201 83/86/202 84/87/203 85/88/204
f 57/89/205 58/90/206 74/91/207 75/92/208
f 58/90/209 51/21/210 73/76/211 74/91/212
f 91/93/213 92/94/214 110/95/215 101/96/216
f 92/94/217 93/97/218 109/98/219 110/95/220
f 93/97/221 94/99/222 108/100/223 109/98/224
f 94/99/225 95/101/226 107/102/227 108/100/228
f 95/101/229 96/103/230 106/104/231 107/102/232
f 97/134/233 98/106/234 104/107/235 105/108/236
f 99/109/237 100/110/238 102/111/239 103/112/240
f 100/110/241 91/93/242 101/96/243 102/111/244
f 105/132/245 106/104/246 96/103/247 97/105/248
f 85/138/249 86/113/250 87/114/251 82/85/252
f 62/12/253 61/11/254 48/13/255 14/139/256
f 63/56/257 62/55/258 14/57/259 23/60/260
f 64/70/261 63/56/262 23/60/263 31/72/264
f 65/40/265 64/70/266 31/72/267 40/41/268
f 103/112/269 104/107/270 98/106/271 99/109/272
f 75/92/273 76/115/274 67/116/275 57/89/276
f 69/15/277 68/14/278 49/17/279 15/20/280
f 70/59/281 69/58/282 15/61/283 24/64/284
f 71/71/285 70/59/286 24/64/287 32/74/288
f 72/42/289 71/71/290 32/74/291 41/43/292
f 74/91/293 73/76/294 43/1/295 50/18/296
f 75/92/297 74/91/298 50/18/299 49/17/300
f 68/14/301 76/115/302 75/92/303 49/17/304
f 85/88/305 84/87/306 88/117/307 89/118/308
f 90/119/309 86/113/310 85/138/311 89/136/312
f 78/82/313 77/84/314 61/11/315 47/9/316
f 79/80/317 78/82/318 47/9/319 46/7/320
f 80/78/321 79/80/322 46/7/323 45/5/324
f 81/75/325 80/78/326 45/5/327 44/2/328
f 73/76/329 81/75/330 44/2/331 43/1/332
f 56/131/333 67/116/334 83/86/335 82/137/336
f 67/116/337 76/115/338 84/87/339 83/86/340
f 77/84/341 60/83/342 87/114/343 86/113/344
f 60/83/345 56/120/346 82/85/347 87/114/348
f 76/115/349 68/14/350 88/117/351 84/87/352
f 68/14/353 48/135/354 89/118/355 88/117/356
f 61/11/357 77/84/358 86/113/359 90/119/360
f 48/13/361 61/11/362 90/119/363 89/136/364
f 1/121/365 2/122/366 92/94/367 91/93/368
f 2/122/369 3/123/370 93/97/371 92/94/372
f 3/123/373 4/124/374 94/99/375 93/97/376
f 4/124/377 5/125/378 95/101/379 94/99/380
f 5/125/381 59/126/382 96/103/383 95/101/384
f 97/105/385 96/103/386 59/126/387 6/133/388
f 6/127/389 66/128/390 98/106/391 97/134/392
f 99/109/393 98/106/394 66/128/395 7/129/396
f 7/129/397 8/130/398 100/110/399 99/109/400
f 8/130/401 1/121/402 91/93/403 100/110/404
f 102/111/405 101/96/406 51/21/407 58/90/408
f 103/112/409 102/111/410 58/90/411 57/89/412
f 67/116/413 104/107/414 103/112/415 57/89/416
f 105/108/417 104/107/418 67/116/419 56/131/420
f 60/83/421 106/104/422 105/132/423 56/120/424
f 107/102/425 106/104/426 60/83/427 55/81/428
f 108/100/429 107/102/430 55/81/431 54/79/432
f 109/98/433 108/100/434 54/79/435 53/77/436
f 110/95/437 109/98/438 53/77/439 52/22/440
f 101/96/441 110/95/442 52/22/443 51/21/444
