# This file uses centimeters as units for non-parametric coordinates.

mtllib Axe 1.mtl
g default
v -0.500000 0.072707 2.815181
v -0.500000 0.072707 1.815181
v -0.500000 -0.072707 2.815181
v -0.500000 -0.072707 1.815181
v 0.015393 0.216549 2.952735
v 0.015393 0.216549 1.677626
v 0.015393 -0.216549 1.677626
v 0.015393 -0.216549 2.952735
v -1.587846 0.021661 3.389518
v -1.587846 0.021661 1.240843
v -1.587846 -0.021661 1.240843
v -1.587846 -0.021661 3.389518
v 0.015393 -0.216549 2.315181
v -0.500000 -0.072707 2.315181
v -1.837086 -0.021661 2.315181
v -1.837086 0.021661 2.315181
v -0.500000 0.072707 2.315181
v 0.015393 0.216549 2.315181
v 0.530786 0.072707 2.815181
v 0.530786 0.072707 1.815181
v 0.530786 -0.072707 2.815181
v 0.530786 -0.072707 1.815181
v 1.618631 0.021661 3.389518
v 1.618631 0.010442 1.240843
v 1.618631 -0.010442 1.240843
v 1.618631 -0.021661 3.389518
v 0.530786 -0.072707 2.315181
v 1.867872 -0.014739 2.315181
v 1.867872 0.014739 2.315181
v 0.530786 0.072707 2.315181
v 1.199329 0.161326 2.315181
v 1.074708 0.079416 1.528012
v 1.074708 -0.079416 1.528012
v 1.199329 -0.161326 2.315181
v 1.074708 -0.216549 3.102349
v 1.074708 0.216549 3.102349
v -1.043923 0.216549 3.102349
v -1.168543 0.216549 2.315181
v -1.043923 0.216549 1.528012
v -1.043923 -0.216549 1.528012
v -1.168543 -0.216549 2.315181
v -1.043923 -0.216549 3.102349
vt 0.643469 0.431489
vt 0.642841 0.498531
vt 0.561102 0.497786
vt 0.360710 0.273717
vt 0.645036 0.264576
vt 0.644989 0.269589
vt 0.516381 0.268788
vt 0.516433 0.263022
vt 0.621919 0.953920
vt 0.646556 0.102623
vt 0.581620 0.103268
vt 0.285736 0.737454
vt 0.929322 0.260658
vt 0.703604 0.959852
vt 0.990719 0.715008
vt 0.929140 0.279053
vt 0.644248 0.348473
vt 0.542053 0.353514
vt 0.438844 0.237809
vt 0.645777 0.185698
vt 0.747974 0.180700
vt 0.851154 0.296490
vt 0.773589 0.271203
vt 0.773646 0.265437
vt 0.724575 0.499328
vt 0.708440 0.430967
vt 0.642221 0.565551
vt 0.577202 0.566141
vt 0.638157 0.728033
vt 0.509804 0.721801
vt 0.509933 0.719019
vt 0.638314 0.724625
vt 0.353988 0.722398
vt 0.627464 0.886854
vt 0.692309 0.890855
vt 0.922477 0.730108
vt 0.641516 0.647242
vt 0.539060 0.639215
vt 0.431676 0.726847
vt 0.634254 0.805381
vt 0.735823 0.818165
vt 0.845578 0.708372
vt 0.707189 0.567387
vt 0.766730 0.729317
vt 0.766467 0.735079
vt 0.543691 0.178782
vt 0.438355 0.292615
vt 0.531497 0.803945
vt 0.432606 0.706774
vt 0.851695 0.241685
vt 0.843078 0.763123
vt 0.746332 0.355432
vt 0.743830 0.643779
vt 0.921638 0.748485
vt 0.354839 0.704022
vt 0.562810 0.880190
vt 0.711470 0.104487
vt 0.360874 0.255321
vt 0.578520 0.429746
vt 0.293068 0.291312
vt 0.565324 0.035290
vt 0.996980 0.243128
vt 0.647189 0.035309
vt 0.729038 0.036827
vt 0.540357 0.946389
vt 0.988220 0.769741
vt 0.996440 0.297915
vt 0.288271 0.682723
vt 0.293556 0.236524
vn -0.268819 0.963191 0.000000
vn -0.268819 0.963191 0.000000
vn -0.268819 0.963191 0.000000
vn -0.268819 0.963191 0.000000
vn -1.000000 0.000000 -0.000000
vn -1.000000 0.000000 -0.000000
vn -0.974129 0.000000 -0.225992
vn -0.974129 0.000000 -0.225992
vn 0.000000 -1.000000 0.000000
vn 0.015542 -0.999879 0.000000
vn 0.028779 -0.999494 0.013523
vn 0.000000 -1.000000 0.000000
vn 0.000000 0.000000 -1.000000
vn 0.000000 0.000000 -1.000000
vn 0.134161 0.000000 -0.990960
vn 0.134161 0.000000 -0.990960
vn 0.134161 0.000000 0.990960
vn 0.000000 0.000000 1.000000
vn 0.000000 0.000000 1.000000
vn 0.134161 0.000000 0.990960
vn -0.293372 0.955998 -0.000000
vn -0.111043 0.993816 -0.000000
vn -0.132795 0.990549 -0.034335
vn -0.292864 0.954343 -0.058818
vn 0.466884 0.000000 -0.884319
vn 0.466884 0.000000 -0.884319
vn 0.466884 0.000000 -0.884319
vn 0.466884 0.000000 -0.884319
vn -0.132795 -0.990549 -0.034335
vn -0.111043 -0.993816 0.000000
vn -0.293372 -0.955998 0.000000
vn -0.292864 -0.954343 -0.058818
vn 0.466884 0.000000 0.884319
vn 0.466884 0.000000 0.884319
vn 0.466884 0.000000 0.884319
vn 0.466884 0.000000 0.884319
vn 0.028779 -0.999494 -0.013523
vn 0.015542 -0.999879 0.000000
vn 0.000000 -1.000000 0.000000
vn 0.000000 -1.000000 0.000000
vn -0.293372 -0.955998 0.000000
vn -0.111043 -0.993816 0.000000
vn -0.132795 -0.990549 0.034335
vn -0.292864 -0.954343 0.058818
vn -0.974129 0.000000 0.225992
vn -1.000000 0.000000 -0.000000
vn -1.000000 0.000000 -0.000000
vn -0.974129 0.000000 0.225992
vn -0.132795 0.990549 0.034335
vn -0.111043 0.993816 -0.000000
vn -0.293372 0.955998 -0.000000
vn -0.292864 0.954343 0.058818
vn 0.000000 1.000000 0.000000
vn 0.000000 1.000000 0.000000
vn 0.015542 0.999879 0.000000
vn 0.028779 0.999494 -0.013523
vn 0.010423 0.999343 -0.034706
vn 0.022347 0.997969 -0.059651
vn 0.000000 1.000000 0.000000
vn 0.000000 1.000000 0.000000
vn 1.000000 0.000000 0.000000
vn 0.974129 0.000000 -0.225993
vn 0.974129 0.000000 -0.225993
vn 1.000000 0.000000 0.000000
vn 0.000000 -1.000000 0.000000
vn 0.000000 -1.000000 0.000000
vn 0.022347 -0.997969 -0.059651
vn 0.010423 -0.999343 -0.034706
vn 0.000000 0.000000 -1.000000
vn 0.043145 0.000000 -0.999069
vn 0.043145 0.000000 -0.999069
vn 0.000000 0.000000 -1.000000
vn -0.134161 0.000000 0.990960
vn -0.134161 0.000000 0.990960
vn 0.000000 0.000000 1.000000
vn 0.000000 0.000000 1.000000
vn 0.087008 0.995653 -0.033246
vn 0.078234 0.991153 -0.107220
vn 0.022347 0.997969 -0.059651
vn 0.010423 0.999343 -0.034706
vn 0.043145 0.000000 -0.999069
vn -0.466884 0.000000 -0.884319
vn -0.466884 0.000000 -0.884319
vn 0.043145 0.000000 -0.999069
vn 0.022347 -0.997969 -0.059651
vn 0.078234 -0.991153 -0.107220
vn 0.087008 -0.995653 -0.033246
vn 0.010423 -0.999343 -0.034706
vn -0.134161 0.000000 0.990960
vn -0.466884 0.000000 0.884319
vn -0.466884 0.000000 0.884319
vn -0.134161 0.000000 0.990960
vn -0.028779 -0.999494 -0.013523
vn 0.000000 -1.000000 0.000000
vn 0.000000 -1.000000 0.000000
vn 0.010423 -0.999343 -0.034706
vn 0.087008 -0.995653 -0.033246
vn 0.132795 -0.990549 0.034335
vn -0.028779 -0.999494 -0.013523
vn 0.010423 -0.999343 -0.034706
vn 0.974129 0.000000 0.225993
vn 0.974129 0.000000 0.225993
vn 1.000000 0.000000 0.000000
vn 1.000000 0.000000 0.000000
vn -0.028779 0.999494 -0.013523
vn 0.132795 0.990549 0.034335
vn 0.087008 0.995653 -0.033246
vn 0.010423 0.999343 -0.034706
vn 0.000000 1.000000 0.000000
vn -0.028779 0.999494 -0.013523
vn 0.010423 0.999343 -0.034706
vn 0.000000 1.000000 0.000000
vn 0.234693 0.971753 -0.024789
vn 0.172427 0.978831 -0.110266
vn 0.078234 0.991153 -0.107220
vn 0.087008 0.995653 -0.033246
vn -0.466884 0.000000 -0.884319
vn -0.466884 0.000000 -0.884319
vn -0.466884 0.000000 -0.884319
vn -0.466884 0.000000 -0.884319
vn 0.087008 -0.995653 -0.033246
vn 0.078234 -0.991153 -0.107220
vn 0.172427 -0.978831 -0.110266
vn 0.234693 -0.971753 -0.024789
vn 0.234693 -0.971753 -0.024789
vn 0.292864 -0.954343 0.058818
vn 0.132795 -0.990549 0.034335
vn 0.087008 -0.995653 -0.033246
vn -0.466884 0.000000 0.884319
vn -0.466884 0.000000 0.884319
vn -0.466884 0.000000 0.884319
vn -0.466884 0.000000 0.884319
vn 0.087008 0.995653 -0.033246
vn 0.132795 0.990549 0.034335
vn 0.292864 0.954343 0.058818
vn 0.234693 0.971753 -0.024789
vn 0.028779 0.999494 -0.013523
vn 0.015542 0.999879 0.000000
vn -0.111043 0.993816 -0.000000
vn -0.132795 0.990549 0.034335
vn -0.132795 0.990549 -0.034335
vn -0.111043 0.993816 -0.000000
vn 0.015542 0.999879 0.000000
vn 0.028779 0.999494 0.013523
vn 0.134161 0.000000 -0.990960
vn 0.134161 0.000000 -0.990960
vn 0.466884 0.000000 -0.884319
vn 0.466884 0.000000 -0.884319
vn 0.028779 -0.999494 0.013523
vn 0.015542 -0.999879 0.000000
vn -0.111043 -0.993816 0.000000
vn -0.132795 -0.990549 -0.034335
vn -0.132795 -0.990549 0.034335
vn -0.111043 -0.993816 0.000000
vn 0.015542 -0.999879 0.000000
vn 0.028779 -0.999494 -0.013523
vn 0.134161 0.000000 0.990960
vn 0.134161 0.000000 0.990960
vn 0.466884 0.000000 0.884319
vn 0.466884 0.000000 0.884319
s off
g Axe_Head
usemtl initialShadingGroup
f 17/1/1 18/2/2 6/3/3 2/59/4
f 15/5/5 16/6/6 10/7/7 11/8/8
f 13/63/9 14/10/10 4/11/11 7/61/12
f 6/60/13 7/69/14 4/58/15 2/4/16
f 3/13/17 8/62/18 5/67/19 1/16/20
f 16/6/21 38/17/22 39/18/23 10/7/24
f 39/47/25 40/19/26 11/8/27 10/7/28
f 40/46/29 41/20/30 15/5/31 11/8/32
f 42/50/33 37/22/34 9/23/35 12/24/36
f 3/57/37 14/10/38 13/63/39 8/64/40
f 15/5/41 41/20/42 42/21/43 12/24/44
f 9/23/45 16/6/46 15/5/47 12/24/48
f 37/52/49 38/17/50 16/6/51 9/23/52
f 5/25/53 18/2/54 17/1/55 1/26/56
f 30/27/57 20/28/58 6/3/59 18/2/60
f 28/29/61 25/30/62 24/31/63 29/32/64
f 13/9/65 7/65/66 22/56/67 27/34/68
f 6/68/69 20/55/70 22/33/71 7/12/72
f 21/54/73 19/36/74 5/15/75 8/66/76
f 31/37/77 32/38/78 20/28/79 30/27/80
f 20/55/81 32/49/82 33/39/83 22/33/84
f 22/56/85 33/48/86 34/40/87 27/34/88
f 21/54/89 35/51/90 36/42/91 19/36/92
f 21/35/93 8/14/94 13/9/95 27/34/96
f 34/40/97 35/41/98 21/35/99 27/34/100
f 23/44/101 26/45/102 28/29/103 29/32/104
f 19/43/105 36/53/106 31/37/107 30/27/108
f 5/25/109 19/43/110 30/27/111 18/2/112
f 29/32/113 24/31/114 32/38/115 31/37/116
f 33/39/117 32/49/118 24/31/119 25/30/120
f 34/40/121 33/48/122 25/30/123 28/29/124
f 28/29/125 26/45/126 35/41/127 34/40/128
f 36/42/129 35/51/130 26/45/131 23/44/132
f 31/37/133 36/53/134 23/44/135 29/32/136
f 1/26/137 17/1/138 38/17/139 37/52/140
f 39/18/141 38/17/142 17/1/143 2/59/144
f 2/4/145 4/58/146 40/19/147 39/47/148
f 4/11/149 14/10/150 41/20/151 40/46/152
f 42/21/153 41/20/154 14/10/155 3/57/156
f 3/13/157 1/16/158 37/22/159 42/50/160
g default
v -0.193281 -0.212507 3.257827
v 0.183949 -0.221900 3.257827
v -0.208596 0.208484 3.257827
v 0.203591 0.215686 3.257827
v -0.126605 0.128252 -3.115370
v 0.124162 0.135454 -3.115370
v -0.111290 -0.132276 -3.115370
v 0.104520 -0.141668 -3.115370
v -0.231111 0.208484 1.303131
v 0.277825 0.215686 1.303131
v 0.258182 -0.221900 1.303131
v -0.215795 -0.212507 1.303131
v -0.144142 -0.132276 -2.488092
v 0.154820 -0.141668 -2.488092
v 0.174463 0.135454 -2.488092
v -0.159457 0.128252 -2.488092
v -0.103743 0.208484 -0.521252
v 0.157979 0.215686 -0.521252
v 0.138337 -0.221900 -0.521252
v -0.088427 -0.212507 -0.521252
v -0.199198 -0.132276 -2.912603
v 0.198068 -0.141668 -2.912603
v 0.217711 0.135454 -2.912603
v -0.214513 0.128252 -2.912603
v -0.375918 0.208484 2.996542
v 0.377827 0.215686 2.996542
v 0.358184 -0.221900 2.996542
v -0.360603 -0.212507 2.996542
v 0.000000 -0.256873 3.257827
v 0.003457 -0.256873 2.996542
v 0.025859 -0.256873 1.303131
v 0.029621 -0.256873 -0.521252
v 0.010005 -0.176642 -2.488092
v 0.004101 -0.176642 -2.912603
v 0.001281 -0.176642 -3.115370
v 0.001281 0.176642 -3.115370
v 0.004101 0.176642 -2.912603
v 0.010005 0.176642 -2.488092
v 0.029621 0.256873 -0.521252
v 0.025859 0.256873 1.303131
v 0.003457 0.256873 2.996542
v 0.000000 0.256873 3.257827
v -0.310335 0.000000 3.257827
v 0.000000 0.000000 3.257827
v 0.310335 0.000000 3.257827
v 0.484570 0.000000 2.996542
v 0.384568 0.000000 1.303131
v 0.264723 0.000000 -0.521252
v 0.281206 0.000000 -2.488092
v 0.324454 0.000000 -2.912603
v 0.230906 0.000000 -3.115370
v 0.001281 0.000000 -3.115370
v -0.228344 0.000000 -3.115370
v -0.316252 0.000000 -2.912603
v -0.261196 0.000000 -2.488092
v -0.205482 0.000000 -0.521252
v -0.332850 0.000000 1.303131
v -0.477657 0.000000 2.996542
vt 0.282027 0.094544
vt 0.147705 0.068083
vt 0.107039 0.068711
vt 0.039248 0.099241
vt 0.236967 0.825374
vt 0.243668 0.578407
vt 0.071777 0.578029
vt 0.085367 0.825485
vt 0.122350 0.922634
vt 0.151868 0.922504
vt 0.152596 0.944604
vt 0.085564 0.906242
vt 0.149349 0.575228
vt 0.150708 0.824072
vt 0.131677 0.824155
vt 0.134798 0.575343
vt 0.102292 0.576374
vt 0.107376 0.824899
vt 0.214687 0.825264
vt 0.193800 0.825234
vt 0.196314 0.576102
vt 0.225753 0.577287
vt 0.272562 0.350347
vt 0.291821 0.129657
vt 0.047918 0.134672
vt 0.055389 0.348139
vt 0.076101 0.135692
vt 0.085949 0.345897
vt 0.147235 0.130149
vt 0.148254 0.344618
vt 0.118483 0.344922
vt 0.105677 0.133211
vt 0.239837 0.346658
vt 0.210344 0.344607
vt 0.218091 0.133686
vt 0.245210 0.132719
vt 0.150983 0.877784
vt 0.128884 0.877518
vt 0.107975 0.876920
vt 0.088817 0.879157
vt 0.238794 0.881603
vt 0.211883 0.879068
vt 0.193704 0.877404
vt 0.151123 0.902110
vt 0.137354 0.904258
vt 0.109848 0.903661
vt 0.192098 0.903828
vt 0.215226 0.905856
vt 0.147209 0.098852
vt 0.120762 0.097163
vt 0.216199 0.096820
vt 0.175197 0.042657
vt 0.189990 0.131926
vt 0.175144 0.096510
vt 0.179401 0.344181
vt 0.165419 0.575320
vt 0.171196 0.824403
vt 0.174289 0.877875
vt 0.166431 0.904506
vt 0.181427 0.920703
vt 0.001916 0.130942
vt 0.062716 0.882590
vt 0.054777 0.579410
vt 0.023433 0.351576
vt 0.063942 0.826300
vt 0.168852 0.937802
vt 0.069013 0.909082
vt 0.232815 0.908183
vt 0.136623 0.939770
vt 0.077615 0.098216
vt 0.188475 0.069697
vt 0.253226 0.097674
vt 0.011406 0.095773
vt 0.148132 0.035913
vt 0.121603 0.041071
vn 0.000000 0.000000 1.000000
vn 0.000000 0.000000 1.000000
vn 0.000000 0.000000 1.000000
vn 0.000000 0.000000 1.000000
vn -0.029349 0.999188 -0.027591
vn -0.014259 0.999694 -0.020233
vn 0.238370 0.970937 -0.021492
vn 0.253303 0.967072 -0.024708
vn -0.000001 0.000000 -1.000000
vn 0.000000 0.000000 -1.000000
vn 0.000000 0.000000 -1.000000
vn 0.000000 0.000000 -1.000000
vn -0.023562 -0.999526 -0.019831
vn -0.040644 -0.998801 -0.027282
vn 0.246286 -0.968886 -0.024570
vn 0.229747 -0.973023 -0.021053
vn 0.879482 0.474542 -0.036349
vn 0.997990 -0.050722 -0.037994
vn 0.998243 -0.057939 0.012376
vn 0.847577 0.530643 0.005610
vn -0.848831 0.528175 0.022760
vn -0.998307 -0.046939 0.034361
vn -0.998650 -0.041735 -0.030914
vn -0.881972 0.470201 -0.032196
vn -0.010613 0.999924 -0.006257
vn -0.017120 0.999852 0.001503
vn 0.130770 0.991412 -0.001205
vn 0.154142 0.988040 -0.004080
vn 0.895497 0.443183 0.040904
vn 0.998714 -0.042016 0.028388
vn 0.997074 -0.044573 -0.062103
vn 0.894836 0.442856 -0.056098
vn -0.021177 -0.999775 0.001322
vn -0.016514 -0.999846 -0.005998
vn 0.141612 -0.989915 -0.003747
vn 0.118661 -0.992934 -0.001162
vn -0.896567 0.437519 -0.068876
vn -0.996317 -0.036342 -0.077663
vn -0.999434 -0.033400 0.004001
vn -0.898591 0.438507 0.015670
vn -0.040644 -0.998801 -0.027282
vn -0.032524 -0.999445 -0.007248
vn 0.206512 -0.978443 -0.001239
vn 0.246286 -0.968886 -0.024570
vn 0.847577 0.530643 0.005610
vn 0.998243 -0.057939 0.012376
vn 0.996062 -0.061062 -0.064284
vn 0.783448 0.617388 -0.071000
vn -0.024043 0.999682 -0.007592
vn -0.029349 0.999188 -0.027591
vn 0.253303 0.967072 -0.024708
vn 0.217025 0.976165 -0.001556
vn -0.782564 0.620786 -0.047101
vn -0.997972 -0.049307 -0.040270
vn -0.998307 -0.046939 0.034361
vn -0.848831 0.528175 0.022760
vn -0.014259 0.999694 -0.020233
vn -0.010613 0.999924 -0.006257
vn 0.154142 0.988040 -0.004080
vn 0.238370 0.970937 -0.021492
vn 0.894836 0.442856 -0.056098
vn 0.997074 -0.044573 -0.062103
vn 0.997990 -0.050722 -0.037994
vn 0.879482 0.474542 -0.036349
vn -0.016514 -0.999846 -0.005998
vn -0.023562 -0.999526 -0.019831
vn 0.229747 -0.973023 -0.021053
vn 0.141612 -0.989915 -0.003747
vn -0.881972 0.470201 -0.032196
vn -0.998650 -0.041735 -0.030914
vn -0.996317 -0.036342 -0.077663
vn -0.896567 0.437519 -0.068876
vn -0.032524 -0.999445 -0.007248
vn -0.042603 -0.997442 -0.057403
vn 0.228750 -0.971966 -0.054359
vn 0.206512 -0.978443 -0.001239
vn 0.783448 0.617388 -0.071000
vn 0.996062 -0.061062 -0.064284
vn 0.905637 -0.072427 -0.417823
vn 0.738443 0.581923 -0.340687
vn -0.033393 0.997742 -0.058270
vn -0.024043 0.999682 -0.007592
vn 0.217025 0.976165 -0.001556
vn 0.237405 0.969771 -0.056415
vn -0.915770 -0.061120 -0.397025
vn -0.997972 -0.049307 -0.040270
vn -0.782564 0.620786 -0.047101
vn -0.741812 0.588459 -0.321607
vn -0.017120 0.999852 0.001503
vn -0.020066 0.998545 0.050059
vn 0.140938 0.988858 0.047924
vn 0.130770 0.991412 -0.001205
vn 0.831266 -0.041507 0.554324
vn 0.998714 -0.042016 0.028388
vn 0.895497 0.443183 0.040904
vn 0.769320 0.380738 0.513016
vn -0.024422 -0.998589 0.047167
vn -0.021177 -0.999775 0.001322
vn 0.118661 -0.992934 -0.001162
vn 0.128645 -0.990725 0.043744
vn -0.898591 0.438507 0.015670
vn -0.999434 -0.033400 0.004001
vn -0.841634 -0.034122 0.538969
vn -0.778917 0.380107 0.498806
vn -0.145455 -0.989353 -0.004802
vn -0.021177 -0.999775 0.001322
vn -0.024422 -0.998589 0.047167
vn -0.157035 -0.986365 0.049243
vn -0.170772 -0.985282 -0.007557
vn -0.016514 -0.999846 -0.005998
vn -0.021177 -0.999775 0.001322
vn -0.145455 -0.989353 -0.004802
vn -0.272259 -0.962019 -0.019847
vn -0.023562 -0.999526 -0.019831
vn -0.016514 -0.999846 -0.005998
vn -0.170772 -0.985282 -0.007557
vn -0.286997 -0.957796 -0.016095
vn -0.040644 -0.998801 -0.027282
vn -0.023562 -0.999526 -0.019831
vn -0.272259 -0.962019 -0.019847
vn -0.246596 -0.969113 0.003118
vn -0.032524 -0.999445 -0.007248
vn -0.040644 -0.998801 -0.027282
vn -0.286997 -0.957796 -0.016095
vn -0.270010 -0.961189 -0.056653
vn -0.042603 -0.997442 -0.057403
vn -0.032524 -0.999445 -0.007248
vn -0.246596 -0.969113 0.003118
vn 0.000001 0.000000 -1.000000
vn 0.000000 0.000000 -1.000000
vn 0.000000 0.000000 -1.000000
vn 0.000001 0.000000 -1.000000
vn -0.247227 0.968953 0.003062
vn -0.024043 0.999682 -0.007592
vn -0.033393 0.997742 -0.058270
vn -0.268582 0.961607 -0.056353
vn -0.283954 0.958697 -0.016440
vn -0.029349 0.999188 -0.027591
vn -0.024043 0.999682 -0.007592
vn -0.247227 0.968953 0.003062
vn -0.270573 0.962490 -0.020058
vn -0.014259 0.999694 -0.020233
vn -0.029349 0.999188 -0.027591
vn -0.283954 0.958697 -0.016440
vn -0.175627 0.984426 -0.007771
vn -0.010613 0.999924 -0.006257
vn -0.014259 0.999694 -0.020233
vn -0.270573 0.962490 -0.020058
vn -0.150871 0.988541 -0.004932
vn -0.017120 0.999852 0.001503
vn -0.010613 0.999924 -0.006257
vn -0.175627 0.984426 -0.007771
vn -0.162203 0.985446 0.050863
vn -0.020066 0.998545 0.050059
vn -0.017120 0.999852 0.001503
vn -0.150871 0.988541 -0.004932
vn 0.000000 0.000000 1.000000
vn 0.000000 0.000000 1.000000
vn 0.000000 0.000000 1.000000
vn 0.000000 0.000000 1.000000
vn 0.000000 0.000000 1.000000
vn 0.000000 0.000000 1.000000
vn 0.000000 0.000000 1.000000
vn 0.000000 0.000000 1.000000
vn 0.000000 0.000000 1.000000
vn 0.000000 0.000000 1.000000
vn 0.000000 0.000000 1.000000
vn 0.000000 0.000000 1.000000
vn 0.751841 -0.428221 0.501360
vn 0.868226 -0.494509 0.040557
vn 0.998714 -0.042016 0.028388
vn 0.831266 -0.041507 0.554324
vn 0.997074 -0.044573 -0.062103
vn 0.998714 -0.042016 0.028388
vn 0.868226 -0.494509 0.040557
vn 0.867653 -0.494183 -0.054417
vn 0.997990 -0.050722 -0.037994
vn 0.997074 -0.044573 -0.062103
vn 0.867653 -0.494183 -0.054417
vn 0.849457 -0.526464 -0.035481
vn 0.998243 -0.057939 0.012376
vn 0.997990 -0.050722 -0.037994
vn 0.849457 -0.526464 -0.035481
vn 0.813467 -0.581597 0.004051
vn 0.996062 -0.061062 -0.064284
vn 0.998243 -0.057939 0.012376
vn 0.813467 -0.581597 0.004051
vn 0.744468 -0.664158 -0.068278
vn 0.905637 -0.072427 -0.417823
vn 0.996062 -0.061062 -0.064284
vn 0.744468 -0.664158 -0.068278
vn 0.705567 -0.629454 -0.325519
vn -0.000000 0.000000 -1.000000
vn 0.000000 0.000000 -1.000000
vn -0.000001 0.000000 -1.000000
vn -0.000001 0.000000 -1.000000
vn 0.000001 0.000000 -1.000000
vn 0.000000 0.000000 -1.000000
vn -0.000000 0.000000 -1.000000
vn 0.000001 0.000000 -1.000000
vn -0.712280 -0.630315 -0.308804
vn -0.748104 -0.662016 -0.045561
vn -0.997972 -0.049307 -0.040270
vn -0.915770 -0.061120 -0.397025
vn -0.998307 -0.046939 0.034361
vn -0.997972 -0.049307 -0.040270
vn -0.748104 -0.662016 -0.045561
vn -0.819672 -0.572456 0.020762
vn -0.998650 -0.041735 -0.030914
vn -0.998307 -0.046939 0.034361
vn -0.819672 -0.572456 0.020762
vn -0.856714 -0.514824 -0.031583
vn -0.996317 -0.036342 -0.077663
vn -0.998650 -0.041735 -0.030914
vn -0.856714 -0.514824 -0.031583
vn -0.873938 -0.481386 -0.067079
vn -0.999434 -0.033400 0.004001
vn -0.996317 -0.036342 -0.077663
vn -0.873938 -0.481386 -0.067079
vn -0.875801 -0.482412 0.015863
vn -0.841634 -0.034122 0.538969
vn -0.999434 -0.033400 0.004001
vn -0.875801 -0.482412 0.015863
vn -0.763938 -0.420795 0.489214
s off
g Axe_Handle
usemtl initialShadingGroup
f 84/143/161 86/71/162 87/72/163 46/144/164
f 80/134/165 81/132/166 60/76/167 57/77/168
f 93/78/169 94/79/170 78/80/171 48/138/172
f 74/82/173 75/83/174 56/84/175 61/85/176
f 60/76/177 90/86/178 91/87/179 57/77/180
f 58/88/181 97/89/182 98/90/183 59/91/184
f 82/133/185 83/130/186 68/94/187 52/95/188
f 68/94/189 88/96/190 89/97/191 52/95/192
f 72/98/193 73/99/194 53/100/195 69/101/196
f 51/102/197 99/103/198 100/104/199 67/105/200
f 75/83/201 76/106/202 64/107/203 56/84/204
f 57/77/205 91/87/206 92/108/207 65/109/208
f 79/131/209 80/134/210 57/77/211 65/109/212
f 66/111/213 96/112/214 97/89/215 58/88/216
f 81/132/217 82/133/218 52/95/219 60/76/220
f 52/95/221 89/97/222 90/86/223 60/76/224
f 73/99/225 74/82/226 61/85/227 53/100/228
f 59/91/229 98/90/230 99/103/231 51/102/232
f 76/106/233 77/113/234 50/114/235 64/107/236
f 65/109/237 92/108/238 93/115/239 48/81/240
f 78/136/241 79/131/242 65/109/243 48/81/244
f 95/116/245 96/112/246 66/111/247 47/117/248
f 83/130/249 84/142/250 46/73/251 68/94/252
f 87/139/253 88/96/254 68/94/255 46/73/256
f 71/118/257 72/98/258 69/101/259 44/119/260
f 67/105/261 100/104/262 85/120/263 45/141/264
f 70/122/265 72/98/266 71/118/267 43/123/268
f 54/124/269 73/99/270 72/98/271 70/122/272
f 62/125/273 74/82/274 73/99/275 54/124/276
f 55/126/277 75/83/278 74/82/279 62/125/280
f 63/127/281 76/106/282 75/83/283 55/126/284
f 49/128/285 77/113/286 76/106/287 63/127/288
f 47/135/289 78/80/290 94/79/291 95/129/292
f 66/111/293 79/110/294 78/137/295 47/117/296
f 58/88/297 80/74/298 79/110/299 66/111/300
f 59/91/301 81/75/302 80/74/303 58/88/304
f 51/102/305 82/92/306 81/75/307 59/91/308
f 67/105/309 83/93/310 82/92/311 51/102/312
f 45/141/313 84/70/314 83/93/315 67/105/316
f 85/140/317 86/71/318 84/143/319 45/121/320
f 43/123/321 71/118/322 86/71/323 85/140/324
f 87/72/325 86/71/326 71/118/327 44/119/328
f 44/119/329 69/101/330 88/96/331 87/139/332
f 89/97/333 88/96/334 69/101/335 53/100/336
f 90/86/337 89/97/338 53/100/339 61/85/340
f 91/87/341 90/86/342 61/85/343 56/84/344
f 92/108/345 91/87/346 56/84/347 64/107/348
f 93/115/349 92/108/350 64/107/351 50/114/352
f 77/113/353 94/79/354 93/78/355 50/114/356
f 95/129/357 94/79/358 77/113/359 49/128/360
f 49/128/361 63/127/362 96/112/363 95/116/364
f 97/89/365 96/112/366 63/127/367 55/126/368
f 98/90/369 97/89/370 55/126/371 62/125/372
f 99/103/373 98/90/374 62/125/375 54/124/376
f 100/104/377 99/103/378 54/124/379 70/122/380
f 85/120/381 100/104/382 70/122/383 43/123/384
