# This file uses centimeters as units for non-parametric coordinates.

mtllib Axe Head.mtl
g default
v -0.513337 0.072707 0.508875
v -0.513337 0.072707 -0.491125
v -0.513337 -0.072707 0.508875
v -0.513337 -0.072707 -0.491125
v 0.002056 0.216549 0.646430
v 0.002056 0.216549 -0.628679
v 0.002056 -0.216549 -0.628679
v 0.002056 -0.216549 0.646430
v -1.601183 0.021661 1.083213
v -1.601183 0.021661 -1.065462
v -1.601183 -0.021661 -1.065462
v -1.601183 -0.021661 1.083213
v 0.002056 -0.216549 0.008875
v -0.513337 -0.072707 0.008875
v -1.850423 -0.021661 0.008875
v -1.850423 0.021661 0.008875
v -0.513337 0.072707 0.008875
v 0.002056 0.216549 0.008875
v 0.517449 0.072707 0.508875
v 0.517449 0.072707 -0.491125
v 0.517449 -0.072707 0.508875
v 0.517449 -0.072707 -0.491125
v 1.605294 0.021661 1.083213
v 1.605294 0.021661 -1.065462
v 1.605294 -0.021661 -1.065462
v 1.605294 -0.021661 1.083213
v 0.517449 -0.072707 0.008875
v 1.854535 -0.021661 0.008875
v 1.854535 0.021661 0.008875
v 0.517449 0.072707 0.008875
v 1.185992 0.216549 0.008875
v 1.061372 0.072707 -0.778293
v 1.061372 -0.072707 -0.778293
v 1.185992 -0.216549 0.008875
v 1.061372 -0.216549 0.796044
v 1.061372 0.216549 0.796044
v -1.057260 0.216549 0.796044
v -1.181880 0.216549 0.008875
v -1.057260 0.216549 -0.778293
v -1.057260 -0.216549 -0.778293
v -1.181880 -0.216549 0.008875
v -1.057260 -0.216549 0.796044
vt 0.500000 0.500000
vt 0.500000 0.375000
vt 0.625000 0.375000
vt 0.625000 0.500000
vt 0.500000 0.750000
vt 0.500000 0.500000
vt 0.625000 0.500000
vt 0.625000 0.750000
vt 0.500000 0.875000
vt 0.500000 0.750000
vt 0.625000 0.750000
vt 0.625000 0.875000
vt 0.750000 0.250000
vt 0.750000 0.000000
vt 0.875000 0.000000
vt 0.875000 0.250000
vt 0.125000 0.000000
vt 0.250000 0.000000
vt 0.250000 0.250000
vt 0.125000 0.250000
vt 0.500000 0.500000
vt 0.625000 0.500000
vt 0.625000 0.750000
vt 0.500000 0.750000
vt 0.375000 0.750000
vt 0.375000 0.500000
vt 0.375000 0.500000
vt 0.375000 0.750000
vt 0.375000 0.750000
vt 0.375000 0.875000
vt 0.375000 0.375000
vt 0.375000 0.500000
vt 0.500000 0.500000
vt 0.625000 0.500000
vt 0.625000 0.375000
vt 0.500000 0.375000
vt 0.500000 0.750000
vt 0.625000 0.750000
vt 0.625000 0.500000
vt 0.500000 0.500000
vt 0.500000 0.875000
vt 0.625000 0.875000
vt 0.625000 0.750000
vt 0.500000 0.750000
vt 0.750000 0.250000
vt 0.875000 0.250000
vt 0.875000 0.000000
vt 0.750000 0.000000
vt 0.125000 0.000000
vt 0.125000 0.250000
vt 0.250000 0.250000
vt 0.250000 0.000000
vt 0.500000 0.500000
vt 0.625000 0.500000
vt 0.625000 0.750000
vt 0.500000 0.750000
vt 0.375000 0.750000
vt 0.375000 0.750000
vt 0.375000 0.500000
vt 0.375000 0.500000
vt 0.375000 0.875000
vt 0.375000 0.500000
vt 0.375000 0.750000
vt 0.375000 0.375000
vn 0.015542 0.999879 0.000000
vn 0.000000 1.000000 0.000000
vn 0.000000 1.000000 0.000000
vn 0.028779 0.999494 0.013523
vn -1.000000 0.000000 -0.000000
vn -1.000000 0.000000 -0.000000
vn -0.974129 0.000000 -0.225992
vn -0.974129 0.000000 -0.225992
vn 0.000000 -1.000000 0.000000
vn 0.015542 -0.999879 0.000000
vn 0.028779 -0.999494 0.013523
vn 0.000000 -1.000000 0.000000
vn 0.000000 0.000000 -1.000000
vn 0.000000 0.000000 -1.000000
vn 0.134161 0.000000 -0.990960
vn 0.134161 0.000000 -0.990960
vn 0.134161 0.000000 0.990960
vn 0.000000 0.000000 1.000000
vn 0.000000 0.000000 1.000000
vn 0.134161 0.000000 0.990960
vn -0.293372 0.955998 -0.000000
vn -0.111043 0.993816 -0.000000
vn -0.132795 0.990549 -0.034335
vn -0.292864 0.954343 -0.058818
vn 0.466884 0.000000 -0.884319
vn 0.466884 0.000000 -0.884319
vn 0.466884 0.000000 -0.884319
vn 0.466884 0.000000 -0.884319
vn -0.132795 -0.990549 -0.034335
vn -0.111043 -0.993816 0.000000
vn -0.293372 -0.955998 0.000000
vn -0.292864 -0.954343 -0.058818
vn 0.466884 0.000000 0.884319
vn 0.466884 0.000000 0.884319
vn 0.466884 0.000000 0.884319
vn 0.466884 0.000000 0.884319
vn 0.028779 -0.999494 -0.013523
vn 0.015542 -0.999879 0.000000
vn 0.000000 -1.000000 0.000000
vn 0.000000 -1.000000 0.000000
vn -0.293372 -0.955998 0.000000
vn -0.111043 -0.993816 0.000000
vn -0.132795 -0.990549 0.034335
vn -0.292864 -0.954343 0.058818
vn -0.974129 0.000000 0.225992
vn -1.000000 0.000000 -0.000000
vn -1.000000 0.000000 -0.000000
vn -0.974129 0.000000 0.225992
vn -0.132795 0.990549 0.034335
vn -0.111043 0.993816 -0.000000
vn -0.293372 0.955998 -0.000000
vn -0.292864 0.954343 0.058818
vn 0.000000 1.000000 0.000000
vn 0.000000 1.000000 0.000000
vn 0.015542 0.999879 0.000000
vn 0.028779 0.999494 -0.013523
vn 0.010423 0.999343 -0.034706
vn 0.022347 0.997969 -0.059651
vn 0.000000 1.000000 0.000000
vn 0.000000 1.000000 0.000000
vn 1.000000 0.000000 0.000000
vn 0.974129 0.000000 -0.225993
vn 0.974129 0.000000 -0.225993
vn 1.000000 0.000000 0.000000
vn 0.000000 -1.000000 0.000000
vn 0.000000 -1.000000 0.000000
vn 0.022347 -0.997969 -0.059651
vn 0.010423 -0.999343 -0.034706
vn 0.000000 0.000000 -1.000000
vn 0.043145 0.000000 -0.999069
vn 0.043145 0.000000 -0.999069
vn 0.000000 0.000000 -1.000000
vn -0.134161 0.000000 0.990960
vn -0.134161 0.000000 0.990960
vn 0.000000 0.000000 1.000000
vn 0.000000 0.000000 1.000000
vn 0.087008 0.995653 -0.033246
vn 0.078234 0.991153 -0.107220
vn 0.022347 0.997969 -0.059651
vn 0.010423 0.999343 -0.034706
vn 0.043145 0.000000 -0.999069
vn -0.466884 0.000000 -0.884319
vn -0.466884 0.000000 -0.884319
vn 0.043145 0.000000 -0.999069
vn 0.022347 -0.997969 -0.059651
vn 0.078234 -0.991153 -0.107220
vn 0.087008 -0.995653 -0.033246
vn 0.010423 -0.999343 -0.034706
vn -0.134161 0.000000 0.990960
vn -0.466884 0.000000 0.884319
vn -0.466884 0.000000 0.884319
vn -0.134161 0.000000 0.990960
vn -0.028779 -0.999494 -0.013523
vn 0.000000 -1.000000 0.000000
vn 0.000000 -1.000000 0.000000
vn 0.010423 -0.999343 -0.034706
vn 0.087008 -0.995653 -0.033246
vn 0.132795 -0.990549 0.034335
vn -0.028779 -0.999494 -0.013523
vn 0.010423 -0.999343 -0.034706
vn 0.974129 0.000000 0.225993
vn 0.974129 0.000000 0.225993
vn 1.000000 0.000000 0.000000
vn 1.000000 0.000000 0.000000
vn -0.028779 0.999494 -0.013523
vn 0.132795 0.990549 0.034335
vn 0.087008 0.995653 -0.033246
vn 0.010423 0.999343 -0.034706
vn 0.000000 1.000000 0.000000
vn -0.028779 0.999494 -0.013523
vn 0.010423 0.999343 -0.034706
vn 0.000000 1.000000 0.000000
vn 0.234693 0.971753 -0.024789
vn 0.172427 0.978831 -0.110266
vn 0.078234 0.991153 -0.107220
vn 0.087008 0.995653 -0.033246
vn -0.466884 0.000000 -0.884319
vn -0.466884 0.000000 -0.884319
vn -0.466884 0.000000 -0.884319
vn -0.466884 0.000000 -0.884319
vn 0.087008 -0.995653 -0.033246
vn 0.078234 -0.991153 -0.107220
vn 0.172427 -0.978831 -0.110266
vn 0.234693 -0.971753 -0.024789
vn 0.234693 -0.971753 -0.024789
vn 0.292864 -0.954343 0.058818
vn 0.132795 -0.990549 0.034335
vn 0.087008 -0.995653 -0.033246
vn -0.466884 0.000000 0.884319
vn -0.466884 0.000000 0.884319
vn -0.466884 0.000000 0.884319
vn -0.466884 0.000000 0.884319
vn 0.087008 0.995653 -0.033246
vn 0.132795 0.990549 0.034335
vn 0.292864 0.954343 0.058818
vn 0.234693 0.971753 -0.024789
vn 0.028779 0.999494 -0.013523
vn 0.015542 0.999879 0.000000
vn -0.111043 0.993816 -0.000000
vn -0.132795 0.990549 0.034335
vn -0.132795 0.990549 -0.034335
vn -0.111043 0.993816 -0.000000
vn 0.015542 0.999879 0.000000
vn 0.028779 0.999494 0.013523
vn 0.134161 0.000000 -0.990960
vn 0.134161 0.000000 -0.990960
vn 0.466884 0.000000 -0.884319
vn 0.466884 0.000000 -0.884319
vn 0.028779 -0.999494 0.013523
vn 0.015542 -0.999879 0.000000
vn -0.111043 -0.993816 0.000000
vn -0.132795 -0.990549 -0.034335
vn -0.132795 -0.990549 0.034335
vn -0.111043 -0.993816 0.000000
vn 0.015542 -0.999879 0.000000
vn 0.028779 -0.999494 -0.013523
vn 0.134161 0.000000 0.990960
vn 0.134161 0.000000 0.990960
vn 0.466884 0.000000 0.884319
vn 0.466884 0.000000 0.884319
s off
g Axe_Head
usemtl initialShadingGroup
f 17/1/1 18/2/2 6/3/3 2/4/4
f 15/5/5 16/6/6 10/7/7 11/8/8
f 13/9/9 14/10/10 4/11/11 7/12/12
f 6/13/13 7/14/14 4/15/15 2/16/16
f 3/17/17 8/18/18 5/19/19 1/20/20
f 16/6/21 38/21/22 39/22/23 10/7/24
f 39/22/25 40/23/26 11/8/27 10/7/28
f 40/23/29 41/24/30 15/5/31 11/8/32
f 42/25/33 37/26/34 9/27/35 12/28/36
f 3/29/37 14/10/38 13/9/39 8/30/40
f 15/5/41 41/24/42 42/25/43 12/28/44
f 9/27/45 16/6/46 15/5/47 12/28/48
f 37/26/49 38/21/50 16/6/51 9/27/52
f 5/31/53 18/2/54 17/1/55 1/32/56
f 30/33/57 20/34/58 6/35/59 18/36/60
f 28/37/61 25/38/62 24/39/63 29/40/64
f 13/41/65 7/42/66 22/43/67 27/44/68
f 6/45/69 20/46/70 22/47/71 7/48/72
f 21/49/73 19/50/74 5/51/75 8/52/76
f 31/53/77 32/54/78 20/34/79 30/33/80
f 20/34/81 32/54/82 33/55/83 22/43/84
f 22/43/85 33/55/86 34/56/87 27/44/88
f 21/57/89 35/58/90 36/59/91 19/60/92
f 21/57/93 8/61/94 13/41/95 27/44/96
f 34/56/97 35/58/98 21/57/99 27/44/100
f 23/62/101 26/63/102 28/37/103 29/40/104
f 19/60/105 36/59/106 31/53/107 30/33/108
f 5/64/109 19/60/110 30/33/111 18/36/112
f 29/40/113 24/39/114 32/54/115 31/53/116
f 33/55/117 32/54/118 24/39/119 25/38/120
f 34/56/121 33/55/122 25/38/123 28/37/124
f 28/37/125 26/63/126 35/58/127 34/56/128
f 36/59/129 35/58/130 26/63/131 23/62/132
f 31/53/133 36/59/134 23/62/135 29/40/136
f 1/32/137 17/1/138 38/21/139 37/26/140
f 39/22/141 38/21/142 17/1/143 2/4/144
f 2/4/145 4/11/146 40/23/147 39/22/148
f 4/11/149 14/10/150 41/24/151 40/23/152
f 42/25/153 41/24/154 14/10/155 3/29/156
f 3/29/157 1/32/158 37/26/159 42/25/160
