# This file uses centimeters as units for non-parametric coordinates.

mtllib Bench End.mtl
g default
v -3.738982 -0.008777 4.122875
v 3.613315 -0.008777 4.122875
v -3.738982 7.343516 4.122875
v 3.613315 7.343516 4.122875
v -3.738982 7.343516 -3.229419
v 3.613315 7.343516 -3.229419
v -3.738982 -0.008777 -3.229419
v 3.613315 -0.008777 -3.229419
v -3.738982 6.111022 4.122875
v 3.613315 6.111022 4.122875
v 3.613315 6.111022 -3.229419
v -3.738982 6.111022 -3.229419
v 4.358877 6.111022 4.122875
v 4.358877 6.111022 -3.229419
v 4.358877 7.343516 -3.229419
v 4.358877 7.343516 4.122875
v -4.484543 6.111022 -3.229419
v -4.484543 6.111022 4.122875
v -4.484543 7.343516 4.122875
v -4.484543 7.343516 -3.229419
v -3.738982 7.343516 -4.072029
v 3.613315 7.343516 -4.072029
v 3.613315 6.111022 -4.072029
v -3.738982 6.111022 -4.072029
v 4.358877 7.343516 -4.072029
v 4.358877 6.111022 -4.072029
v -4.484543 6.111022 -4.072029
v -4.484543 7.343516 -4.072029
vt 0.375000 0.208091
vt 0.625000 0.208091
vt 0.625000 0.250000
vt 0.375000 0.250000
vt 0.625000 0.500000
vt 0.375000 0.500000
vt 0.375000 0.500000
vt 0.625000 0.500000
vt 0.625000 0.541909
vt 0.375000 0.541909
vt 0.375000 0.750000
vt 0.625000 0.750000
vt 0.625000 1.000000
vt 0.375000 1.000000
vt 0.625000 0.208091
vt 0.875000 0.208091
vt 0.875000 0.250000
vt 0.625000 0.250000
vt 0.125000 0.208091
vt 0.375000 0.208091
vt 0.375000 0.250000
vt 0.125000 0.250000
vt 0.375000 0.000000
vt 0.625000 0.000000
vt 0.875000 0.000000
vt 0.875000 0.208091
vt 0.375000 0.541909
vt 0.625000 0.541909
vt 0.125000 0.000000
vt 0.125000 0.208091
vt 0.875000 0.208091
vt 0.875000 0.250000
vt 0.875000 0.250000
vt 0.875000 0.208091
vt 0.875000 0.250000
vt 0.125000 0.250000
vt 0.125000 0.250000
vt 0.125000 0.208091
vt 0.125000 0.208091
vt 0.125000 0.250000
vn 0.000000 0.000000 1.000000
vn 0.000000 0.000000 1.000000
vn 0.000000 0.000000 1.000000
vn 0.000000 0.000000 1.000000
vn 0.000000 1.000000 0.000000
vn 0.000000 1.000000 0.000000
vn 0.000000 1.000000 0.000000
vn 0.000000 1.000000 0.000000
vn 0.000000 0.000000 -1.000000
vn 0.000000 0.000000 -1.000000
vn 0.000000 0.000000 -1.000000
vn 0.000000 0.000000 -1.000000
vn 0.000000 -1.000000 0.000000
vn 0.000000 -1.000000 0.000000
vn 0.000000 -1.000000 0.000000
vn 0.000000 -1.000000 0.000000
vn 1.000000 0.000000 0.000000
vn 1.000000 0.000000 0.000000
vn 1.000000 0.000000 0.000000
vn 1.000000 0.000000 0.000000
vn -1.000000 0.000000 0.000000
vn -1.000000 0.000000 0.000000
vn -1.000000 0.000000 0.000000
vn -1.000000 0.000000 0.000000
vn 0.000000 0.000000 1.000000
vn 0.000000 0.000000 1.000000
vn 0.000000 0.000000 1.000000
vn 0.000000 0.000000 1.000000
vn 1.000000 0.000000 0.000000
vn 1.000000 0.000000 0.000000
vn 1.000000 0.000000 0.000000
vn 1.000000 0.000000 0.000000
vn 0.000000 0.000000 -1.000000
vn 0.000000 0.000000 -1.000000
vn 0.000000 0.000000 -1.000000
vn 0.000000 0.000000 -1.000000
vn -1.000000 0.000000 0.000000
vn -1.000000 0.000000 0.000000
vn -1.000000 0.000000 0.000000
vn -1.000000 0.000000 0.000000
vn 0.000000 -1.000000 0.000000
vn 0.000000 -1.000000 0.000000
vn 0.000000 -1.000000 0.000000
vn 0.000000 -1.000000 0.000000
vn 0.000000 0.000000 -1.000000
vn 0.000000 0.000000 -1.000000
vn 0.000000 0.000000 -1.000000
vn 0.000000 0.000000 -1.000000
vn 0.000000 1.000000 0.000000
vn 0.000000 1.000000 0.000000
vn 0.000000 1.000000 0.000000
vn 0.000000 1.000000 0.000000
vn 0.000000 0.000000 1.000000
vn 0.000000 0.000000 1.000000
vn 0.000000 0.000000 1.000000
vn 0.000000 0.000000 1.000000
vn 0.000000 -1.000000 0.000000
vn 0.000000 -1.000000 0.000000
vn 0.000000 -1.000000 0.000000
vn 0.000000 -1.000000 0.000000
vn 0.000000 0.000000 1.000000
vn 0.000000 0.000000 1.000000
vn 0.000000 0.000000 1.000000
vn 0.000000 0.000000 1.000000
vn 0.000000 1.000000 0.000000
vn 0.000000 1.000000 0.000000
vn 0.000000 1.000000 0.000000
vn 0.000000 1.000000 0.000000
vn 0.000000 0.000000 -1.000000
vn 0.000000 0.000000 -1.000000
vn 0.000000 0.000000 -1.000000
vn 0.000000 0.000000 -1.000000
vn 0.000000 1.000000 0.000000
vn 0.000000 1.000000 0.000000
vn 0.000000 1.000000 0.000000
vn 0.000000 1.000000 0.000000
vn 0.000000 -1.000000 0.000000
vn 0.000000 -1.000000 0.000000
vn 0.000000 -1.000000 0.000000
vn 0.000000 -1.000000 0.000000
vn 0.000000 1.000000 0.000000
vn 0.000000 1.000000 0.000000
vn 0.000000 1.000000 0.000000
vn 0.000000 1.000000 0.000000
vn 1.000000 0.000000 0.000000
vn 1.000000 0.000000 0.000000
vn 1.000000 0.000000 0.000000
vn 1.000000 0.000000 0.000000
vn 0.000000 -1.000000 0.000000
vn 0.000000 -1.000000 0.000000
vn 0.000000 -1.000000 0.000000
vn 0.000000 -1.000000 0.000000
vn 0.000000 -1.000000 0.000000
vn 0.000000 -1.000000 0.000000
vn 0.000000 -1.000000 0.000000
vn 0.000000 -1.000000 0.000000
vn -1.000000 0.000000 0.000000
vn -1.000000 0.000000 0.000000
vn -1.000000 0.000000 0.000000
vn -1.000000 0.000000 0.000000
vn 0.000000 1.000000 0.000000
vn 0.000000 1.000000 0.000000
vn 0.000000 1.000000 0.000000
vn 0.000000 1.000000 0.000000
s off
g Bench_End
usemtl initialShadingGroup
f 9/1/1 10/2/2 4/3/3 3/4/4
f 3/4/5 4/3/6 6/5/7 5/6/8
f 21/7/9 22/8/10 23/9/11 24/10/12
f 7/11/13 8/12/14 2/13/15 1/14/16
f 13/15/17 14/16/18 15/17/19 16/18/20
f 17/19/21 18/20/22 19/21/23 20/22/24
f 1/23/25 2/24/26 10/2/27 9/1/28
f 2/24/29 8/25/30 11/26/31 10/2/32
f 12/27/33 11/28/34 8/12/35 7/11/36
f 7/29/37 1/23/38 9/1/39 12/30/40
f 10/2/41 11/26/42 14/16/43 13/15/44
f 23/31/45 22/32/46 25/33/47 26/34/48
f 6/35/49 4/3/50 16/18/51 15/17/52
f 4/3/53 10/2/54 13/15/55 16/18/56
f 12/30/57 9/1/58 18/20/59 17/19/60
f 9/1/61 3/4/62 19/21/63 18/20/64
f 3/4/65 5/36/66 20/22/67 19/21/68
f 21/37/69 24/38/70 27/39/71 28/40/72
f 5/6/73 6/5/74 22/8/75 21/7/76
f 11/28/77 12/27/78 24/10/79 23/9/80
f 6/35/81 15/17/82 25/33/83 22/32/84
f 15/17/85 14/16/86 26/34/87 25/33/88
f 14/16/89 11/26/90 23/31/91 26/34/92
f 12/30/93 17/19/94 27/39/95 24/38/96
f 17/19/97 20/22/98 28/40/99 27/39/100
f 20/22/101 5/36/102 21/37/103 28/40/104
