# This file uses centimeters as units for non-parametric coordinates.

mtllib Bench Corner.mtl
g default
v -3.764014 -0.008777 3.726326
v 4.334066 -0.008777 3.726326
v -3.707135 7.343516 3.613602
v 4.334066 7.343516 3.613602
v -3.707135 7.343516 -4.410370
v 4.334066 7.343516 -4.410370
v -3.764014 -0.008777 -4.410370
v -3.764014 6.111022 3.726326
v 4.334066 6.111022 3.726326
v 4.334066 6.111022 -4.410370
v -3.764014 6.111022 -4.410370
v -4.501683 6.111022 -4.410370
v -4.501683 6.111022 3.713057
v -4.501683 7.343516 3.713057
v -4.501683 7.343516 -4.410370
v -3.749596 6.111022 4.478283
v 4.334066 6.111022 4.478283
v 4.334066 7.343516 4.478283
v -3.749596 7.343516 4.478283
v -4.509594 7.343516 4.491886
v -4.509594 6.111022 4.491886
v -3.707135 7.343516 -3.643303
v 4.334066 7.343516 -3.643303
v 4.334066 6.111022 -3.632524
v 4.334066 -0.008777 -3.632524
v -3.764014 -0.008777 -3.632524
v -3.764014 6.111022 -3.632524
v -4.501683 6.111022 -3.633795
v -4.501683 7.343516 -3.633795
v 3.591842 -0.008777 3.726326
v 3.591844 -0.008777 -3.632524
v 3.591842 -0.008777 -4.410370
v 3.591844 6.111022 -4.410370
v 3.597055 7.343516 -4.410370
v 3.597055 7.343516 -3.643303
v 3.597055 7.343516 3.613602
v 3.593166 7.343516 4.478283
v 3.593166 6.111022 4.478283
v 3.591842 6.111022 3.726326
v 3.598146 6.111022 -3.636843
vt 0.602086 0.250000
vt 0.602086 0.208091
vt 0.625000 0.208091
vt 0.625000 0.250000
vt 0.602086 0.500000
vt 0.602086 0.476101
vt 0.625000 0.476101
vt 0.625000 0.500000
vt 0.602087 0.541909
vt 0.625000 0.541909
vt 0.125000 0.208091
vt 0.148899 0.208091
vt 0.148899 0.250000
vt 0.125000 0.250000
vt 0.602086 0.208091
vt 0.602086 0.000000
vt 0.625000 0.000000
vt 0.625000 0.208091
vt 0.125000 0.000000
vt 0.148899 0.000000
vt 0.148899 0.208091
vt 0.125000 0.208091
vt 0.375000 0.208091
vt 0.375000 0.250000
vt 0.375000 0.250000
vt 0.375000 0.208091
vt 0.148899 0.250000
vt 0.125000 0.250000
vt 0.625000 0.509997
vt 0.625000 0.250000
vt 0.602086 0.250000
vt 0.375000 0.250000
vt 0.375000 0.250000
vt 0.375000 0.208091
vt 0.375000 0.208091
vt 0.851101 0.000000
vt 0.851101 0.208091
vt 0.602086 1.000000
vt 0.602083 0.773903
vt 0.625000 0.773899
vt 0.625000 1.000000
vt 0.375000 0.000000
vt 0.375000 0.773899
vt 0.375000 1.000000
vt 0.375000 0.750000
vt 0.602086 0.750000
vt 0.375000 0.541909
vt 0.375000 0.500000
vt 0.375000 0.476101
vt 0.732659 0.361813
vt 0.726594 0.375000
vn 0.000000 0.000000 1.000000
vn 0.000000 0.000000 1.000000
vn 0.000000 0.000000 1.000000
vn 0.000000 0.000000 1.000000
vn 0.000000 1.000000 0.000000
vn 0.000000 1.000000 0.000000
vn 0.000000 1.000000 0.000000
vn 0.000000 1.000000 0.000000
vn 0.000000 0.000000 -1.000000
vn 0.000000 0.000000 -1.000000
vn 0.000000 0.000000 -1.000000
vn 0.000000 0.000000 -1.000000
vn -1.000000 0.000000 0.000000
vn -1.000000 0.000000 0.000000
vn -1.000000 0.000000 0.000000
vn -1.000000 0.000000 0.000000
vn 0.000000 0.000000 1.000000
vn 0.000000 0.000000 1.000000
vn 0.000000 0.000000 1.000000
vn 0.000000 0.000000 1.000000
vn -1.000000 0.000000 0.000000
vn -1.000000 0.000000 0.000000
vn -1.000000 0.000000 0.000000
vn -1.000000 0.000000 0.000000
vn 0.000000 -1.000000 0.000000
vn 0.000000 -1.000000 0.000000
vn 0.000000 -1.000000 0.000000
vn 0.000000 -1.000000 0.000000
vn 0.001679 0.000000 0.999999
vn 0.001679 0.000000 0.999999
vn 0.017894 0.000000 0.999840
vn 0.017894 0.000000 0.999840
vn 0.000000 1.000000 0.000000
vn 0.000000 1.000000 0.000000
vn 0.000000 1.000000 0.000000
vn 0.000000 1.000000 0.000000
vn 0.000000 0.000000 -1.000000
vn 0.000000 0.000000 -1.000000
vn 0.000000 0.000000 -1.000000
vn 0.000000 0.000000 -1.000000
vn 1.000000 0.000000 0.000000
vn 1.000000 0.000000 0.000000
vn 1.000000 0.000000 0.000000
vn 1.000000 0.000000 0.000000
vn 0.000000 -1.000000 0.000000
vn 0.000000 -1.000000 0.000000
vn 0.000000 -1.000000 0.000000
vn 0.000000 -1.000000 0.000000
vn 1.000000 0.000000 0.000000
vn 1.000000 0.000000 0.000000
vn 1.000000 0.000000 0.000000
vn 1.000000 0.000000 0.000000
vn 0.000000 1.000000 0.000000
vn 0.000000 1.000000 0.000000
vn 0.000000 1.000000 0.000000
vn 0.000000 1.000000 0.000000
vn 0.000000 1.000000 0.000000
vn 0.000000 1.000000 0.000000
vn 0.000000 1.000000 0.000000
vn 0.000000 1.000000 0.000000
vn -1.000000 0.000000 -0.000973
vn -1.000000 0.000000 -0.000973
vn -0.999949 0.000000 -0.010156
vn -0.999949 0.000000 -0.010156
vn 0.000000 -1.000000 0.000000
vn 0.000000 -1.000000 0.000000
vn 0.000000 -1.000000 0.000000
vn 0.000000 -1.000000 0.000000
vn 0.000000 1.000000 0.000000
vn 0.000000 1.000000 0.000000
vn 0.000000 1.000000 0.000000
vn 0.000000 1.000000 0.000000
vn 1.000000 0.000000 0.000000
vn 1.000000 0.000000 0.000000
vn 1.000000 0.000000 0.000000
vn 1.000000 0.000000 0.000000
vn 1.000000 0.000000 0.000000
vn 1.000000 0.000000 0.000000
vn 1.000000 0.000000 0.000000
vn 1.000000 0.000000 0.000000
vn 0.000000 -1.000000 0.000000
vn 0.000000 -1.000000 0.000000
vn 0.000000 -1.000000 0.000000
vn 0.000000 -1.000000 0.000000
vn -1.000000 0.000000 0.000000
vn -1.000000 0.000000 0.000000
vn -1.000000 0.000000 0.000000
vn -1.000000 0.000000 0.000000
vn 0.000000 -1.000000 0.000000
vn 0.000000 -1.000000 0.000000
vn 0.000000 -1.000000 0.000000
vn 0.000000 -1.000000 0.000000
vn -1.000000 0.000000 0.000000
vn -1.000000 0.000000 0.000000
vn -1.000000 0.000000 -0.000973
vn -1.000000 0.000000 -0.000973
vn 0.000000 1.000000 0.000000
vn 0.000000 1.000000 0.000000
vn 0.000000 1.000000 0.000000
vn 0.000000 1.000000 0.000000
vn 0.000000 -1.000000 0.000000
vn 0.000000 -1.000000 0.000000
vn 0.000000 -1.000000 0.000000
vn 0.000000 -1.000000 0.000000
vn 0.000000 -1.000000 0.000000
vn 0.000000 -1.000000 0.000000
vn 0.000000 -1.000000 0.000000
vn 0.000000 -1.000000 0.000000
vn 0.000000 0.000000 -1.000000
vn 0.000000 0.000000 -1.000000
vn 0.000000 0.000000 -1.000000
vn 0.000000 0.000000 -1.000000
vn 0.000000 0.000000 -1.000000
vn 0.000000 0.000000 -1.000000
vn 0.000000 0.000000 -1.000000
vn 0.000000 0.000000 -1.000000
vn 0.000000 1.000000 0.000000
vn 0.000000 1.000000 0.000000
vn 0.000000 1.000000 0.000000
vn 0.000000 1.000000 0.000000
vn 0.000000 1.000000 0.000000
vn 0.000000 1.000000 0.000000
vn 0.000000 1.000000 0.000000
vn 0.000000 1.000000 0.000000
vn 0.000000 1.000000 0.000000
vn 0.000000 1.000000 0.000000
vn 0.000000 1.000000 0.000000
vn 0.000000 1.000000 0.000000
vn 0.001679 0.000000 0.999999
vn 0.000000 0.000000 1.000000
vn 0.000000 0.000000 1.000000
vn 0.001679 0.000000 0.999999
vn 0.000000 -1.000000 0.000000
vn 0.000000 -1.000000 0.000000
vn 0.000000 -1.000000 0.000000
vn 0.000000 -1.000000 0.000000
vn 0.000000 0.000000 1.000000
vn 0.000000 0.000000 1.000000
vn 0.000000 0.000000 1.000000
vn 0.000000 0.000000 1.000000
vn 0.002920 -0.000354 -0.999996
vn 0.002920 -0.000354 -0.999996
vn 0.002920 -0.000354 -0.999996
vn 0.002920 -0.000354 -0.999996
vn 0.999992 -0.000516 -0.004063
vn 0.999992 -0.000516 -0.004063
vn 0.999992 -0.000516 -0.004063
vn 0.999992 -0.000516 -0.004063
vn 0.000000 -1.000000 0.000000
vn 0.000000 -1.000000 0.000000
vn 0.000000 -1.000000 0.000000
vn 0.000000 -1.000000 0.000000
s off
g Bench_Corner
usemtl initialShadingGroup
f 37/1/1 38/2/2 17/3/3 18/4/4
f 34/5/5 35/6/6 23/7/7 6/8/8
f 33/9/9 34/5/10 6/8/11 10/10/12
f 12/11/13 28/12/14 29/13/15 15/14/16
f 39/15/17 30/16/18 2/17/19 9/18/20
f 7/19/21 26/20/22 27/21/23 11/22/24
f 11/22/25 27/21/26 28/12/27 12/11/28
f 16/23/29 19/24/30 20/25/31 21/26/32
f 29/13/33 22/27/34 5/28/35 15/14/36
f 5/28/37 11/22/38 12/11/39 15/14/40
f 6/8/41 23/7/42 24/29/43 10/10/44
f 38/2/45 39/15/46 9/18/47 17/3/48
f 9/18/49 4/30/50 18/4/51 17/3/52
f 4/30/53 36/31/54 37/1/55 18/4/56
f 3/32/57 14/33/58 20/25/59 19/24/60
f 14/33/61 13/34/62 21/26/63 20/25/64
f 13/34/65 8/35/66 16/23/67 21/26/68
f 35/6/69 36/31/70 4/30/71 23/7/72
f 24/29/73 23/7/74 4/30/75 9/18/76
f 2/17/77 25/36/78 24/37/79 9/18/80
f 30/38/81 31/39/82 25/40/83 2/41/84
f 27/21/85 26/20/86 1/42/87 8/35/88
f 28/12/89 27/21/90 8/35/91 13/34/92
f 29/13/93 28/12/94 13/34/95 14/33/96
f 3/32/97 22/27/98 29/13/99 14/33/100
f 26/43/101 31/39/102 30/38/103 1/44/104
f 7/45/105 32/46/106 31/39/107 26/43/108
f 11/47/109 33/9/110 32/46/111 7/45/112
f 5/48/113 34/5/114 33/9/115 11/47/116
f 22/49/117 35/6/118 34/5/119 5/48/120
f 3/32/121 36/31/122 35/6/123 22/49/124
f 37/1/125 36/31/126 3/32/127 19/24/128
f 16/23/129 38/2/130 37/1/131 19/24/132
f 8/35/133 39/15/134 38/2/135 16/23/136
f 1/42/137 30/16/138 39/15/139 8/35/140
f 24/37/141 25/36/142 31/50/143 40/51/144
f 40/51/145 31/50/146 32/46/147 33/9/148
f 33/9/149 10/10/150 24/37/151 40/51/152
