# This file uses centimeters as units for non-parametric coordinates.

mtllib Bench Middle 1.mtl
g default
v -3.704395 -0.008778 4.355860
v 3.647902 -0.008778 4.355860
v -3.704395 7.343517 4.355860
v 3.647902 7.343517 4.355860
v -3.704395 7.343517 -4.376872
v 3.647902 7.343517 -4.376872
v -3.704395 -0.008778 -4.376872
v 3.647902 -0.008778 -4.376872
v -3.704395 6.111022 4.355860
v 3.647902 6.111022 4.355860
v 3.647902 6.111022 -4.376872
v -3.704395 6.111022 -4.376872
v 4.393463 6.111022 4.355860
v 4.393463 6.111022 -4.376872
v 4.393463 7.343517 -4.376872
v 4.393463 7.343517 4.355860
v -4.449957 6.111022 -4.376872
v -4.449957 6.111022 4.355860
v -4.449957 7.343517 4.355860
v -4.449957 7.343517 -4.376872
vt 0.379815 0.011722
vt 0.674631 0.046283
vt 0.594988 0.046682
vt 0.379996 0.047762
vt 0.596270 0.302041
vt 0.381278 0.303120
vt 0.596451 0.338081
vt 0.381459 0.339160
vt 0.382357 0.518112
vt 0.597349 0.517033
vt 0.598631 0.772391
vt 0.383639 0.773471
vt 0.616609 0.010533
vt 0.654112 0.301750
vt 0.618071 0.301931
vt 0.616790 0.046573
vt 0.359657 0.339269
vt 0.322155 0.048052
vt 0.358195 0.047871
vt 0.359477 0.303229
vt 0.301635 0.303520
vt 0.384718 0.988463
vt 0.776302 0.516135
vt 0.777583 0.771493
vt 0.204687 0.774369
vt 0.203405 0.519010
vt 0.323437 0.303410
vt 0.300353 0.048161
vt 0.358014 0.011831
vt 0.652830 0.046392
vt 0.599529 0.951343
vt 0.675913 0.301641
vt 0.618252 0.337971
vt 0.384537 0.952422
vt 0.594808 0.010642
vt 0.599710 0.987383
vn 0.000000 0.000000 1.000000
vn 0.000000 0.000000 1.000000
vn 0.000000 0.000000 1.000000
vn 0.000000 0.000000 1.000000
vn 0.000000 1.000000 0.000000
vn 0.000000 1.000000 0.000000
vn 0.000000 1.000000 0.000000
vn 0.000000 1.000000 0.000000
vn 0.000000 0.000000 -1.000000
vn 0.000000 0.000000 -1.000000
vn 0.000000 0.000000 -1.000000
vn 0.000000 0.000000 -1.000000
vn 0.000000 -1.000000 0.000000
vn 0.000000 -1.000000 0.000000
vn 0.000000 -1.000000 0.000000
vn 0.000000 -1.000000 0.000000
vn 1.000000 0.000000 0.000000
vn 1.000000 0.000000 0.000000
vn 1.000000 0.000000 0.000000
vn 1.000000 0.000000 0.000000
vn -1.000000 0.000000 0.000000
vn -1.000000 0.000000 0.000000
vn -1.000000 0.000000 0.000000
vn -1.000000 0.000000 0.000000
vn 0.000000 0.000000 1.000000
vn 0.000000 0.000000 1.000000
vn 0.000000 0.000000 1.000000
vn 0.000000 0.000000 1.000000
vn 1.000000 0.000000 0.000000
vn 1.000000 0.000000 0.000000
vn 1.000000 0.000000 0.000000
vn 1.000000 0.000000 0.000000
vn 0.000000 0.000000 -1.000000
vn 0.000000 0.000000 -1.000000
vn 0.000000 0.000000 -1.000000
vn 0.000000 0.000000 -1.000000
vn -1.000000 0.000000 0.000000
vn -1.000000 0.000000 0.000000
vn -1.000000 0.000000 0.000000
vn -1.000000 0.000000 0.000000
vn 0.000000 -1.000000 0.000000
vn 0.000000 -1.000000 0.000000
vn 0.000000 -1.000000 0.000000
vn 0.000000 -1.000000 0.000000
vn 0.000000 0.000000 -1.000000
vn 0.000000 0.000000 -1.000000
vn 0.000000 0.000000 -1.000000
vn 0.000000 0.000000 -1.000000
vn 0.000000 1.000000 0.000000
vn 0.000000 1.000000 0.000000
vn 0.000000 1.000000 0.000000
vn 0.000000 1.000000 0.000000
vn 0.000000 0.000000 1.000000
vn 0.000000 0.000000 1.000000
vn 0.000000 0.000000 1.000000
vn 0.000000 0.000000 1.000000
vn 0.000000 -1.000000 0.000000
vn 0.000000 -1.000000 0.000000
vn 0.000000 -1.000000 0.000000
vn 0.000000 -1.000000 0.000000
vn 0.000000 0.000000 1.000000
vn 0.000000 0.000000 1.000000
vn 0.000000 0.000000 1.000000
vn 0.000000 0.000000 1.000000
vn 0.000000 1.000000 0.000000
vn 0.000000 1.000000 0.000000
vn 0.000000 1.000000 0.000000
vn 0.000000 1.000000 0.000000
vn 0.000000 0.000000 -1.000000
vn 0.000000 0.000000 -1.000000
vn 0.000000 0.000000 -1.000000
vn 0.000000 0.000000 -1.000000
s off
g Bench_Middle
usemtl initialShadingGroup
f 9/34/1 10/31/2 4/36/3 3/22/4
f 3/4/5 4/3/6 6/5/7 5/6/8
f 5/6/9 6/5/10 11/7/11 12/8/12
f 7/9/13 8/10/14 2/11/15 1/12/16
f 13/30/17 14/14/18 15/15/19 16/16/20
f 17/27/21 18/18/22 19/19/23 20/20/24
f 1/12/25 2/11/26 10/31/27 9/34/28
f 2/11/29 8/10/30 11/23/31 10/24/32
f 12/8/33 11/7/34 8/10/35 7/9/36
f 7/9/37 1/12/38 9/25/39 12/26/40
f 10/2/41 11/32/42 14/14/43 13/30/44
f 11/7/45 6/5/46 15/15/47 14/33/48
f 6/5/49 4/3/50 16/16/51 15/15/52
f 4/3/53 10/35/54 13/13/55 16/16/56
f 12/21/57 9/28/58 18/18/59 17/27/60
f 9/1/61 3/4/62 19/19/63 18/29/64
f 3/4/65 5/6/66 20/20/67 19/19/68
f 5/6/69 12/8/70 17/17/71 20/20/72
