# This file uses centimeters as units for non-parametric coordinates.

mtllib Bench 3 way 1.mtl
g default
v -3.688910 -0.008777 4.371188
v 3.663385 -0.008777 4.371188
v -3.688910 7.343516 4.371188
v 3.663385 7.343516 4.371188
v -3.688910 7.343516 -4.458082
v 3.663385 7.343516 -4.458082
v -3.688910 -0.008777 -4.458082
v 3.663385 -0.008777 -4.458082
v -3.688910 6.111022 4.371188
v 3.663385 6.111022 4.371188
v 3.663385 6.111022 -4.458082
v -3.688910 6.111022 -4.458082
v 4.408948 6.111022 4.371188
v 4.408948 6.111022 -4.458082
v 4.408948 7.343516 -4.458082
v 4.408948 7.343516 4.371188
v -4.434474 6.111022 -4.458082
v -4.434474 6.111022 4.371188
v -4.434474 7.343516 4.371188
v -4.434474 7.343516 -4.458082
v -3.688910 7.343516 -3.719284
v 3.663385 7.343516 -3.719284
v 4.408948 7.343516 -3.719284
v 4.408948 6.111022 -3.719284
v 3.663385 6.111022 -3.719284
v 3.663385 -0.008777 -3.719282
v -3.688910 -0.008777 -3.719282
v -3.688910 6.111021 -3.719282
v -4.434474 6.111021 -3.719282
v -4.434474 7.343516 -3.719284
v -3.688910 7.343516 3.656340
v 3.663385 7.343516 3.656340
v 4.408948 7.343516 3.656340
v 4.408948 6.111022 3.656340
v 3.663385 6.111022 3.656340
v 3.663385 -0.008777 3.656340
v -3.688910 -0.008777 3.656340
v -3.688910 6.111022 3.656340
v -4.434474 6.111022 3.656340
v -4.434474 7.343516 3.656340
v 4.401512 -0.008777 3.656340
v 4.401512 -0.008777 -3.719282
vt 0.994604 0.644050
vt 0.415639 0.830825
vt 0.686161 0.643744
vt 0.911242 0.643968
vt 0.911242 0.396288
vt 0.686161 0.396065
vt 0.686161 0.373447
vt 0.911242 0.373671
vt 0.686161 0.335716
vt 0.994604 0.373754
vt 0.190558 0.372955
vt 0.415639 0.373178
vt 0.437776 0.373221
vt 0.190558 0.395572
vt 0.663336 0.396042
vt 0.625499 0.396004
vt 0.663336 0.335693
vt 0.663336 0.373424
vt 0.934067 0.335962
vt 0.971779 0.396348
vt 0.934067 0.396311
vt 0.934067 0.373693
vt 0.190558 0.643252
vt 0.415639 0.643475
vt 0.640724 0.313252
vt 0.003208 0.395386
vt 0.625499 0.643703
vt 0.663336 0.643721
vt 0.934067 0.643990
vt 0.971779 0.644028
vt 0.911242 0.622083
vt 0.686161 0.621860
vt 0.663336 0.621837
vt 0.603455 0.643721
vt 0.625499 0.621800
vt 0.437776 0.621614
vt 0.437776 0.395818
vt 0.415639 0.621591
vt 0.190558 0.621368
vt 0.003208 0.621181
vt 0.971779 0.622144
vt 0.934067 0.622106
vt 0.437776 0.830847
vt 0.437776 0.643497
vt 0.625499 0.643684
vt 0.415639 0.395796
vt 0.437776 0.643497
vt 0.190558 0.868333
vt 0.170322 0.868333
vt 0.663345 0.666546
vt 0.415639 0.148097
vt 0.971779 0.373731
vt 0.190558 0.185605
vt 0.603463 0.666546
vt 0.170322 0.830601
vt 0.190558 0.830601
vt 0.003208 0.643066
vt 0.994604 0.622166
vt 0.994604 0.396371
vt 0.003208 0.372769
vt 0.437776 0.350604
vt 0.625499 0.350562
vt 0.625499 0.373180
vt 0.640724 0.335693
vt 0.640724 0.373424
vt 0.415639 0.185829
vt 0.663336 0.313252
vt 0.911242 0.335939
vt 0.190558 0.147874
vt 0.625508 0.666546
vt 0.415639 0.868556
vn 0.000000 0.000000 1.000000
vn 0.000000 0.000000 1.000000
vn 0.000000 0.000000 1.000000
vn 0.000000 0.000000 1.000000
vn 0.000000 1.000000 0.000000
vn 0.000000 1.000000 0.000000
vn 0.000000 1.000000 0.000000
vn 0.000000 1.000000 0.000000
vn 0.000000 0.000000 -1.000000
vn 0.000000 0.000000 -1.000000
vn 0.000000 0.000000 -1.000000
vn 0.000000 0.000000 -1.000000
vn 0.000000 -1.000000 0.000001
vn 0.000000 -1.000000 0.000001
vn 0.000000 -1.000000 0.000000
vn 0.000000 -1.000000 0.000000
vn 1.000000 0.000000 0.000000
vn 1.000000 0.000000 0.000000
vn 1.000000 0.000000 0.000000
vn 1.000000 0.000000 0.000000
vn -1.000000 0.000000 0.000000
vn -1.000000 0.000000 0.000000
vn -1.000000 0.000000 0.000000
vn -1.000000 0.000000 0.000000
vn 0.000000 0.000000 1.000000
vn 0.000000 0.000000 1.000000
vn 0.000000 0.000000 1.000000
vn 0.000000 0.000000 1.000000
vn 1.000000 0.000000 0.000000
vn 1.000000 0.000000 0.000000
vn 1.000000 0.000000 0.000000
vn 1.000000 0.000000 0.000000
vn 0.000000 0.000000 -1.000000
vn 0.000000 0.000000 -1.000000
vn 0.000000 0.000000 -1.000000
vn 0.000000 0.000000 -1.000000
vn -1.000000 0.000000 0.000000
vn -1.000000 0.000000 0.000000
vn -1.000000 0.000000 0.000000
vn -1.000000 0.000000 0.000000
vn 0.000000 -1.000000 0.000000
vn 0.000000 -1.000000 0.000000
vn 0.000000 -1.000000 0.000000
vn 0.000000 -1.000000 0.000000
vn 0.000000 0.000000 -1.000000
vn 0.000000 0.000000 -1.000000
vn 0.000000 0.000000 -1.000000
vn 0.000000 0.000000 -1.000000
vn 0.000000 1.000000 0.000000
vn 0.000000 1.000000 0.000000
vn 0.000000 1.000000 0.000000
vn 0.000000 1.000000 0.000000
vn 0.000000 0.000000 1.000000
vn 0.000000 0.000000 1.000000
vn 0.000000 0.000000 1.000000
vn 0.000000 0.000000 1.000000
vn 0.000000 -1.000000 -0.000001
vn 0.000000 -1.000000 0.000000
vn 0.000000 -1.000000 0.000000
vn 0.000000 -1.000000 -0.000001
vn 0.000000 0.000000 1.000000
vn 0.000000 0.000000 1.000000
vn 0.000000 0.000000 1.000000
vn 0.000000 0.000000 1.000000
vn 0.000000 1.000000 0.000000
vn 0.000000 1.000000 0.000000
vn 0.000000 1.000000 0.000000
vn 0.000000 1.000000 0.000000
vn 0.000000 0.000000 -1.000000
vn 0.000000 0.000000 -1.000000
vn 0.000000 0.000000 -1.000000
vn 0.000000 0.000000 -1.000000
vn 0.000000 1.000000 0.000000
vn 0.000000 1.000000 0.000000
vn 0.000000 1.000000 0.000000
vn 0.000000 1.000000 0.000000
vn 0.000000 1.000000 0.000000
vn 0.000000 1.000000 0.000000
vn 0.000000 1.000000 0.000000
vn 0.000000 1.000000 0.000000
vn 1.000000 0.000000 0.000000
vn 1.000000 0.000000 0.000000
vn 1.000000 0.000000 0.000000
vn 1.000000 0.000000 0.000000
vn 0.999999 -0.001215 0.000000
vn 0.999999 -0.001215 0.000000
vn 0.999999 -0.001215 0.000000
vn 0.999999 -0.001215 0.000000
vn 0.000000 -1.000000 0.000000
vn 0.000000 -1.000000 0.000000
vn 0.000000 -1.000000 0.000000
vn 0.000000 -1.000000 0.000000
vn -1.000000 0.000000 0.000000
vn -1.000000 0.000000 0.000000
vn -1.000000 0.000000 0.000000
vn -1.000000 0.000000 0.000000
vn 0.000000 -1.000000 0.000000
vn 0.000000 -1.000000 0.000000
vn 0.000000 -1.000000 0.000000
vn 0.000000 -1.000000 0.000000
vn -1.000000 0.000000 0.000000
vn -1.000000 0.000000 0.000000
vn -1.000000 0.000000 0.000000
vn -1.000000 0.000000 0.000000
vn 0.000000 1.000000 0.000000
vn 0.000000 1.000000 0.000000
vn 0.000000 1.000000 0.000000
vn 0.000000 1.000000 0.000000
vn 0.000000 1.000000 0.000000
vn 0.000000 1.000000 0.000000
vn 0.000000 1.000000 0.000000
vn 0.000000 1.000000 0.000000
vn 0.000000 1.000000 0.000000
vn 0.000000 1.000000 0.000000
vn 0.000000 1.000000 0.000000
vn 0.000000 1.000000 0.000000
vn 1.000000 0.000000 0.000000
vn 1.000000 0.000000 0.000000
vn 1.000000 0.000000 0.000000
vn 1.000000 0.000000 0.000000
vn 0.000000 -1.000000 0.000000
vn 0.000000 -1.000000 0.000000
vn 0.000000 -1.000000 0.000000
vn 0.000000 -1.000000 0.000000
vn 1.000000 0.000000 0.000000
vn 1.000000 0.000000 0.000000
vn 1.000000 0.000000 0.000000
vn 1.000000 0.000000 0.000000
vn 0.000000 -1.000000 0.000000
vn 0.000000 -1.000000 0.000000
vn 0.000000 -1.000000 0.000000
vn 0.000000 -1.000000 0.000000
vn -1.000000 0.000000 0.000000
vn -1.000000 0.000000 0.000000
vn -1.000000 0.000000 0.000000
vn -1.000000 0.000000 0.000000
vn 0.000000 -1.000000 0.000000
vn 0.000000 -1.000000 0.000000
vn 0.000000 -1.000000 0.000000
vn 0.000000 -1.000000 0.000000
vn -1.000000 0.000000 0.000000
vn -1.000000 0.000000 0.000000
vn -1.000000 0.000000 0.000000
vn -1.000000 0.000000 0.000000
vn 0.000000 1.000000 0.000000
vn 0.000000 1.000000 0.000000
vn 0.000000 1.000000 0.000000
vn 0.000000 1.000000 0.000000
vn 0.000000 0.000000 1.000000
vn 0.000000 0.000000 1.000000
vn 0.000000 0.000000 1.000000
vn 0.000000 0.000000 1.000000
vn 0.000000 -1.000000 0.000000
vn 0.000000 -1.000000 0.000000
vn 0.000000 -1.000000 0.000000
vn 0.000000 -1.000000 0.000000
vn 0.000000 0.000000 -1.000000
vn 0.000000 0.000000 -1.000000
vn 0.000000 0.000000 -1.000000
vn 0.000000 0.000000 -1.000000
s off
g Bench_3_way
usemtl initialShadingGroup
f 9/56/1 10/2/2 4/71/3 3/48/4
f 21/5/5 22/6/6 6/7/7 5/8/8
f 5/69/9 6/51/10 11/66/11 12/53/12
f 7/11/13 8/12/14 26/46/15 27/14/16
f 23/65/17 24/64/18 14/17/19 15/18/20
f 17/52/21 29/20/22 30/21/23 20/22/24
f 1/23/25 2/24/26 10/2/27 9/56/28
f 25/63/29 26/13/30 8/61/31 11/62/32
f 12/53/33 11/66/34 8/12/35 7/11/36
f 7/11/37 27/14/38 28/26/39 12/60/40
f 24/64/41 25/25/42 11/67/43 14/17/44
f 11/9/45 6/7/46 15/18/47 14/17/48
f 6/7/49 22/6/50 23/15/51 15/18/52
f 4/50/53 10/70/54 13/27/55 16/28/56
f 12/10/57 28/59/58 29/20/59 17/52/60
f 9/56/61 3/48/62 19/49/63 18/55/64
f 30/21/65 21/5/66 5/8/67 20/22/68
f 5/8/69 12/68/70 17/19/71 20/22/72
f 31/31/73 32/32/74 22/6/75 21/5/76
f 23/15/77 22/6/78 32/32/79 33/33/80
f 33/33/81 34/35/82 24/16/83 23/15/84
f 34/35/85 41/36/86 42/37/87 24/16/88
f 27/14/89 26/46/90 36/38/91 37/39/92
f 28/26/93 27/14/94 37/39/95 38/40/96
f 29/20/97 28/59/98 38/58/99 39/41/100
f 30/21/101 29/20/102 39/41/103 40/42/104
f 40/42/105 31/31/106 21/5/107 30/21/108
f 3/4/109 4/3/110 32/32/111 31/31/112
f 33/33/113 32/32/114 4/3/115 16/28/116
f 13/27/117 34/35/118 33/33/119 16/28/120
f 10/70/121 35/54/122 34/34/123 13/27/124
f 2/24/125 36/44/126 35/43/127 10/2/128
f 37/39/129 36/38/130 2/24/131 1/23/132
f 38/40/133 37/39/134 1/23/135 9/57/136
f 39/41/137 38/58/138 9/1/139 18/30/140
f 40/42/141 39/41/142 18/30/143 19/29/144
f 3/4/145 31/31/146 40/42/147 19/29/148
f 35/45/149 36/47/150 41/36/151 34/35/152
f 36/38/153 26/46/154 42/37/155 41/36/156
f 26/13/157 25/63/158 24/16/159 42/37/160
