# This file uses centimeters as units for non-parametric coordinates.

mtllib Bench 3 way.mtl
g default
v -3.688910 -0.008777 4.371188
v 3.663385 -0.008777 4.371188
v -3.688910 7.343516 4.371188
v 3.663385 7.343516 4.371188
v -3.688910 7.343516 -4.458082
v 3.663385 7.343516 -4.458082
v -3.688910 -0.008777 -4.458082
v 3.663385 -0.008777 -4.458082
v -3.688910 6.111022 4.371188
v 3.663385 6.111022 4.371188
v 3.663385 6.111022 -4.458082
v -3.688910 6.111022 -4.458082
v 4.408948 6.111022 4.371188
v 4.408948 6.111022 -4.458082
v 4.408948 7.343516 -4.458082
v 4.408948 7.343516 4.371188
v -4.434474 6.111022 -4.458082
v -4.434474 6.111022 4.371188
v -4.434474 7.343516 4.371188
v -4.434474 7.343516 -4.458082
v -3.688910 7.343516 -3.719284
v 3.663385 7.343516 -3.719284
v 4.408948 7.343516 -3.719284
v 4.408948 6.111022 -3.719284
v 3.663385 6.111022 -3.719284
v 3.663385 -0.008777 -3.719282
v -3.688910 -0.008777 -3.719282
v -3.688910 6.111021 -3.719282
v -4.434474 6.111021 -3.719282
v -4.434474 7.343516 -3.719284
v -3.688910 7.343516 3.656340
v 3.663385 7.343516 3.656340
v 4.408948 7.343516 3.656340
v 4.408948 6.111022 3.656340
v 3.663385 6.111022 3.656340
v 3.663385 -0.008777 3.656340
v -3.688910 -0.008777 3.656340
v -3.688910 6.111022 3.656340
v -4.434474 6.111022 3.656340
v -4.434474 7.343516 3.656340
v 4.401512 -0.008777 3.656340
v 4.401512 -0.008777 -3.719282
vt 0.375000 0.208091
vt 0.625000 0.208091
vt 0.625000 0.250000
vt 0.375000 0.250000
vt 0.375000 0.479081
vt 0.625000 0.479081
vt 0.625000 0.500000
vt 0.375000 0.500000
vt 0.625000 0.541909
vt 0.375000 0.541909
vt 0.375000 0.750000
vt 0.625000 0.750000
vt 0.625000 0.770919
vt 0.375000 0.770919
vt 0.854081 0.250000
vt 0.854079 0.208118
vt 0.875000 0.208091
vt 0.875000 0.250000
vt 0.125000 0.208091
vt 0.145919 0.208091
vt 0.145919 0.250000
vt 0.125000 0.250000
vt 0.375000 0.000000
vt 0.625000 0.000000
vt 0.854081 0.208091
vt 0.854081 0.000000
vt 0.875000 0.000000
vt 0.875000 0.208091
vt 0.125000 0.000000
vt 0.145919 0.000000
vt 0.145919 0.208091
vt 0.125000 0.208091
vt 0.875000 0.250000
vt 0.854081 0.250000
vt 0.625000 0.208091
vt 0.625000 0.250000
vt 0.375000 0.250000
vt 0.375000 0.208091
vt 0.145919 0.250000
vt 0.125000 0.250000
vt 0.375000 0.270241
vt 0.625000 0.270241
vt 0.645241 0.250000
vt 0.645241 0.250000
vt 0.645243 0.208115
vt 0.645248 0.218782
vt 0.645241 0.000000
vt 0.854081 0.000000
vt 0.854074 0.218583
vt 0.625000 0.979759
vt 0.375000 0.979759
vt 0.354759 0.000000
vt 0.354759 0.208091
vt 0.354759 0.208091
vt 0.354759 0.250000
vt 0.354759 0.250000
vt 0.645241 0.208091
vt 0.645241 0.000000
vt 0.625000 1.000000
vt 0.375000 1.000000
vn 0.000000 0.000000 1.000000
vn 0.000000 0.000000 1.000000
vn 0.000000 0.000000 1.000000
vn 0.000000 0.000000 1.000000
vn 0.000000 1.000000 0.000000
vn 0.000000 1.000000 0.000000
vn 0.000000 1.000000 0.000000
vn 0.000000 1.000000 0.000000
vn 0.000000 0.000000 -1.000000
vn 0.000000 0.000000 -1.000000
vn 0.000000 0.000000 -1.000000
vn 0.000000 0.000000 -1.000000
vn 0.000000 -1.000000 0.000001
vn 0.000000 -1.000000 0.000001
vn 0.000000 -1.000000 0.000000
vn 0.000000 -1.000000 0.000000
vn 1.000000 0.000000 0.000000
vn 1.000000 0.000000 0.000000
vn 1.000000 0.000000 0.000000
vn 1.000000 0.000000 0.000000
vn -1.000000 0.000000 0.000000
vn -1.000000 0.000000 0.000000
vn -1.000000 0.000000 0.000000
vn -1.000000 0.000000 0.000000
vn 0.000000 0.000000 1.000000
vn 0.000000 0.000000 1.000000
vn 0.000000 0.000000 1.000000
vn 0.000000 0.000000 1.000000
vn 1.000000 0.000000 0.000000
vn 1.000000 0.000000 0.000000
vn 1.000000 0.000000 0.000000
vn 1.000000 0.000000 0.000000
vn 0.000000 0.000000 -1.000000
vn 0.000000 0.000000 -1.000000
vn 0.000000 0.000000 -1.000000
vn 0.000000 0.000000 -1.000000
vn -1.000000 0.000000 0.000000
vn -1.000000 0.000000 0.000000
vn -1.000000 0.000000 0.000000
vn -1.000000 0.000000 0.000000
vn 0.000000 -1.000000 0.000000
vn 0.000000 -1.000000 0.000000
vn 0.000000 -1.000000 0.000000
vn 0.000000 -1.000000 0.000000
vn 0.000000 0.000000 -1.000000
vn 0.000000 0.000000 -1.000000
vn 0.000000 0.000000 -1.000000
vn 0.000000 0.000000 -1.000000
vn 0.000000 1.000000 0.000000
vn 0.000000 1.000000 0.000000
vn 0.000000 1.000000 0.000000
vn 0.000000 1.000000 0.000000
vn 0.000000 0.000000 1.000000
vn 0.000000 0.000000 1.000000
vn 0.000000 0.000000 1.000000
vn 0.000000 0.000000 1.000000
vn 0.000000 -1.000000 -0.000001
vn 0.000000 -1.000000 0.000000
vn 0.000000 -1.000000 0.000000
vn 0.000000 -1.000000 -0.000001
vn 0.000000 0.000000 1.000000
vn 0.000000 0.000000 1.000000
vn 0.000000 0.000000 1.000000
vn 0.000000 0.000000 1.000000
vn 0.000000 1.000000 0.000000
vn 0.000000 1.000000 0.000000
vn 0.000000 1.000000 0.000000
vn 0.000000 1.000000 0.000000
vn 0.000000 0.000000 -1.000000
vn 0.000000 0.000000 -1.000000
vn 0.000000 0.000000 -1.000000
vn 0.000000 0.000000 -1.000000
vn 0.000000 1.000000 0.000000
vn 0.000000 1.000000 0.000000
vn 0.000000 1.000000 0.000000
vn 0.000000 1.000000 0.000000
vn 0.000000 1.000000 0.000000
vn 0.000000 1.000000 0.000000
vn 0.000000 1.000000 0.000000
vn 0.000000 1.000000 0.000000
vn 1.000000 0.000000 0.000000
vn 1.000000 0.000000 0.000000
vn 1.000000 0.000000 0.000000
vn 1.000000 0.000000 0.000000
vn 0.999999 -0.001215 0.000000
vn 0.999999 -0.001215 0.000000
vn 0.999999 -0.001215 0.000000
vn 0.999999 -0.001215 0.000000
vn 0.000000 -1.000000 0.000000
vn 0.000000 -1.000000 0.000000
vn 0.000000 -1.000000 0.000000
vn 0.000000 -1.000000 0.000000
vn -1.000000 0.000000 0.000000
vn -1.000000 0.000000 0.000000
vn -1.000000 0.000000 0.000000
vn -1.000000 0.000000 0.000000
vn 0.000000 -1.000000 0.000000
vn 0.000000 -1.000000 0.000000
vn 0.000000 -1.000000 0.000000
vn 0.000000 -1.000000 0.000000
vn -1.000000 0.000000 0.000000
vn -1.000000 0.000000 0.000000
vn -1.000000 0.000000 0.000000
vn -1.000000 0.000000 0.000000
vn 0.000000 1.000000 0.000000
vn 0.000000 1.000000 0.000000
vn 0.000000 1.000000 0.000000
vn 0.000000 1.000000 0.000000
vn 0.000000 1.000000 0.000000
vn 0.000000 1.000000 0.000000
vn 0.000000 1.000000 0.000000
vn 0.000000 1.000000 0.000000
vn 0.000000 1.000000 0.000000
vn 0.000000 1.000000 0.000000
vn 0.000000 1.000000 0.000000
vn 0.000000 1.000000 0.000000
vn 1.000000 0.000000 0.000000
vn 1.000000 0.000000 0.000000
vn 1.000000 0.000000 0.000000
vn 1.000000 0.000000 0.000000
vn 0.000000 -1.000000 0.000000
vn 0.000000 -1.000000 0.000000
vn 0.000000 -1.000000 0.000000
vn 0.000000 -1.000000 0.000000
vn 1.000000 0.000000 0.000000
vn 1.000000 0.000000 0.000000
vn 1.000000 0.000000 0.000000
vn 1.000000 0.000000 0.000000
vn 0.000000 -1.000000 0.000000
vn 0.000000 -1.000000 0.000000
vn 0.000000 -1.000000 0.000000
vn 0.000000 -1.000000 0.000000
vn -1.000000 0.000000 0.000000
vn -1.000000 0.000000 0.000000
vn -1.000000 0.000000 0.000000
vn -1.000000 0.000000 0.000000
vn 0.000000 -1.000000 0.000000
vn 0.000000 -1.000000 0.000000
vn 0.000000 -1.000000 0.000000
vn 0.000000 -1.000000 0.000000
vn -1.000000 0.000000 0.000000
vn -1.000000 0.000000 0.000000
vn -1.000000 0.000000 0.000000
vn -1.000000 0.000000 0.000000
vn 0.000000 1.000000 0.000000
vn 0.000000 1.000000 0.000000
vn 0.000000 1.000000 0.000000
vn 0.000000 1.000000 0.000000
vn 0.000000 0.000000 1.000000
vn 0.000000 0.000000 1.000000
vn 0.000000 0.000000 1.000000
vn 0.000000 0.000000 1.000000
vn 0.000000 -1.000000 0.000000
vn 0.000000 -1.000000 0.000000
vn 0.000000 -1.000000 0.000000
vn 0.000000 -1.000000 0.000000
vn 0.000000 0.000000 -1.000000
vn 0.000000 0.000000 -1.000000
vn 0.000000 0.000000 -1.000000
vn 0.000000 0.000000 -1.000000
s off
g Bench_3_way
usemtl initialShadingGroup
f 9/1/1 10/2/2 4/3/3 3/4/4
f 21/5/5 22/6/6 6/7/7 5/8/8
f 5/8/9 6/7/10 11/9/11 12/10/12
f 7/11/13 8/12/14 26/13/15 27/14/16
f 23/15/17 24/16/18 14/17/19 15/18/20
f 17/19/21 29/20/22 30/21/23 20/22/24
f 1/23/25 2/24/26 10/2/27 9/1/28
f 25/25/29 26/26/30 8/27/31 11/28/32
f 12/10/33 11/9/34 8/12/35 7/11/36
f 7/29/37 27/30/38 28/31/39 12/32/40
f 24/16/41 25/25/42 11/28/43 14/17/44
f 11/28/45 6/33/46 15/18/47 14/17/48
f 6/33/49 22/34/50 23/15/51 15/18/52
f 4/3/53 10/2/54 13/35/55 16/36/56
f 12/32/57 28/31/58 29/20/59 17/19/60
f 9/1/61 3/4/62 19/37/63 18/38/64
f 30/21/65 21/39/66 5/40/67 20/22/68
f 5/40/69 12/32/70 17/19/71 20/22/72
f 31/41/73 32/42/74 22/6/75 21/5/76
f 23/15/77 22/34/78 32/43/79 33/44/80
f 33/44/81 34/45/82 24/16/83 23/15/84
f 34/46/85 41/47/86 42/48/87 24/49/88
f 27/14/89 26/13/90 36/50/91 37/51/92
f 28/31/93 27/30/94 37/52/95 38/53/96
f 29/20/97 28/31/98 38/53/99 39/54/100
f 30/21/101 29/20/102 39/54/103 40/55/104
f 40/55/105 31/56/106 21/39/107 30/21/108
f 3/4/109 4/3/110 32/42/111 31/41/112
f 33/44/113 32/43/114 4/3/115 16/36/116
f 13/35/117 34/45/118 33/44/119 16/36/120
f 10/2/121 35/57/122 34/45/123 13/35/124
f 2/24/125 36/58/126 35/57/127 10/2/128
f 37/51/129 36/50/130 2/59/131 1/60/132
f 38/53/133 37/52/134 1/23/135 9/1/136
f 39/54/137 38/53/138 9/1/139 18/38/140
f 40/55/141 39/54/142 18/38/143 19/37/144
f 3/4/145 31/56/146 40/55/147 19/37/148
f 35/57/149 36/58/150 41/47/151 34/46/152
f 36/58/153 26/26/154 42/48/155 41/47/156
f 26/26/157 25/25/158 24/49/159 42/48/160
