# This file uses centimeters as units for non-parametric coordinates.

mtllib Bench Middle.mtl
g default
v -3.704395 -0.008778 4.355860
v 3.647902 -0.008778 4.355860
v -3.704395 7.343517 4.355860
v 3.647902 7.343517 4.355860
v -3.704395 7.343517 -4.376872
v 3.647902 7.343517 -4.376872
v -3.704395 -0.008778 -4.376872
v 3.647902 -0.008778 -4.376872
v -3.704395 6.111022 4.355860
v 3.647902 6.111022 4.355860
v 3.647902 6.111022 -4.376872
v -3.704395 6.111022 -4.376872
v 4.393463 6.111022 4.355860
v 4.393463 6.111022 -4.376872
v 4.393463 7.343517 -4.376872
v 4.393463 7.343517 4.355860
v -4.449957 6.111022 -4.376872
v -4.449957 6.111022 4.355860
v -4.449957 7.343517 4.355860
v -4.449957 7.343517 -4.376872
vt 0.375000 0.208091
vt 0.625000 0.208091
vt 0.625000 0.250000
vt 0.375000 0.250000
vt 0.625000 0.500000
vt 0.375000 0.500000
vt 0.625000 0.541909
vt 0.375000 0.541909
vt 0.375000 0.750000
vt 0.625000 0.750000
vt 0.625000 1.000000
vt 0.375000 1.000000
vt 0.625000 0.208091
vt 0.875000 0.208091
vt 0.875000 0.250000
vt 0.625000 0.250000
vt 0.125000 0.208091
vt 0.375000 0.208091
vt 0.375000 0.250000
vt 0.125000 0.250000
vt 0.375000 0.000000
vt 0.625000 0.000000
vt 0.875000 0.000000
vt 0.875000 0.208091
vt 0.125000 0.000000
vt 0.125000 0.208091
vt 0.875000 0.250000
vt 0.125000 0.250000
vn 0.000000 0.000000 1.000000
vn 0.000000 0.000000 1.000000
vn 0.000000 0.000000 1.000000
vn 0.000000 0.000000 1.000000
vn 0.000000 1.000000 0.000000
vn 0.000000 1.000000 0.000000
vn 0.000000 1.000000 0.000000
vn 0.000000 1.000000 0.000000
vn 0.000000 0.000000 -1.000000
vn 0.000000 0.000000 -1.000000
vn 0.000000 0.000000 -1.000000
vn 0.000000 0.000000 -1.000000
vn 0.000000 -1.000000 0.000000
vn 0.000000 -1.000000 0.000000
vn 0.000000 -1.000000 0.000000
vn 0.000000 -1.000000 0.000000
vn 1.000000 0.000000 0.000000
vn 1.000000 0.000000 0.000000
vn 1.000000 0.000000 0.000000
vn 1.000000 0.000000 0.000000
vn -1.000000 0.000000 0.000000
vn -1.000000 0.000000 0.000000
vn -1.000000 0.000000 0.000000
vn -1.000000 0.000000 0.000000
vn 0.000000 0.000000 1.000000
vn 0.000000 0.000000 1.000000
vn 0.000000 0.000000 1.000000
vn 0.000000 0.000000 1.000000
vn 1.000000 0.000000 0.000000
vn 1.000000 0.000000 0.000000
vn 1.000000 0.000000 0.000000
vn 1.000000 0.000000 0.000000
vn 0.000000 0.000000 -1.000000
vn 0.000000 0.000000 -1.000000
vn 0.000000 0.000000 -1.000000
vn 0.000000 0.000000 -1.000000
vn -1.000000 0.000000 0.000000
vn -1.000000 0.000000 0.000000
vn -1.000000 0.000000 0.000000
vn -1.000000 0.000000 0.000000
vn 0.000000 -1.000000 0.000000
vn 0.000000 -1.000000 0.000000
vn 0.000000 -1.000000 0.000000
vn 0.000000 -1.000000 0.000000
vn 0.000000 0.000000 -1.000000
vn 0.000000 0.000000 -1.000000
vn 0.000000 0.000000 -1.000000
vn 0.000000 0.000000 -1.000000
vn 0.000000 1.000000 0.000000
vn 0.000000 1.000000 0.000000
vn 0.000000 1.000000 0.000000
vn 0.000000 1.000000 0.000000
vn 0.000000 0.000000 1.000000
vn 0.000000 0.000000 1.000000
vn 0.000000 0.000000 1.000000
vn 0.000000 0.000000 1.000000
vn 0.000000 -1.000000 0.000000
vn 0.000000 -1.000000 0.000000
vn 0.000000 -1.000000 0.000000
vn 0.000000 -1.000000 0.000000
vn 0.000000 0.000000 1.000000
vn 0.000000 0.000000 1.000000
vn 0.000000 0.000000 1.000000
vn 0.000000 0.000000 1.000000
vn 0.000000 1.000000 0.000000
vn 0.000000 1.000000 0.000000
vn 0.000000 1.000000 0.000000
vn 0.000000 1.000000 0.000000
vn 0.000000 0.000000 -1.000000
vn 0.000000 0.000000 -1.000000
vn 0.000000 0.000000 -1.000000
vn 0.000000 0.000000 -1.000000
s off
g Bench_Middle
usemtl initialShadingGroup
f 9/1/1 10/2/2 4/3/3 3/4/4
f 3/4/5 4/3/6 6/5/7 5/6/8
f 5/6/9 6/5/10 11/7/11 12/8/12
f 7/9/13 8/10/14 2/11/15 1/12/16
f 13/13/17 14/14/18 15/15/19 16/16/20
f 17/17/21 18/18/22 19/19/23 20/20/24
f 1/21/25 2/22/26 10/2/27 9/1/28
f 2/22/29 8/23/30 11/24/31 10/2/32
f 12/8/33 11/7/34 8/10/35 7/9/36
f 7/25/37 1/21/38 9/1/39 12/26/40
f 10/2/41 11/24/42 14/14/43 13/13/44
f 11/24/45 6/27/46 15/15/47 14/14/48
f 6/27/49 4/3/50 16/16/51 15/15/52
f 4/3/53 10/2/54 13/13/55 16/16/56
f 12/26/57 9/1/58 18/18/59 17/17/60
f 9/1/61 3/4/62 19/19/63 18/18/64
f 3/4/65 5/28/66 20/20/67 19/19/68
f 5/28/69 12/26/70 17/17/71 20/20/72
