# This file uses centimeters as units for non-parametric coordinates.

mtllib Sword Mold 1.mtl
g default
v -2.860122 -0.732645 2.852168
v 2.899406 -0.732645 2.852168
v -2.860122 -0.732645 -2.907361
v 2.899406 -0.732645 -2.907361
v -2.860122 0.439617 2.852168
v -2.567093 0.732645 2.559139
v 2.606377 0.732645 2.559139
v 2.899406 0.439617 2.852168
v -2.567093 0.732645 -2.614333
v -2.860122 0.439617 -2.907361
v 2.606377 0.732645 -2.614333
v 2.899406 0.439617 -2.907361
v 0.019642 -0.732645 2.852168
v 0.019642 -0.732645 -2.907361
v 0.019642 0.439617 -2.907361
v 0.019642 0.732645 -2.614333
v 0.019642 0.732645 2.559139
v 0.019642 0.439617 2.852168
v 2.089030 0.732645 2.559139
v 2.089030 0.732645 -2.614333
v 2.323454 0.439617 -2.907361
v 2.323454 -0.732645 -2.907361
v 2.323454 -0.732645 2.852168
v 2.323454 0.439617 2.852168
v -2.284169 -0.732645 2.852168
v -2.284169 -0.732645 -2.907361
v -2.284169 0.439617 -2.907361
v -2.049746 0.732645 -2.614333
v -2.049746 0.732645 2.559139
v -2.284169 0.439617 2.852168
v -2.860122 -0.732645 -0.027597
v -2.284169 -0.732645 -0.027597
v 0.019642 -0.732645 -0.027597
v 2.323454 -0.732645 -0.027597
v 2.899406 -0.732645 -0.027597
v 2.899406 0.439617 -0.027597
v 2.606377 0.732645 -0.027597
v 2.089030 0.732645 -0.027597
v -2.049746 0.732645 -0.027597
v -2.567093 0.732645 -0.027597
v -2.860122 0.439617 -0.027597
v -2.567093 0.732645 2.041793
v -2.049746 0.732645 2.041793
v 0.019642 0.732645 2.041793
v 2.089030 0.732645 2.041793
v 2.606377 0.732645 2.041793
v 2.899406 0.439617 2.276215
v 2.899406 -0.732645 2.276215
v 2.323454 -0.732645 2.276215
v 0.019642 -0.732645 2.276215
v -2.284169 -0.732645 2.276215
v -2.860122 -0.732645 2.276215
v -2.860122 0.439617 2.276215
v -2.860122 -0.732645 -2.331407
v -2.284169 -0.732645 -2.331407
v 0.019642 -0.732645 -2.331407
v 2.323454 -0.732645 -2.331407
v 2.899406 -0.732645 -2.331407
v 2.899406 0.439617 -2.331407
v 2.606377 0.732645 -2.096987
v 2.089030 0.732645 -2.096987
v 0.019642 0.732645 -2.096987
v -2.049746 0.732645 -2.096987
v -2.567093 0.732645 -2.096987
v -2.860122 0.439617 -2.331407
v 2.089030 0.732645 1.007099
v 1.054336 0.732645 -0.027597
v 0.019642 0.732645 -1.062291
v -1.015052 0.732645 -2.096987
v 1.054336 0.732645 2.041793
v 0.019642 0.732645 1.007099
v -1.015052 0.732645 -0.027597
v -2.049746 0.732645 -1.062291
v -1.532400 0.732645 -0.544945
v -0.497705 0.732645 -1.579639
v -0.756377 0.732645 -1.320965
v -1.532400 0.732645 -2.096987
v -1.273726 0.732645 -0.803617
v -2.049746 0.732645 -1.579639
v -1.791072 0.732645 -1.838311
v 1.054336 0.310085 -0.027597
v 0.019642 0.310085 -1.062291
v 0.019642 0.310085 -0.544945
v 0.019642 0.310085 -0.027597
v 2.089030 0.310085 1.007099
v 2.089030 0.310085 2.041793
v 0.019642 0.310085 1.007099
v 1.054336 0.310085 2.041793
v -0.497705 0.310085 -0.027597
v -1.015052 0.310085 -0.027597
v -1.273726 0.310085 -0.803617
v -1.532400 0.310085 -0.544945
v -0.756377 0.310085 -1.320965
v -1.015052 0.310085 -1.062291
v -0.497705 0.310085 -1.579639
v -2.049746 0.310085 -1.579639
v -1.791072 0.310085 -1.838311
v -1.532400 0.310085 -2.096987
vt 0.652854 0.568243
vt 0.542064 0.452727
vt 0.657580 0.341936
vt 0.768370 0.457453
vt 0.275116 0.419852
vt 0.283291 0.451904
vt 0.179529 0.551421
vt 0.159600 0.530642
vt 0.433627 0.556727
vt 0.454406 0.536798
vt 0.565197 0.652314
vt 0.533144 0.660489
vt 0.532083 0.711308
vt 0.563766 0.720814
vt 0.448250 0.831604
vt 0.428321 0.810825
vt 0.860754 0.147074
vt 0.174223 0.805519
vt 0.273739 0.909281
vt 0.264234 0.940964
vt 0.513185 0.480424
vt 0.623975 0.595940
vt 0.986743 0.802122
vt 0.995876 0.679183
vt 0.407687 0.581606
vt 0.801975 0.203448
vt 0.912766 0.318965
vt 0.620592 0.710073
vt 0.679370 0.653698
vt 0.790161 0.769215
vt 0.731382 0.825589
vt 0.177431 0.248008
vt 0.236209 0.191634
vt 0.347000 0.307150
vt 0.288221 0.363524
vt 0.431274 0.337210
vt 0.546790 0.226420
vt 0.691185 0.087932
vt 0.749964 0.031558
vt 0.074706 0.701757
vt 0.995876 0.577375
vt 0.204408 0.577361
vt 0.308170 0.477844
vt 0.334110 0.452965
vt 0.343616 0.421282
vt 0.402395 0.364908
vt 0.403442 0.784885
vt 0.834864 0.780999
vt 0.894919 0.852698
vt 0.298619 0.935221
vt 0.303855 0.970092
vt 0.940463 0.347844
vt 0.680552 0.597122
vt 0.796068 0.486331
vt 0.651673 0.624819
vt 0.592894 0.681193
vt 0.558023 0.686429
vt 0.519092 0.197541
vt 0.403576 0.308331
vt 0.722266 0.002679
vt 0.663488 0.059053
vt 0.049827 0.675817
vt 0.309231 0.427025
vt 0.303995 0.392154
vt 0.374697 0.336029
vt 0.634609 0.086751
vt 0.662306 0.115630
vt 0.773096 0.231146
vt 0.883887 0.346662
vt 0.911584 0.375541
vt 0.900951 0.884731
vt 0.842172 0.941105
vt 0.332734 0.942394
vt 0.324559 0.910342
vt 0.299680 0.884402
vt 0.862882 0.679183
vt 0.862882 0.577375
vt 0.890314 0.602276
vt 0.915651 0.628003
vt 0.995876 0.525815
vt 0.152527 0.627120
vt 0.967864 0.448897
vt 0.100646 0.676878
vt 0.075767 0.650938
vt 0.044084 0.641432
vt 0.066640 0.132492
vt 0.125419 0.076118
vt 0.928648 0.913610
vt 0.869870 0.969984
vt 0.200163 0.780640
vt 0.890314 0.419983
vt 0.150405 0.728759
vt 0.097721 0.047239
vt 0.038943 0.103613
vt 0.862882 0.780999
vt 0.915651 0.831655
vt 0.915651 0.419983
vt 0.834864 0.679183
vt 0.834864 0.577375
vt 0.834864 0.525814
vt 0.967864 0.679183
vt 0.967864 0.780999
vt 0.941414 0.602276
vt 0.967864 0.577375
vt 0.995876 0.500387
vt 0.941414 0.525814
vt 0.967864 0.525814
vt 0.862882 0.500384
vt 0.915651 0.525814
vt 0.862882 0.525814
vt 0.862882 0.525814
vt 0.941414 0.448897
vt 0.915651 0.448897
vt 0.890314 0.448897
vt 0.126587 0.651999
vt 0.126056 0.677409
vt 0.201755 0.704410
vt 0.201224 0.729820
vt 0.125525 0.702818
vt 0.202816 0.653591
vt 0.203347 0.628181
vt 0.252044 0.730881
vt 0.353683 0.733004
vt 0.455323 0.735126
vt 0.507204 0.685368
vt 0.457445 0.633487
vt 0.254167 0.629242
vt 0.355806 0.631364
vt 0.014956 0.681053
vt 0.999242 0.291470
vt 0.042654 0.709932
vt 0.971545 0.262591
vt 0.153444 0.825448
vt 0.315918 0.392403
vt 0.015205 0.669130
vt 0.592645 0.693116
vt 0.291932 0.969843
vt 0.935996 0.852698
vt 0.862882 0.448897
vt 0.941414 0.419983
vt 0.995876 0.780999
vt 0.843877 0.802122
vt 0.834864 0.500384
vt 0.890314 0.525814
vt 0.967864 0.500387
vt 0.967864 0.525814
vn 0.000000 -1.000000 0.000000
vn 0.000000 -1.000000 0.000000
vn 0.000000 -1.000000 0.000000
vn 0.000000 -1.000000 0.000000
vn -0.707107 0.707107 0.000000
vn -0.707107 0.707107 0.000000
vn -0.707107 0.707107 0.000000
vn -0.707107 0.707107 0.000000
vn 0.000000 0.707107 0.707107
vn 0.000000 0.707107 0.707107
vn 0.000000 0.707107 0.707107
vn 0.000000 0.707107 0.707107
vn 0.707106 0.707107 0.000000
vn 0.707106 0.707107 0.000000
vn 0.707106 0.707107 0.000000
vn 0.707106 0.707107 0.000000
vn 0.000000 0.707106 -0.707108
vn 0.000000 0.707106 -0.707108
vn 0.000000 0.707106 -0.707108
vn 0.000000 0.707106 -0.707108
vn 0.000000 0.000000 1.000000
vn 0.000000 0.000000 1.000000
vn 0.000000 0.000000 1.000000
vn 0.000000 0.000000 1.000000
vn 0.000000 1.000000 0.000000
vn 0.000000 1.000000 0.000000
vn 0.000000 1.000000 0.000000
vn 0.000000 0.000000 -1.000000
vn 0.000000 0.000000 -1.000000
vn 0.000000 0.000000 -1.000000
vn 0.000000 0.000000 -1.000000
vn 1.000000 0.000000 0.000000
vn 1.000000 0.000000 0.000000
vn 1.000000 0.000000 0.000000
vn 1.000000 0.000000 0.000000
vn -1.000000 0.000000 0.000000
vn -1.000000 0.000000 0.000000
vn -1.000000 0.000000 0.000000
vn -1.000000 0.000000 0.000000
vn 0.000000 -1.000000 0.000000
vn 0.000000 -1.000000 0.000000
vn 0.000000 -1.000000 0.000000
vn 0.000000 -1.000000 0.000000
vn 0.000000 0.000000 -1.000000
vn 0.000000 0.000000 -1.000000
vn 0.000000 0.000000 -1.000000
vn 0.000000 0.000000 -1.000000
vn 0.000000 0.707106 -0.707108
vn 0.000000 0.707106 -0.707108
vn 0.000000 0.707106 -0.707108
vn 0.000000 0.707106 -0.707108
vn 0.000000 1.000000 0.000000
vn 0.000000 1.000000 0.000000
vn 0.000000 1.000000 0.000000
vn 0.000000 1.000000 0.000000
vn 0.000000 1.000000 0.000000
vn 0.000000 0.707107 0.707107
vn 0.000000 0.707107 0.707107
vn 0.000000 0.707107 0.707107
vn 0.000000 0.707107 0.707107
vn 0.000000 0.000000 1.000000
vn 0.000000 0.000000 1.000000
vn 0.000000 0.000000 1.000000
vn 0.000000 0.000000 1.000000
vn 0.000000 1.000000 0.000000
vn 0.000000 1.000000 0.000000
vn 0.000000 1.000000 0.000000
vn 0.000000 1.000000 0.000000
vn 0.000000 1.000000 0.000000
vn 0.000000 0.707106 -0.707108
vn 0.000000 0.707106 -0.707108
vn 0.000000 0.707106 -0.707108
vn 0.000000 0.707106 -0.707108
vn 0.000000 0.000000 -1.000000
vn 0.000000 0.000000 -1.000000
vn 0.000000 0.000000 -1.000000
vn 0.000000 0.000000 -1.000000
vn 0.000000 -1.000000 0.000000
vn 0.000000 -1.000000 0.000000
vn 0.000000 -1.000000 0.000000
vn 0.000000 -1.000000 0.000000
vn 0.000000 0.000000 1.000000
vn 0.000000 0.000000 1.000000
vn 0.000000 0.000000 1.000000
vn 0.000000 0.000000 1.000000
vn 0.000000 0.707107 0.707107
vn 0.000000 0.707107 0.707107
vn 0.000000 0.707107 0.707107
vn 0.000000 0.707107 0.707107
vn 0.000000 -1.000000 0.000000
vn 0.000000 -1.000000 0.000000
vn 0.000000 -1.000000 0.000000
vn 0.000000 -1.000000 0.000000
vn 0.000000 0.000000 -1.000000
vn 0.000000 0.000000 -1.000000
vn 0.000000 0.000000 -1.000000
vn 0.000000 0.000000 -1.000000
vn 0.000000 0.707106 -0.707108
vn 0.000000 0.707106 -0.707108
vn 0.000000 0.707106 -0.707108
vn 0.000000 0.707106 -0.707108
vn 0.000000 1.000000 0.000000
vn 0.000000 1.000000 0.000000
vn 0.000000 1.000000 0.000000
vn 0.000000 1.000000 0.000000
vn 0.000000 0.707107 0.707107
vn 0.000000 0.707107 0.707107
vn 0.000000 0.707107 0.707107
vn 0.000000 0.707107 0.707107
vn 0.000000 0.000000 1.000000
vn 0.000000 0.000000 1.000000
vn 0.000000 0.000000 1.000000
vn 0.000000 0.000000 1.000000
vn 0.000000 -1.000000 0.000000
vn 0.000000 -1.000000 0.000000
vn 0.000000 -1.000000 0.000000
vn 0.000000 -1.000000 0.000000
vn 0.000000 -1.000000 0.000000
vn 0.000000 -1.000000 0.000000
vn 0.000000 -1.000000 0.000000
vn 0.000000 -1.000000 0.000000
vn 0.000000 -1.000000 0.000000
vn 0.000000 -1.000000 0.000000
vn 0.000000 -1.000000 0.000000
vn 0.000000 -1.000000 0.000000
vn 0.000000 -1.000000 0.000000
vn 0.000000 -1.000000 0.000000
vn 0.000000 -1.000000 0.000000
vn 0.000000 -1.000000 0.000000
vn 1.000000 0.000000 0.000000
vn 1.000000 0.000000 0.000000
vn 1.000000 0.000000 0.000000
vn 1.000000 0.000000 0.000000
vn 0.707106 0.707107 0.000000
vn 0.707106 0.707107 0.000000
vn 0.707106 0.707107 0.000000
vn 0.707106 0.707107 0.000000
vn 0.000000 1.000000 0.000000
vn 0.000000 1.000000 0.000000
vn 0.000000 1.000000 0.000000
vn 0.000000 1.000000 0.000000
vn 0.000000 1.000000 0.000000
vn 0.000000 1.000000 0.000000
vn 0.000000 1.000000 0.000000
vn 0.000000 1.000000 0.000000
vn 0.000000 1.000000 0.000000
vn 0.000000 1.000000 0.000000
vn 0.000000 1.000000 0.000000
vn 0.000000 1.000000 0.000000
vn 0.000000 1.000000 0.000000
vn 0.000000 1.000000 0.000000
vn 0.000000 1.000000 0.000000
vn 0.000000 1.000000 0.000000
vn 0.000000 1.000000 0.000000
vn 0.000000 1.000000 0.000000
vn -0.707107 0.707107 0.000000
vn -0.707107 0.707107 0.000000
vn -0.707107 0.707107 0.000000
vn -0.707107 0.707107 0.000000
vn -1.000000 0.000000 0.000000
vn -1.000000 0.000000 0.000000
vn -1.000000 0.000000 0.000000
vn -1.000000 0.000000 0.000000
vn 0.000000 1.000000 0.000000
vn 0.000000 1.000000 0.000000
vn 0.000000 1.000000 0.000000
vn 0.000000 1.000000 0.000000
vn 0.000000 1.000000 0.000000
vn 0.000000 1.000000 0.000000
vn 0.000000 1.000000 0.000000
vn 0.000000 1.000000 0.000000
vn 0.000000 1.000000 0.000000
vn 0.000000 1.000000 0.000000
vn 0.000000 1.000000 0.000000
vn 0.000000 1.000000 0.000000
vn 0.000000 1.000000 0.000000
vn 0.000000 1.000000 0.000000
vn 0.000000 1.000000 0.000000
vn 0.000000 1.000000 0.000000
vn 0.707106 0.707107 0.000000
vn 0.707106 0.707107 0.000000
vn 0.707106 0.707107 0.000000
vn 0.707106 0.707107 0.000000
vn 1.000000 0.000000 0.000000
vn 1.000000 0.000000 0.000000
vn 1.000000 0.000000 0.000000
vn 1.000000 0.000000 0.000000
vn 0.000000 -1.000000 0.000000
vn 0.000000 -1.000000 0.000000
vn 0.000000 -1.000000 0.000000
vn 0.000000 -1.000000 0.000000
vn 0.000000 -1.000000 0.000000
vn 0.000000 -1.000000 0.000000
vn 0.000000 -1.000000 0.000000
vn 0.000000 -1.000000 0.000000
vn 0.000000 -1.000000 0.000000
vn 0.000000 -1.000000 0.000000
vn 0.000000 -1.000000 0.000000
vn 0.000000 -1.000000 0.000000
vn 0.000000 -1.000000 0.000000
vn 0.000000 -1.000000 0.000000
vn 0.000000 -1.000000 0.000000
vn 0.000000 -1.000000 0.000000
vn -1.000000 0.000000 0.000000
vn -1.000000 0.000000 0.000000
vn -1.000000 0.000000 0.000000
vn -1.000000 0.000000 0.000000
vn -0.707107 0.707107 0.000000
vn -0.707107 0.707107 0.000000
vn -0.707107 0.707107 0.000000
vn -0.707107 0.707107 0.000000
vn 0.000000 -1.000000 0.000000
vn 0.000000 -1.000000 0.000000
vn 0.000000 -1.000000 0.000000
vn 0.000000 -1.000000 0.000000
vn 0.000000 -1.000000 0.000000
vn 0.000000 -1.000000 0.000000
vn 0.000000 -1.000000 0.000000
vn 0.000000 -1.000000 0.000000
vn 0.000000 -1.000000 0.000000
vn 0.000000 -1.000000 0.000000
vn 0.000000 -1.000000 0.000000
vn 0.000000 -1.000000 0.000000
vn 0.000000 -1.000000 0.000000
vn 0.000000 -1.000000 0.000000
vn 0.000000 -1.000000 0.000000
vn 0.000000 -1.000000 0.000000
vn 1.000000 0.000000 0.000000
vn 1.000000 0.000000 0.000000
vn 1.000000 0.000000 0.000000
vn 1.000000 0.000000 0.000000
vn 0.707106 0.707107 0.000000
vn 0.707106 0.707107 0.000000
vn 0.707106 0.707107 0.000000
vn 0.707106 0.707107 0.000000
vn 0.000000 1.000000 0.000000
vn 0.000000 1.000000 0.000000
vn 0.000000 1.000000 0.000000
vn 0.000000 1.000000 0.000000
vn 0.000000 1.000000 0.000000
vn 0.000000 1.000000 0.000000
vn 0.000000 1.000000 0.000000
vn 0.000000 1.000000 0.000000
vn 0.000000 1.000000 0.000000
vn 0.000000 1.000000 0.000000
vn 0.000000 1.000000 0.000000
vn 0.000000 1.000000 0.000000
vn 0.000000 1.000000 0.000000
vn 0.000000 1.000000 0.000000
vn 0.000000 1.000000 0.000000
vn 0.000000 1.000000 0.000000
vn 0.000000 1.000000 0.000000
vn -0.707107 0.707107 0.000000
vn -0.707107 0.707107 0.000000
vn -0.707107 0.707107 0.000000
vn -0.707107 0.707107 0.000000
vn -1.000000 0.000000 0.000000
vn -1.000000 0.000000 0.000000
vn -1.000000 0.000000 0.000000
vn -1.000000 0.000000 0.000000
vn 0.000000 1.000000 0.000000
vn 0.000000 1.000000 0.000000
vn 0.000000 1.000000 0.000000
vn 0.000000 1.000000 0.000000
vn 0.000000 1.000000 0.000000
vn 0.000000 1.000000 0.000000
vn 0.000000 1.000000 0.000000
vn 0.000000 1.000000 0.000000
vn 0.000000 1.000000 0.000000
vn 0.000000 1.000000 0.000000
vn 0.000000 1.000000 0.000000
vn 0.000000 1.000000 0.000000
vn 0.000000 1.000000 0.000000
vn 0.000000 1.000000 0.000000
vn 0.000000 1.000000 0.000000
vn 0.000000 1.000000 0.000000
vn 0.000000 1.000000 0.000000
vn 0.000000 1.000000 0.000000
vn 0.000000 1.000000 0.000000
vn 0.000000 1.000000 0.000000
vn 0.000000 1.000000 0.000000
vn 0.000000 1.000000 0.000000
vn 0.000000 1.000000 0.000000
vn 0.000000 1.000000 0.000000
vn 0.000000 1.000000 0.000000
vn 0.000000 1.000000 0.000000
vn 0.000000 1.000000 0.000000
vn 0.000000 1.000000 0.000000
vn 0.000000 1.000000 0.000000
vn 0.000000 1.000000 0.000000
vn 0.000000 1.000000 0.000000
vn 0.000000 1.000000 0.000000
vn 0.000000 1.000000 0.000000
vn 0.000000 1.000000 0.000000
vn 0.000000 1.000000 0.000000
vn 0.000000 1.000000 0.000000
vn 0.000000 1.000000 0.000000
vn 0.000000 1.000000 0.000000
vn 0.000000 1.000000 0.000000
vn 0.000000 1.000000 0.000000
vn 0.000000 1.000000 0.000000
vn 0.000000 1.000000 0.000000
vn 0.000000 1.000000 0.000000
vn 0.000000 1.000000 0.000000
vn 0.000000 1.000000 0.000000
vn 0.000000 1.000000 0.000000
vn 0.000000 1.000000 0.000000
vn 0.000000 1.000000 0.000000
vn 0.000000 1.000000 0.000000
vn 0.000000 1.000000 0.000000
vn 0.000000 1.000000 0.000000
vn 0.000000 1.000000 0.000000
vn 0.000000 1.000000 0.000000
vn 0.000000 1.000000 0.000000
vn 0.000000 1.000000 0.000000
vn 0.000000 1.000000 0.000000
vn 0.000000 1.000000 0.000000
vn 0.000000 1.000000 0.000000
vn 0.000000 1.000000 0.000000
vn 0.000000 1.000000 0.000000
vn 0.000000 1.000000 0.000000
vn 0.000000 1.000000 0.000000
vn 0.000000 1.000000 0.000000
vn 0.000000 1.000000 0.000000
vn 0.000000 1.000000 0.000000
vn 0.000000 1.000000 0.000000
vn 0.000000 1.000000 0.000000
vn 0.000000 1.000000 0.000000
vn -0.707107 0.000000 0.707107
vn -0.707107 0.000000 0.707106
vn -0.707107 0.000000 0.707106
vn -0.707107 0.000000 0.707107
vn -0.707107 0.000000 0.707106
vn -0.707107 0.000000 0.707107
vn -0.707107 0.000000 0.707107
vn -0.707107 0.000000 0.707106
vn -1.000000 0.000000 0.000000
vn -1.000000 0.000000 0.000000
vn -1.000000 0.000000 0.000000
vn -1.000000 0.000000 0.000000
vn 0.707107 0.000000 -0.707107
vn 0.707107 0.000000 -0.707107
vn 0.707107 0.000000 -0.707107
vn 0.707107 0.000000 -0.707107
vn 0.000000 0.000000 -1.000000
vn 0.000000 0.000000 -1.000000
vn 0.000000 0.000000 -1.000000
vn 0.000000 0.000000 -1.000000
vn 0.707107 0.000000 -0.707107
vn 0.707107 0.000000 -0.707107
vn 0.707107 0.000000 -0.707107
vn 0.707107 0.000000 -0.707107
vn 0.707105 0.000000 0.707109
vn 0.707105 0.000000 0.707109
vn 0.707105 0.000000 0.707109
vn 0.707105 0.000000 0.707109
vn 0.707107 0.000000 -0.707107
vn 0.707107 0.000000 -0.707107
vn 0.707107 0.000000 -0.707107
vn 0.707107 0.000000 -0.707107
vn -0.707107 0.000000 0.707106
vn -0.707107 0.000000 0.707106
vn -0.707107 0.000000 0.707106
vn -0.707107 0.000000 0.707106
vn 0.707108 0.000000 0.707106
vn 0.707108 0.000000 0.707106
vn 0.707108 0.000000 0.707106
vn 0.707108 0.000000 0.707106
vn 0.707107 0.000000 -0.707106
vn 0.707107 0.000000 -0.707106
vn 0.707107 0.000000 -0.707106
vn 0.707107 0.000000 -0.707106
vn 0.707108 0.000000 0.707106
vn 0.707105 0.000000 0.707109
vn 0.707105 0.000000 0.707109
vn 0.707108 0.000000 0.707106
vn -0.707107 0.000000 0.707107
vn -0.707107 0.000000 0.707107
vn -0.707107 0.000000 0.707107
vn -0.707107 0.000000 0.707107
vn 0.707111 0.000000 0.707103
vn 0.707108 0.000000 0.707106
vn 0.707108 0.000000 0.707106
vn 0.707111 0.000000 0.707103
s off
g Sword_Mold
usemtl initialShadingGroup
f 49/1/1 50/2/2 33/3/3 34/4/4
f 53/5/5 42/6/6 40/7/7 41/8/8
f 17/9/9 18/10/10 24/11/11 19/12/12
f 46/13/13 47/14/14 36/15/15 37/16/16
f 15/133/17 16/18/18 20/19/19 21/20/20
f 18/10/21 13/21/22 23/22/23 24/11/24
f 70/126/25 71/128/26 44/25/27
f 14/26/28 15/17/29 21/132/30 22/27/31
f 47/28/32 48/29/33 35/30/34 36/31/35
f 41/32/36 31/33/37 52/34/38 53/35/39
f 50/2/40 51/36/41 32/37/42 33/3/43
f 26/38/44 27/39/45 15/17/46 14/26/47
f 27/131/48 28/40/49 16/18/50 15/133/51
f 71/128/52 72/127/53 39/42/54 43/43/55 44/25/56
f 29/44/57 30/45/58 18/10/59 17/9/60
f 30/45/61 25/46/62 13/21/63 18/10/64
f 37/16/65 38/47/66 66/124/67 45/125/68 46/13/69
f 21/20/70 20/19/71 11/50/72 12/137/73
f 22/27/74 21/132/75 12/130/76 4/52/77
f 48/53/78 49/1/79 34/4/80 35/54/81
f 24/11/82 23/22/83 2/55/84 8/56/85
f 19/12/86 24/11/87 8/56/88 7/57/89
f 31/58/90 32/37/91 51/36/92 52/59/93
f 10/60/94 27/39/95 26/38/96 3/61/97
f 10/129/98 9/62/99 28/40/100 27/131/101
f 42/6/102 43/43/103 39/42/104 40/7/105
f 6/63/106 5/134/107 30/45/108 29/44/109
f 1/65/110 25/46/111 30/45/112 5/134/113
f 54/66/114 55/67/115 32/37/116 31/58/117
f 33/3/118 32/37/119 55/67/120 56/68/121
f 34/4/122 33/3/123 56/68/124 57/69/125
f 35/54/126 34/4/127 57/69/128 58/70/129
f 36/31/130 35/30/131 58/71/132 59/72/133
f 37/16/134 36/15/135 59/73/136 60/74/137
f 60/74/138 61/75/139 38/47/140 37/16/141
f 81/76/142 82/77/143 83/78/144 84/79/145
f 72/127/146 74/121/147 73/81/148 39/42/149
f 40/7/150 39/42/151 73/81/152 79/115/153 63/83/154 64/84/155
f 41/8/156 40/7/157 64/84/158 65/85/159
f 65/86/160 54/87/161 31/33/162 41/32/163
f 6/63/164 29/44/165 43/43/166 42/6/167
f 44/25/168 43/43/169 29/44/170 17/9/171
f 45/125/172 70/126/173 44/25/174 17/9/175 19/12/176
f 7/57/177 45/125/178 19/12/179
f 7/57/180 8/136/181 47/14/182 46/13/183
f 2/55/184 48/29/185 47/28/186 8/56/187
f 23/22/188 49/1/189 48/53/190 2/55/191
f 13/21/192 50/2/193 49/1/194 23/22/195
f 25/46/196 51/36/197 50/2/198 13/21/199
f 52/59/200 51/36/201 25/46/202 1/65/203
f 53/35/204 52/34/205 1/65/206 5/134/207
f 5/64/208 6/63/209 42/6/210 53/5/211
f 3/61/212 26/38/213 55/67/214 54/66/215
f 56/68/216 55/67/217 26/38/218 14/26/219
f 57/69/220 56/68/221 14/26/222 22/27/223
f 58/70/224 57/69/225 22/27/226 4/52/227
f 59/72/228 58/71/229 4/88/230 12/89/231
f 60/74/232 59/73/233 12/51/234 11/50/235
f 20/19/236 61/75/237 60/74/238 11/50/239
f 16/18/240 62/90/241 61/75/242 20/19/243
f 28/40/244 63/83/245 77/119/246 69/92/247 62/90/248 16/18/249
f 64/84/250 63/83/251 9/62/252
f 65/85/253 64/84/254 9/62/255 10/135/256
f 3/93/257 54/87/258 65/86/259 10/94/260
f 46/13/261 45/125/262 7/57/263
f 85/95/264 81/76/265 84/79/266 86/96/267
f 80/116/268 77/119/269 63/83/270
f 9/62/271 63/83/272 28/40/273
f 38/47/274 67/123/275 66/124/276
f 61/75/277 62/90/278 68/122/279 67/123/280 38/47/281
f 62/90/282 69/92/283 75/118/284 68/122/285
f 86/96/286 84/79/287 87/101/288 88/102/289
f 84/79/290 89/103/291 90/104/292 87/101/293
f 74/121/294 78/120/295 79/115/296 73/81/297
f 89/103/298 91/106/299 92/107/300 90/104/301
f 83/78/302 93/144/303 94/109/304 84/79/305
f 82/77/306 95/110/307 93/144/308 83/78/309
f 77/119/310 76/117/311 75/118/312 69/92/313
f 84/79/314 94/109/315 91/106/316 89/103/317
f 79/115/318 80/116/319 63/83/320
f 96/112/321 91/106/322 94/109/323 97/113/324
f 94/109/325 93/144/326 98/114/327 97/113/328
f 67/98/329 68/99/330 82/77/331 81/76/332
f 66/48/333 67/98/334 81/76/335 85/95/336
f 45/49/337 66/142/338 85/95/339 86/96/340
f 71/24/341 70/141/342 88/102/343 87/101/344
f 70/23/345 45/138/346 86/96/347 88/102/348
f 72/41/349 71/24/350 87/101/351 90/104/352
f 78/105/353 74/80/354 92/107/355 91/145/356
f 74/80/357 72/41/358 90/104/359 92/107/360
f 68/99/361 75/100/362 95/110/363 82/77/364
f 75/100/365 76/143/366 93/108/367 95/110/368
f 79/82/369 78/146/370 91/106/371 96/112/372
f 80/97/373 79/140/374 96/112/375 97/113/376
f 76/111/377 77/139/378 98/114/379 93/144/380
f 77/91/381 80/97/382 97/113/383 98/114/384
