# This file uses centimeters as units for non-parametric coordinates.

mtllib Sword Mold.mtl
g default
v -2.860122 -0.732645 2.852168
v 2.899406 -0.732645 2.852168
v -2.860122 -0.732645 -2.907361
v 2.899406 -0.732645 -2.907361
v -2.860122 0.439617 2.852168
v -2.567093 0.732645 2.559139
v 2.606377 0.732645 2.559139
v 2.899406 0.439617 2.852168
v -2.567093 0.732645 -2.614333
v -2.860122 0.439617 -2.907361
v 2.606377 0.732645 -2.614333
v 2.899406 0.439617 -2.907361
v 0.019642 -0.732645 2.852168
v 0.019642 -0.732645 -2.907361
v 0.019642 0.439617 -2.907361
v 0.019642 0.732645 -2.614333
v 0.019642 0.732645 2.559139
v 0.019642 0.439617 2.852168
v 2.089030 0.732645 2.559139
v 2.089030 0.732645 -2.614333
v 2.323454 0.439617 -2.907361
v 2.323454 -0.732645 -2.907361
v 2.323454 -0.732645 2.852168
v 2.323454 0.439617 2.852168
v -2.284169 -0.732645 2.852168
v -2.284169 -0.732645 -2.907361
v -2.284169 0.439617 -2.907361
v -2.049746 0.732645 -2.614333
v -2.049746 0.732645 2.559139
v -2.284169 0.439617 2.852168
v -2.860122 -0.732645 -0.027597
v -2.284169 -0.732645 -0.027597
v 0.019642 -0.732645 -0.027597
v 2.323454 -0.732645 -0.027597
v 2.899406 -0.732645 -0.027597
v 2.899406 0.439617 -0.027597
v 2.606377 0.732645 -0.027597
v 2.089030 0.732645 -0.027597
v -2.049746 0.732645 -0.027597
v -2.567093 0.732645 -0.027597
v -2.860122 0.439617 -0.027597
v -2.567093 0.732645 2.041793
v -2.049746 0.732645 2.041793
v 0.019642 0.732645 2.041793
v 2.089030 0.732645 2.041793
v 2.606377 0.732645 2.041793
v 2.899406 0.439617 2.276215
v 2.899406 -0.732645 2.276215
v 2.323454 -0.732645 2.276215
v 0.019642 -0.732645 2.276215
v -2.284169 -0.732645 2.276215
v -2.860122 -0.732645 2.276215
v -2.860122 0.439617 2.276215
v -2.860122 -0.732645 -2.331407
v -2.284169 -0.732645 -2.331407
v 0.019642 -0.732645 -2.331407
v 2.323454 -0.732645 -2.331407
v 2.899406 -0.732645 -2.331407
v 2.899406 0.439617 -2.331407
v 2.606377 0.732645 -2.096987
v 2.089030 0.732645 -2.096987
v 0.019642 0.732645 -2.096987
v -2.049746 0.732645 -2.096987
v -2.567093 0.732645 -2.096987
v -2.860122 0.439617 -2.331407
v 2.089030 0.732645 1.007099
v 1.054336 0.732645 -0.027597
v 0.019642 0.732645 -1.062291
v -1.015052 0.732645 -2.096987
v 1.054336 0.732645 2.041793
v 0.019642 0.732645 1.007099
v -1.015052 0.732645 -0.027597
v -2.049746 0.732645 -1.062291
v -1.532400 0.732645 -0.544945
v -0.497705 0.732645 -1.579639
v -0.756377 0.732645 -1.320965
v -1.532400 0.732645 -2.096987
v -1.273726 0.732645 -0.803617
v -2.049746 0.732645 -1.579639
v -1.791072 0.732645 -1.838311
v 1.054336 0.310085 -0.027597
v 0.019642 0.310085 -1.062291
v 0.019642 0.310085 -0.544945
v 0.019642 0.310085 -0.027597
v 2.089030 0.310085 1.007099
v 2.089030 0.310085 2.041793
v 0.019642 0.310085 1.007099
v 1.054336 0.310085 2.041793
v -0.497705 0.310085 -0.027597
v -1.015052 0.310085 -0.027597
v -1.273726 0.310085 -0.803617
v -1.532400 0.310085 -0.544945
v -0.756377 0.310085 -1.320965
v -1.015052 0.310085 -1.062291
v -0.497705 0.310085 -1.579639
v -2.049746 0.310085 -1.579639
v -1.791072 0.310085 -1.838311
v -1.532400 0.310085 -2.096987
vt 0.600000 0.975000
vt 0.500000 0.975000
vt 0.500000 0.875000
vt 0.600000 0.875000
vt 0.375000 0.235004
vt 0.387719 0.285175
vt 0.387719 0.375000
vt 0.375000 0.375000
vt 0.500000 0.262719
vt 0.500000 0.200005
vt 0.600000 0.200005
vt 0.589825 0.262719
vt 0.612281 0.285175
vt 0.625000 0.235004
vt 0.625000 0.375000
vt 0.612281 0.375000
vt 0.500000 0.549995
vt 0.500000 0.487281
vt 0.589825 0.487281
vt 0.600000 0.549995
vt 0.500000 0.000000
vt 0.600000 0.000000
vt 0.544912 0.285175
vt 0.500000 0.330088
vt 0.500000 0.285175
vt 0.500000 0.750000
vt 0.600000 0.750000
vt 0.650000 0.200005
vt 0.650000 0.000000
vt 0.750000 0.000000
vt 0.750000 0.200005
vt 0.250000 0.200005
vt 0.250000 0.000000
vt 0.350000 0.000000
vt 0.350000 0.200005
vt 0.400000 0.975000
vt 0.400000 0.875000
vt 0.400000 0.750000
vt 0.400000 0.549995
vt 0.410175 0.487281
vt 0.455088 0.375000
vt 0.410175 0.375000
vt 0.410175 0.285175
vt 0.410175 0.262719
vt 0.400000 0.200005
vt 0.400000 0.000000
vt 0.589825 0.375000
vt 0.589825 0.330088
vt 0.589825 0.285175
vt 0.612281 0.487281
vt 0.625000 0.549995
vt 0.625000 0.750000
vt 0.625000 0.975000
vt 0.625000 0.875000
vt 0.625000 0.000000
vt 0.625000 0.200005
vt 0.612281 0.262719
vt 0.375000 0.875000
vt 0.375000 0.975000
vt 0.375000 0.549995
vt 0.375000 0.750000
vt 0.387719 0.487281
vt 0.387719 0.262719
vt 0.375000 0.200005
vt 0.375000 0.000000
vt 0.375000 0.775000
vt 0.400000 0.775000
vt 0.500000 0.775000
vt 0.600000 0.775000
vt 0.625000 0.775000
vt 0.850000 0.000000
vt 0.850000 0.200005
vt 0.625000 0.514996
vt 0.612281 0.464825
vt 0.589825 0.464825
vt 0.544912 0.375000
vt 0.500000 0.419912
vt 0.500000 0.397456
vt 0.500000 0.375000
vt 0.432632 0.397456
vt 0.410175 0.419912
vt 0.410175 0.442368
vt 0.410175 0.464825
vt 0.387719 0.464825
vt 0.375000 0.514996
vt 0.150000 0.200005
vt 0.150000 0.000000
vt 0.600000 1.000000
vt 0.625000 1.000000
vt 0.500000 1.000000
vt 0.400000 1.000000
vt 0.375000 1.000000
vt 0.875000 0.000000
vt 0.875000 0.200005
vt 0.500000 0.464825
vt 0.432632 0.464825
vt 0.455088 0.464825
vt 0.125000 0.000000
vt 0.125000 0.200005
vt 0.589825 0.330088
vt 0.589825 0.285175
vt 0.421404 0.453597
vt 0.544912 0.375000
vt 0.500000 0.419912
vt 0.477544 0.442368
vt 0.500000 0.330088
vt 0.544912 0.285175
vt 0.477544 0.375000
vt 0.455088 0.375000
vt 0.443860 0.408684
vt 0.443860 0.408684
vt 0.432632 0.397456
vt 0.466316 0.431140
vt 0.455088 0.419912
vt 0.477544 0.442368
vt 0.466316 0.431140
vt 0.410175 0.442368
vt 0.421404 0.453597
vt 0.432632 0.464825
vn 0.000000 -1.000000 0.000000
vn 0.000000 -1.000000 0.000000
vn 0.000000 -1.000000 0.000000
vn 0.000000 -1.000000 0.000000
vn -0.707107 0.707107 0.000000
vn -0.707107 0.707107 0.000000
vn -0.707107 0.707107 0.000000
vn -0.707107 0.707107 0.000000
vn 0.000000 0.707107 0.707107
vn 0.000000 0.707107 0.707107
vn 0.000000 0.707107 0.707107
vn 0.000000 0.707107 0.707107
vn 0.707106 0.707107 0.000000
vn 0.707106 0.707107 0.000000
vn 0.707106 0.707107 0.000000
vn 0.707106 0.707107 0.000000
vn 0.000000 0.707106 -0.707108
vn 0.000000 0.707106 -0.707108
vn 0.000000 0.707106 -0.707108
vn 0.000000 0.707106 -0.707108
vn 0.000000 0.000000 1.000000
vn 0.000000 0.000000 1.000000
vn 0.000000 0.000000 1.000000
vn 0.000000 0.000000 1.000000
vn 0.000000 1.000000 0.000000
vn 0.000000 1.000000 0.000000
vn 0.000000 1.000000 0.000000
vn 0.000000 0.000000 -1.000000
vn 0.000000 0.000000 -1.000000
vn 0.000000 0.000000 -1.000000
vn 0.000000 0.000000 -1.000000
vn 1.000000 0.000000 0.000000
vn 1.000000 0.000000 0.000000
vn 1.000000 0.000000 0.000000
vn 1.000000 0.000000 0.000000
vn -1.000000 0.000000 0.000000
vn -1.000000 0.000000 0.000000
vn -1.000000 0.000000 0.000000
vn -1.000000 0.000000 0.000000
vn 0.000000 -1.000000 0.000000
vn 0.000000 -1.000000 0.000000
vn 0.000000 -1.000000 0.000000
vn 0.000000 -1.000000 0.000000
vn 0.000000 0.000000 -1.000000
vn 0.000000 0.000000 -1.000000
vn 0.000000 0.000000 -1.000000
vn 0.000000 0.000000 -1.000000
vn 0.000000 0.707106 -0.707108
vn 0.000000 0.707106 -0.707108
vn 0.000000 0.707106 -0.707108
vn 0.000000 0.707106 -0.707108
vn 0.000000 1.000000 0.000000
vn 0.000000 1.000000 0.000000
vn 0.000000 1.000000 0.000000
vn 0.000000 1.000000 0.000000
vn 0.000000 1.000000 0.000000
vn 0.000000 0.707107 0.707107
vn 0.000000 0.707107 0.707107
vn 0.000000 0.707107 0.707107
vn 0.000000 0.707107 0.707107
vn 0.000000 0.000000 1.000000
vn 0.000000 0.000000 1.000000
vn 0.000000 0.000000 1.000000
vn 0.000000 0.000000 1.000000
vn 0.000000 1.000000 0.000000
vn 0.000000 1.000000 0.000000
vn 0.000000 1.000000 0.000000
vn 0.000000 1.000000 0.000000
vn 0.000000 1.000000 0.000000
vn 0.000000 0.707106 -0.707108
vn 0.000000 0.707106 -0.707108
vn 0.000000 0.707106 -0.707108
vn 0.000000 0.707106 -0.707108
vn 0.000000 0.000000 -1.000000
vn 0.000000 0.000000 -1.000000
vn 0.000000 0.000000 -1.000000
vn 0.000000 0.000000 -1.000000
vn 0.000000 -1.000000 0.000000
vn 0.000000 -1.000000 0.000000
vn 0.000000 -1.000000 0.000000
vn 0.000000 -1.000000 0.000000
vn 0.000000 0.000000 1.000000
vn 0.000000 0.000000 1.000000
vn 0.000000 0.000000 1.000000
vn 0.000000 0.000000 1.000000
vn 0.000000 0.707107 0.707107
vn 0.000000 0.707107 0.707107
vn 0.000000 0.707107 0.707107
vn 0.000000 0.707107 0.707107
vn 0.000000 -1.000000 0.000000
vn 0.000000 -1.000000 0.000000
vn 0.000000 -1.000000 0.000000
vn 0.000000 -1.000000 0.000000
vn 0.000000 0.000000 -1.000000
vn 0.000000 0.000000 -1.000000
vn 0.000000 0.000000 -1.000000
vn 0.000000 0.000000 -1.000000
vn 0.000000 0.707106 -0.707108
vn 0.000000 0.707106 -0.707108
vn 0.000000 0.707106 -0.707108
vn 0.000000 0.707106 -0.707108
vn 0.000000 1.000000 0.000000
vn 0.000000 1.000000 0.000000
vn 0.000000 1.000000 0.000000
vn 0.000000 1.000000 0.000000
vn 0.000000 0.707107 0.707107
vn 0.000000 0.707107 0.707107
vn 0.000000 0.707107 0.707107
vn 0.000000 0.707107 0.707107
vn 0.000000 0.000000 1.000000
vn 0.000000 0.000000 1.000000
vn 0.000000 0.000000 1.000000
vn 0.000000 0.000000 1.000000
vn 0.000000 -1.000000 0.000000
vn 0.000000 -1.000000 0.000000
vn 0.000000 -1.000000 0.000000
vn 0.000000 -1.000000 0.000000
vn 0.000000 -1.000000 0.000000
vn 0.000000 -1.000000 0.000000
vn 0.000000 -1.000000 0.000000
vn 0.000000 -1.000000 0.000000
vn 0.000000 -1.000000 0.000000
vn 0.000000 -1.000000 0.000000
vn 0.000000 -1.000000 0.000000
vn 0.000000 -1.000000 0.000000
vn 0.000000 -1.000000 0.000000
vn 0.000000 -1.000000 0.000000
vn 0.000000 -1.000000 0.000000
vn 0.000000 -1.000000 0.000000
vn 1.000000 0.000000 0.000000
vn 1.000000 0.000000 0.000000
vn 1.000000 0.000000 0.000000
vn 1.000000 0.000000 0.000000
vn 0.707106 0.707107 0.000000
vn 0.707106 0.707107 0.000000
vn 0.707106 0.707107 0.000000
vn 0.707106 0.707107 0.000000
vn 0.000000 1.000000 0.000000
vn 0.000000 1.000000 0.000000
vn 0.000000 1.000000 0.000000
vn 0.000000 1.000000 0.000000
vn 0.000000 1.000000 0.000000
vn 0.000000 1.000000 0.000000
vn 0.000000 1.000000 0.000000
vn 0.000000 1.000000 0.000000
vn 0.000000 1.000000 0.000000
vn 0.000000 1.000000 0.000000
vn 0.000000 1.000000 0.000000
vn 0.000000 1.000000 0.000000
vn 0.000000 1.000000 0.000000
vn 0.000000 1.000000 0.000000
vn 0.000000 1.000000 0.000000
vn 0.000000 1.000000 0.000000
vn 0.000000 1.000000 0.000000
vn 0.000000 1.000000 0.000000
vn -0.707107 0.707107 0.000000
vn -0.707107 0.707107 0.000000
vn -0.707107 0.707107 0.000000
vn -0.707107 0.707107 0.000000
vn -1.000000 0.000000 0.000000
vn -1.000000 0.000000 0.000000
vn -1.000000 0.000000 0.000000
vn -1.000000 0.000000 0.000000
vn 0.000000 1.000000 0.000000
vn 0.000000 1.000000 0.000000
vn 0.000000 1.000000 0.000000
vn 0.000000 1.000000 0.000000
vn 0.000000 1.000000 0.000000
vn 0.000000 1.000000 0.000000
vn 0.000000 1.000000 0.000000
vn 0.000000 1.000000 0.000000
vn 0.000000 1.000000 0.000000
vn 0.000000 1.000000 0.000000
vn 0.000000 1.000000 0.000000
vn 0.000000 1.000000 0.000000
vn 0.000000 1.000000 0.000000
vn 0.000000 1.000000 0.000000
vn 0.000000 1.000000 0.000000
vn 0.000000 1.000000 0.000000
vn 0.707106 0.707107 0.000000
vn 0.707106 0.707107 0.000000
vn 0.707106 0.707107 0.000000
vn 0.707106 0.707107 0.000000
vn 1.000000 0.000000 0.000000
vn 1.000000 0.000000 0.000000
vn 1.000000 0.000000 0.000000
vn 1.000000 0.000000 0.000000
vn 0.000000 -1.000000 0.000000
vn 0.000000 -1.000000 0.000000
vn 0.000000 -1.000000 0.000000
vn 0.000000 -1.000000 0.000000
vn 0.000000 -1.000000 0.000000
vn 0.000000 -1.000000 0.000000
vn 0.000000 -1.000000 0.000000
vn 0.000000 -1.000000 0.000000
vn 0.000000 -1.000000 0.000000
vn 0.000000 -1.000000 0.000000
vn 0.000000 -1.000000 0.000000
vn 0.000000 -1.000000 0.000000
vn 0.000000 -1.000000 0.000000
vn 0.000000 -1.000000 0.000000
vn 0.000000 -1.000000 0.000000
vn 0.000000 -1.000000 0.000000
vn -1.000000 0.000000 0.000000
vn -1.000000 0.000000 0.000000
vn -1.000000 0.000000 0.000000
vn -1.000000 0.000000 0.000000
vn -0.707107 0.707107 0.000000
vn -0.707107 0.707107 0.000000
vn -0.707107 0.707107 0.000000
vn -0.707107 0.707107 0.000000
vn 0.000000 -1.000000 0.000000
vn 0.000000 -1.000000 0.000000
vn 0.000000 -1.000000 0.000000
vn 0.000000 -1.000000 0.000000
vn 0.000000 -1.000000 0.000000
vn 0.000000 -1.000000 0.000000
vn 0.000000 -1.000000 0.000000
vn 0.000000 -1.000000 0.000000
vn 0.000000 -1.000000 0.000000
vn 0.000000 -1.000000 0.000000
vn 0.000000 -1.000000 0.000000
vn 0.000000 -1.000000 0.000000
vn 0.000000 -1.000000 0.000000
vn 0.000000 -1.000000 0.000000
vn 0.000000 -1.000000 0.000000
vn 0.000000 -1.000000 0.000000
vn 1.000000 0.000000 0.000000
vn 1.000000 0.000000 0.000000
vn 1.000000 0.000000 0.000000
vn 1.000000 0.000000 0.000000
vn 0.707106 0.707107 0.000000
vn 0.707106 0.707107 0.000000
vn 0.707106 0.707107 0.000000
vn 0.707106 0.707107 0.000000
vn 0.000000 1.000000 0.000000
vn 0.000000 1.000000 0.000000
vn 0.000000 1.000000 0.000000
vn 0.000000 1.000000 0.000000
vn 0.000000 1.000000 0.000000
vn 0.000000 1.000000 0.000000
vn 0.000000 1.000000 0.000000
vn 0.000000 1.000000 0.000000
vn 0.000000 1.000000 0.000000
vn 0.000000 1.000000 0.000000
vn 0.000000 1.000000 0.000000
vn 0.000000 1.000000 0.000000
vn 0.000000 1.000000 0.000000
vn 0.000000 1.000000 0.000000
vn 0.000000 1.000000 0.000000
vn 0.000000 1.000000 0.000000
vn 0.000000 1.000000 0.000000
vn -0.707107 0.707107 0.000000
vn -0.707107 0.707107 0.000000
vn -0.707107 0.707107 0.000000
vn -0.707107 0.707107 0.000000
vn -1.000000 0.000000 0.000000
vn -1.000000 0.000000 0.000000
vn -1.000000 0.000000 0.000000
vn -1.000000 0.000000 0.000000
vn 0.000000 1.000000 0.000000
vn 0.000000 1.000000 0.000000
vn 0.000000 1.000000 0.000000
vn 0.000000 1.000000 0.000000
vn 0.000000 1.000000 0.000000
vn 0.000000 1.000000 0.000000
vn 0.000000 1.000000 0.000000
vn 0.000000 1.000000 0.000000
vn 0.000000 1.000000 0.000000
vn 0.000000 1.000000 0.000000
vn 0.000000 1.000000 0.000000
vn 0.000000 1.000000 0.000000
vn 0.000000 1.000000 0.000000
vn 0.000000 1.000000 0.000000
vn 0.000000 1.000000 0.000000
vn 0.000000 1.000000 0.000000
vn 0.000000 1.000000 0.000000
vn 0.000000 1.000000 0.000000
vn 0.000000 1.000000 0.000000
vn 0.000000 1.000000 0.000000
vn 0.000000 1.000000 0.000000
vn 0.000000 1.000000 0.000000
vn 0.000000 1.000000 0.000000
vn 0.000000 1.000000 0.000000
vn 0.000000 1.000000 0.000000
vn 0.000000 1.000000 0.000000
vn 0.000000 1.000000 0.000000
vn 0.000000 1.000000 0.000000
vn 0.000000 1.000000 0.000000
vn 0.000000 1.000000 0.000000
vn 0.000000 1.000000 0.000000
vn 0.000000 1.000000 0.000000
vn 0.000000 1.000000 0.000000
vn 0.000000 1.000000 0.000000
vn 0.000000 1.000000 0.000000
vn 0.000000 1.000000 0.000000
vn 0.000000 1.000000 0.000000
vn 0.000000 1.000000 0.000000
vn 0.000000 1.000000 0.000000
vn 0.000000 1.000000 0.000000
vn 0.000000 1.000000 0.000000
vn 0.000000 1.000000 0.000000
vn 0.000000 1.000000 0.000000
vn 0.000000 1.000000 0.000000
vn 0.000000 1.000000 0.000000
vn 0.000000 1.000000 0.000000
vn 0.000000 1.000000 0.000000
vn 0.000000 1.000000 0.000000
vn 0.000000 1.000000 0.000000
vn 0.000000 1.000000 0.000000
vn 0.000000 1.000000 0.000000
vn 0.000000 1.000000 0.000000
vn 0.000000 1.000000 0.000000
vn 0.000000 1.000000 0.000000
vn 0.000000 1.000000 0.000000
vn 0.000000 1.000000 0.000000
vn 0.000000 1.000000 0.000000
vn 0.000000 1.000000 0.000000
vn 0.000000 1.000000 0.000000
vn 0.000000 1.000000 0.000000
vn 0.000000 1.000000 0.000000
vn 0.000000 1.000000 0.000000
vn 0.000000 1.000000 0.000000
vn 0.000000 1.000000 0.000000
vn 0.000000 1.000000 0.000000
vn 0.000000 1.000000 0.000000
vn 0.000000 1.000000 0.000000
vn 0.000000 1.000000 0.000000
vn -0.707107 0.000000 0.707107
vn -0.707107 0.000000 0.707106
vn -0.707107 0.000000 0.707106
vn -0.707107 0.000000 0.707107
vn -0.707107 0.000000 0.707106
vn -0.707107 0.000000 0.707107
vn -0.707107 0.000000 0.707107
vn -0.707107 0.000000 0.707106
vn -1.000000 0.000000 0.000000
vn -1.000000 0.000000 0.000000
vn -1.000000 0.000000 0.000000
vn -1.000000 0.000000 0.000000
vn 0.707107 0.000000 -0.707107
vn 0.707107 0.000000 -0.707107
vn 0.707107 0.000000 -0.707107
vn 0.707107 0.000000 -0.707107
vn 0.000000 0.000000 -1.000000
vn 0.000000 0.000000 -1.000000
vn 0.000000 0.000000 -1.000000
vn 0.000000 0.000000 -1.000000
vn 0.707107 0.000000 -0.707107
vn 0.707107 0.000000 -0.707107
vn 0.707107 0.000000 -0.707107
vn 0.707107 0.000000 -0.707107
vn 0.707105 0.000000 0.707109
vn 0.707105 0.000000 0.707109
vn 0.707105 0.000000 0.707109
vn 0.707105 0.000000 0.707109
vn 0.707107 0.000000 -0.707107
vn 0.707107 0.000000 -0.707107
vn 0.707107 0.000000 -0.707107
vn 0.707107 0.000000 -0.707107
vn -0.707107 0.000000 0.707106
vn -0.707107 0.000000 0.707106
vn -0.707107 0.000000 0.707106
vn -0.707107 0.000000 0.707106
vn 0.707108 0.000000 0.707106
vn 0.707108 0.000000 0.707106
vn 0.707108 0.000000 0.707106
vn 0.707108 0.000000 0.707106
vn 0.707107 0.000000 -0.707106
vn 0.707107 0.000000 -0.707106
vn 0.707107 0.000000 -0.707106
vn 0.707107 0.000000 -0.707106
vn 0.707108 0.000000 0.707106
vn 0.707105 0.000000 0.707109
vn 0.707105 0.000000 0.707109
vn 0.707108 0.000000 0.707106
vn -0.707107 0.000000 0.707107
vn -0.707107 0.000000 0.707107
vn -0.707107 0.000000 0.707107
vn -0.707107 0.000000 0.707107
vn 0.707111 0.000000 0.707103
vn 0.707108 0.000000 0.707106
vn 0.707108 0.000000 0.707106
vn 0.707111 0.000000 0.707103
s off
g Sword_Mold
usemtl initialShadingGroup
f 49/1/1 50/2/2 33/3/3 34/4/4
f 53/5/5 42/6/6 40/7/7 41/8/8
f 17/9/9 18/10/10 24/11/11 19/12/12
f 46/13/13 47/14/14 36/15/15 37/16/16
f 15/17/17 16/18/18 20/19/19 21/20/20
f 18/10/21 13/21/22 23/22/23 24/11/24
f 70/23/25 71/24/26 44/25/27
f 14/26/28 15/17/29 21/20/30 22/27/31
f 47/28/32 48/29/33 35/30/34 36/31/35
f 41/32/36 31/33/37 52/34/38 53/35/39
f 50/2/40 51/36/41 32/37/42 33/3/43
f 26/38/44 27/39/45 15/17/46 14/26/47
f 27/39/48 28/40/49 16/18/50 15/17/51
f 71/24/52 72/41/53 39/42/54 43/43/55 44/25/56
f 29/44/57 30/45/58 18/10/59 17/9/60
f 30/45/61 25/46/62 13/21/63 18/10/64
f 37/16/65 38/47/66 66/48/67 45/49/68 46/13/69
f 21/20/70 20/19/71 11/50/72 12/51/73
f 22/27/74 21/20/75 12/51/76 4/52/77
f 48/53/78 49/1/79 34/4/80 35/54/81
f 24/11/82 23/22/83 2/55/84 8/56/85
f 19/12/86 24/11/87 8/56/88 7/57/89
f 31/58/90 32/37/91 51/36/92 52/59/93
f 10/60/94 27/39/95 26/38/96 3/61/97
f 10/60/98 9/62/99 28/40/100 27/39/101
f 42/6/102 43/43/103 39/42/104 40/7/105
f 6/63/106 5/64/107 30/45/108 29/44/109
f 1/65/110 25/46/111 30/45/112 5/64/113
f 54/66/114 55/67/115 32/37/116 31/58/117
f 33/3/118 32/37/119 55/67/120 56/68/121
f 34/4/122 33/3/123 56/68/124 57/69/125
f 35/54/126 34/4/127 57/69/128 58/70/129
f 36/31/130 35/30/131 58/71/132 59/72/133
f 37/16/134 36/15/135 59/73/136 60/74/137
f 60/74/138 61/75/139 38/47/140 37/16/141
f 81/76/142 82/77/143 83/78/144 84/79/145
f 72/41/146 74/80/147 73/81/148 39/42/149
f 40/7/150 39/42/151 73/81/152 79/82/153 63/83/154 64/84/155
f 41/8/156 40/7/157 64/84/158 65/85/159
f 65/86/160 54/87/161 31/33/162 41/32/163
f 6/63/164 29/44/165 43/43/166 42/6/167
f 44/25/168 43/43/169 29/44/170 17/9/171
f 45/49/172 70/23/173 44/25/174 17/9/175 19/12/176
f 7/57/177 45/49/178 19/12/179
f 7/57/180 8/56/181 47/14/182 46/13/183
f 2/55/184 48/29/185 47/28/186 8/56/187
f 23/88/188 49/1/189 48/53/190 2/89/191
f 13/90/192 50/2/193 49/1/194 23/88/195
f 25/91/196 51/36/197 50/2/198 13/90/199
f 52/59/200 51/36/201 25/91/202 1/92/203
f 53/35/204 52/34/205 1/65/206 5/64/207
f 5/64/208 6/63/209 42/6/210 53/5/211
f 3/61/212 26/38/213 55/67/214 54/66/215
f 56/68/216 55/67/217 26/38/218 14/26/219
f 57/69/220 56/68/221 14/26/222 22/27/223
f 58/70/224 57/69/225 22/27/226 4/52/227
f 59/72/228 58/71/229 4/93/230 12/94/231
f 60/74/232 59/73/233 12/51/234 11/50/235
f 20/19/236 61/75/237 60/74/238 11/50/239
f 16/18/240 62/95/241 61/75/242 20/19/243
f 28/40/244 63/83/245 77/96/246 69/97/247 62/95/248 16/18/249
f 64/84/250 63/83/251 9/62/252
f 65/85/253 64/84/254 9/62/255 10/60/256
f 3/98/257 54/87/258 65/86/259 10/99/260
f 46/13/261 45/49/262 7/57/263
f 85/100/264 81/76/265 84/79/266 86/101/267
f 80/102/268 77/96/269 63/83/270
f 9/62/271 63/83/272 28/40/273
f 38/47/274 67/103/275 66/48/276
f 61/75/277 62/95/278 68/104/279 67/103/280 38/47/281
f 62/95/282 69/97/283 75/105/284 68/104/285
f 86/101/286 84/79/287 87/106/288 88/107/289
f 84/79/290 89/108/291 90/109/292 87/106/293
f 74/80/294 78/110/295 79/82/296 73/81/297
f 89/108/298 91/111/299 92/112/300 90/109/301
f 83/78/302 93/113/303 94/114/304 84/79/305
f 82/77/306 95/115/307 93/113/308 83/78/309
f 77/96/310 76/116/311 75/105/312 69/97/313
f 84/79/314 94/114/315 91/111/316 89/108/317
f 79/82/318 80/102/319 63/83/320
f 96/117/321 91/111/322 94/114/323 97/118/324
f 94/114/325 93/113/326 98/119/327 97/118/328
f 67/103/329 68/104/330 82/77/331 81/76/332
f 66/48/333 67/103/334 81/76/335 85/100/336
f 45/49/337 66/48/338 85/100/339 86/101/340
f 71/24/341 70/23/342 88/107/343 87/106/344
f 70/23/345 45/49/346 86/101/347 88/107/348
f 72/41/349 71/24/350 87/106/351 90/109/352
f 78/110/353 74/80/354 92/112/355 91/111/356
f 74/80/357 72/41/358 90/109/359 92/112/360
f 68/104/361 75/105/362 95/115/363 82/77/364
f 75/105/365 76/116/366 93/113/367 95/115/368
f 79/82/369 78/110/370 91/111/371 96/117/372
f 80/102/373 79/82/374 96/117/375 97/118/376
f 76/116/377 77/96/378 98/119/379 93/113/380
f 77/96/381 80/102/382 97/118/383 98/119/384
