# This file uses centimeters as units for non-parametric coordinates.

mtllib Sword.mtl
g default
v -3.377794 -0.178582 0.306146
v -1.548888 -0.178582 0.306146
v -3.377794 0.178582 0.306146
v -1.548888 0.178582 0.306146
v -3.377794 0.178582 -0.294051
v -1.548888 0.178582 -0.294051
v -3.377794 -0.178582 -0.294051
v -1.548888 -0.178582 -0.294051
v -3.377794 0.294801 0.006047
v -1.548888 0.294801 0.006047
v -1.548888 -0.294801 0.006047
v -3.377794 -0.294801 0.006047
v -3.377794 -0.260392 -0.144002
v -1.548888 -0.260392 -0.144002
v -1.548888 0.260392 -0.144002
v -3.377794 0.260392 -0.144002
v -3.377794 0.260392 0.156096
v -1.548888 0.260392 0.156096
v -1.548888 -0.260392 0.156096
v -3.377794 -0.260392 0.156096
v -1.947174 -0.178582 0.306146
v -1.947174 -0.260392 0.156096
v -1.947174 -0.294801 0.006047
v -1.947174 -0.260392 -0.144002
v -1.947174 -0.178582 -0.294051
v -1.947174 0.178582 -0.294051
v -1.947174 0.260392 -0.144002
v -1.947174 0.294801 0.006047
v -1.947174 0.260392 0.156096
v -1.947174 0.178582 0.306146
v -1.843893 0.111173 1.067240
v -1.843893 -0.111173 1.067240
v -1.487776 -0.111173 1.067240
v -1.487776 0.111173 1.067240
v -1.847983 -0.113843 -1.056954
v -1.847983 0.113843 -1.056954
v -1.483685 0.113843 -1.056954
v -1.483685 -0.113843 -1.056954
v -1.843893 0.111173 0.916567
v -1.843893 -0.111173 0.916567
v -1.487776 -0.111173 0.916567
v -1.487776 0.111173 0.916567
v -1.847983 -0.113843 -0.902663
v -1.847983 0.113843 -0.902663
v -1.483685 0.113843 -0.902663
v -1.483685 -0.113843 -0.902663
v -1.953610 0.111173 0.916567
v -1.953610 -0.111173 0.916567
v -1.953610 -0.111173 1.067240
v -1.953610 0.111173 1.067240
v -1.378058 -0.111173 0.916567
v -1.378058 0.111173 0.916567
v -1.378058 0.111173 1.067240
v -1.378058 -0.111173 1.067240
v -1.960335 -0.113843 -0.902663
v -1.960335 0.113843 -0.902663
v -1.960335 0.113843 -1.056954
v -1.960335 -0.113843 -1.056954
v -1.371334 0.113843 -0.902663
v -1.371334 -0.113843 -0.902663
v -1.371334 -0.113843 -1.056954
v -1.371334 0.113843 -1.056954
v -2.124159 -0.152458 0.262244
v -2.124159 -0.222299 0.134146
v -2.124159 -0.251675 0.006047
v -2.124159 -0.222299 -0.122051
v -2.124159 -0.152458 -0.250150
v -2.124159 0.152458 -0.250150
v -2.124159 0.222299 -0.122051
v -2.124159 0.251675 0.006047
v -2.124159 0.222299 0.134146
v -2.124159 0.152458 0.262244
vt 0.525000 0.250000
vt 0.525000 0.000000
vt 0.625000 0.000000
vt 0.625000 0.250000
vt 0.525000 0.437500
vt 0.525000 0.375000
vt 0.625000 0.375000
vt 0.625000 0.437500
vt 0.525000 0.750000
vt 0.525000 0.500000
vt 0.625000 0.500000
vt 0.625000 0.750000
vt 0.525000 0.875000
vt 0.525000 0.812500
vt 0.625000 0.812500
vt 0.625000 0.875000
vt 0.750000 0.250000
vt 0.750000 0.000000
vt 0.812500 0.000000
vt 0.812500 0.250000
vt 0.187500 0.250000
vt 0.187500 0.000000
vt 0.250000 0.000000
vt 0.250000 0.250000
vt 0.525000 0.312500
vt 0.625000 0.312500
vt 0.687500 0.250000
vt 0.687500 0.000000
vt 0.525000 0.937500
vt 0.625000 0.937500
vt 0.312500 0.000000
vt 0.312500 0.250000
vt 0.525000 0.750000
vt 0.625000 0.750000
vt 0.875000 0.000000
vt 0.875000 0.250000
vt 0.525000 0.500000
vt 0.625000 0.500000
vt 0.125000 0.000000
vt 0.125000 0.250000
vt 0.525000 0.250000
vt 0.625000 0.250000
vt 0.625000 0.000000
vt 0.525000 1.000000
vt 0.625000 1.000000
vt 0.375000 0.000000
vt 0.375000 0.250000
vt 0.506443 1.000000
vt 0.506443 0.937500
vt 0.506443 0.875000
vt 0.506443 0.812500
vt 0.506443 0.750000
vt 0.506443 0.500000
vt 0.506443 0.437500
vt 0.506443 0.375000
vt 0.506443 0.312500
vt 0.506443 0.250000
vt 0.506443 0.000000
vt 0.525000 0.000000
vt 0.525000 0.250000
vt 0.525000 0.000000
vt 0.525000 0.000000
vt 0.525000 0.250000
vt 0.525000 0.000000
vt 0.625000 0.000000
vt 0.625000 0.000000
vt 0.625000 0.250000
vt 0.625000 0.250000
vt 0.625000 0.000000
vt 0.625000 0.250000
vt 0.525000 0.250000
vt 0.525000 0.750000
vt 0.525000 0.500000
vt 0.525000 0.500000
vt 0.525000 0.750000
vt 0.525000 0.500000
vt 0.625000 0.500000
vt 0.625000 0.500000
vt 0.625000 0.750000
vt 0.625000 0.750000
vt 0.625000 0.500000
vt 0.625000 0.750000
vt 0.525000 0.750000
vt 0.375000 0.937500
vt 0.375000 1.000000
vt 0.375000 0.875000
vt 0.375000 0.812500
vt 0.375000 0.750000
vt 0.375000 0.500000
vt 0.375000 0.437500
vt 0.375000 0.375000
vt 0.375000 0.312500
vn 0.000000 0.000000 1.000000
vn 0.000000 0.000000 1.000000
vn 0.000000 0.000000 1.000000
vn 0.000000 0.000000 1.000000
vn -0.067074 0.931774 -0.356788
vn -0.062631 0.998037 0.000000
vn 0.000000 1.000000 0.000000
vn 0.000000 0.932514 -0.361135
vn 0.000000 0.000000 -1.000000
vn 0.000000 0.000000 -1.000000
vn 0.000000 0.000000 -1.000000
vn 0.000000 0.000000 -1.000000
vn -0.062631 -0.998037 0.000000
vn -0.067074 -0.931774 -0.356788
vn 0.000000 -0.932514 -0.361135
vn 0.000000 -1.000000 0.000000
vn 1.000000 0.000000 0.000000
vn 1.000000 0.000000 0.000000
vn 1.000000 0.000000 0.000000
vn 1.000000 0.000000 0.000000
vn -1.000000 0.000000 0.000000
vn -1.000000 0.000000 0.000000
vn -1.000000 0.000000 0.000000
vn -1.000000 0.000000 0.000000
vn -0.062631 0.998037 0.000000
vn -0.067074 0.931774 0.356788
vn 0.000000 0.932514 0.361135
vn 0.000000 1.000000 0.000000
vn 1.000000 0.000000 0.000000
vn 1.000000 0.000000 0.000000
vn 1.000000 0.000000 0.000000
vn 1.000000 0.000000 0.000000
vn -0.067074 -0.931774 0.356788
vn -0.062631 -0.998037 0.000000
vn 0.000000 -1.000000 0.000000
vn 0.000000 -0.932514 0.361135
vn -1.000000 0.000000 0.000000
vn -1.000000 0.000000 0.000000
vn -1.000000 0.000000 0.000000
vn -1.000000 0.000000 0.000000
vn -0.067074 -0.931774 -0.356788
vn -0.021824 -0.974976 -0.221236
vn 0.000000 -0.981662 -0.190628
vn 0.000000 -0.932514 -0.361135
vn 1.000000 0.000000 0.000000
vn 1.000000 0.000000 0.000000
vn 0.997804 0.000000 0.066236
vn 0.997804 0.000000 0.066236
vn -0.021824 0.974976 -0.221236
vn -0.067074 0.931774 -0.356788
vn 0.000000 0.932514 -0.361135
vn 0.000000 0.981662 -0.190628
vn -1.000000 0.000000 0.000000
vn -1.000000 0.000000 0.000000
vn -1.000000 0.000000 0.000000
vn -1.000000 0.000000 0.000000
vn -0.067074 0.931774 0.356788
vn -0.021957 0.974174 0.224728
vn 0.000000 0.980935 0.194336
vn 0.000000 0.932514 0.361135
vn 0.998097 0.000000 -0.061657
vn 1.000000 0.000000 0.000000
vn 1.000000 0.000000 0.000000
vn 0.998097 0.000000 -0.061657
vn -0.021957 -0.974174 0.224728
vn -0.067074 -0.931774 0.356788
vn 0.000000 -0.932514 0.361135
vn 0.000000 -0.980935 0.194336
vn -1.000000 0.000000 0.000000
vn -1.000000 0.000000 0.000000
vn -1.000000 0.000000 0.000000
vn -1.000000 0.000000 0.000000
vn -0.000436 -0.877982 0.478693
vn -0.002027 -0.931229 0.364428
vn -0.067074 -0.931774 0.356788
vn -0.021957 -0.974174 0.224728
vn -0.002027 -0.931229 0.364428
vn -0.003687 -0.999993 0.000000
vn -0.062631 -0.998037 0.000000
vn -0.067074 -0.931774 0.356788
vn -0.003687 -0.999993 0.000000
vn -0.002027 -0.931229 -0.364428
vn -0.067074 -0.931774 -0.356788
vn -0.062631 -0.998037 0.000000
vn -0.002027 -0.931229 -0.364428
vn -0.000436 -0.877982 -0.478693
vn -0.021824 -0.974976 -0.221236
vn -0.067074 -0.931774 -0.356788
vn -0.006835 0.000000 -0.999977
vn -0.006835 0.000000 -0.999977
vn -0.240754 0.000000 -0.970586
vn -0.240754 0.000000 -0.970586
vn -0.000436 0.877982 -0.478693
vn -0.002027 0.931229 -0.364428
vn -0.067074 0.931774 -0.356788
vn -0.021824 0.974976 -0.221236
vn -0.002027 0.931229 -0.364428
vn -0.003687 0.999993 0.000000
vn -0.062631 0.998037 0.000000
vn -0.067074 0.931774 -0.356788
vn -0.003687 0.999993 0.000000
vn -0.002027 0.931229 0.364428
vn -0.067074 0.931774 0.356788
vn -0.062631 0.998037 0.000000
vn -0.002027 0.931229 0.364428
vn -0.000436 0.877982 0.478693
vn -0.021957 0.974174 0.224728
vn -0.067074 0.931774 0.356788
vn -0.006835 0.000000 0.999977
vn -0.006835 0.000000 0.999977
vn -0.240754 0.000000 0.970586
vn -0.240754 0.000000 0.970586
vn -1.000000 0.000000 0.000000
vn -1.000000 0.000000 0.000000
vn -1.000000 0.000000 0.000000
vn -1.000000 0.000000 0.000000
vn 0.000000 -0.996363 0.085207
vn 0.000000 -0.996484 0.083781
vn 0.000000 -1.000000 0.000000
vn 0.000000 -1.000000 0.000000
vn 1.000000 0.000000 0.000000
vn 1.000000 0.000000 0.000000
vn 1.000000 0.000000 0.000000
vn 1.000000 0.000000 0.000000
vn 0.000000 0.996484 0.083781
vn 0.000000 0.996363 0.085207
vn 0.000000 1.000000 0.000000
vn 0.000000 1.000000 0.000000
vn -1.000000 0.000000 0.000000
vn -1.000000 0.000000 0.000000
vn -1.000000 0.000000 0.000000
vn -1.000000 0.000000 0.000000
vn 0.000000 0.996686 -0.081345
vn 0.000000 0.996800 -0.079933
vn 0.000000 1.000000 0.000000
vn 0.000000 1.000000 0.000000
vn 1.000000 0.000000 0.000000
vn 1.000000 0.000000 0.000000
vn 1.000000 0.000000 0.000000
vn 1.000000 0.000000 0.000000
vn 0.000000 -0.996800 -0.079933
vn 0.000000 -0.996686 -0.081345
vn 0.000000 -1.000000 0.000000
vn 0.000000 -1.000000 0.000000
vn -0.985987 0.000000 0.166824
vn -0.985987 0.000000 0.166824
vn -0.985987 0.000000 0.166824
vn -0.985987 0.000000 0.166824
vn -0.021957 -0.974174 0.224728
vn 0.000000 -0.980935 0.194336
vn 0.000000 -0.996484 0.083781
vn 0.000000 -0.996363 0.085207
vn 0.998097 0.000000 -0.061657
vn 0.998097 0.000000 -0.061657
vn 0.995026 0.000000 -0.099619
vn 0.995026 0.000000 -0.099619
vn 0.000000 0.980935 0.194336
vn -0.021957 0.974174 0.224728
vn 0.000000 0.996363 0.085207
vn 0.000000 0.996484 0.083781
vn -0.986978 0.000000 -0.160855
vn -0.986978 0.000000 -0.160855
vn -0.986978 0.000000 -0.160855
vn -0.986978 0.000000 -0.160855
vn -0.021824 0.974976 -0.221236
vn 0.000000 0.981662 -0.190628
vn 0.000000 0.996800 -0.079933
vn 0.000000 0.996686 -0.081345
vn 0.997804 0.000000 0.066236
vn 0.997804 0.000000 0.066236
vn 0.994310 0.000000 0.106525
vn 0.994310 0.000000 0.106525
vn 0.000000 -0.981662 -0.190628
vn -0.021824 -0.974976 -0.221236
vn 0.000000 -0.996686 -0.081345
vn 0.000000 -0.996800 -0.079933
vn 0.000000 0.000000 -1.000000
vn 0.000000 0.000000 -1.000000
vn 0.000000 0.000000 -1.000000
vn 0.000000 0.000000 -1.000000
vn 0.000000 -0.996363 0.085207
vn 0.000000 -1.000000 0.000000
vn 0.000000 -1.000000 0.000000
vn 0.000000 -1.000000 0.000000
vn 0.000000 0.000000 1.000000
vn 0.000000 0.000000 1.000000
vn 0.000000 0.000000 1.000000
vn 0.000000 0.000000 1.000000
vn 0.000000 1.000000 0.000000
vn 0.000000 0.996363 0.085207
vn 0.000000 1.000000 0.000000
vn 0.000000 1.000000 0.000000
vn 0.000000 0.000000 -1.000000
vn 0.000000 0.000000 -1.000000
vn 0.000000 0.000000 -1.000000
vn 0.000000 0.000000 -1.000000
vn 0.000000 0.996484 0.083781
vn 0.000000 1.000000 0.000000
vn 0.000000 1.000000 0.000000
vn 0.000000 1.000000 0.000000
vn 0.000000 0.000000 1.000000
vn 0.000000 0.000000 1.000000
vn 0.000000 0.000000 1.000000
vn 0.000000 0.000000 1.000000
vn 0.000000 -1.000000 0.000000
vn 0.000000 -0.996484 0.083781
vn 0.000000 -1.000000 0.000000
vn 0.000000 -1.000000 0.000000
vn 0.000000 0.000000 1.000000
vn 0.000000 0.000000 1.000000
vn 0.000000 0.000000 1.000000
vn 0.000000 0.000000 1.000000
vn 0.000000 0.996686 -0.081345
vn 0.000000 1.000000 0.000000
vn 0.000000 1.000000 0.000000
vn 0.000000 1.000000 0.000000
vn 0.000000 0.000000 -1.000000
vn 0.000000 0.000000 -1.000000
vn 0.000000 0.000000 -1.000000
vn 0.000000 0.000000 -1.000000
vn 0.000000 -1.000000 0.000000
vn 0.000000 -0.996686 -0.081345
vn 0.000000 -1.000000 0.000000
vn 0.000000 -1.000000 0.000000
vn 0.000000 0.000000 1.000000
vn 0.000000 0.000000 1.000000
vn 0.000000 0.000000 1.000000
vn 0.000000 0.000000 1.000000
vn 0.000000 -0.996800 -0.079933
vn 0.000000 -1.000000 0.000000
vn 0.000000 -1.000000 0.000000
vn 0.000000 -1.000000 0.000000
vn 0.000000 0.000000 -1.000000
vn 0.000000 0.000000 -1.000000
vn 0.000000 0.000000 -1.000000
vn 0.000000 0.000000 -1.000000
vn 0.000000 1.000000 0.000000
vn 0.000000 0.996800 -0.079933
vn 0.000000 1.000000 0.000000
vn 0.000000 1.000000 0.000000
vn 0.034625 -0.932808 0.358707
vn -0.002027 -0.931229 0.364428
vn -0.000436 -0.877982 0.478693
vn 0.035038 -0.877443 0.478399
vn 0.034381 -0.999409 0.000000
vn -0.003687 -0.999993 0.000000
vn -0.002027 -0.931229 0.364428
vn 0.034625 -0.932808 0.358707
vn 0.034625 -0.932808 -0.358707
vn -0.002027 -0.931229 -0.364428
vn -0.003687 -0.999993 0.000000
vn 0.034381 -0.999409 0.000000
vn 0.035038 -0.877443 -0.478399
vn -0.000436 -0.877982 -0.478693
vn -0.002027 -0.931229 -0.364428
vn 0.034625 -0.932808 -0.358707
vn 0.034998 0.000000 -0.999387
vn -0.006835 0.000000 -0.999977
vn -0.006835 0.000000 -0.999977
vn 0.034998 0.000000 -0.999387
vn 0.034625 0.932808 -0.358707
vn -0.002027 0.931229 -0.364428
vn -0.000436 0.877982 -0.478693
vn 0.035038 0.877443 -0.478399
vn 0.034381 0.999409 0.000000
vn -0.003687 0.999993 0.000000
vn -0.002027 0.931229 -0.364428
vn 0.034625 0.932808 -0.358707
vn 0.034625 0.932808 0.358707
vn -0.002027 0.931229 0.364428
vn -0.003687 0.999993 0.000000
vn 0.034381 0.999409 0.000000
vn 0.035038 0.877443 0.478399
vn -0.000436 0.877982 0.478693
vn -0.002027 0.931229 0.364428
vn 0.034625 0.932808 0.358707
vn 0.034998 0.000000 0.999387
vn -0.006835 0.000000 0.999977
vn -0.006835 0.000000 0.999977
vn 0.034998 0.000000 0.999387
s off
g Sword_handle
usemtl initialShadingGroup
f 31/1/1 32/2/2 33/3/3 34/4/4
f 27/5/5 28/6/6 10/7/7 15/8/8
f 35/9/9 36/10/10 37/11/11 38/12/12
f 23/13/13 24/14/14 14/15/15 11/16/16
f 10/17/17 11/18/18 14/19/19 15/20/20
f 16/21/21 13/22/22 12/23/23 9/24/24
f 28/6/25 29/25/26 18/26/27 10/7/28
f 18/27/29 19/28/30 11/18/31 10/17/32
f 22/29/33 23/13/34 11/16/35 19/30/36
f 9/24/37 12/23/38 20/31/39 17/32/40
f 24/14/41 25/33/42 8/34/43 14/15/44
f 15/20/45 14/19/46 8/35/47 6/36/48
f 26/37/49 27/5/50 15/8/51 6/38/52
f 7/39/53 13/22/54 16/21/55 5/40/56
f 29/25/57 30/41/58 4/42/59 18/26/60
f 2/43/61 19/28/62 18/27/63 4/42/64
f 21/44/65 22/29/66 19/30/67 2/45/68
f 17/32/69 20/31/70 1/46/71 3/47/72
f 63/48/73 64/49/74 22/29/75 21/44/76
f 64/49/77 65/50/78 23/13/79 22/29/80
f 65/50/81 66/51/82 24/14/83 23/13/84
f 66/51/85 67/52/86 25/33/87 24/14/88
f 67/52/89 68/53/90 26/37/91 25/33/92
f 68/53/93 69/54/94 27/5/95 26/37/96
f 69/54/97 70/55/98 28/6/99 27/5/100
f 70/55/101 71/56/102 29/25/103 28/6/104
f 71/56/105 72/57/106 30/41/107 29/25/108
f 72/57/109 63/58/110 21/59/111 30/41/112
f 47/60/113 48/61/114 49/62/115 50/63/116
f 40/64/117 41/65/118 33/3/119 32/2/120
f 51/66/121 52/67/122 53/68/123 54/69/124
f 42/70/125 39/71/126 31/1/127 34/4/128
f 55/72/129 56/73/130 57/74/131 58/75/132
f 44/76/133 45/77/134 37/11/135 36/10/136
f 59/78/137 60/79/138 61/80/139 62/81/140
f 46/82/141 43/83/142 35/9/143 38/12/144
f 30/41/145 21/59/146 40/64/147 39/71/148
f 21/59/149 2/43/150 41/65/151 40/64/152
f 2/43/153 4/42/154 42/70/155 41/65/156
f 4/42/157 30/41/158 39/71/159 42/70/160
f 25/33/161 26/37/162 44/76/163 43/83/164
f 26/37/165 6/38/166 45/77/167 44/76/168
f 6/38/169 8/34/170 46/82/171 45/77/172
f 8/34/173 25/33/174 43/83/175 46/82/176
f 39/71/177 40/64/178 48/61/179 47/60/180
f 40/64/181 32/2/182 49/62/183 48/61/184
f 32/2/185 31/1/186 50/63/187 49/62/188
f 31/1/189 39/71/190 47/60/191 50/63/192
f 41/65/193 42/70/194 52/67/195 51/66/196
f 42/70/197 34/4/198 53/68/199 52/67/200
f 34/4/201 33/3/202 54/69/203 53/68/204
f 33/3/205 41/65/206 51/66/207 54/69/208
f 43/83/209 44/76/210 56/73/211 55/72/212
f 44/76/213 36/10/214 57/74/215 56/73/216
f 36/10/217 35/9/218 58/75/219 57/74/220
f 35/9/221 43/83/222 55/72/223 58/75/224
f 45/77/225 46/82/226 60/79/227 59/78/228
f 46/82/229 38/12/230 61/80/231 60/79/232
f 38/12/233 37/11/234 62/81/235 61/80/236
f 37/11/237 45/77/238 59/78/239 62/81/240
f 20/84/241 64/49/242 63/48/243 1/85/244
f 12/86/245 65/50/246 64/49/247 20/84/248
f 13/87/249 66/51/250 65/50/251 12/86/252
f 7/88/253 67/52/254 66/51/255 13/87/256
f 5/89/257 68/53/258 67/52/259 7/88/260
f 16/90/261 69/54/262 68/53/263 5/89/264
f 9/91/265 70/55/266 69/54/267 16/90/268
f 17/92/269 71/56/270 70/55/271 9/91/272
f 3/47/273 72/57/274 71/56/275 17/92/276
f 1/46/277 63/58/278 72/57/279 3/47/280
g default
v -1.614790 -0.033363 0.691885
v 3.048036 -0.033363 0.691885
v -1.614790 0.033363 0.691885
v 3.048036 0.033363 0.691885
v -1.614790 0.033363 -0.684366
v 3.048036 0.033363 -0.684366
v -1.614790 -0.033363 -0.684366
v 3.048036 -0.033363 -0.684366
v -1.614790 0.183677 0.003760
v 3.606324 0.035582 0.003760
v 3.606324 -0.035582 0.003760
v -1.614790 -0.183677 0.003760
v 3.048036 0.183677 0.003760
v 3.048036 -0.183677 0.003760
v -1.614790 0.065322 0.003760
v -1.614790 -0.065322 0.003760
v -1.614790 0.065322 -0.238708
v -1.614790 -0.065322 -0.238708
v -1.614790 -0.065322 0.246227
v -1.614790 0.065322 0.246227
v -2.358567 -0.065322 0.246227
v -2.358567 0.065322 0.246227
v -2.358567 0.065322 0.003760
v -2.358567 -0.065322 0.003760
v -2.358567 0.065322 -0.238708
v -2.358567 -0.065322 -0.238708
vt 0.375000 0.000000
vt 0.625000 0.000000
vt 0.625000 0.250000
vt 0.375000 0.250000
vt 0.625000 0.500000
vt 0.598268 0.375000
vt 0.625000 0.375000
vt 0.375000 0.500000
vt 0.625000 0.750000
vt 0.375000 0.750000
vt 0.598268 0.875000
vt 0.625000 0.875000
vt 0.750000 0.250000
vt 0.750000 0.000000
vt 0.875000 0.000000
vt 0.875000 0.250000
vt 0.250000 0.250000
vt 0.187500 0.198853
vt 0.250000 0.147705
vt 0.625000 1.000000
vt 0.312500 0.198853
vt 0.375000 0.375000
vt 0.375000 0.875000
vt 0.375000 1.000000
vt 0.187500 0.051148
vt 0.250000 0.000000
vt 0.250000 0.102295
vt 0.312500 0.051148
vt 0.312500 0.051148
vt 0.312500 0.198853
vt 0.250000 0.147705
vt 0.250000 0.102295
vt 0.187500 0.198853
vt 0.187500 0.051148
vt 0.125000 0.250000
vt 0.125000 0.000000
vn 0.000000 0.000000 1.000000
vn 0.000000 0.000000 1.000000
vn 0.000000 0.000000 1.000000
vn 0.000000 0.000000 1.000000
vn 0.009124 0.976923 -0.213399
vn 0.006242 0.999981 0.000000
vn 0.256399 0.966571 0.000000
vn 0.000000 0.000000 -1.000000
vn 0.000000 0.000000 -1.000000
vn 0.000000 0.000000 -1.000000
vn 0.000000 0.000000 -1.000000
vn 0.006242 -0.999981 0.000000
vn 0.009124 -0.976923 -0.213399
vn 0.256399 -0.966571 0.000000
vn 1.000000 0.000000 0.000000
vn 1.000000 0.000000 0.000000
vn 0.776563 0.000000 -0.630040
vn 0.776563 0.000000 -0.630040
vn -1.000000 0.000000 0.000000
vn -1.000000 0.000000 0.000000
vn -1.000000 0.000000 0.000000
vn 0.006242 0.999981 0.000000
vn 0.009124 0.976923 0.213399
vn 0.256399 0.966571 0.000000
vn 0.776563 0.000000 0.630040
vn 1.000000 0.000000 0.000000
vn 1.000000 0.000000 0.000000
vn 0.776563 0.000000 0.630040
vn 0.009124 -0.976923 0.213399
vn 0.006242 -0.999981 0.000000
vn 0.256399 -0.966571 0.000000
vn -1.000000 0.000000 0.000000
vn -1.000000 0.000000 0.000000
vn -1.000000 0.000000 0.000000
vn 0.000000 1.000000 0.000000
vn 0.006242 0.999981 0.000000
vn 0.009124 0.976923 -0.213399
vn -0.000000 0.976963 -0.213408
vn 0.000000 0.976963 0.213408
vn 0.009124 0.976923 0.213399
vn 0.006242 0.999981 0.000000
vn 0.000000 1.000000 0.000000
vn 0.000000 -1.000000 0.000000
vn 0.006242 -0.999981 0.000000
vn 0.009124 -0.976923 0.213399
vn 0.000000 -0.976963 0.213408
vn 0.000000 -0.976963 -0.213408
vn 0.009124 -0.976923 -0.213399
vn 0.006242 -0.999981 0.000000
vn 0.000000 -1.000000 0.000000
vn -1.000000 0.000000 0.000000
vn -1.000000 0.000000 0.000000
vn -1.000000 0.000000 0.000000
vn -1.000000 0.000000 0.000000
vn -1.000000 0.000000 0.000000
vn -1.000000 0.000000 0.000000
vn -1.000000 0.000000 0.000000
vn -1.000000 0.000000 0.000000
vn -1.000000 0.000000 0.000000
vn -1.000000 0.000000 0.000000
vn -1.000000 0.000000 0.000000
vn -1.000000 0.000000 0.000000
vn -1.000000 0.000000 0.000000
vn -1.000000 0.000000 0.000000
vn -1.000000 0.000000 0.000000
vn -1.000000 0.000000 0.000000
vn -1.000000 0.000000 0.000000
vn -1.000000 0.000000 0.000000
vn -1.000000 0.000000 0.000000
vn -1.000000 0.000000 0.000000
vn -1.000000 0.000000 0.000000
vn -1.000000 0.000000 0.000000
vn -1.000000 0.000000 0.000000
vn -1.000000 0.000000 0.000000
vn -1.000000 0.000000 0.000000
vn -1.000000 0.000000 0.000000
vn -1.000000 0.000000 0.000000
vn -1.000000 0.000000 0.000000
vn -1.000000 0.000000 0.000000
vn -1.000000 0.000000 0.000000
vn -1.000000 0.000000 0.000000
vn -1.000000 0.000000 0.000000
vn -1.000000 0.000000 0.000000
vn -1.000000 0.000000 0.000000
vn 0.000000 0.000000 1.000000
vn 0.000000 0.000000 1.000000
vn 0.000000 0.000000 1.000000
vn 0.000000 0.000000 1.000000
vn 0.000000 1.000000 0.000000
vn 0.000000 1.000000 0.000000
vn 0.000000 1.000000 0.000000
vn 0.000000 1.000000 0.000000
vn 0.000000 -1.000000 0.000000
vn 0.000000 -1.000000 0.000000
vn 0.000000 -1.000000 0.000000
vn 0.000000 -1.000000 0.000000
vn 0.000000 0.000000 -1.000000
vn 0.000000 0.000000 -1.000000
vn 0.000000 0.000000 -1.000000
vn 0.000000 0.000000 -1.000000
vn 0.000000 -1.000000 0.000000
vn 0.000000 -1.000000 0.000000
vn 0.000000 -1.000000 0.000000
vn 0.000000 -1.000000 0.000000
vn 0.000000 1.000000 0.000000
vn 0.000000 1.000000 0.000000
vn 0.000000 1.000000 0.000000
vn 0.000000 1.000000 0.000000
s off
g Blade
usemtl initialShadingGroup
f 73/93/281 74/94/282 76/95/283 75/96/284
f 78/97/285 85/98/286 82/99/287
f 77/100/288 78/97/289 80/101/290 79/102/291
f 86/103/292 80/101/293 83/104/294
f 82/105/295 83/106/296 80/107/297 78/108/298
f 81/109/299 89/110/300 87/111/301
f 85/98/302 76/95/303 82/99/304
f 74/94/305 83/106/306 82/105/307 76/95/308
f 74/112/309 86/103/310 83/104/311
f 81/109/312 87/111/313 92/113/314
f 81/114/315 85/98/316 78/97/317 77/100/318
f 75/96/319 76/95/320 85/98/321 81/114/322
f 84/115/323 86/103/324 74/112/325 73/116/326
f 79/102/327 80/101/328 86/103/329 84/115/330
f 90/117/331 84/118/332 88/119/333
f 84/118/334 91/120/335 88/119/336
f 93/121/337 94/122/338 95/123/339 96/124/340
f 97/125/341 98/126/342 96/124/343 95/123/344
f 77/127/345 89/110/346 81/109/347
f 79/128/348 90/117/349 89/110/350 77/127/351
f 79/128/352 84/118/353 90/117/354
f 73/93/355 91/120/356 84/118/357
f 75/96/358 92/113/359 91/120/360 73/93/361
f 81/109/362 92/113/363 75/96/364
f 91/120/365 92/113/366 94/122/367 93/121/368
f 92/113/369 87/111/370 95/123/371 94/122/372
f 88/119/373 91/120/374 93/121/375 96/124/376
f 89/110/377 90/117/378 98/126/379 97/125/380
f 90/117/381 88/119/382 96/124/383 98/126/384
f 87/111/385 89/110/386 97/125/387 95/123/388
