# This file uses centimeters as units for non-parametric coordinates.

mtllib Sword 1.mtl
g default
v -3.377794 -0.178582 0.306146
v -1.548888 -0.178582 0.306146
v -3.377794 0.178582 0.306146
v -1.548888 0.178582 0.306146
v -3.377794 0.178582 -0.294051
v -1.548888 0.178582 -0.294051
v -3.377794 -0.178582 -0.294051
v -1.548888 -0.178582 -0.294051
v -3.377794 0.294801 0.006047
v -1.548888 0.294801 0.006047
v -1.548888 -0.294801 0.006047
v -3.377794 -0.294801 0.006047
v -3.377794 -0.260392 -0.144002
v -1.548888 -0.260392 -0.144002
v -1.548888 0.260392 -0.144002
v -3.377794 0.260392 -0.144002
v -3.377794 0.260392 0.156096
v -1.548888 0.260392 0.156096
v -1.548888 -0.260392 0.156096
v -3.377794 -0.260392 0.156096
v -1.947174 -0.178582 0.306146
v -1.947174 -0.260392 0.156096
v -1.947174 -0.294801 0.006047
v -1.947174 -0.260392 -0.144002
v -1.947174 -0.178582 -0.294051
v -1.947174 0.178582 -0.294051
v -1.947174 0.260392 -0.144002
v -1.947174 0.294801 0.006047
v -1.947174 0.260392 0.156096
v -1.947174 0.178582 0.306146
v -1.843893 0.111173 1.067240
v -1.843893 -0.111173 1.067240
v -1.487776 -0.111173 1.067240
v -1.487776 0.111173 1.067240
v -1.847983 -0.113843 -1.056954
v -1.847983 0.113843 -1.056954
v -1.483685 0.113843 -1.056954
v -1.483685 -0.113843 -1.056954
v -1.843893 0.111173 0.916567
v -1.843893 -0.111173 0.916567
v -1.487776 -0.111173 0.916567
v -1.487776 0.111173 0.916567
v -1.847983 -0.113843 -0.902663
v -1.847983 0.113843 -0.902663
v -1.483685 0.113843 -0.902663
v -1.483685 -0.113843 -0.902663
v -1.953610 0.111173 0.916567
v -1.953610 -0.111173 0.916567
v -1.953610 -0.111173 1.067240
v -1.953610 0.111173 1.067240
v -1.378058 -0.111173 0.916567
v -1.378058 0.111173 0.916567
v -1.378058 0.111173 1.067240
v -1.378058 -0.111173 1.067240
v -1.960335 -0.113843 -0.902663
v -1.960335 0.113843 -0.902663
v -1.960335 0.113843 -1.056954
v -1.960335 -0.113843 -1.056954
v -1.371334 0.113843 -0.902663
v -1.371334 -0.113843 -0.902663
v -1.371334 -0.113843 -1.056954
v -1.371334 0.113843 -1.056954
v -2.124159 -0.152458 0.262244
v -2.124159 -0.222299 0.134146
v -2.124159 -0.251675 0.006047
v -2.124159 -0.222299 -0.122051
v -2.124159 -0.152458 -0.250150
v -2.124159 0.152458 -0.250150
v -2.124159 0.222299 -0.122051
v -2.124159 0.251675 0.006047
v -2.124159 0.222299 0.134146
v -2.124159 0.152458 0.262244
vt 0.120565 0.748097
vt 0.153435 0.748287
vt 0.153129 0.800937
vt 0.120260 0.800746
vt 0.332441 0.243451
vt 0.310645 0.243536
vt 0.310679 0.184564
vt 0.332908 0.184516
vt 0.475048 0.745649
vt 0.508701 0.745044
vt 0.509669 0.798893
vt 0.476015 0.799500
vt 0.314005 0.734104
vt 0.336369 0.733762
vt 0.337328 0.792412
vt 0.314483 0.792740
vt 0.539905 0.989249
vt 0.179177 0.990863
vt 0.457435 0.968574
vt 0.534412 0.967163
vt 0.333504 0.452975
vt 0.334368 0.522949
vt 0.312322 0.525257
vt 0.311557 0.450941
vt 0.288841 0.243498
vt 0.288462 0.184500
vt 0.097230 0.968206
vt 0.174219 0.968652
vt 0.291674 0.734028
vt 0.291594 0.792805
vt 0.290356 0.523403
vt 0.289547 0.453294
vt 0.631488 0.929433
vt 0.362573 0.791906
vt 0.469121 0.946173
vt 0.521913 0.945206
vt 0.580785 0.944170
vt 0.409362 0.456790
vt 0.357401 0.458599
vt 0.050580 0.945149
vt 0.109453 0.946094
vt 0.162253 0.946399
vt 0.266600 0.733590
vt 0.266236 0.792612
vt 0.266789 0.517594
vt 0.265795 0.459297
vt 0.271813 0.706749
vt 0.293838 0.707058
vt 0.313824 0.707249
vt 0.333900 0.706853
vt 0.355926 0.706213
vt 0.353838 0.270587
vt 0.331132 0.270448
vt 0.310606 0.270182
vt 0.289968 0.270401
vt 0.267220 0.270569
vt 0.222071 0.273195
vt 0.098385 0.731749
vt 0.153660 0.709794
vt 0.153530 0.732068
vt 0.120660 0.731877
vt 0.175710 0.748415
vt 0.152813 0.855651
vt 0.175310 0.817287
vt 0.120037 0.839241
vt 0.120166 0.816966
vt 0.153036 0.817157
vt 0.097985 0.800616
vt 0.120884 0.693383
vt 0.451944 0.729452
vt 0.507991 0.705630
vt 0.508402 0.728437
vt 0.474749 0.729043
vt 0.531507 0.744633
vt 0.510685 0.854908
vt 0.532775 0.815086
vt 0.476727 0.838916
vt 0.476312 0.816108
vt 0.509968 0.815499
vt 0.453207 0.799908
vt 0.474038 0.689630
vt 0.213072 0.458104
vt 0.532475 0.798480
vt 0.477030 0.855524
vt 0.453504 0.816514
vt 0.474337 0.706237
vt 0.452244 0.746058
vt 0.564533 0.853961
vt 0.357803 0.184352
vt 0.214422 0.247410
vt 0.357800 0.516681
vt 0.399705 0.272787
vt 0.361507 0.732970
vt 0.035816 0.845181
vt 0.067303 0.854616
vt 0.119943 0.855460
vt 0.507692 0.689024
vt 0.596855 0.844566
vt 0.152907 0.839431
vt 0.175403 0.801068
vt 0.098291 0.747968
vt 0.153754 0.693574
vt 0.175805 0.732196
vt 0.510382 0.838303
vt 0.097891 0.816836
vt 0.531207 0.728026
vt 0.120789 0.709603
vt 0.092015 0.990359
vt 0.452755 0.990846
vt 0.000000 0.929994
vt 0.264769 0.243032
vt 0.356596 0.242892
vt 0.406559 0.247489
vt 0.263496 0.184317
vn 0.000000 0.000000 1.000000
vn 0.000000 0.000000 1.000000
vn 0.000000 0.000000 1.000000
vn 0.000000 0.000000 1.000000
vn -0.067074 0.931774 -0.356788
vn -0.062631 0.998037 0.000000
vn 0.000000 1.000000 0.000000
vn 0.000000 0.932514 -0.361135
vn 0.000000 0.000000 -1.000000
vn 0.000000 0.000000 -1.000000
vn 0.000000 0.000000 -1.000000
vn 0.000000 0.000000 -1.000000
vn -0.062631 -0.998037 0.000000
vn -0.067074 -0.931774 -0.356788
vn 0.000000 -0.932514 -0.361135
vn 0.000000 -1.000000 0.000000
vn 1.000000 0.000000 0.000000
vn 1.000000 0.000000 0.000000
vn 1.000000 0.000000 0.000000
vn 1.000000 0.000000 0.000000
vn -1.000000 0.000000 0.000000
vn -1.000000 0.000000 0.000000
vn -1.000000 0.000000 0.000000
vn -1.000000 0.000000 0.000000
vn -0.062631 0.998037 0.000000
vn -0.067074 0.931774 0.356788
vn 0.000000 0.932514 0.361135
vn 0.000000 1.000000 0.000000
vn 1.000000 0.000000 0.000000
vn 1.000000 0.000000 0.000000
vn 1.000000 0.000000 0.000000
vn 1.000000 0.000000 0.000000
vn -0.067074 -0.931774 0.356788
vn -0.062631 -0.998037 0.000000
vn 0.000000 -1.000000 0.000000
vn 0.000000 -0.932514 0.361135
vn -1.000000 0.000000 0.000000
vn -1.000000 0.000000 0.000000
vn -1.000000 0.000000 0.000000
vn -1.000000 0.000000 0.000000
vn -0.067074 -0.931774 -0.356788
vn -0.021824 -0.974976 -0.221236
vn 0.000000 -0.981662 -0.190628
vn 0.000000 -0.932514 -0.361135
vn 1.000000 0.000000 0.000000
vn 1.000000 0.000000 0.000000
vn 0.997804 0.000000 0.066236
vn 0.997804 0.000000 0.066236
vn -0.021824 0.974976 -0.221236
vn -0.067074 0.931774 -0.356788
vn 0.000000 0.932514 -0.361135
vn 0.000000 0.981662 -0.190628
vn -1.000000 0.000000 0.000000
vn -1.000000 0.000000 0.000000
vn -1.000000 0.000000 0.000000
vn -1.000000 0.000000 0.000000
vn -0.067074 0.931774 0.356788
vn -0.021957 0.974174 0.224728
vn 0.000000 0.980935 0.194336
vn 0.000000 0.932514 0.361135
vn 0.998097 0.000000 -0.061657
vn 1.000000 0.000000 0.000000
vn 1.000000 0.000000 0.000000
vn 0.998097 0.000000 -0.061657
vn -0.021957 -0.974174 0.224728
vn -0.067074 -0.931774 0.356788
vn 0.000000 -0.932514 0.361135
vn 0.000000 -0.980935 0.194336
vn -1.000000 0.000000 0.000000
vn -1.000000 0.000000 0.000000
vn -1.000000 0.000000 0.000000
vn -1.000000 0.000000 0.000000
vn -0.000436 -0.877982 0.478693
vn -0.002027 -0.931229 0.364428
vn -0.067074 -0.931774 0.356788
vn -0.021957 -0.974174 0.224728
vn -0.002027 -0.931229 0.364428
vn -0.003687 -0.999993 0.000000
vn -0.062631 -0.998037 0.000000
vn -0.067074 -0.931774 0.356788
vn -0.003687 -0.999993 0.000000
vn -0.002027 -0.931229 -0.364428
vn -0.067074 -0.931774 -0.356788
vn -0.062631 -0.998037 0.000000
vn -0.002027 -0.931229 -0.364428
vn -0.000436 -0.877982 -0.478693
vn -0.021824 -0.974976 -0.221236
vn -0.067074 -0.931774 -0.356788
vn -0.006835 0.000000 -0.999977
vn -0.006835 0.000000 -0.999977
vn -0.240754 0.000000 -0.970586
vn -0.240754 0.000000 -0.970586
vn -0.000436 0.877982 -0.478693
vn -0.002027 0.931229 -0.364428
vn -0.067074 0.931774 -0.356788
vn -0.021824 0.974976 -0.221236
vn -0.002027 0.931229 -0.364428
vn -0.003687 0.999993 0.000000
vn -0.062631 0.998037 0.000000
vn -0.067074 0.931774 -0.356788
vn -0.003687 0.999993 0.000000
vn -0.002027 0.931229 0.364428
vn -0.067074 0.931774 0.356788
vn -0.062631 0.998037 0.000000
vn -0.002027 0.931229 0.364428
vn -0.000436 0.877982 0.478693
vn -0.021957 0.974174 0.224728
vn -0.067074 0.931774 0.356788
vn -0.006835 0.000000 0.999977
vn -0.006835 0.000000 0.999977
vn -0.240754 0.000000 0.970586
vn -0.240754 0.000000 0.970586
vn -1.000000 0.000000 0.000000
vn -1.000000 0.000000 0.000000
vn -1.000000 0.000000 0.000000
vn -1.000000 0.000000 0.000000
vn 0.000000 -0.996363 0.085207
vn 0.000000 -0.996484 0.083781
vn 0.000000 -1.000000 0.000000
vn 0.000000 -1.000000 0.000000
vn 1.000000 0.000000 0.000000
vn 1.000000 0.000000 0.000000
vn 1.000000 0.000000 0.000000
vn 1.000000 0.000000 0.000000
vn 0.000000 0.996484 0.083781
vn 0.000000 0.996363 0.085207
vn 0.000000 1.000000 0.000000
vn 0.000000 1.000000 0.000000
vn -1.000000 0.000000 0.000000
vn -1.000000 0.000000 0.000000
vn -1.000000 0.000000 0.000000
vn -1.000000 0.000000 0.000000
vn 0.000000 0.996686 -0.081345
vn 0.000000 0.996800 -0.079933
vn 0.000000 1.000000 0.000000
vn 0.000000 1.000000 0.000000
vn 1.000000 0.000000 0.000000
vn 1.000000 0.000000 0.000000
vn 1.000000 0.000000 0.000000
vn 1.000000 0.000000 0.000000
vn 0.000000 -0.996800 -0.079933
vn 0.000000 -0.996686 -0.081345
vn 0.000000 -1.000000 0.000000
vn 0.000000 -1.000000 0.000000
vn -0.985987 0.000000 0.166824
vn -0.985987 0.000000 0.166824
vn -0.985987 0.000000 0.166824
vn -0.985987 0.000000 0.166824
vn -0.021957 -0.974174 0.224728
vn 0.000000 -0.980935 0.194336
vn 0.000000 -0.996484 0.083781
vn 0.000000 -0.996363 0.085207
vn 0.998097 0.000000 -0.061657
vn 0.998097 0.000000 -0.061657
vn 0.995026 0.000000 -0.099619
vn 0.995026 0.000000 -0.099619
vn 0.000000 0.980935 0.194336
vn -0.021957 0.974174 0.224728
vn 0.000000 0.996363 0.085207
vn 0.000000 0.996484 0.083781
vn -0.986978 0.000000 -0.160855
vn -0.986978 0.000000 -0.160855
vn -0.986978 0.000000 -0.160855
vn -0.986978 0.000000 -0.160855
vn -0.021824 0.974976 -0.221236
vn 0.000000 0.981662 -0.190628
vn 0.000000 0.996800 -0.079933
vn 0.000000 0.996686 -0.081345
vn 0.997804 0.000000 0.066236
vn 0.997804 0.000000 0.066236
vn 0.994310 0.000000 0.106525
vn 0.994310 0.000000 0.106525
vn 0.000000 -0.981662 -0.190628
vn -0.021824 -0.974976 -0.221236
vn 0.000000 -0.996686 -0.081345
vn 0.000000 -0.996800 -0.079933
vn 0.000000 0.000000 -1.000000
vn 0.000000 0.000000 -1.000000
vn 0.000000 0.000000 -1.000000
vn 0.000000 0.000000 -1.000000
vn 0.000000 -0.996363 0.085207
vn 0.000000 -1.000000 0.000000
vn 0.000000 -1.000000 0.000000
vn 0.000000 -1.000000 0.000000
vn 0.000000 0.000000 1.000000
vn 0.000000 0.000000 1.000000
vn 0.000000 0.000000 1.000000
vn 0.000000 0.000000 1.000000
vn 0.000000 1.000000 0.000000
vn 0.000000 0.996363 0.085207
vn 0.000000 1.000000 0.000000
vn 0.000000 1.000000 0.000000
vn 0.000000 0.000000 -1.000000
vn 0.000000 0.000000 -1.000000
vn 0.000000 0.000000 -1.000000
vn 0.000000 0.000000 -1.000000
vn 0.000000 0.996484 0.083781
vn 0.000000 1.000000 0.000000
vn 0.000000 1.000000 0.000000
vn 0.000000 1.000000 0.000000
vn 0.000000 0.000000 1.000000
vn 0.000000 0.000000 1.000000
vn 0.000000 0.000000 1.000000
vn 0.000000 0.000000 1.000000
vn 0.000000 -1.000000 0.000000
vn 0.000000 -0.996484 0.083781
vn 0.000000 -1.000000 0.000000
vn 0.000000 -1.000000 0.000000
vn 0.000000 0.000000 1.000000
vn 0.000000 0.000000 1.000000
vn 0.000000 0.000000 1.000000
vn 0.000000 0.000000 1.000000
vn 0.000000 0.996686 -0.081345
vn 0.000000 1.000000 0.000000
vn 0.000000 1.000000 0.000000
vn 0.000000 1.000000 0.000000
vn 0.000000 0.000000 -1.000000
vn 0.000000 0.000000 -1.000000
vn 0.000000 0.000000 -1.000000
vn 0.000000 0.000000 -1.000000
vn 0.000000 -1.000000 0.000000
vn 0.000000 -0.996686 -0.081345
vn 0.000000 -1.000000 0.000000
vn 0.000000 -1.000000 0.000000
vn 0.000000 0.000000 1.000000
vn 0.000000 0.000000 1.000000
vn 0.000000 0.000000 1.000000
vn 0.000000 0.000000 1.000000
vn 0.000000 -0.996800 -0.079933
vn 0.000000 -1.000000 0.000000
vn 0.000000 -1.000000 0.000000
vn 0.000000 -1.000000 0.000000
vn 0.000000 0.000000 -1.000000
vn 0.000000 0.000000 -1.000000
vn 0.000000 0.000000 -1.000000
vn 0.000000 0.000000 -1.000000
vn 0.000000 1.000000 0.000000
vn 0.000000 0.996800 -0.079933
vn 0.000000 1.000000 0.000000
vn 0.000000 1.000000 0.000000
vn 0.034625 -0.932808 0.358707
vn -0.002027 -0.931229 0.364428
vn -0.000436 -0.877982 0.478693
vn 0.035038 -0.877443 0.478399
vn 0.034381 -0.999409 0.000000
vn -0.003687 -0.999993 0.000000
vn -0.002027 -0.931229 0.364428
vn 0.034625 -0.932808 0.358707
vn 0.034625 -0.932808 -0.358707
vn -0.002027 -0.931229 -0.364428
vn -0.003687 -0.999993 0.000000
vn 0.034381 -0.999409 0.000000
vn 0.035038 -0.877443 -0.478399
vn -0.000436 -0.877982 -0.478693
vn -0.002027 -0.931229 -0.364428
vn 0.034625 -0.932808 -0.358707
vn 0.034998 0.000000 -0.999387
vn -0.006835 0.000000 -0.999977
vn -0.006835 0.000000 -0.999977
vn 0.034998 0.000000 -0.999387
vn 0.034625 0.932808 -0.358707
vn -0.002027 0.931229 -0.364428
vn -0.000436 0.877982 -0.478693
vn 0.035038 0.877443 -0.478399
vn 0.034381 0.999409 0.000000
vn -0.003687 0.999993 0.000000
vn -0.002027 0.931229 -0.364428
vn 0.034625 0.932808 -0.358707
vn 0.034625 0.932808 0.358707
vn -0.002027 0.931229 0.364428
vn -0.003687 0.999993 0.000000
vn 0.034381 0.999409 0.000000
vn 0.035038 0.877443 0.478399
vn -0.000436 0.877982 0.478693
vn -0.002027 0.931229 0.364428
vn 0.034625 0.932808 0.358707
vn 0.034998 0.000000 0.999387
vn -0.006835 0.000000 0.999977
vn -0.006835 0.000000 0.999977
vn 0.034998 0.000000 0.999387
s off
g Sword_handle
usemtl initialShadingGroup
f 31/1/1 32/2/2 33/3/3 34/4/4
f 27/5/5 28/6/6 10/7/7 15/8/8
f 35/9/9 36/10/10 37/11/11 38/12/12
f 23/13/13 24/14/14 14/15/15 11/16/16
f 10/17/17 11/109/18 14/19/19 15/20/20
f 16/21/21 13/22/22 12/23/23 9/24/24
f 28/6/25 29/25/26 18/26/27 10/7/28
f 18/27/29 19/28/30 11/18/31 10/108/32
f 22/29/33 23/13/34 11/16/35 19/30/36
f 9/24/37 12/23/38 20/31/39 17/32/40
f 24/14/41 25/93/42 8/34/43 14/15/44
f 15/20/45 14/19/46 8/35/47 6/36/48
f 26/112/49 27/5/50 15/8/51 6/89/52
f 7/91/53 13/22/54 16/21/55 5/39/56
f 29/25/57 30/111/58 4/114/59 18/26/60
f 2/42/61 19/28/62 18/27/63 4/41/64
f 21/43/65 22/29/66 19/30/67 2/44/68
f 17/32/69 20/31/70 1/45/71 3/46/72
f 63/47/73 64/48/74 22/29/75 21/43/76
f 64/48/77 65/49/78 23/13/79 22/29/80
f 65/49/81 66/50/82 24/14/83 23/13/84
f 66/50/85 67/51/86 25/93/87 24/14/88
f 67/92/89 68/52/90 26/112/91 25/113/92
f 68/52/93 69/53/94 27/5/95 26/112/96
f 69/53/97 70/54/98 28/6/99 27/5/100
f 70/54/101 71/55/102 29/25/103 28/6/104
f 71/55/105 72/56/106 30/111/107 29/25/108
f 72/56/109 63/57/110 21/90/111 30/111/112
f 47/107/113 48/59/114 49/60/115 50/61/116
f 40/62/117 41/100/118 33/3/119 32/2/120
f 51/99/121 52/65/122 53/66/123 54/67/124
f 42/68/125 39/101/126 31/1/127 34/4/128
f 55/86/129 56/71/130 57/72/131 58/73/132
f 44/74/133 45/83/134 37/11/135 36/10/136
f 59/104/137 60/77/138 61/78/139 62/79/140
f 46/80/141 43/87/142 35/9/143 38/12/144
f 30/40/145 21/110/146 40/94/147 39/95/148
f 21/43/149 2/44/150 41/100/151 40/62/152
f 2/42/153 4/41/154 42/96/155 41/63/156
f 4/41/157 30/40/158 39/95/159 42/96/160
f 25/33/161 26/37/162 44/88/163 43/98/164
f 26/37/165 6/36/166 45/75/167 44/88/168
f 6/36/169 8/35/170 46/84/171 45/75/172
f 8/34/173 25/93/174 43/87/175 46/80/176
f 39/69/177 40/102/178 48/59/179 47/107/180
f 40/62/181 32/2/182 49/60/183 48/103/184
f 32/2/185 31/1/186 50/61/187 49/60/188
f 31/1/189 39/101/190 47/58/191 50/61/192
f 41/63/193 42/96/194 52/65/195 51/99/196
f 42/68/197 34/4/198 53/66/199 52/105/200
f 34/4/201 33/3/202 54/67/203 53/66/204
f 33/3/205 41/100/206 51/64/207 54/67/208
f 43/81/209 44/97/210 56/71/211 55/86/212
f 44/74/213 36/10/214 57/72/215 56/106/216
f 36/10/217 35/9/218 58/73/219 57/72/220
f 35/9/221 43/87/222 55/70/223 58/73/224
f 45/75/225 46/84/226 60/77/227 59/104/228
f 46/80/229 38/12/230 61/78/231 60/85/232
f 38/12/233 37/11/234 62/79/235 61/78/236
f 37/11/237 45/83/238 59/76/239 62/79/240
f 20/31/241 64/48/242 63/47/243 1/45/244
f 12/23/245 65/49/246 64/48/247 20/31/248
f 13/22/249 66/50/250 65/49/251 12/23/252
f 7/91/253 67/51/254 66/50/255 13/22/256
f 5/39/257 68/52/258 67/92/259 7/38/260
f 16/21/261 69/53/262 68/52/263 5/39/264
f 9/24/265 70/54/266 69/53/267 16/21/268
f 17/32/269 71/55/270 70/54/271 9/24/272
f 3/46/273 72/56/274 71/55/275 17/32/276
f 1/82/277 63/57/278 72/56/279 3/46/280
g default
v -1.614790 -0.033363 0.691885
v 3.048036 -0.033363 0.691885
v -1.614790 0.033363 0.691885
v 3.048036 0.033363 0.691885
v -1.614790 0.033363 -0.684366
v 3.048036 0.033363 -0.684366
v -1.614790 -0.033363 -0.684366
v 3.048036 -0.033363 -0.684366
v -1.614790 0.183677 0.003760
v 3.606324 0.035582 0.003760
v 3.606324 -0.035582 0.003760
v -1.614790 -0.183677 0.003760
v 3.048036 0.183677 0.003760
v 3.048036 -0.183677 0.003760
v -1.614790 0.065322 0.003760
v -1.614790 -0.065322 0.003760
v -1.614790 0.065322 -0.238708
v -1.614790 -0.065322 -0.238708
v -1.614790 -0.065322 0.246227
v -1.614790 0.065322 0.246227
v -2.358567 -0.065322 0.246227
v -2.358567 0.065322 0.246227
v -2.358567 0.065322 0.003760
v -2.358567 -0.065322 0.003760
v -2.358567 0.065322 -0.238708
v -2.358567 -0.065322 -0.238708
vt 0.989665 0.049893
vt 0.996947 0.747257
vt 0.987116 0.747244
vt 0.987555 0.059495
vt 0.779915 0.747164
vt 0.883407 0.745229
vt 0.883391 0.829979
vt 0.771991 0.049694
vt 0.770086 0.747166
vt 0.769896 0.059299
vt 0.666358 0.745348
vt 0.666468 0.830329
vt 0.889912 0.838184
vt 0.773801 0.754868
vt 0.883767 0.059338
vt 0.230878 0.025862
vt 0.050655 0.051101
vt 0.562838 0.747413
vt 0.025395 0.076356
vt 0.666099 0.059307
vt 0.562072 0.059424
vt 0.244469 0.194434
vt 0.895391 0.006481
vt 0.219208 0.219689
vt 0.038986 0.244928
vt 0.116475 0.167456
vt 0.102867 0.153845
vt 0.128128 0.128589
vt 0.141736 0.142200
vt 0.153389 0.103334
vt 0.166997 0.116945
vt 0.922407 0.049985
vt 0.926540 0.031187
vt 0.704728 0.049892
vt 0.708833 0.031087
vt 0.891647 0.023513
vt 0.673926 0.023468
vt 0.669818 0.042271
vt 0.887512 0.042308
vt 0.997386 0.059509
vt 0.993216 0.754959
vt 0.876857 0.838173
vt 0.075916 0.025845
vt 0.244486 0.039472
vt 0.193947 0.244945
vt 0.025378 0.231317
vt 0.779729 0.059297
vt 0.677642 0.006430
vn 0.000000 0.000000 1.000000
vn 0.000000 0.000000 1.000000
vn 0.000000 0.000000 1.000000
vn 0.000000 0.000000 1.000000
vn 0.009124 0.976923 -0.213399
vn 0.006242 0.999981 0.000000
vn 0.256399 0.966571 0.000000
vn 0.000000 0.000000 -1.000000
vn 0.000000 0.000000 -1.000000
vn 0.000000 0.000000 -1.000000
vn 0.000000 0.000000 -1.000000
vn 0.006242 -0.999981 0.000000
vn 0.009124 -0.976923 -0.213399
vn 0.256399 -0.966571 0.000000
vn 1.000000 0.000000 0.000000
vn 1.000000 0.000000 0.000000
vn 0.776563 0.000000 -0.630040
vn 0.776563 0.000000 -0.630040
vn -1.000000 0.000000 0.000000
vn -1.000000 0.000000 0.000000
vn -1.000000 0.000000 0.000000
vn 0.006242 0.999981 0.000000
vn 0.009124 0.976923 0.213399
vn 0.256399 0.966571 0.000000
vn 0.776563 0.000000 0.630040
vn 1.000000 0.000000 0.000000
vn 1.000000 0.000000 0.000000
vn 0.776563 0.000000 0.630040
vn 0.009124 -0.976923 0.213399
vn 0.006242 -0.999981 0.000000
vn 0.256399 -0.966571 0.000000
vn -1.000000 0.000000 0.000000
vn -1.000000 0.000000 0.000000
vn -1.000000 0.000000 0.000000
vn 0.000000 1.000000 0.000000
vn 0.006242 0.999981 0.000000
vn 0.009124 0.976923 -0.213399
vn -0.000000 0.976963 -0.213408
vn 0.000000 0.976963 0.213408
vn 0.009124 0.976923 0.213399
vn 0.006242 0.999981 0.000000
vn 0.000000 1.000000 0.000000
vn 0.000000 -1.000000 0.000000
vn 0.006242 -0.999981 0.000000
vn 0.009124 -0.976923 0.213399
vn 0.000000 -0.976963 0.213408
vn 0.000000 -0.976963 -0.213408
vn 0.009124 -0.976923 -0.213399
vn 0.006242 -0.999981 0.000000
vn 0.000000 -1.000000 0.000000
vn -1.000000 0.000000 0.000000
vn -1.000000 0.000000 0.000000
vn -1.000000 0.000000 0.000000
vn -1.000000 0.000000 0.000000
vn -1.000000 0.000000 0.000000
vn -1.000000 0.000000 0.000000
vn -1.000000 0.000000 0.000000
vn -1.000000 0.000000 0.000000
vn -1.000000 0.000000 0.000000
vn -1.000000 0.000000 0.000000
vn -1.000000 0.000000 0.000000
vn -1.000000 0.000000 0.000000
vn -1.000000 0.000000 0.000000
vn -1.000000 0.000000 0.000000
vn -1.000000 0.000000 0.000000
vn -1.000000 0.000000 0.000000
vn -1.000000 0.000000 0.000000
vn -1.000000 0.000000 0.000000
vn -1.000000 0.000000 0.000000
vn -1.000000 0.000000 0.000000
vn -1.000000 0.000000 0.000000
vn -1.000000 0.000000 0.000000
vn -1.000000 0.000000 0.000000
vn -1.000000 0.000000 0.000000
vn -1.000000 0.000000 0.000000
vn -1.000000 0.000000 0.000000
vn -1.000000 0.000000 0.000000
vn -1.000000 0.000000 0.000000
vn -1.000000 0.000000 0.000000
vn -1.000000 0.000000 0.000000
vn -1.000000 0.000000 0.000000
vn -1.000000 0.000000 0.000000
vn -1.000000 0.000000 0.000000
vn -1.000000 0.000000 0.000000
vn 0.000000 0.000000 1.000000
vn 0.000000 0.000000 1.000000
vn 0.000000 0.000000 1.000000
vn 0.000000 0.000000 1.000000
vn 0.000000 1.000000 0.000000
vn 0.000000 1.000000 0.000000
vn 0.000000 1.000000 0.000000
vn 0.000000 1.000000 0.000000
vn 0.000000 -1.000000 0.000000
vn 0.000000 -1.000000 0.000000
vn 0.000000 -1.000000 0.000000
vn 0.000000 -1.000000 0.000000
vn 0.000000 0.000000 -1.000000
vn 0.000000 0.000000 -1.000000
vn 0.000000 0.000000 -1.000000
vn 0.000000 0.000000 -1.000000
vn 0.000000 -1.000000 0.000000
vn 0.000000 -1.000000 0.000000
vn 0.000000 -1.000000 0.000000
vn 0.000000 -1.000000 0.000000
vn 0.000000 1.000000 0.000000
vn 0.000000 1.000000 0.000000
vn 0.000000 1.000000 0.000000
vn 0.000000 1.000000 0.000000
s off
g Blade
usemtl initialShadingGroup
f 73/154/281 74/116/282 76/117/283 75/118/284
f 78/119/285 85/120/286 82/121/287
f 77/161/288 78/119/289 80/123/290 79/124/291
f 86/125/292 80/123/293 83/126/294
f 82/121/295 83/156/296 80/128/297 78/119/298
f 81/162/299 89/149/300 87/151/301
f 85/120/302 76/117/303 82/121/304
f 74/155/305 83/127/306 82/121/307 76/117/308
f 74/132/309 86/125/310 83/126/311
f 81/129/312 87/153/313 92/146/314
f 81/129/315 85/120/316 78/119/317 77/161/318
f 75/118/319 76/117/320 85/120/321 81/129/322
f 84/134/323 86/125/324 74/132/325 73/135/326
f 79/124/327 80/123/328 86/125/329 84/134/330
f 90/148/331 84/134/332 88/152/333
f 84/137/334 91/147/335 88/150/336
f 93/140/337 94/141/338 95/142/339 96/143/340
f 97/144/341 98/145/342 96/143/343 95/142/344
f 77/122/345 89/149/346 81/162/347
f 79/124/348 90/148/349 89/149/350 77/122/351
f 79/124/352 84/134/353 90/148/354
f 73/115/355 91/147/356 84/137/357
f 75/118/358 92/146/359 91/147/360 73/115/361
f 81/129/362 92/146/363 75/118/364
f 91/139/365 92/160/366 94/141/367 93/140/368
f 92/133/369 87/131/370 95/142/371 94/141/372
f 88/138/373 91/159/374 93/140/375 96/143/376
f 89/130/377 90/158/378 98/145/379 97/144/380
f 90/136/381 88/138/382 96/143/383 98/145/384
f 87/131/385 89/157/386 97/144/387 95/142/388
