# This file uses centimeters as units for non-parametric coordinates.

mtllib Water thing.mtl
g default
v -3.760476 0.771842 3.775954
v 3.793927 0.771842 3.775954
v -3.760476 6.963444 3.775954
v 3.793927 6.963444 3.775954
v -3.760476 6.963444 -3.778448
v 3.793927 6.963444 -3.778448
v -3.760476 0.771842 -3.778448
v 3.793927 0.771842 -3.778448
v 0.016725 0.771842 3.775954
v 0.016725 0.771842 -3.778448
v 0.016725 6.963444 -3.778448
v 0.016725 6.963444 3.775954
v -3.760476 6.963444 -0.001247
v 3.793927 6.963444 -0.001247
v 3.793927 0.771842 -0.001247
v 0.016725 0.771842 -0.001247
v -3.760476 0.771842 -0.001247
v 2.660767 0.771842 3.775954
v 2.660767 0.771842 -0.001247
v 2.660767 0.771842 -3.778448
v 2.660767 6.963444 -3.778448
v 2.660767 6.963444 -0.001247
v 2.660767 6.963444 3.775954
v -2.627315 0.771842 3.775954
v -2.627315 0.771842 -0.001247
v -2.627315 0.771842 -3.778448
v -2.627315 6.963444 -3.778448
v -2.627315 6.963444 -0.001247
v -2.627315 6.963444 3.775954
v -3.760476 0.771842 -2.645288
v -2.627315 0.771842 -2.645288
v 0.016725 0.771842 -2.645288
v 2.660767 0.771842 -2.645288
v 3.793927 0.771842 -2.645288
v 3.793927 6.963444 -2.645288
v 2.660767 6.963444 -2.645288
v 0.016725 6.963444 -2.645288
v -2.627315 6.963444 -2.645288
v -3.760476 6.963444 -2.645288
v -3.760476 6.963444 2.642794
v -2.627315 6.963444 2.642794
v 0.016725 6.963444 2.642794
v 2.660767 6.963444 2.642794
v 3.793927 6.963444 2.642794
v 3.793927 0.771842 2.642794
v 2.660767 0.771842 2.642794
v 0.016725 0.771842 2.642794
v -2.627315 0.771842 2.642794
v -3.760476 0.771842 2.642794
v -3.760476 0.004856 -3.778448
v -2.627315 0.004856 -3.778448
v -2.627315 0.004856 -2.645288
v -3.760476 0.004856 -2.645288
v 2.660767 0.004856 -2.645288
v 3.793927 0.004856 -2.645288
v 2.660767 0.004856 -3.778448
v 3.793927 0.004856 -3.778448
v 2.660767 0.004856 3.775954
v 2.660767 0.004856 2.642794
v 3.793927 0.004856 2.642794
v 3.793927 0.004856 3.775954
v -2.627315 0.004856 2.642794
v -3.760476 0.004856 2.642794
v -2.627315 0.004856 3.775954
v -3.760476 0.004856 3.775954
v 0.016725 1.632494 -2.645288
v -2.627315 1.632494 -2.645288
v -2.627315 1.632494 -0.001247
v 0.016725 1.632494 -0.001247
v -2.627315 1.632494 2.642794
v 0.016725 1.632494 2.642794
v 2.660767 1.632494 -2.645288
v 2.660767 1.632494 -0.001247
v 2.660767 1.632494 2.642794
vt 0.587500 0.250000
vt 0.587500 0.000000
vt 0.625000 0.000000
vt 0.625000 0.250000
vt 0.625000 0.462500
vt 0.587500 0.462500
vt 0.587500 0.375000
vt 0.625000 0.375000
vt 0.587500 0.750000
vt 0.587500 0.500000
vt 0.625000 0.500000
vt 0.625000 0.750000
vt 0.625000 0.875000
vt 0.587500 0.875000
vt 0.587500 0.787500
vt 0.625000 0.787500
vt 0.750000 0.250000
vt 0.750000 0.000000
vt 0.837500 0.000000
vt 0.837500 0.250000
vt 0.162500 0.250000
vt 0.162500 0.000000
vt 0.250000 0.000000
vt 0.250000 0.250000
vt 0.412500 0.875000
vt 0.412500 0.787500
vt 0.500000 0.787500
vt 0.500000 0.875000
vt 0.412500 0.750000
vt 0.412500 0.500000
vt 0.500000 0.500000
vt 0.500000 0.750000
vt 0.500000 0.462500
vt 0.412500 0.462500
vt 0.412500 0.375000
vt 0.500000 0.375000
vt 0.412500 0.250000
vt 0.412500 0.000000
vt 0.500000 0.000000
vt 0.500000 0.250000
vt 0.412500 0.287500
vt 0.500000 0.287500
vt 0.587500 0.287500
vt 0.625000 0.287500
vt 0.662500 0.250000
vt 0.662500 0.000000
vt 0.625000 0.962500
vt 0.587500 0.962500
vt 0.500000 0.962500
vt 0.412500 0.962500
vt 0.337500 0.000000
vt 0.337500 0.250000
vt 0.587500 0.462500
vt 0.587500 0.375000
vt 0.587500 0.287500
vt 0.375000 0.875000
vt 0.375000 0.962500
vt 0.375000 0.787500
vt 0.375000 0.500000
vt 0.375000 0.750000
vt 0.375000 0.375000
vt 0.412500 0.375000
vt 0.412500 0.462500
vt 0.375000 0.462500
vt 0.375000 0.287500
vt 0.412500 0.287500
vt 0.375000 0.000000
vt 0.375000 0.250000
vt 0.375000 0.750000
vt 0.412500 0.750000
vt 0.412500 0.787500
vt 0.375000 0.787500
vt 0.625000 0.787500
vt 0.587500 0.787500
vt 0.587500 0.750000
vt 0.625000 0.750000
vt 0.875000 0.000000
vt 0.875000 0.250000
vt 0.500000 0.462500
vt 0.125000 0.000000
vt 0.125000 0.250000
vt 0.500000 0.287500
vt 0.587500 1.000000
vt 0.587500 0.962500
vt 0.625000 0.962500
vt 0.625000 1.000000
vt 0.500000 1.000000
vt 0.587500 1.000000
vt 0.412500 1.000000
vt 0.375000 0.962500
vt 0.412500 0.962500
vt 0.412500 1.000000
vt 0.375000 1.000000
vt 0.625000 1.000000
vt 0.375000 1.000000
vn 0.000000 0.000000 1.000000
vn 0.000000 0.000000 1.000000
vn 0.000000 0.000000 1.000000
vn 0.000000 0.000000 1.000000
vn 0.000000 1.000000 0.000000
vn 0.000000 1.000000 0.000000
vn 0.000000 1.000000 0.000000
vn 0.000000 1.000000 0.000000
vn 0.000000 0.000000 -1.000000
vn 0.000000 0.000000 -1.000000
vn 0.000000 0.000000 -1.000000
vn 0.000000 0.000000 -1.000000
vn 0.000000 -1.000000 0.000000
vn 0.000000 -1.000000 0.000000
vn 0.000000 -1.000000 0.000000
vn 0.000000 -1.000000 0.000000
vn 1.000000 0.000000 0.000000
vn 1.000000 0.000000 0.000000
vn 1.000000 0.000000 0.000000
vn 1.000000 0.000000 0.000000
vn -1.000000 0.000000 0.000000
vn -1.000000 0.000000 0.000000
vn -1.000000 0.000000 0.000000
vn -1.000000 0.000000 0.000000
vn 0.000000 -1.000000 0.000000
vn 0.000000 -1.000000 0.000000
vn 0.000000 -1.000000 0.000000
vn 0.000000 -1.000000 0.000000
vn 0.000000 0.000000 -1.000000
vn 0.000000 0.000000 -1.000000
vn 0.000000 0.000000 -1.000000
vn 0.000000 0.000000 -1.000000
vn 0.000000 1.000000 0.000000
vn 0.000000 1.000000 0.000000
vn 0.000000 1.000000 0.000000
vn 0.000000 1.000000 0.000000
vn 0.000000 0.000000 1.000000
vn 0.000000 0.000000 1.000000
vn 0.000000 0.000000 1.000000
vn 0.000000 0.000000 1.000000
vn 0.000000 1.000000 0.000000
vn 0.000000 1.000000 0.000000
vn 0.000000 1.000000 0.000000
vn 0.000000 1.000000 0.000000
vn 0.000000 1.000000 0.000000
vn 0.000000 1.000000 0.000000
vn 0.000000 1.000000 0.000000
vn 0.000000 1.000000 0.000000
vn 1.000000 0.000000 0.000000
vn 1.000000 0.000000 0.000000
vn 1.000000 0.000000 0.000000
vn 1.000000 0.000000 0.000000
vn 0.000000 -1.000000 0.000000
vn 0.000000 -1.000000 0.000000
vn 0.000000 -1.000000 0.000000
vn 0.000000 -1.000000 0.000000
vn 0.000000 -1.000000 0.000000
vn 0.000000 -1.000000 0.000000
vn 0.000000 -1.000000 0.000000
vn 0.000000 -1.000000 0.000000
vn -1.000000 0.000000 0.000000
vn -1.000000 0.000000 0.000000
vn -1.000000 0.000000 0.000000
vn -1.000000 0.000000 0.000000
vn 0.000000 -1.000000 0.000000
vn 0.000000 -1.000000 0.000000
vn 0.000000 -1.000000 0.000000
vn 0.000000 -1.000000 0.000000
vn 0.000000 -1.000000 0.000000
vn 0.000000 -1.000000 0.000000
vn 0.000000 -1.000000 0.000000
vn 0.000000 -1.000000 0.000000
vn 0.000000 0.000000 -1.000000
vn 0.000000 0.000000 -1.000000
vn 0.000000 0.000000 -1.000000
vn 0.000000 0.000000 -1.000000
vn 0.000000 1.000000 0.000000
vn 0.000000 1.000000 0.000000
vn 0.000000 1.000000 0.000000
vn 0.000000 1.000000 0.000000
vn 0.000000 1.000000 0.000000
vn 0.000000 1.000000 0.000000
vn 0.000000 1.000000 0.000000
vn 0.000000 1.000000 0.000000
vn 0.000000 0.000000 1.000000
vn 0.000000 0.000000 1.000000
vn 0.000000 0.000000 1.000000
vn 0.000000 0.000000 1.000000
vn 0.000000 -1.000000 0.000000
vn 0.000000 -1.000000 0.000000
vn 0.000000 -1.000000 0.000000
vn 0.000000 -1.000000 0.000000
vn 0.000000 -1.000000 0.000000
vn 0.000000 -1.000000 0.000000
vn 0.000000 -1.000000 0.000000
vn 0.000000 -1.000000 0.000000
vn 0.000000 0.000000 -1.000000
vn 0.000000 0.000000 -1.000000
vn 0.000000 0.000000 -1.000000
vn 0.000000 0.000000 -1.000000
vn 0.000000 1.000000 0.000000
vn 0.000000 1.000000 0.000000
vn 0.000000 1.000000 0.000000
vn 0.000000 1.000000 0.000000
vn 0.000000 1.000000 0.000000
vn 0.000000 1.000000 0.000000
vn 0.000000 1.000000 0.000000
vn 0.000000 1.000000 0.000000
vn 0.000000 0.000000 1.000000
vn 0.000000 0.000000 1.000000
vn 0.000000 0.000000 1.000000
vn 0.000000 0.000000 1.000000
vn 0.000000 -1.000000 0.000000
vn 0.000000 -1.000000 0.000000
vn 0.000000 -1.000000 0.000000
vn 0.000000 -1.000000 0.000000
vn 0.000000 -1.000000 0.000000
vn 0.000000 -1.000000 0.000000
vn 0.000000 -1.000000 0.000000
vn 0.000000 -1.000000 0.000000
vn 0.000000 -1.000000 0.000000
vn 0.000000 -1.000000 0.000000
vn 0.000000 -1.000000 0.000000
vn 0.000000 -1.000000 0.000000
vn 0.000000 -1.000000 0.000000
vn 0.000000 -1.000000 0.000000
vn 0.000000 -1.000000 0.000000
vn 0.000000 -1.000000 0.000000
vn 1.000000 0.000000 0.000000
vn 1.000000 0.000000 0.000000
vn 1.000000 0.000000 0.000000
vn 1.000000 0.000000 0.000000
vn 0.000000 1.000000 0.000000
vn 0.000000 1.000000 0.000000
vn 0.000000 1.000000 0.000000
vn 0.000000 1.000000 0.000000
vn 0.000000 1.000000 0.000000
vn 0.000000 1.000000 0.000000
vn 0.000000 1.000000 0.000000
vn 0.000000 1.000000 0.000000
vn 0.000000 1.000000 0.000000
vn 0.000000 1.000000 0.000000
vn 0.000000 1.000000 0.000000
vn 0.000000 1.000000 0.000000
vn 0.000000 1.000000 0.000000
vn 0.000000 1.000000 0.000000
vn 0.000000 1.000000 0.000000
vn 0.000000 1.000000 0.000000
vn -1.000000 0.000000 0.000000
vn -1.000000 0.000000 0.000000
vn -1.000000 0.000000 0.000000
vn -1.000000 0.000000 0.000000
vn 0.000000 1.000000 0.000000
vn 0.000000 1.000000 0.000000
vn 0.000000 1.000000 0.000000
vn 0.000000 1.000000 0.000000
vn 0.000000 1.000000 0.000000
vn 0.000000 1.000000 0.000000
vn 0.000000 1.000000 0.000000
vn 0.000000 1.000000 0.000000
vn 0.000000 1.000000 0.000000
vn 0.000000 1.000000 0.000000
vn 0.000000 1.000000 0.000000
vn 0.000000 1.000000 0.000000
vn 0.000000 1.000000 0.000000
vn 0.000000 1.000000 0.000000
vn 0.000000 1.000000 0.000000
vn 0.000000 1.000000 0.000000
vn 1.000000 0.000000 0.000000
vn 1.000000 0.000000 0.000000
vn 1.000000 0.000000 0.000000
vn 1.000000 0.000000 0.000000
vn 0.000000 -1.000000 0.000000
vn 0.000000 -1.000000 0.000000
vn 0.000000 -1.000000 0.000000
vn 0.000000 -1.000000 0.000000
vn 0.000000 -1.000000 0.000000
vn 0.000000 -1.000000 0.000000
vn 0.000000 -1.000000 0.000000
vn 0.000000 -1.000000 0.000000
vn 0.000000 -1.000000 0.000000
vn 0.000000 -1.000000 0.000000
vn 0.000000 -1.000000 0.000000
vn 0.000000 -1.000000 0.000000
vn 0.000000 -1.000000 0.000000
vn 0.000000 -1.000000 0.000000
vn 0.000000 -1.000000 0.000000
vn 0.000000 -1.000000 0.000000
vn -1.000000 0.000000 0.000000
vn -1.000000 0.000000 0.000000
vn -1.000000 0.000000 0.000000
vn -1.000000 0.000000 0.000000
vn 0.000000 0.000000 -1.000000
vn 0.000000 0.000000 -1.000000
vn 0.000000 0.000000 -1.000000
vn 0.000000 0.000000 -1.000000
vn 1.000000 0.000000 0.000000
vn 1.000000 0.000000 0.000000
vn 1.000000 0.000000 0.000000
vn 1.000000 0.000000 0.000000
vn 0.000000 0.000000 1.000000
vn 0.000000 0.000000 1.000000
vn 0.000000 0.000000 1.000000
vn 0.000000 0.000000 1.000000
vn -1.000000 0.000000 0.000000
vn -1.000000 0.000000 0.000000
vn -1.000000 0.000000 0.000000
vn -1.000000 0.000000 0.000000
vn 0.000000 0.000000 1.000000
vn 0.000000 0.000000 1.000000
vn 0.000000 0.000000 1.000000
vn 0.000000 0.000000 1.000000
vn -1.000000 0.000000 0.000000
vn -1.000000 0.000000 0.000000
vn -1.000000 0.000000 0.000000
vn -1.000000 0.000000 0.000000
vn 0.000000 0.000000 -1.000000
vn 0.000000 0.000000 -1.000000
vn 0.000000 0.000000 -1.000000
vn 0.000000 0.000000 -1.000000
vn 1.000000 0.000000 0.000000
vn 1.000000 0.000000 0.000000
vn 1.000000 0.000000 0.000000
vn 1.000000 0.000000 0.000000
vn -1.000000 0.000000 0.000000
vn -1.000000 0.000000 0.000000
vn -1.000000 0.000000 0.000000
vn -1.000000 0.000000 0.000000
vn 0.000000 0.000000 -1.000000
vn 0.000000 0.000000 -1.000000
vn 0.000000 0.000000 -1.000000
vn 0.000000 0.000000 -1.000000
vn 1.000000 0.000000 0.000000
vn 1.000000 0.000000 0.000000
vn 1.000000 0.000000 0.000000
vn 1.000000 0.000000 0.000000
vn 0.000000 0.000000 1.000000
vn 0.000000 0.000000 1.000000
vn 0.000000 0.000000 1.000000
vn 0.000000 0.000000 1.000000
vn 0.000000 0.000000 -1.000000
vn 0.000000 0.000000 -1.000000
vn 0.000000 0.000000 -1.000000
vn 0.000000 0.000000 -1.000000
vn 1.000000 0.000000 0.000000
vn 1.000000 0.000000 0.000000
vn 1.000000 0.000000 0.000000
vn 1.000000 0.000000 0.000000
vn 0.000000 0.000000 1.000000
vn 0.000000 0.000000 1.000000
vn 0.000000 0.000000 1.000000
vn 0.000000 0.000000 1.000000
vn -1.000000 0.000000 0.000000
vn -1.000000 0.000000 0.000000
vn -1.000000 0.000000 0.000000
vn -1.000000 0.000000 0.000000
vn 0.000000 0.000000 1.000000
vn 0.000000 0.000000 1.000000
vn 0.000000 0.000000 1.000000
vn 0.000000 0.000000 1.000000
vn 1.000000 0.000000 0.000000
vn 1.000000 0.000000 0.000000
vn 1.000000 0.000000 0.000000
vn 1.000000 0.000000 0.000000
vn 1.000000 0.000000 0.000000
vn 1.000000 0.000000 0.000000
vn 1.000000 0.000000 0.000000
vn 1.000000 0.000000 0.000000
vn 0.000000 0.000000 -1.000000
vn 0.000000 0.000000 -1.000000
vn 0.000000 0.000000 -1.000000
vn 0.000000 0.000000 -1.000000
vn 0.000000 0.000000 1.000000
vn 0.000000 0.000000 1.000000
vn 0.000000 0.000000 1.000000
vn 0.000000 0.000000 1.000000
vn -1.000000 0.000000 0.000000
vn -1.000000 0.000000 0.000000
vn -1.000000 0.000000 0.000000
vn -1.000000 0.000000 0.000000
vn 0.000000 0.000000 -1.000000
vn 0.000000 0.000000 -1.000000
vn 0.000000 0.000000 -1.000000
vn 0.000000 0.000000 -1.000000
vn -1.000000 0.000000 0.000000
vn -1.000000 0.000000 0.000000
vn -1.000000 0.000000 0.000000
vn -1.000000 0.000000 0.000000
s off
g Water_Thing
usemtl initialShadingGroup
f 23/1/1 18/2/2 2/3/3 4/4/4
f 35/5/5 36/6/6 22/7/7 14/8/8
f 20/9/9 21/10/10 6/11/11 8/12/12
f 15/13/13 19/14/14 33/15/15 34/16/16
f 14/17/17 15/18/18 34/19/19 35/20/20
f 39/21/21 30/22/22 17/23/23 13/24/24
f 25/25/25 31/26/26 32/27/27 16/28/28
f 26/29/29 27/30/30 11/31/31 10/32/32
f 66/33/33 67/34/34 68/35/35 69/36/36
f 29/37/37 24/38/38 9/39/39 12/40/40
f 68/35/41 70/41/42 71/42/43 69/36/44
f 14/8/45 22/7/46 43/43/47 44/44/48
f 44/45/49 45/46/50 15/18/51 14/17/52
f 45/47/53 46/48/54 19/14/55 15/13/56
f 47/49/57 48/50/58 25/25/59 16/28/60
f 13/24/61 17/23/62 49/51/63 40/52/64
f 46/48/65 47/49/66 16/28/67 19/14/68
f 32/27/69 33/15/70 19/14/71 16/28/72
f 10/32/73 11/31/74 21/10/75 20/9/76
f 72/53/77 66/33/78 69/36/79 73/54/80
f 71/42/81 74/55/82 73/54/83 69/36/84
f 12/40/85 9/39/86 18/2/87 23/1/88
f 17/56/89 25/25/90 48/50/91 49/57/92
f 30/58/93 31/26/94 25/25/95 17/56/96
f 5/59/97 27/30/98 26/29/99 7/60/100
f 13/61/101 28/62/102 38/63/103 39/64/104
f 40/65/105 41/66/106 28/62/107 13/61/108
f 1/67/109 24/38/110 29/37/111 3/68/112
f 50/69/113 51/70/114 52/71/115 53/72/116
f 32/27/117 31/26/118 26/29/119 10/32/120
f 20/9/121 33/15/122 32/27/123 10/32/124
f 55/73/125 54/74/126 56/75/127 57/76/128
f 35/20/129 34/19/130 8/77/131 6/78/132
f 21/10/133 36/6/134 35/5/135 6/11/136
f 11/31/137 37/79/138 36/6/139 21/10/140
f 27/30/141 38/63/142 37/79/143 11/31/144
f 39/64/145 38/63/146 27/30/147 5/59/148
f 7/80/149 30/22/150 39/21/151 5/81/152
f 3/68/153 29/37/154 41/66/155 40/65/156
f 42/82/157 41/66/158 29/37/159 12/40/160
f 23/1/161 43/43/162 42/82/163 12/40/164
f 44/44/165 43/43/166 23/1/167 4/4/168
f 2/3/169 45/46/170 44/45/171 4/4/172
f 58/83/173 59/84/174 60/85/175 61/86/176
f 9/87/177 47/49/178 46/48/179 18/88/180
f 24/89/181 48/50/182 47/49/183 9/87/184
f 63/90/185 62/91/186 64/92/187 65/93/188
f 40/52/189 49/51/190 1/67/191 3/68/192
f 7/60/193 26/29/194 51/70/195 50/69/196
f 26/29/197 31/26/198 52/71/199 51/70/200
f 31/26/201 30/58/202 53/72/203 52/71/204
f 30/58/205 7/60/206 50/69/207 53/72/208
f 34/16/209 33/15/210 54/74/211 55/73/212
f 33/15/213 20/9/214 56/75/215 54/74/216
f 20/9/217 8/12/218 57/76/219 56/75/220
f 8/12/221 34/16/222 55/73/223 57/76/224
f 18/88/225 46/48/226 59/84/227 58/83/228
f 46/48/229 45/47/230 60/85/231 59/84/232
f 45/47/233 2/94/234 61/86/235 60/85/236
f 2/94/237 18/88/238 58/83/239 61/86/240
f 49/57/241 48/50/242 62/91/243 63/90/244
f 48/50/245 24/89/246 64/92/247 62/91/248
f 24/89/249 1/95/250 65/93/251 64/92/252
f 1/95/253 49/57/254 63/90/255 65/93/256
f 37/79/257 38/63/258 67/34/259 66/33/260
f 38/63/261 28/62/262 68/35/263 67/34/264
f 28/62/265 41/66/266 70/41/267 68/35/268
f 41/66/269 42/82/270 71/42/271 70/41/272
f 36/6/273 37/79/274 66/33/275 72/53/276
f 22/7/277 36/6/278 72/53/279 73/54/280
f 42/82/281 43/43/282 74/55/283 71/42/284
f 43/43/285 22/7/286 73/54/287 74/55/288
