# This file uses centimeters as units for non-parametric coordinates.

mtllib Big tent.mtl
g default
v -0.979885 -1.728162 13.165252
v -1.199642 -1.728162 13.074226
v -1.419399 -1.728162 13.165252
v -1.510425 -1.728162 13.385009
v -1.419399 -1.728162 13.604766
v -1.199642 -1.728162 13.695793
v -0.979885 -1.728162 13.604766
v -0.888859 -1.728162 13.385009
v -0.979885 18.185314 13.165252
v -1.199642 18.185314 13.074226
v -1.419399 18.185314 13.165252
v -1.510425 18.185314 13.385009
v -1.419399 18.185314 13.604766
v -1.199642 18.185314 13.695793
v -0.979885 18.185314 13.604766
v -0.888859 18.185314 13.385009
v -1.199642 -1.728162 13.385009
v -1.199642 18.185314 13.385009
v -0.979885 -1.728162 -12.887425
v -1.199642 -1.728162 -12.978453
v -1.419399 -1.728162 -12.887425
v -1.510425 -1.728162 -12.667668
v -1.419399 -1.728162 -12.447911
v -1.199642 -1.728162 -12.356883
v -0.979885 -1.728162 -12.447911
v -0.888859 -1.728162 -12.667668
v -0.979885 18.185314 -12.887425
v -1.199642 18.185314 -12.978453
v -1.419399 18.185314 -12.887425
v -1.510425 18.185314 -12.667668
v -1.419399 18.185314 -12.447911
v -1.199642 18.185314 -12.356883
v -0.979885 18.185314 -12.447911
v -0.888859 18.185314 -12.667668
v -1.199642 -1.728162 -12.667668
v -1.199642 18.185314 -12.667668
v 14.048939 -2.121575 13.165252
v 13.829182 -2.121575 13.074226
v 13.609425 -2.121575 13.165252
v 13.518399 -2.121575 13.385009
v 13.609425 -2.121575 13.604766
v 13.829182 -2.121575 13.695793
v 14.048939 -2.121575 13.604766
v 14.139965 -2.121575 13.385009
v 14.048939 11.164630 13.165252
v 13.829182 11.164630 13.074226
v 13.609425 11.164630 13.165252
v 13.518399 11.164630 13.385009
v 13.609425 11.164630 13.604766
v 13.829182 11.164630 13.695793
v 14.048939 11.164630 13.604766
v 14.139965 11.164630 13.385009
v 13.829182 -2.121575 13.385009
v 13.829182 11.164630 13.385009
v 14.048939 -2.121575 -12.887425
v 13.829182 -2.121575 -12.978453
v 13.609425 -2.121575 -12.887425
v 13.518399 -2.121575 -12.667668
v 13.609425 -2.121575 -12.447911
v 13.829182 -2.121575 -12.356883
v 14.048939 -2.121575 -12.447911
v 14.139965 -2.121575 -12.667668
v 14.048939 11.164630 -12.887425
v 13.829182 11.164630 -12.978453
v 13.609425 11.164630 -12.887425
v 13.518399 11.164630 -12.667668
v 13.609425 11.164630 -12.447911
v 13.829182 11.164630 -12.356883
v 14.048939 11.164630 -12.447911
v 14.139965 11.164630 -12.667668
v 13.829182 -2.121575 -12.667668
v 13.829182 11.164630 -12.667668
v -15.944744 -2.121575 13.165252
v -16.164501 -2.121575 13.074226
v -16.384258 -2.121575 13.165252
v -16.475284 -2.121575 13.385009
v -16.384258 -2.121575 13.604766
v -16.164501 -2.121575 13.695793
v -15.944744 -2.121575 13.604766
v -15.853718 -2.121575 13.385009
v -15.944744 11.164630 13.165252
v -16.164501 11.164630 13.074226
v -16.384258 11.164630 13.165252
v -16.475284 11.164630 13.385009
v -16.384258 11.164630 13.604766
v -16.164501 11.164630 13.695793
v -15.944744 11.164630 13.604766
v -15.853718 11.164630 13.385009
v -16.164501 -2.121575 13.385009
v -16.164501 11.164630 13.385009
v -15.944744 -2.121575 -12.887425
v -16.164501 -2.121575 -12.978453
v -16.384258 -2.121575 -12.887425
v -16.475284 -2.121575 -12.667668
v -16.384258 -2.121575 -12.447911
v -16.164501 -2.121575 -12.356883
v -15.944744 -2.121575 -12.447911
v -15.853718 -2.121575 -12.667668
v -15.944744 11.164630 -12.887425
v -16.164501 11.164630 -12.978453
v -16.384258 11.164630 -12.887425
v -16.475284 11.164630 -12.667668
v -16.384258 11.164630 -12.447911
v -16.164501 11.164630 -12.356883
v -15.944744 11.164630 -12.447911
v -15.853718 11.164630 -12.667668
v -16.164501 -2.121575 -12.667668
v -16.164501 11.164630 -12.667668
vt 0.610485 0.045765
vt 0.500000 0.000000
vt 0.389515 0.045765
vt 0.343750 0.156250
vt 0.389515 0.266735
vt 0.500000 0.312500
vt 0.610485 0.266735
vt 0.656250 0.156250
vt 0.375000 0.312500
vt 0.406250 0.312500
vt 0.437500 0.312500
vt 0.468750 0.312500
vt 0.500000 0.312500
vt 0.531250 0.312500
vt 0.562500 0.312500
vt 0.593750 0.312500
vt 0.625000 0.312500
vt 0.375000 0.688440
vt 0.406250 0.688440
vt 0.437500 0.688440
vt 0.468750 0.688440
vt 0.500000 0.688440
vt 0.531250 0.688440
vt 0.562500 0.688440
vt 0.593750 0.688440
vt 0.625000 0.688440
vt 0.610485 0.733265
vt 0.500000 0.687500
vt 0.389515 0.733265
vt 0.343750 0.843750
vt 0.389515 0.954235
vt 0.500000 1.000000
vt 0.610485 0.954235
vt 0.656250 0.843750
vt 0.500000 0.150000
vt 0.500000 0.837500
vt 0.375000 0.312500
vt 0.406250 0.312500
vt 0.406250 0.688440
vt 0.375000 0.688440
vt 0.437500 0.312500
vt 0.437500 0.688440
vt 0.468750 0.312500
vt 0.468750 0.688440
vt 0.500000 0.312500
vt 0.500000 0.688440
vt 0.531250 0.312500
vt 0.531250 0.688440
vt 0.562500 0.312500
vt 0.562500 0.688440
vt 0.593750 0.312500
vt 0.593750 0.688440
vt 0.625000 0.312500
vt 0.625000 0.688440
vt 0.500000 0.000000
vt 0.610485 0.045765
vt 0.500000 0.150000
vt 0.389515 0.045765
vt 0.343750 0.156250
vt 0.389515 0.266735
vt 0.500000 0.312500
vt 0.610485 0.266735
vt 0.656250 0.156250
vt 0.610485 0.954235
vt 0.500000 1.000000
vt 0.500000 0.837500
vt 0.389515 0.954235
vt 0.343750 0.843750
vt 0.389515 0.733265
vt 0.500000 0.687500
vt 0.610485 0.733265
vt 0.656250 0.843750
vt 0.375000 0.312500
vt 0.406250 0.312500
vt 0.406250 0.688440
vt 0.375000 0.688440
vt 0.437500 0.312500
vt 0.437500 0.688440
vt 0.468750 0.312500
vt 0.468750 0.688440
vt 0.500000 0.312500
vt 0.500000 0.688440
vt 0.531250 0.312500
vt 0.531250 0.688440
vt 0.562500 0.312500
vt 0.562500 0.688440
vt 0.593750 0.312500
vt 0.593750 0.688440
vt 0.625000 0.312500
vt 0.625000 0.688440
vt 0.500000 0.000000
vt 0.610485 0.045765
vt 0.500000 0.150000
vt 0.389515 0.045765
vt 0.343750 0.156250
vt 0.389515 0.266735
vt 0.500000 0.312500
vt 0.610485 0.266735
vt 0.656250 0.156250
vt 0.610485 0.954235
vt 0.500000 1.000000
vt 0.500000 0.837500
vt 0.389515 0.954235
vt 0.343750 0.843750
vt 0.389515 0.733265
vt 0.500000 0.687500
vt 0.610485 0.733265
vt 0.656250 0.843750
vt 0.375000 0.312500
vt 0.406250 0.312500
vt 0.406250 0.688440
vt 0.375000 0.688440
vt 0.437500 0.312500
vt 0.437500 0.688440
vt 0.468750 0.312500
vt 0.468750 0.688440
vt 0.500000 0.312500
vt 0.500000 0.688440
vt 0.531250 0.312500
vt 0.531250 0.688440
vt 0.562500 0.312500
vt 0.562500 0.688440
vt 0.593750 0.312500
vt 0.593750 0.688440
vt 0.625000 0.312500
vt 0.625000 0.688440
vt 0.500000 0.000000
vt 0.610485 0.045765
vt 0.500000 0.150000
vt 0.389515 0.045765
vt 0.343750 0.156250
vt 0.389515 0.266735
vt 0.500000 0.312500
vt 0.610485 0.266735
vt 0.656250 0.156250
vt 0.610485 0.954235
vt 0.500000 1.000000
vt 0.500000 0.837500
vt 0.389515 0.954235
vt 0.343750 0.843750
vt 0.389515 0.733265
vt 0.500000 0.687500
vt 0.610485 0.733265
vt 0.656250 0.843750
vt 0.375000 0.312500
vt 0.406250 0.312500
vt 0.406250 0.688440
vt 0.375000 0.688440
vt 0.437500 0.312500
vt 0.437500 0.688440
vt 0.468750 0.312500
vt 0.468750 0.688440
vt 0.500000 0.312500
vt 0.500000 0.688440
vt 0.531250 0.312500
vt 0.531250 0.688440
vt 0.562500 0.312500
vt 0.562500 0.688440
vt 0.593750 0.312500
vt 0.593750 0.688440
vt 0.625000 0.312500
vt 0.625000 0.688440
vt 0.500000 0.000000
vt 0.610485 0.045765
vt 0.500000 0.150000
vt 0.389515 0.045765
vt 0.343750 0.156250
vt 0.389515 0.266735
vt 0.500000 0.312500
vt 0.610485 0.266735
vt 0.656250 0.156250
vt 0.610485 0.954235
vt 0.500000 1.000000
vt 0.500000 0.837500
vt 0.389515 0.954235
vt 0.343750 0.843750
vt 0.389515 0.733265
vt 0.500000 0.687500
vt 0.610485 0.733265
vt 0.656250 0.843750
vt 0.375000 0.312500
vt 0.406250 0.312500
vt 0.406250 0.688440
vt 0.375000 0.688440
vt 0.437500 0.312500
vt 0.437500 0.688440
vt 0.468750 0.312500
vt 0.468750 0.688440
vt 0.500000 0.312500
vt 0.500000 0.688440
vt 0.531250 0.312500
vt 0.531250 0.688440
vt 0.562500 0.312500
vt 0.562500 0.688440
vt 0.593750 0.312500
vt 0.593750 0.688440
vt 0.625000 0.312500
vt 0.625000 0.688440
vt 0.500000 0.000000
vt 0.610485 0.045765
vt 0.500000 0.150000
vt 0.389515 0.045765
vt 0.343750 0.156250
vt 0.389515 0.266735
vt 0.500000 0.312500
vt 0.610485 0.266735
vt 0.656250 0.156250
vt 0.610485 0.954235
vt 0.500000 1.000000
vt 0.500000 0.837500
vt 0.389515 0.954235
vt 0.343750 0.843750
vt 0.389515 0.733265
vt 0.500000 0.687500
vt 0.610485 0.733265
vt 0.656250 0.843750
vn 0.707095 -0.005852 -0.707094
vn 0.000000 -0.005852 -0.999983
vn 0.000000 0.005853 -0.999983
vn 0.707095 0.005853 -0.707094
vn -0.707095 -0.005853 -0.707094
vn -0.707095 0.005853 -0.707094
vn -0.999983 -0.005853 0.000000
vn -0.999983 0.005853 0.000000
vn -0.707095 -0.005853 0.707094
vn -0.707095 0.005853 0.707094
vn 0.000000 -0.005853 0.999983
vn 0.000000 0.005852 0.999983
vn 0.707095 -0.005853 0.707094
vn 0.707095 0.005852 0.707094
vn 0.999983 -0.005853 0.000000
vn 0.999983 0.005853 -0.000000
vn 0.000000 -1.000000 0.000000
vn 0.000000 1.000000 0.000000
vn 0.707097 -0.005853 -0.707093
vn 0.000000 -0.005852 -0.999983
vn 0.000000 0.005852 -0.999983
vn 0.707097 0.005853 -0.707093
vn -0.707097 -0.005853 -0.707093
vn -0.707097 0.005853 -0.707093
vn -0.999983 -0.005853 0.000000
vn -0.999983 0.005853 0.000000
vn -0.707097 -0.005853 0.707093
vn -0.707097 0.005853 0.707093
vn 0.000000 -0.005852 0.999983
vn 0.000000 0.005852 0.999983
vn 0.707097 -0.005853 0.707093
vn 0.707097 0.005853 0.707093
vn 0.999983 -0.005853 0.000000
vn 0.999983 0.005853 -0.000000
vn 0.000000 -1.000000 0.000000
vn 0.000000 1.000000 0.000000
vn 0.707076 -0.008772 -0.707083
vn 0.000000 -0.008771 -0.999962
vn 0.000000 0.008771 -0.999962
vn 0.707076 0.008772 -0.707083
vn -0.707076 -0.008771 -0.707083
vn -0.707076 0.008771 -0.707083
vn -0.999962 -0.008772 0.000000
vn -0.999962 0.008772 0.000000
vn -0.707081 -0.008771 0.707078
vn -0.707081 0.008771 0.707078
vn 0.000000 -0.008771 0.999962
vn 0.000000 0.008771 0.999962
vn 0.707081 -0.008772 0.707078
vn 0.707081 0.008772 0.707078
vn 0.999962 -0.008772 0.000000
vn 0.999962 0.008772 0.000000
vn 0.000000 -1.000000 0.000000
vn 0.000000 1.000000 0.000000
vn 0.707083 -0.008772 -0.707077
vn 0.000000 -0.008771 -0.999962
vn 0.000000 0.008771 -0.999962
vn 0.707083 0.008771 -0.707077
vn -0.707083 -0.008772 -0.707077
vn -0.707083 0.008772 -0.707077
vn -0.999962 -0.008772 0.000000
vn -0.999962 0.008772 0.000000
vn -0.707081 -0.008772 0.707078
vn -0.707081 0.008772 0.707078
vn 0.000000 -0.008771 0.999962
vn 0.000000 0.008771 0.999962
vn 0.707081 -0.008771 0.707078
vn 0.707081 0.008772 0.707078
vn 0.999962 -0.008772 0.000000
vn 0.999962 0.008772 0.000000
vn 0.000000 -1.000000 0.000000
vn 0.000000 1.000000 0.000000
vn 0.707076 -0.008772 -0.707083
vn 0.000000 -0.008772 -0.999962
vn 0.000000 0.008772 -0.999962
vn 0.707076 0.008772 -0.707083
vn -0.707076 -0.008772 -0.707083
vn -0.707076 0.008772 -0.707083
vn -0.999962 -0.008772 0.000000
vn -0.999962 0.008772 0.000000
vn -0.707081 -0.008772 0.707078
vn -0.707081 0.008772 0.707078
vn 0.000000 -0.008772 0.999962
vn 0.000000 0.008772 0.999962
vn 0.707081 -0.008772 0.707078
vn 0.707081 0.008772 0.707078
vn 0.999962 -0.008772 0.000000
vn 0.999962 0.008772 0.000000
vn 0.000000 -1.000000 0.000000
vn 0.000000 1.000000 0.000000
vn 0.707083 -0.008772 -0.707077
vn 0.000000 -0.008772 -0.999962
vn 0.000000 0.008772 -0.999962
vn 0.707083 0.008772 -0.707077
vn -0.707083 -0.008772 -0.707077
vn -0.707083 0.008772 -0.707077
vn -0.999962 -0.008772 0.000000
vn -0.999962 0.008772 0.000000
vn -0.707081 -0.008772 0.707078
vn -0.707081 0.008772 0.707078
vn 0.000000 -0.008772 0.999962
vn 0.000000 0.008772 0.999962
vn 0.707081 -0.008772 0.707078
vn 0.707081 0.008772 0.707078
vn 0.999962 -0.008772 0.000000
vn 0.999962 0.008772 0.000000
vn 0.000000 -1.000000 0.000000
vn 0.000000 1.000000 0.000000
s 1
g group13_pasted__group11
usemtl initialShadingGroup
f 1/9/1 2/10/2 10/19/3 9/18/4
f 2/10/2 3/11/5 11/20/6 10/19/3
f 3/11/5 4/12/7 12/21/8 11/20/6
f 4/12/7 5/13/9 13/22/10 12/21/8
f 5/13/9 6/14/11 14/23/12 13/22/10
f 6/14/11 7/15/13 15/24/14 14/23/12
f 7/15/13 8/16/15 16/25/16 15/24/14
f 8/16/15 1/17/1 9/26/4 16/25/16
f 2/2/2 1/1/1 17/35/17
f 3/3/5 2/2/2 17/35/17
f 4/4/7 3/3/5 17/35/17
f 5/5/9 4/4/7 17/35/17
f 6/6/11 5/5/9 17/35/17
f 7/7/13 6/6/11 17/35/17
f 8/8/15 7/7/13 17/35/17
f 1/1/1 8/8/15 17/35/17
f 9/33/4 10/32/3 18/36/18
f 10/32/3 11/31/6 18/36/18
f 11/31/6 12/30/8 18/36/18
f 12/30/8 13/29/10 18/36/18
f 13/29/10 14/28/12 18/36/18
f 14/28/12 15/27/14 18/36/18
f 15/27/14 16/34/16 18/36/18
f 16/34/16 9/33/4 18/36/18
s 2
f 19/37/19 20/38/20 28/39/21 27/40/22
f 20/38/20 21/41/23 29/42/24 28/39/21
f 21/41/23 22/43/25 30/44/26 29/42/24
f 22/43/25 23/45/27 31/46/28 30/44/26
f 23/45/27 24/47/29 32/48/30 31/46/28
f 24/47/29 25/49/31 33/50/32 32/48/30
f 25/49/31 26/51/33 34/52/34 33/50/32
f 26/51/33 19/53/19 27/54/22 34/52/34
f 20/55/20 19/56/19 35/57/35
f 21/58/23 20/55/20 35/57/35
f 22/59/25 21/58/23 35/57/35
f 23/60/27 22/59/25 35/57/35
f 24/61/29 23/60/27 35/57/35
f 25/62/31 24/61/29 35/57/35
f 26/63/33 25/62/31 35/57/35
f 19/56/19 26/63/33 35/57/35
f 27/64/22 28/65/21 36/66/36
f 28/65/21 29/67/24 36/66/36
f 29/67/24 30/68/26 36/66/36
f 30/68/26 31/69/28 36/66/36
f 31/69/28 32/70/30 36/66/36
f 32/70/30 33/71/32 36/66/36
f 33/71/32 34/72/34 36/66/36
f 34/72/34 27/64/22 36/66/36
s 3
f 37/73/37 38/74/38 46/75/39 45/76/40
f 38/74/38 39/77/41 47/78/42 46/75/39
f 39/77/41 40/79/43 48/80/44 47/78/42
f 40/79/43 41/81/45 49/82/46 48/80/44
f 41/81/45 42/83/47 50/84/48 49/82/46
f 42/83/47 43/85/49 51/86/50 50/84/48
f 43/85/49 44/87/51 52/88/52 51/86/50
f 44/87/51 37/89/37 45/90/40 52/88/52
f 38/91/38 37/92/37 53/93/53
f 39/94/41 38/91/38 53/93/53
f 40/95/43 39/94/41 53/93/53
f 41/96/45 40/95/43 53/93/53
f 42/97/47 41/96/45 53/93/53
f 43/98/49 42/97/47 53/93/53
f 44/99/51 43/98/49 53/93/53
f 37/92/37 44/99/51 53/93/53
f 45/100/40 46/101/39 54/102/54
f 46/101/39 47/103/42 54/102/54
f 47/103/42 48/104/44 54/102/54
f 48/104/44 49/105/46 54/102/54
f 49/105/46 50/106/48 54/102/54
f 50/106/48 51/107/50 54/102/54
f 51/107/50 52/108/52 54/102/54
f 52/108/52 45/100/40 54/102/54
s 4
f 55/109/55 56/110/56 64/111/57 63/112/58
f 56/110/56 57/113/59 65/114/60 64/111/57
f 57/113/59 58/115/61 66/116/62 65/114/60
f 58/115/61 59/117/63 67/118/64 66/116/62
f 59/117/63 60/119/65 68/120/66 67/118/64
f 60/119/65 61/121/67 69/122/68 68/120/66
f 61/121/67 62/123/69 70/124/70 69/122/68
f 62/123/69 55/125/55 63/126/58 70/124/70
f 56/127/56 55/128/55 71/129/71
f 57/130/59 56/127/56 71/129/71
f 58/131/61 57/130/59 71/129/71
f 59/132/63 58/131/61 71/129/71
f 60/133/65 59/132/63 71/129/71
f 61/134/67 60/133/65 71/129/71
f 62/135/69 61/134/67 71/129/71
f 55/128/55 62/135/69 71/129/71
f 63/136/58 64/137/57 72/138/72
f 64/137/57 65/139/60 72/138/72
f 65/139/60 66/140/62 72/138/72
f 66/140/62 67/141/64 72/138/72
f 67/141/64 68/142/66 72/138/72
f 68/142/66 69/143/68 72/138/72
f 69/143/68 70/144/70 72/138/72
f 70/144/70 63/136/58 72/138/72
s 5
f 73/145/73 74/146/74 82/147/75 81/148/76
f 74/146/74 75/149/77 83/150/78 82/147/75
f 75/149/77 76/151/79 84/152/80 83/150/78
f 76/151/79 77/153/81 85/154/82 84/152/80
f 77/153/81 78/155/83 86/156/84 85/154/82
f 78/155/83 79/157/85 87/158/86 86/156/84
f 79/157/85 80/159/87 88/160/88 87/158/86
f 80/159/87 73/161/73 81/162/76 88/160/88
f 74/163/74 73/164/73 89/165/89
f 75/166/77 74/163/74 89/165/89
f 76/167/79 75/166/77 89/165/89
f 77/168/81 76/167/79 89/165/89
f 78/169/83 77/168/81 89/165/89
f 79/170/85 78/169/83 89/165/89
f 80/171/87 79/170/85 89/165/89
f 73/164/73 80/171/87 89/165/89
f 81/172/76 82/173/75 90/174/90
f 82/173/75 83/175/78 90/174/90
f 83/175/78 84/176/80 90/174/90
f 84/176/80 85/177/82 90/174/90
f 85/177/82 86/178/84 90/174/90
f 86/178/84 87/179/86 90/174/90
f 87/179/86 88/180/88 90/174/90
f 88/180/88 81/172/76 90/174/90
s 6
f 91/181/91 92/182/92 100/183/93 99/184/94
f 92/182/92 93/185/95 101/186/96 100/183/93
f 93/185/95 94/187/97 102/188/98 101/186/96
f 94/187/97 95/189/99 103/190/100 102/188/98
f 95/189/99 96/191/101 104/192/102 103/190/100
f 96/191/101 97/193/103 105/194/104 104/192/102
f 97/193/103 98/195/105 106/196/106 105/194/104
f 98/195/105 91/197/91 99/198/94 106/196/106
f 92/199/92 91/200/91 107/201/107
f 93/202/95 92/199/92 107/201/107
f 94/203/97 93/202/95 107/201/107
f 95/204/99 94/203/97 107/201/107
f 96/205/101 95/204/99 107/201/107
f 97/206/103 96/205/101 107/201/107
f 98/207/105 97/206/103 107/201/107
f 91/200/91 98/207/105 107/201/107
f 99/208/94 100/209/93 108/210/108
f 100/209/93 101/211/96 108/210/108
f 101/211/96 102/212/98 108/210/108
f 102/212/98 103/213/100 108/210/108
f 103/213/100 104/214/102 108/210/108
f 104/214/102 105/215/104 108/210/108
f 105/215/104 106/216/106 108/210/108
f 106/216/106 99/208/94 108/210/108
g default
v -16.989957 9.303783 14.063817
v 14.556454 9.303783 14.063817
v -16.989957 9.376123 14.063817
v 14.556454 9.376123 14.063817
v -16.989957 9.376123 -13.368350
v 14.556454 9.376123 -13.368350
v -16.989957 9.303783 -13.368350
v 14.556454 9.303783 -13.368350
v -1.216751 17.790104 14.063817
v -1.216751 17.790104 -13.368350
v -1.216751 17.862444 -13.368350
v -1.216751 17.862444 14.063817
v 2.638867 14.774404 14.063817
v 2.638867 14.846743 14.063817
v 2.638867 14.846743 -13.368350
v 2.638867 14.774404 -13.368350
v 8.944355 11.254070 14.063817
v 8.944355 11.326410 14.063817
v 8.944355 11.326410 -13.368350
v 8.944355 11.254070 -13.368350
v -5.629006 14.785489 14.063817
v -5.629006 14.785489 -13.368350
v -5.629006 14.857828 -13.368350
v -5.629006 14.857828 14.063817
v -11.419047 11.674163 14.063817
v -11.419047 11.674163 -13.368350
v -11.419047 11.746502 -13.368350
v -11.419047 11.746502 14.063817
vt 0.375000 0.000000
vt 0.625000 0.000000
vt 0.375000 0.250000
vt 0.625000 0.250000
vt 0.375000 0.500000
vt 0.625000 0.500000
vt 0.375000 0.750000
vt 0.625000 0.750000
vt 0.375000 1.000000
vt 0.625000 1.000000
vt 0.875000 0.000000
vt 0.875000 0.250000
vt 0.125000 0.000000
vt 0.125000 0.250000
vt 0.500000 0.000000
vt 0.500000 1.000000
vt 0.500000 0.750000
vt 0.500000 0.500000
vt 0.500000 0.250000
vt 0.530555 0.000000
vt 0.530555 1.000000
vt 0.530555 0.250000
vt 0.530555 0.500000
vt 0.530555 0.750000
vt 0.580525 0.000000
vt 0.580525 1.000000
vt 0.580525 0.250000
vt 0.580525 0.500000
vt 0.580525 0.750000
vt 0.465034 0.000000
vt 0.465034 1.000000
vt 0.465034 0.750000
vt 0.465034 0.500000
vt 0.465034 0.250000
vt 0.419149 0.000000
vt 0.419149 1.000000
vt 0.419149 0.750000
vt 0.419149 0.500000
vt 0.419149 0.250000
vn 0.000000 0.000000 1.000000
vn 0.000000 0.000000 1.000000
vn 0.000000 0.000000 1.000000
vn 0.000000 0.000000 1.000000
vn 0.001341 0.999999 0.000000
vn 0.001341 0.999999 0.000000
vn 0.540986 0.841032 0.000000
vn 0.540986 0.841032 0.000000
vn 0.000000 0.000000 -1.000000
vn 0.000000 0.000000 -1.000000
vn 0.000000 0.000000 -1.000000
vn 0.000000 0.000000 -1.000000
vn -0.001341 -0.999999 0.000000
vn -0.001341 -0.999999 0.000000
vn -0.540986 -0.841032 0.000000
vn -0.540986 -0.841032 0.000000
vn 1.000000 0.000000 0.000000
vn 1.000000 0.000000 0.000000
vn 1.000000 0.000000 0.000000
vn 1.000000 0.000000 0.000000
vn -1.000000 0.000000 0.000000
vn -1.000000 0.000000 0.000000
vn -1.000000 0.000000 0.000000
vn -1.000000 0.000000 0.000000
vn 0.514160 -0.857694 0.000000
vn 0.514160 -0.857694 0.000000
vn 0.000000 0.000000 -1.000000
vn 0.000000 0.000000 -1.000000
vn -0.514160 0.857695 0.000000
vn -0.514160 0.857695 0.000000
vn 0.000000 0.000000 1.000000
vn 0.000000 0.000000 1.000000
vn 0.000000 0.000000 1.000000
vn 0.000000 0.000000 1.000000
vn 0.417184 0.908822 0.000000
vn 0.417184 0.908822 0.000000
vn 0.000000 0.000000 -1.000000
vn 0.000000 0.000000 -1.000000
vn -0.417184 -0.908822 0.000000
vn -0.417184 -0.908822 0.000000
vn 0.000000 0.000000 1.000000
vn 0.000000 0.000000 1.000000
vn 0.328258 0.944588 0.000000
vn 0.328258 0.944588 0.000000
vn 0.000000 0.000000 -1.000000
vn 0.000000 0.000000 -1.000000
vn -0.328258 -0.944588 0.000000
vn -0.328258 -0.944588 0.000000
vn 0.434563 -0.900641 0.000000
vn 0.434563 -0.900641 0.000000
vn 0.000000 0.000000 -1.000000
vn 0.000000 0.000000 -1.000000
vn -0.434563 0.900641 0.000000
vn -0.434563 0.900641 0.000000
vn 0.000000 0.000000 1.000000
vn 0.000000 0.000000 1.000000
vn 0.391524 -0.920168 0.000000
vn 0.391524 -0.920168 0.000000
vn 0.000000 0.000000 -1.000000
vn 0.000000 0.000000 -1.000000
vn -0.391524 0.920168 0.000000
vn -0.391524 0.920168 0.000000
vn 0.000000 0.000000 1.000000
vn 0.000000 0.000000 1.000000
s 1
g pCube13
usemtl initialShadingGroup
f 120/235/109 117/231/110 121/236/111 122/238/112
s 2
f 119/234/113 120/235/114 122/238/115 123/239/116
s 3
f 118/233/117 119/234/118 123/239/119 124/240/120
s 4
f 117/232/121 118/233/122 124/240/123 121/237/124
s off
f 110/218/125 116/227/126 114/228/127 112/220/128
f 115/229/129 109/217/130 111/219/131 113/230/132
s 4
f 129/247/133 130/248/134 118/233/122 117/232/121
s 3
f 130/248/135 131/249/136 119/234/118 118/233/117
s 2
f 131/249/137 132/250/138 120/235/114 119/234/113
s 1
f 132/250/139 129/246/140 117/231/110 120/235/109
f 122/238/112 121/236/111 125/241/141 126/243/142
s 2
f 123/239/116 122/238/115 126/243/143 127/244/144
s 3
f 124/240/120 123/239/119 127/244/145 128/245/146
s 4
f 121/237/124 124/240/123 128/245/147 125/242/148
s 1
f 126/243/142 125/241/141 110/218/149 112/220/150
s 2
f 127/244/144 126/243/143 112/220/151 114/222/152
s 3
f 128/245/146 127/244/145 114/222/153 116/224/154
s 4
f 125/242/148 128/245/147 116/224/155 110/226/156
f 133/252/157 134/253/158 130/248/134 129/247/133
s 3
f 134/253/159 135/254/160 131/249/136 130/248/135
s 2
f 135/254/161 136/255/162 132/250/138 131/249/137
s 1
f 136/255/163 133/251/164 129/246/140 132/250/139
s 4
f 115/223/165 134/253/158 133/252/157 109/225/166
s 3
f 113/221/167 135/254/160 134/253/159 115/223/168
s 2
f 111/219/169 136/255/162 135/254/161 113/221/170
s 1
f 109/217/171 133/251/164 136/255/163 111/219/172
