# This file uses centimeters as units for non-parametric coordinates.

mtllib bucket.mtl
g default
v 1.244559 0.000545 -0.624269
v 0.869426 0.000545 -1.140596
v 0.316713 0.000545 -1.459704
v -0.318014 0.000545 -1.526416
v -0.924995 0.000545 -1.329196
v -1.399270 0.000545 -0.902147
v -1.658857 0.000545 -0.319108
v -1.658857 0.000545 0.319108
v -1.399270 0.000545 0.902147
v -0.924995 0.000545 1.329196
v -0.318014 0.000545 1.526416
v 0.316713 0.000545 1.459705
v 0.869426 0.000545 1.140597
v 1.244559 0.000545 0.624269
v 1.377250 0.000545 0.000000
v 1.586950 3.828862 -0.778558
v 1.119104 3.828862 -1.422496
v 0.429780 3.828862 -1.820472
v -0.361811 3.828862 -1.903672
v -1.118796 3.828862 -1.657710
v -1.710311 3.828862 -1.125114
v -2.034056 3.828862 -0.397976
v -2.034056 3.828862 0.397976
v -1.710314 3.828862 1.125114
v -1.118796 3.828862 1.657709
v -0.361811 3.828862 1.903672
v 0.429780 3.828862 1.820473
v 1.119104 3.828862 1.422496
v 1.586950 3.828862 0.778558
v 1.752430 3.828862 0.000000
v -0.157580 0.000545 0.000000
v 1.266848 3.828862 -0.634315
v 0.885680 3.828862 -1.158951
v 0.324066 3.828862 -1.483194
v -0.320866 3.828862 -1.550979
v -0.937609 3.828862 -1.350586
v -1.419522 3.828862 -0.916664
v -1.683290 3.828862 -0.324243
v -1.683290 3.828862 0.324243
v -1.419533 3.828862 0.916664
v -0.937609 3.828862 1.350586
v -0.320866 3.828862 1.550979
v 0.324066 3.828862 1.483194
v 0.885680 3.828862 1.158951
v 1.266848 3.828862 0.634315
v 1.401675 3.828862 0.000000
v 0.978272 0.668394 -0.504278
v 0.675246 0.668394 -0.921362
v -0.154356 0.668394 0.000000
v 0.228765 0.668394 -1.179133
v -0.283955 0.668394 -1.233023
v -0.774261 0.668394 -1.073711
v -1.157383 0.668394 -0.728745
v -1.367080 0.668394 -0.257772
v -1.367080 0.668394 0.257772
v -1.157390 0.668394 0.728745
v -0.774261 0.668394 1.073711
v -0.283955 0.668394 1.233023
v 0.228765 0.668394 1.179134
v 0.675246 0.668394 0.921362
v 0.978272 0.668394 0.504278
v 1.085457 0.668394 0.000000
v 1.522503 3.108323 -0.749518
v 1.072109 3.108323 -1.369439
v 0.408502 3.108323 -1.752571
v -0.353568 3.108323 -1.832667
v -1.082319 3.108323 -1.595879
v -1.651767 3.108323 -1.083149
v -1.963439 3.108323 -0.383132
v -1.963439 3.108323 0.383132
v -1.651771 3.108323 1.083148
v -1.082319 3.108323 1.595879
v -0.353568 3.108323 1.832667
v 0.408502 3.108323 1.752571
v 1.072109 3.108323 1.369439
v 1.522503 3.108323 0.749519
v 1.681817 3.108323 0.000000
v 1.490871 2.754633 -0.735264
v 1.049042 2.754633 -1.343395
v 0.398053 2.754633 -1.719240
v -0.349519 2.754633 -1.797814
v -1.064418 2.754633 -1.565529
v -1.623031 2.754633 -1.062549
v -1.928773 2.754633 -0.375846
v -1.928773 2.754633 0.375845
v -1.623034 2.754633 1.062549
v -1.064418 2.754633 1.565528
v -0.349519 2.754633 1.797814
v 0.398053 2.754633 1.719241
v 1.049042 2.754633 1.343395
v 1.490871 2.754633 0.735265
v 1.647155 2.754633 0.000000
v 1.643369 2.738259 -0.803159
v 1.160736 2.738215 -1.467442
v 1.183803 3.091905 -1.493486
v 1.675001 3.091949 -0.817413
v 0.449638 2.738150 -1.877987
v 0.460083 3.091839 -1.911318
v -0.366967 2.738076 -1.963809
v -0.371012 3.091765 -1.998663
v -1.147868 2.738006 -1.710071
v -1.165769 3.091695 -1.740422
v -1.758054 2.737951 -1.160650
v -1.786791 3.091640 -1.181249
v -2.092023 2.737921 -0.410546
v -2.126689 3.091610 -0.417832
v -2.092023 2.737920 0.410545
v -2.126689 3.091610 0.417831
v -1.758058 2.737949 1.160650
v -1.786795 3.091639 1.181249
v -1.147868 2.738005 1.710071
v -1.165769 3.091695 1.740422
v -0.366967 2.738076 1.963809
v -0.371012 3.091765 1.998663
v 0.449638 2.738150 1.877988
v 0.460083 3.091840 1.911319
v 1.160736 2.738215 1.467443
v 1.183803 3.091905 1.493487
v 1.643369 2.738259 0.803159
v 1.675001 3.091948 0.817413
v 1.814084 2.738274 -0.000000
v 1.848750 3.091964 -0.000000
vt 0.642741 0.092697
vt 0.604552 0.040134
vt 0.548284 0.007647
vt 0.483667 0.000856
vt 0.421875 0.020934
vt 0.373591 0.064409
vt 0.347164 0.123764
vt 0.347164 0.188736
vt 0.373591 0.248091
vt 0.421875 0.291566
vt 0.483667 0.311644
vt 0.548284 0.304853
vt 0.604552 0.272366
vt 0.642741 0.219803
vt 0.656250 0.156250
vt 0.375000 0.312500
vt 0.391667 0.312500
vt 0.408333 0.312500
vt 0.425000 0.312500
vt 0.441667 0.312500
vt 0.458333 0.312500
vt 0.475000 0.312500
vt 0.491667 0.312500
vt 0.508333 0.312500
vt 0.525000 0.312500
vt 0.541667 0.312500
vt 0.558333 0.312500
vt 0.575000 0.312500
vt 0.591667 0.312500
vt 0.608333 0.312500
vt 0.625000 0.312500
vt 0.375000 0.688440
vt 0.391667 0.688440
vt 0.408333 0.688440
vt 0.425000 0.688440
vt 0.441667 0.688440
vt 0.458333 0.688440
vt 0.475000 0.688440
vt 0.491667 0.688440
vt 0.508333 0.688440
vt 0.525000 0.688440
vt 0.541667 0.688440
vt 0.558333 0.688440
vt 0.575000 0.688440
vt 0.591667 0.688440
vt 0.608333 0.688440
vt 0.625000 0.688440
vt 0.642741 0.780197
vt 0.604552 0.727634
vt 0.548284 0.695147
vt 0.483667 0.688356
vt 0.421875 0.708434
vt 0.373591 0.751909
vt 0.347164 0.811264
vt 0.347164 0.876236
vt 0.373591 0.935591
vt 0.421875 0.979066
vt 0.483667 0.999144
vt 0.548284 0.992353
vt 0.604552 0.959866
vt 0.642741 0.907303
vt 0.656250 0.843750
vt 0.500000 0.150000
vt 0.500000 0.837500
vt 0.642741 0.907303
vt 0.604552 0.959866
vt 0.548284 0.992353
vt 0.483667 0.999144
vt 0.421875 0.979066
vt 0.373591 0.935591
vt 0.347164 0.876236
vt 0.347164 0.811264
vt 0.373591 0.751909
vt 0.421875 0.708434
vt 0.483667 0.688356
vt 0.548284 0.695147
vt 0.604552 0.727634
vt 0.642741 0.780197
vt 0.656250 0.843750
vt 0.642741 0.907303
vt 0.604552 0.959866
vt 0.548284 0.992353
vt 0.483667 0.999144
vt 0.421875 0.979066
vt 0.373591 0.935591
vt 0.347164 0.876236
vt 0.347164 0.811264
vt 0.373591 0.751909
vt 0.421875 0.708434
vt 0.483667 0.688356
vt 0.548284 0.695147
vt 0.604552 0.727634
vt 0.642741 0.780197
vt 0.656250 0.843750
vt 0.625000 0.617683
vt 0.375000 0.617683
vt 0.391667 0.617683
vt 0.408333 0.617683
vt 0.425000 0.617683
vt 0.441667 0.617683
vt 0.458333 0.617683
vt 0.475000 0.617683
vt 0.491667 0.617683
vt 0.508333 0.617683
vt 0.525000 0.617683
vt 0.541667 0.617683
vt 0.558333 0.617683
vt 0.575000 0.617683
vt 0.591667 0.617683
vt 0.608333 0.617683
vt 0.625000 0.582951
vt 0.375000 0.582951
vt 0.391667 0.582951
vt 0.408333 0.582951
vt 0.425000 0.582951
vt 0.441667 0.582951
vt 0.458333 0.582951
vt 0.475000 0.582951
vt 0.491667 0.582951
vt 0.508333 0.582951
vt 0.525000 0.582951
vt 0.541667 0.582951
vt 0.558333 0.582951
vt 0.575000 0.582951
vt 0.591667 0.582951
vt 0.608333 0.582951
vt 0.375000 0.582951
vt 0.391667 0.582951
vt 0.391667 0.617683
vt 0.375000 0.617683
vt 0.408333 0.582951
vt 0.408333 0.617683
vt 0.425000 0.582951
vt 0.425000 0.617683
vt 0.441667 0.582951
vt 0.441667 0.617683
vt 0.458333 0.582951
vt 0.458333 0.617683
vt 0.475000 0.582951
vt 0.475000 0.617683
vt 0.491667 0.582951
vt 0.491667 0.617683
vt 0.508333 0.582951
vt 0.508333 0.617683
vt 0.525000 0.582951
vt 0.525000 0.617683
vt 0.541667 0.582951
vt 0.541667 0.617683
vt 0.558333 0.582951
vt 0.558333 0.617683
vt 0.575000 0.582951
vt 0.575000 0.617683
vt 0.591667 0.582951
vt 0.591667 0.617683
vt 0.608333 0.582951
vt 0.608333 0.617683
vt 0.625000 0.582951
vt 0.625000 0.617683
vn 0.909206 -0.097631 -0.404737
vn 0.665993 -0.097891 -0.739507
vn 0.641134 0.285849 -0.712206
vn 0.875603 0.285126 -0.389900
vn 0.307647 -0.098273 -0.946412
vn 0.295898 0.286911 -0.911113
vn -0.103879 -0.098715 -0.989679
vn -0.100233 0.288123 -0.952333
vn -0.497433 -0.099137 -0.861819
vn -0.478727 0.289282 -0.828937
vn -0.804953 -0.099468 -0.584941
vn -0.774250 0.290186 -0.562431
vn -0.973272 -0.099649 -0.206908
vn -0.935916 0.290682 -0.198908
vn -0.973273 -0.099649 0.206906
vn -0.935917 0.290680 0.198906
vn -0.804953 -0.099468 0.584941
vn -0.774251 0.290182 0.562431
vn -0.497432 -0.099137 0.861819
vn -0.478726 0.289282 0.828937
vn -0.103880 -0.098715 0.989679
vn -0.100233 0.288123 0.952333
vn 0.307647 -0.098273 0.946412
vn 0.295898 0.286911 0.911113
vn 0.665993 -0.097891 0.739507
vn 0.641134 0.285849 0.712206
vn 0.909206 -0.097631 0.404737
vn 0.875603 0.285126 0.389900
vn 0.995232 -0.097537 -0.000000
vn 0.958566 0.284872 -0.000000
vn 0.637868 -0.302441 -0.708276
vn 0.870850 -0.302218 -0.387665
vn 0.000000 -1.000000 0.000000
vn 0.294633 -0.302769 -0.906379
vn -0.099477 -0.303147 -0.947738
vn -0.476317 -0.303504 -0.825232
vn -0.770738 -0.303787 -0.560068
vn -0.931866 -0.303941 -0.198104
vn -0.931866 -0.303942 0.198103
vn -0.770738 -0.303788 0.560068
vn -0.476316 -0.303504 0.825232
vn -0.099477 -0.303147 0.947737
vn 0.294633 -0.302769 0.906379
vn 0.637868 -0.302441 0.708276
vn 0.870850 -0.302218 0.387665
vn 0.953264 -0.302139 0.000000
vn -0.886550 0.241408 0.394652
vn -0.649375 0.241650 0.721053
vn 0.000000 1.000000 0.000000
vn -0.299956 0.242007 0.922745
vn 0.101273 0.242416 0.964872
vn 0.484936 0.242807 0.840168
vn 0.784696 0.243113 0.570217
vn 0.948753 0.243279 0.201698
vn 0.948755 0.243280 -0.201691
vn 0.784696 0.243113 -0.570217
vn 0.484932 0.242808 -0.840169
vn 0.101273 0.242416 -0.964872
vn -0.299956 0.242007 -0.922746
vn -0.649375 0.241650 -0.721053
vn -0.886551 0.241408 -0.394652
vn -0.970445 0.241323 0.000000
vn -0.647649 0.250882 0.719450
vn -0.884457 0.250244 0.393846
vn -0.298928 0.251819 0.920451
vn 0.101272 0.252896 0.962178
vn 0.483722 0.253927 0.837576
vn 0.782378 0.254732 0.568328
vn 0.945771 0.255174 0.201004
vn 0.945773 0.255172 -0.200997
vn 0.782378 0.254732 -0.568328
vn 0.483719 0.253926 -0.837579
vn 0.101272 0.252896 -0.962178
vn -0.298928 0.251819 -0.920451
vn -0.647649 0.250882 -0.719450
vn -0.884457 0.250244 -0.393845
vn -0.968241 0.250018 -0.000000
vn 0.816941 -0.447619 -0.363655
vn 0.598366 -0.447835 -0.664381
vn 0.642372 0.279527 -0.713599
vn 0.877039 0.279775 -0.390550
vn 0.276386 -0.448157 -0.850156
vn 0.296590 0.279163 -0.913292
vn -0.093273 -0.448525 -0.888890
vn -0.100538 0.278745 -0.955088
vn -0.446684 -0.448875 -0.773941
vn -0.480355 0.278350 -0.831733
vn -0.722765 -0.449153 -0.525235
vn -0.777169 0.278037 -0.564538
vn -0.873847 -0.449309 -0.185777
vn -0.939635 0.277862 -0.199695
vn -0.873847 -0.449309 0.185775
vn -0.939636 0.277863 0.199693
vn -0.722765 -0.449153 0.525235
vn -0.777170 0.278036 0.564538
vn -0.446683 -0.448876 0.773941
vn -0.480355 0.278350 0.831733
vn -0.093273 -0.448525 0.888890
vn -0.100539 0.278745 0.955088
vn 0.276386 -0.448157 0.850156
vn 0.296590 0.279163 0.913292
vn 0.598366 -0.447835 0.664381
vn 0.642372 0.279527 0.713598
vn 0.816940 -0.447619 0.363655
vn 0.877039 0.279775 0.390550
vn 0.894261 -0.447545 -0.000000
vn 0.960040 0.279862 0.000000
vn 0.665837 -0.097889 -0.739648
vn 0.909159 -0.097627 -0.404845
vn 0.307389 -0.098273 -0.946496
vn -0.104159 -0.098715 -0.989649
vn -0.497647 -0.099137 -0.861696
vn -0.805056 -0.099467 -0.584800
vn -0.973285 -0.099649 -0.206849
vn -0.973285 -0.099649 0.206848
vn -0.805056 -0.099468 0.584799
vn -0.497646 -0.099137 0.861696
vn -0.104160 -0.098715 0.989649
vn 0.307389 -0.098273 0.946496
vn 0.665837 -0.097889 0.739648
vn 0.909159 -0.097627 0.404845
vn 0.995232 -0.097534 0.000000
vn -0.089205 -0.995219 0.039757
vn -0.065466 -0.995195 0.072810
vn 0.065466 0.995195 -0.072810
vn 0.089204 0.995220 -0.039756
vn -0.030288 -0.995158 0.093503
vn 0.030289 0.995158 -0.093503
vn 0.010408 -0.995116 0.098160
vn -0.010407 0.995116 -0.098160
vn 0.049624 -0.995076 0.085793
vn -0.049623 0.995076 -0.085794
vn 0.080468 -0.995045 0.058397
vn -0.080467 0.995045 -0.058398
vn 0.097424 -0.995028 0.020689
vn -0.097424 0.995028 -0.020689
vn 0.097427 -0.995028 -0.020690
vn -0.097426 0.995028 0.020690
vn 0.080472 -0.995044 -0.058401
vn -0.080471 0.995045 0.058401
vn 0.049627 -0.995076 -0.085797
vn -0.049626 0.995076 0.085797
vn 0.010409 -0.995116 -0.098160
vn -0.010408 0.995116 0.098161
vn -0.030288 -0.995158 -0.093502
vn 0.030289 0.995158 0.093502
vn -0.065467 -0.995195 -0.072810
vn 0.065467 0.995195 0.072810
vn -0.089207 -0.995219 -0.039758
vn 0.089206 0.995219 0.039757
vn -0.097577 -0.995228 -0.000000
vn 0.097575 0.995228 0.000000
s 1
g pCylinder10
usemtl initialShadingGroup
f 63/96/1 64/97/2 17/33/3 16/32/4
f 64/97/2 65/98/5 18/34/6 17/33/3
f 65/98/5 66/99/7 19/35/8 18/34/6
f 66/99/7 67/100/9 20/36/10 19/35/8
f 67/100/9 68/101/11 21/37/12 20/36/10
f 68/101/11 69/102/13 22/38/14 21/37/12
f 69/102/13 70/103/15 23/39/16 22/38/14
f 70/103/15 71/104/17 24/40/18 23/39/16
f 71/104/17 72/105/19 25/41/20 24/40/18
f 72/105/19 73/106/21 26/42/22 25/41/20
f 73/106/21 74/107/23 27/43/24 26/42/22
f 74/107/23 75/108/25 28/44/26 27/43/24
f 75/108/25 76/109/27 29/45/28 28/44/26
f 76/109/27 77/110/29 30/46/30 29/45/28
f 77/110/29 63/95/1 16/47/4 30/46/30
s 2
f 2/2/31 1/1/32 31/63/33
f 3/3/34 2/2/31 31/63/33
f 4/4/35 3/3/34 31/63/33
f 5/5/36 4/4/35 31/63/33
f 6/6/37 5/5/36 31/63/33
f 7/7/38 6/6/37 31/63/33
f 8/8/39 7/7/38 31/63/33
f 9/9/40 8/8/39 31/63/33
f 10/10/41 9/9/40 31/63/33
f 11/11/42 10/10/41 31/63/33
f 12/12/43 11/11/42 31/63/33
f 13/13/44 12/12/43 31/63/33
f 14/14/45 13/13/44 31/63/33
f 15/15/46 14/14/45 31/63/33
f 1/1/32 15/15/46 31/63/33
s 1
f 47/80/47 48/81/48 49/64/49
f 48/81/48 50/82/50 49/64/49
f 50/82/50 51/83/51 49/64/49
f 51/83/51 52/84/52 49/64/49
f 52/84/52 53/85/53 49/64/49
f 53/85/53 54/86/54 49/64/49
f 54/86/54 55/87/55 49/64/49
f 55/87/55 56/88/56 49/64/49
f 56/88/56 57/89/57 49/64/49
f 57/89/57 58/90/58 49/64/49
f 58/90/58 59/91/59 49/64/49
f 59/91/59 60/92/60 49/64/49
f 60/92/60 61/93/61 49/64/49
f 61/93/61 62/94/62 49/64/49
f 62/94/62 47/80/47 49/64/49
f 16/61/4 17/60/3 33/66/63 32/65/64
f 17/60/3 18/59/6 34/67/65 33/66/63
f 18/59/6 19/58/8 35/68/66 34/67/65
f 19/58/8 20/57/10 36/69/67 35/68/66
f 20/57/10 21/56/12 37/70/68 36/69/67
f 21/56/12 22/55/14 38/71/69 37/70/68
f 22/55/14 23/54/16 39/72/70 38/71/69
f 23/54/16 24/53/18 40/73/71 39/72/70
f 24/53/18 25/52/20 41/74/72 40/73/71
f 25/52/20 26/51/22 42/75/73 41/74/72
f 26/51/22 27/50/24 43/76/74 42/75/73
f 27/50/24 28/49/26 44/77/75 43/76/74
f 28/49/26 29/48/28 45/78/76 44/77/75
f 29/48/28 30/62/30 46/79/77 45/78/76
f 30/62/30 16/61/4 32/65/64 46/79/77
f 32/65/64 33/66/63 48/81/48 47/80/47
f 33/66/63 34/67/65 50/82/50 48/81/48
f 34/67/65 35/68/66 51/83/51 50/82/50
f 35/68/66 36/69/67 52/84/52 51/83/51
f 36/69/67 37/70/68 53/85/53 52/84/52
f 37/70/68 38/71/69 54/86/54 53/85/53
f 38/71/69 39/72/70 55/87/55 54/86/54
f 39/72/70 40/73/71 56/88/56 55/87/55
f 40/73/71 41/74/72 57/89/57 56/88/56
f 41/74/72 42/75/73 58/90/58 57/89/57
f 42/75/73 43/76/74 59/91/59 58/90/58
f 43/76/74 44/77/75 60/92/60 59/91/59
f 44/77/75 45/78/76 61/93/61 60/92/60
f 45/78/76 46/79/77 62/94/62 61/93/61
f 46/79/77 32/65/64 47/80/47 62/94/62
s 4
f 93/127/78 94/128/79 95/129/80 96/130/81
f 94/128/79 97/131/82 98/132/83 95/129/80
f 97/131/82 99/133/84 100/134/85 98/132/83
f 99/133/84 101/135/86 102/136/87 100/134/85
f 101/135/86 103/137/88 104/138/89 102/136/87
f 103/137/88 105/139/90 106/140/91 104/138/89
f 105/139/90 107/141/92 108/142/93 106/140/91
f 107/141/92 109/143/94 110/144/95 108/142/93
f 109/143/94 111/145/96 112/146/97 110/144/95
f 111/145/96 113/147/98 114/148/99 112/146/97
f 113/147/98 115/149/100 116/150/101 114/148/99
f 115/149/100 117/151/102 118/152/103 116/150/101
f 117/151/102 119/153/104 120/154/105 118/152/103
f 119/153/104 121/155/106 122/156/107 120/154/105
f 121/155/106 93/157/78 96/158/81 122/156/107
s 2
f 1/16/32 2/17/31 79/113/108 78/112/109
f 2/17/31 3/18/34 80/114/110 79/113/108
f 3/18/34 4/19/35 81/115/111 80/114/110
f 4/19/35 5/20/36 82/116/112 81/115/111
f 5/20/36 6/21/37 83/117/113 82/116/112
f 6/21/37 7/22/38 84/118/114 83/117/113
f 7/22/38 8/23/39 85/119/115 84/118/114
f 8/23/39 9/24/40 86/120/116 85/119/115
f 9/24/40 10/25/41 87/121/117 86/120/116
f 10/25/41 11/26/42 88/122/118 87/121/117
f 11/26/42 12/27/43 89/123/119 88/122/118
f 12/27/43 13/28/44 90/124/120 89/123/119
f 13/28/44 14/29/45 91/125/121 90/124/120
f 14/29/45 15/30/46 92/126/122 91/125/121
f 15/30/46 1/31/32 78/111/109 92/126/122
s 4
f 78/112/123 79/113/124 94/128/79 93/127/78
f 64/97/125 63/96/126 96/130/81 95/129/80
f 79/113/124 80/114/127 97/131/82 94/128/79
f 65/98/128 64/97/125 95/129/80 98/132/83
f 80/114/127 81/115/129 99/133/84 97/131/82
f 66/99/130 65/98/128 98/132/83 100/134/85
f 81/115/129 82/116/131 101/135/86 99/133/84
f 67/100/132 66/99/130 100/134/85 102/136/87
f 82/116/131 83/117/133 103/137/88 101/135/86
f 68/101/134 67/100/132 102/136/87 104/138/89
f 83/117/133 84/118/135 105/139/90 103/137/88
f 69/102/136 68/101/134 104/138/89 106/140/91
f 84/118/135 85/119/137 107/141/92 105/139/90
f 70/103/138 69/102/136 106/140/91 108/142/93
f 85/119/137 86/120/139 109/143/94 107/141/92
f 71/104/140 70/103/138 108/142/93 110/144/95
f 86/120/139 87/121/141 111/145/96 109/143/94
f 72/105/142 71/104/140 110/144/95 112/146/97
f 87/121/141 88/122/143 113/147/98 111/145/96
f 73/106/144 72/105/142 112/146/97 114/148/99
f 88/122/143 89/123/145 115/149/100 113/147/98
f 74/107/146 73/106/144 114/148/99 116/150/101
f 89/123/145 90/124/147 117/151/102 115/149/100
f 75/108/148 74/107/146 116/150/101 118/152/103
f 90/124/147 91/125/149 119/153/104 117/151/102
f 76/109/150 75/108/148 118/152/103 120/154/105
f 91/125/149 92/126/151 121/155/106 119/153/104
f 77/110/152 76/109/150 120/154/105 122/156/107
f 92/126/151 78/111/123 93/157/78 121/155/106
f 63/95/126 77/110/152 122/156/107 96/158/81
