# This file uses centimeters as units for non-parametric coordinates.

mtllib Target.mtl
g default
v -1.945003 0.018196 -1.662994
v -2.261470 0.217157 -1.817833
v -2.577936 0.416117 -1.662994
v -2.709021 0.498529 -1.289181
v -2.577936 0.416117 -0.915368
v -2.261470 0.217157 -0.760530
v -1.945003 0.018196 -0.915368
v -1.813918 -0.064216 -1.289181
v 0.390669 3.733316 -1.662994
v 0.074203 3.932277 -1.817833
v -0.242263 4.131237 -1.662994
v -0.373348 4.213649 -1.289181
v -0.242263 4.131237 -0.915368
v 0.074203 3.932277 -0.760530
v 0.390669 3.733316 -0.915368
v 0.521754 3.650904 -1.289181
v -2.261470 0.217157 -1.289181
v 0.074203 3.932277 -1.289181
vt 0.610485 0.045765
vt 0.500000 0.000000
vt 0.389515 0.045765
vt 0.343750 0.156250
vt 0.389515 0.266735
vt 0.500000 0.312500
vt 0.610485 0.266735
vt 0.656250 0.156250
vt 0.375000 0.312500
vt 0.406250 0.312500
vt 0.437500 0.312500
vt 0.468750 0.312500
vt 0.500000 0.312500
vt 0.531250 0.312500
vt 0.562500 0.312500
vt 0.593750 0.312500
vt 0.625000 0.312500
vt 0.375000 0.688440
vt 0.406250 0.688440
vt 0.437500 0.688440
vt 0.468750 0.688440
vt 0.500000 0.688440
vt 0.531250 0.688440
vt 0.562500 0.688440
vt 0.593750 0.688440
vt 0.625000 0.688440
vt 0.610485 0.733265
vt 0.500000 0.687500
vt 0.389515 0.733265
vt 0.343750 0.843750
vt 0.389515 0.954235
vt 0.500000 1.000000
vt 0.610485 0.954235
vt 0.656250 0.843750
vt 0.500000 0.150000
vt 0.500000 0.837500
vn 0.574000 -0.414177 -0.706386
vn -0.024020 -0.038206 -0.998981
vn 0.024020 0.038206 -0.998981
vn 0.622039 -0.337765 -0.706386
vn -0.622039 0.337765 -0.706386
vn -0.574000 0.414177 -0.706386
vn -0.869747 0.493497 0.000000
vn -0.821707 0.569909 0.000000
vn -0.622039 0.337765 0.706386
vn -0.574000 0.414177 0.706386
vn -0.024020 -0.038206 0.998981
vn 0.024020 0.038206 0.998981
vn 0.574000 -0.414177 0.706386
vn 0.622039 -0.337765 0.706386
vn 0.821707 -0.569909 -0.000000
vn 0.869747 -0.493497 -0.000000
vn -0.532246 -0.846590 0.000000
vn 0.532246 0.846590 0.000000
s 1
g pasted__pCylinder8 group16
usemtl initialShadingGroup
f 1/9/1 2/10/2 10/19/3 9/18/4
f 2/10/2 3/11/5 11/20/6 10/19/3
f 3/11/5 4/12/7 12/21/8 11/20/6
f 4/12/7 5/13/9 13/22/10 12/21/8
f 5/13/9 6/14/11 14/23/12 13/22/10
f 6/14/11 7/15/13 15/24/14 14/23/12
f 7/15/13 8/16/15 16/25/16 15/24/14
f 8/16/15 1/17/1 9/26/4 16/25/16
f 2/2/2 1/1/1 17/35/17
f 3/3/5 2/2/2 17/35/17
f 4/4/7 3/3/5 17/35/17
f 5/5/9 4/4/7 17/35/17
f 6/6/11 5/5/9 17/35/17
f 7/7/13 6/6/11 17/35/17
f 8/8/15 7/7/13 17/35/17
f 1/1/1 8/8/15 17/35/17
f 9/33/4 10/32/3 18/36/18
f 10/32/3 11/31/6 18/36/18
f 11/31/6 12/30/8 18/36/18
f 12/30/8 13/29/10 18/36/18
f 13/29/10 14/28/12 18/36/18
f 14/28/12 15/27/14 18/36/18
f 15/27/14 16/34/16 18/36/18
f 16/34/16 9/33/4 18/36/18
g default
v 2.462587 0.310230 -1.365814
v 2.126138 0.147325 -1.520652
v 1.789688 -0.015580 -1.365814
v 1.650327 -0.083058 -0.992001
v 1.789688 -0.015580 -0.618187
v 2.126138 0.147325 -0.463349
v 2.462587 0.310230 -0.618187
v 2.601949 0.377707 -0.992001
v 0.550183 4.259937 -1.365814
v 0.213733 4.097032 -1.520652
v -0.122716 3.934127 -1.365814
v -0.262078 3.866650 -0.992001
v -0.122716 3.934127 -0.618187
v 0.213733 4.097032 -0.463349
v 0.550183 4.259937 -0.618187
v 0.689544 4.327415 -0.992001
v 2.126138 0.147325 -0.992001
v 0.213733 4.097032 -0.992001
vt 0.610485 0.045765
vt 0.500000 0.000000
vt 0.389515 0.045765
vt 0.343750 0.156250
vt 0.389515 0.266735
vt 0.500000 0.312500
vt 0.610485 0.266735
vt 0.656250 0.156250
vt 0.375000 0.312500
vt 0.406250 0.312500
vt 0.437500 0.312500
vt 0.468750 0.312500
vt 0.500000 0.312500
vt 0.531250 0.312500
vt 0.562500 0.312500
vt 0.593750 0.312500
vt 0.625000 0.312500
vt 0.375000 0.688440
vt 0.406250 0.688440
vt 0.437500 0.688440
vt 0.468750 0.688440
vt 0.500000 0.688440
vt 0.531250 0.688440
vt 0.562500 0.688440
vt 0.593750 0.688440
vt 0.625000 0.688440
vt 0.610485 0.733265
vt 0.500000 0.687500
vt 0.389515 0.733265
vt 0.343750 0.843750
vt 0.389515 0.954235
vt 0.500000 1.000000
vt 0.610485 0.954235
vt 0.656250 0.843750
vt 0.500000 0.150000
vt 0.500000 0.837500
vn 0.655448 0.267220 -0.706386
vn 0.019667 -0.040618 -0.998981
vn -0.019667 0.040618 -0.998981
vn 0.616114 0.348457 -0.706386
vn -0.616114 -0.348457 -0.706386
vn -0.655448 -0.267220 -0.706386
vn -0.879463 -0.475967 0.000000
vn -0.918797 -0.394730 0.000000
vn -0.616114 -0.348457 0.706386
vn -0.655448 -0.267220 0.706386
vn 0.019667 -0.040618 0.998981
vn -0.019667 0.040618 0.998981
vn 0.655448 0.267220 0.706386
vn 0.616114 0.348457 0.706386
vn 0.918797 0.394730 -0.000000
vn 0.879463 0.475967 -0.000000
vn 0.435793 -0.900047 0.000000
vn -0.435793 0.900047 0.000000
s 1
g pasted__pCylinder8 group15
usemtl initialShadingGroup
f 19/45/19 20/46/20 28/55/21 27/54/22
f 20/46/20 21/47/23 29/56/24 28/55/21
f 21/47/23 22/48/25 30/57/26 29/56/24
f 22/48/25 23/49/27 31/58/28 30/57/26
f 23/49/27 24/50/29 32/59/30 31/58/28
f 24/50/29 25/51/31 33/60/32 32/59/30
f 25/51/31 26/52/33 34/61/34 33/60/32
f 26/52/33 19/53/19 27/62/22 34/61/34
f 20/38/20 19/37/19 35/71/35
f 21/39/23 20/38/20 35/71/35
f 22/40/25 21/39/23 35/71/35
f 23/41/27 22/40/25 35/71/35
f 24/42/29 23/41/27 35/71/35
f 25/43/31 24/42/29 35/71/35
f 26/44/33 25/43/31 35/71/35
f 19/37/19 26/44/33 35/71/35
f 27/69/22 28/68/21 36/72/36
f 28/68/21 29/67/24 36/72/36
f 29/67/24 30/66/26 36/72/36
f 30/66/26 31/65/28 36/72/36
f 31/65/28 32/64/30 36/72/36
f 32/64/30 33/63/32 36/72/36
f 33/63/32 34/70/34 36/72/36
f 34/70/34 27/69/22 36/72/36
g default
v 0.401751 -0.113201 2.043357
v 0.027938 -0.209733 1.922294
v -0.345875 -0.113201 2.043357
v -0.500714 0.119849 2.335631
v -0.345875 0.352900 2.627905
v 0.027938 0.449432 2.748968
v 0.401751 0.352900 2.627905
v 0.556589 0.119849 2.335631
v 0.401751 4.294974 -1.471585
v 0.027938 4.198442 -1.592649
v -0.345875 4.294974 -1.471585
v -0.500714 4.528024 -1.179312
v -0.345875 4.761074 -0.887038
v 0.027938 4.857607 -0.765974
v 0.401751 4.761074 -0.887038
v 0.556589 4.528024 -1.179312
v 0.027938 0.119849 2.335631
v 0.027938 4.528024 -1.179312
vt 0.610485 0.045765
vt 0.500000 0.000000
vt 0.389515 0.045765
vt 0.343750 0.156250
vt 0.389515 0.266735
vt 0.500000 0.312500
vt 0.610485 0.266735
vt 0.656250 0.156250
vt 0.375000 0.312500
vt 0.406250 0.312500
vt 0.437500 0.312500
vt 0.468750 0.312500
vt 0.500000 0.312500
vt 0.531250 0.312500
vt 0.562500 0.312500
vt 0.593750 0.312500
vt 0.625000 0.312500
vt 0.375000 0.688440
vt 0.406250 0.688440
vt 0.437500 0.688440
vt 0.468750 0.688440
vt 0.500000 0.688440
vt 0.531250 0.688440
vt 0.562500 0.688440
vt 0.593750 0.688440
vt 0.625000 0.688440
vt 0.610485 0.733265
vt 0.500000 0.687500
vt 0.389515 0.733265
vt 0.343750 0.843750
vt 0.389515 0.954235
vt 0.500000 1.000000
vt 0.610485 0.954235
vt 0.656250 0.843750
vt 0.500000 0.150000
vt 0.500000 0.837500
vn 0.706670 -0.468042 -0.530617
vn 0.000000 -0.650530 -0.759480
vn 0.000000 -0.595580 -0.803296
vn 0.706670 -0.413091 -0.574433
vn -0.706670 -0.468042 -0.530617
vn -0.706670 -0.413091 -0.574433
vn -0.999382 -0.027475 0.021908
vn -0.999382 0.027475 -0.021908
vn -0.706670 0.413091 0.574433
vn -0.706670 0.468042 0.530617
vn -0.000000 0.595580 0.803296
vn -0.000000 0.650530 0.759480
vn 0.706670 0.413091 0.574433
vn 0.706670 0.468042 0.530617
vn 0.999382 -0.027475 0.021908
vn 0.999382 0.027475 -0.021908
vn 0.000000 -0.781871 0.623440
vn 0.000000 0.781871 -0.623440
s 1
g pCylinder8
usemtl initialShadingGroup
f 37/81/37 38/82/38 46/91/39 45/90/40
f 38/82/38 39/83/41 47/92/42 46/91/39
f 39/83/41 40/84/43 48/93/44 47/92/42
f 40/84/43 41/85/45 49/94/46 48/93/44
f 41/85/45 42/86/47 50/95/48 49/94/46
f 42/86/47 43/87/49 51/96/50 50/95/48
f 43/87/49 44/88/51 52/97/52 51/96/50
f 44/88/51 37/89/37 45/98/40 52/97/52
f 38/74/38 37/73/37 53/107/53
f 39/75/41 38/74/38 53/107/53
f 40/76/43 39/75/41 53/107/53
f 41/77/45 40/76/43 53/107/53
f 42/78/47 41/77/45 53/107/53
f 43/79/49 42/78/47 53/107/53
f 44/80/51 43/79/49 53/107/53
f 37/73/37 44/80/51 53/107/53
f 45/105/40 46/104/39 54/108/54
f 46/104/39 47/103/42 54/108/54
f 47/103/42 48/102/44 54/108/54
f 48/102/44 49/101/46 54/108/54
f 49/101/46 50/100/48 54/108/54
f 50/100/48 51/99/50 54/108/54
f 51/99/50 52/106/52 54/108/54
f 52/106/52 45/105/40 54/108/54
g default
v 3.276178 2.647759 -1.322858
v 2.413634 1.528323 -1.718188
v 1.142786 0.836474 -1.962516
v -0.316623 0.691839 -2.013593
v -1.712250 1.119425 -1.862589
v -2.802777 2.045301 -1.535616
v -3.399642 3.309372 -1.089206
v -3.399642 4.693070 -0.600552
v -2.802777 5.957142 -0.154144
v -1.712251 6.883017 0.172828
v -0.316624 7.310603 0.323833
v 1.142786 7.165967 0.272756
v 2.413633 6.474119 0.028427
v 3.276178 5.354684 -0.366903
v 3.581278 4.001222 -0.844880
v 3.276178 3.174363 -2.814007
v 2.413634 2.054927 -3.209338
v 1.142786 1.363078 -3.453665
v -0.316624 1.218444 -3.504747
v -1.712250 1.646030 -3.353744
v -2.802777 2.571905 -3.026770
v -3.399642 3.835976 -2.580362
v -3.399643 5.219674 -2.091707
v -2.802778 6.483746 -1.645298
v -1.712251 7.409621 -1.318324
v -0.316624 7.837208 -1.167321
v 1.142785 7.692572 -1.218399
v 2.413633 7.000723 -1.462727
v 3.276178 5.881287 -1.858057
v 3.581278 4.527826 -2.336034
v 0.052259 4.001223 -0.844882
v 0.052259 4.527826 -2.336034
vt 0.642741 0.092697
vt 0.604552 0.040134
vt 0.548284 0.007647
vt 0.483667 0.000856
vt 0.421875 0.020934
vt 0.373591 0.064409
vt 0.347164 0.123764
vt 0.347164 0.188736
vt 0.373591 0.248091
vt 0.421875 0.291566
vt 0.483667 0.311644
vt 0.548284 0.304853
vt 0.604552 0.272366
vt 0.642741 0.219803
vt 0.656250 0.156250
vt 0.375000 0.312500
vt 0.391667 0.312500
vt 0.408333 0.312500
vt 0.425000 0.312500
vt 0.441667 0.312500
vt 0.458333 0.312500
vt 0.475000 0.312500
vt 0.491667 0.312500
vt 0.508333 0.312500
vt 0.525000 0.312500
vt 0.541667 0.312500
vt 0.558333 0.312500
vt 0.575000 0.312500
vt 0.591667 0.312500
vt 0.608333 0.312500
vt 0.625000 0.312500
vt 0.375000 0.688440
vt 0.391667 0.688440
vt 0.408333 0.688440
vt 0.425000 0.688440
vt 0.441667 0.688440
vt 0.458333 0.688440
vt 0.475000 0.688440
vt 0.491667 0.688440
vt 0.508333 0.688440
vt 0.525000 0.688440
vt 0.541667 0.688440
vt 0.558333 0.688440
vt 0.575000 0.688440
vt 0.591667 0.688440
vt 0.608333 0.688440
vt 0.625000 0.688440
vt 0.642741 0.780197
vt 0.604552 0.727634
vt 0.548284 0.695147
vt 0.483667 0.688356
vt 0.421875 0.708434
vt 0.373591 0.751909
vt 0.347164 0.811264
vt 0.347164 0.876236
vt 0.373591 0.935591
vt 0.421875 0.979066
vt 0.483667 0.999144
vt 0.548284 0.992353
vt 0.604552 0.959866
vt 0.642741 0.907303
vt 0.656250 0.843750
vt 0.500000 0.150000
vt 0.500000 0.837500
vn 0.656715 -0.507184 0.558114
vn 0.481013 -0.735213 0.477585
vn 0.481013 -0.272247 -0.833372
vn 0.656716 -0.044220 -0.752840
vn 0.222141 -0.876144 0.427814
vn 0.222141 -0.413180 -0.883139
vn -0.075142 -0.905606 0.417410
vn -0.075141 -0.442639 -0.893546
vn -0.359432 -0.818506 0.448170
vn -0.359432 -0.355542 -0.862785
vn -0.581574 -0.629906 0.514772
vn -0.581573 -0.166940 -0.796180
vn -0.703154 -0.372413 0.605708
vn -0.703155 0.090552 -0.705247
vn -0.703156 -0.090552 0.705246
vn -0.703155 0.372413 -0.605707
vn -0.581572 0.166939 0.796182
vn -0.581573 0.629905 -0.514773
vn -0.359433 0.355543 0.862785
vn -0.359432 0.818507 -0.448168
vn -0.075142 0.442640 0.893545
vn -0.075142 0.905607 -0.417409
vn 0.222141 0.413177 0.883141
vn 0.222141 0.876144 -0.427813
vn 0.481014 0.272249 0.833370
vn 0.481014 0.735214 -0.477584
vn 0.656715 0.044218 0.752841
vn 0.656715 0.507184 -0.558113
vn 0.718863 -0.231483 0.655478
vn 0.718863 0.231483 -0.655479
vn 0.000000 -0.332996 0.942928
vn 0.000000 0.332996 -0.942928
s 1
g pCylinder7
usemtl initialShadingGroup
f 55/124/55 56/125/56 71/141/57 70/140/58
f 56/125/56 57/126/59 72/142/60 71/141/57
f 57/126/59 58/127/61 73/143/62 72/142/60
f 58/127/61 59/128/63 74/144/64 73/143/62
f 59/128/63 60/129/65 75/145/66 74/144/64
f 60/129/65 61/130/67 76/146/68 75/145/66
f 61/130/67 62/131/69 77/147/70 76/146/68
f 62/131/69 63/132/71 78/148/72 77/147/70
f 63/132/71 64/133/73 79/149/74 78/148/72
f 64/133/73 65/134/75 80/150/76 79/149/74
f 65/134/75 66/135/77 81/151/78 80/150/76
f 66/135/77 67/136/79 82/152/80 81/151/78
f 67/136/79 68/137/81 83/153/82 82/152/80
f 68/137/81 69/138/83 84/154/84 83/153/82
f 69/138/83 55/139/55 70/155/58 84/154/84
f 56/110/56 55/109/55 85/171/85
f 57/111/59 56/110/56 85/171/85
f 58/112/61 57/111/59 85/171/85
f 59/113/63 58/112/61 85/171/85
f 60/114/65 59/113/63 85/171/85
f 61/115/67 60/114/65 85/171/85
f 62/116/69 61/115/67 85/171/85
f 63/117/71 62/116/69 85/171/85
f 64/118/73 63/117/71 85/171/85
f 65/119/75 64/118/73 85/171/85
f 66/120/77 65/119/75 85/171/85
f 67/121/79 66/120/77 85/171/85
f 68/122/81 67/121/79 85/171/85
f 69/123/83 68/122/81 85/171/85
f 55/109/55 69/123/83 85/171/85
f 70/169/58 71/168/57 86/172/86
f 71/168/57 72/167/60 86/172/86
f 72/167/60 73/166/62 86/172/86
f 73/166/62 74/165/64 86/172/86
f 74/165/64 75/164/66 86/172/86
f 75/164/66 76/163/68 86/172/86
f 76/163/68 77/162/70 86/172/86
f 77/162/70 78/161/72 86/172/86
f 78/161/72 79/160/74 86/172/86
f 79/160/74 80/159/76 86/172/86
f 80/159/76 81/158/78 86/172/86
f 81/158/78 82/157/80 86/172/86
f 82/157/80 83/156/82 86/172/86
f 83/156/82 84/170/84 86/172/86
f 84/170/84 70/169/58 86/172/86
