# This file uses centimeters as units for non-parametric coordinates.

mtllib flag 1.mtl
g default
v -2.658582 1.829686 0.280926
v 0.076521 1.829686 0.280926
v 2.811623 1.829686 0.280926
v -2.658582 7.736347 0.280926
v 0.076521 7.736347 0.280926
v 2.811623 7.736347 0.280926
v -2.658582 13.643009 0.280926
v 0.076521 13.643009 0.280926
v 2.811623 13.643009 0.280926
vt 0.000000 0.000000
vt 0.500000 0.000000
vt 1.000000 0.000000
vt 0.000000 0.500000
vt 0.500000 0.500000
vt 1.000000 0.500000
vt 0.000000 1.000000
vt 0.500000 1.000000
vt 1.000000 1.000000
vn 0.000000 0.000000 1.000000
vn 0.000000 0.000000 1.000000
vn 0.000000 0.000000 1.000000
vn 0.000000 0.000000 1.000000
vn 0.000000 0.000000 1.000000
vn 0.000000 0.000000 1.000000
vn 0.000000 0.000000 1.000000
vn 0.000000 0.000000 1.000000
vn 0.000000 0.000000 1.000000
s 1
g pPlane2
usemtl initialShadingGroup
f 1/1/1 2/2/2 5/5/3 4/4/4
f 2/2/2 3/3/5 6/6/6 5/5/3
f 4/4/4 5/5/3 8/8/7 7/7/8
f 5/5/3 6/6/6 9/9/9 8/8/7
g default
v 3.154349 13.779655 0.090991
v 3.154349 13.646340 0.035770
v 3.154349 13.513024 0.090991
v 3.154349 13.457803 0.224307
v 3.154349 13.513024 0.357622
v 3.154349 13.646340 0.412844
v 3.154349 13.779655 0.357622
v 3.154349 13.834876 0.224307
v -3.035467 13.779655 0.090991
v -3.035467 13.646340 0.035770
v -3.035467 13.513024 0.090991
v -3.035467 13.457803 0.224307
v -3.035467 13.513024 0.357622
v -3.035467 13.646340 0.412844
v -3.035467 13.779655 0.357622
v -3.035467 13.834876 0.224307
v 3.154349 13.646340 0.224307
v -3.035467 13.646340 0.224307
vt 0.610485 0.045765
vt 0.500000 0.000000
vt 0.389515 0.045765
vt 0.343750 0.156250
vt 0.389515 0.266735
vt 0.500000 0.312500
vt 0.610485 0.266735
vt 0.656250 0.156250
vt 0.375000 0.312500
vt 0.406250 0.312500
vt 0.437500 0.312500
vt 0.468750 0.312500
vt 0.500000 0.312500
vt 0.531250 0.312500
vt 0.562500 0.312500
vt 0.593750 0.312500
vt 0.625000 0.312500
vt 0.375000 0.688440
vt 0.406250 0.688440
vt 0.437500 0.688440
vt 0.468750 0.688440
vt 0.500000 0.688440
vt 0.531250 0.688440
vt 0.562500 0.688440
vt 0.593750 0.688440
vt 0.625000 0.688440
vt 0.610485 0.733265
vt 0.500000 0.687500
vt 0.389515 0.733265
vt 0.343750 0.843750
vt 0.389515 0.954235
vt 0.500000 1.000000
vt 0.610485 0.954235
vt 0.656250 0.843750
vt 0.500000 0.150000
vt 0.500000 0.837500
vn 0.011421 0.707061 -0.707061
vn 0.011421 0.000000 -0.999935
vn -0.011421 0.000000 -0.999935
vn -0.011421 0.707061 -0.707061
vn 0.011421 -0.707061 -0.707061
vn -0.011421 -0.707061 -0.707061
vn 0.011421 -0.999935 0.000000
vn -0.011421 -0.999935 0.000000
vn 0.011421 -0.707061 0.707061
vn -0.011421 -0.707061 0.707061
vn 0.011421 -0.000000 0.999935
vn -0.011421 -0.000000 0.999935
vn 0.011421 0.707061 0.707061
vn -0.011421 0.707061 0.707061
vn 0.011421 0.999935 -0.000000
vn -0.011421 0.999935 -0.000000
vn 1.000000 0.000000 0.000000
vn -1.000000 0.000000 0.000000
s 1
g pasted__pasted__pasted__pCylinder9 pasted__pasted__group17 pasted__group18 group19
usemtl initialShadingGroup
f 10/18/10 11/19/11 19/28/12 18/27/13
f 11/19/11 12/20/14 20/29/15 19/28/12
f 12/20/14 13/21/16 21/30/17 20/29/15
f 13/21/16 14/22/18 22/31/19 21/30/17
f 14/22/18 15/23/20 23/32/21 22/31/19
f 15/23/20 16/24/22 24/33/23 23/32/21
f 16/24/22 17/25/24 25/34/25 24/33/23
f 17/25/24 10/26/10 18/35/13 25/34/25
f 11/11/11 10/10/10 26/44/26
f 12/12/14 11/11/11 26/44/26
f 13/13/16 12/12/14 26/44/26
f 14/14/18 13/13/16 26/44/26
f 15/15/20 14/14/18 26/44/26
f 16/16/22 15/15/20 26/44/26
f 17/17/24 16/16/22 26/44/26
f 10/10/10 17/17/24 26/44/26
f 18/42/13 19/41/12 27/45/27
f 19/41/12 20/40/15 27/45/27
f 20/40/15 21/39/17 27/45/27
f 21/39/17 22/38/19 27/45/27
f 22/38/19 23/37/21 27/45/27
f 23/37/21 24/36/23 27/45/27
f 24/36/23 25/43/25 27/45/27
f 25/43/25 18/42/13 27/45/27
g default
v 0.173313 -0.131245 -0.133316
v 0.039997 -0.131245 -0.188537
v -0.093318 -0.131245 -0.133316
v -0.148540 -0.131245 0.000000
v -0.093318 -0.131245 0.133316
v 0.039997 -0.131245 0.188537
v 0.173313 -0.131245 0.133316
v 0.228534 -0.131245 0.000000
v 0.173313 14.518859 -0.133316
v 0.039997 14.518859 -0.188537
v -0.093318 14.518859 -0.133316
v -0.148540 14.518859 0.000000
v -0.093318 14.518859 0.133316
v 0.039997 14.518859 0.188537
v 0.173313 14.518859 0.133316
v 0.228534 14.518859 0.000000
v 0.039997 -0.131245 0.000000
v 0.039997 14.518859 0.000000
vt 0.610485 0.045765
vt 0.500000 0.000000
vt 0.389515 0.045765
vt 0.343750 0.156250
vt 0.389515 0.266735
vt 0.500000 0.312500
vt 0.610485 0.266735
vt 0.656250 0.156250
vt 0.375000 0.312500
vt 0.406250 0.312500
vt 0.437500 0.312500
vt 0.468750 0.312500
vt 0.500000 0.312500
vt 0.531250 0.312500
vt 0.562500 0.312500
vt 0.593750 0.312500
vt 0.625000 0.312500
vt 0.375000 0.688440
vt 0.406250 0.688440
vt 0.437500 0.688440
vt 0.468750 0.688440
vt 0.500000 0.688440
vt 0.531250 0.688440
vt 0.562500 0.688440
vt 0.593750 0.688440
vt 0.625000 0.688440
vt 0.610485 0.733265
vt 0.500000 0.687500
vt 0.389515 0.733265
vt 0.343750 0.843750
vt 0.389515 0.954235
vt 0.500000 1.000000
vt 0.610485 0.954235
vt 0.656250 0.843750
vt 0.500000 0.150000
vt 0.500000 0.837500
vn 0.707098 -0.004826 -0.707099
vn 0.000000 -0.004826 -0.999988
vn 0.000000 0.004826 -0.999988
vn 0.707098 0.004826 -0.707099
vn -0.707099 -0.004826 -0.707099
vn -0.707099 0.004826 -0.707099
vn -0.999988 -0.004826 0.000000
vn -0.999988 0.004826 0.000000
vn -0.707099 -0.004826 0.707099
vn -0.707099 0.004826 0.707099
vn -0.000000 -0.004826 0.999988
vn -0.000000 0.004826 0.999988
vn 0.707099 -0.004826 0.707099
vn 0.707099 0.004826 0.707099
vn 0.999988 -0.004826 -0.000000
vn 0.999988 0.004826 -0.000000
vn 0.000000 -1.000000 0.000000
vn 0.000000 1.000000 0.000000
s 1
g pCylinder9
usemtl initialShadingGroup
f 28/54/28 29/55/29 37/64/30 36/63/31
f 29/55/29 30/56/32 38/65/33 37/64/30
f 30/56/32 31/57/34 39/66/35 38/65/33
f 31/57/34 32/58/36 40/67/37 39/66/35
f 32/58/36 33/59/38 41/68/39 40/67/37
f 33/59/38 34/60/40 42/69/41 41/68/39
f 34/60/40 35/61/42 43/70/43 42/69/41
f 35/61/42 28/62/28 36/71/31 43/70/43
f 29/47/29 28/46/28 44/80/44
f 30/48/32 29/47/29 44/80/44
f 31/49/34 30/48/32 44/80/44
f 32/50/36 31/49/34 44/80/44
f 33/51/38 32/50/36 44/80/44
f 34/52/40 33/51/38 44/80/44
f 35/53/42 34/52/40 44/80/44
f 28/46/28 35/53/42 44/80/44
f 36/78/31 37/77/30 45/81/45
f 37/77/30 38/76/33 45/81/45
f 38/76/33 39/75/35 45/81/45
f 39/75/35 40/74/37 45/81/45
f 40/74/37 41/73/39 45/81/45
f 41/73/39 42/72/41 45/81/45
f 42/72/41 43/79/43 45/81/45
f 43/79/43 36/78/31 45/81/45
