# This file uses centimeters as units for non-parametric coordinates.

mtllib Axe from Mold.mtl
g default
v -0.513337 0.216549 0.500000
v -0.513337 0.216549 -0.499999
v -0.513337 -0.216549 0.500000
v -0.513337 -0.216549 -0.499999
v 0.002056 0.216549 0.637555
v 0.002056 0.216549 -0.637554
v 0.002056 -0.216549 -0.637554
v 0.002056 -0.216549 0.637555
v -1.601183 0.216549 1.074337
v -1.601183 0.216549 -1.074337
v -1.601183 -0.216549 -1.074337
v -1.601183 -0.216549 1.074337
v 0.002056 -0.216549 0.000000
v -0.513337 -0.216549 0.000000
v -1.850423 -0.216549 0.000000
v -1.850423 0.216549 0.000000
v -0.513337 0.216549 0.000000
v 0.002056 0.216549 0.000000
v 0.517449 0.216549 0.500000
v 0.517449 0.216549 -0.499999
v 0.517449 -0.216549 0.500000
v 0.517449 -0.216549 -0.499999
v 1.605294 0.216549 1.074337
v 1.605294 0.216549 -1.074337
v 1.605294 -0.216549 -1.074337
v 1.605294 -0.216549 1.074337
v 0.517449 -0.216549 0.000000
v 1.854535 -0.216549 0.000000
v 1.854535 0.216549 0.000000
v 0.517449 0.216549 0.000000
vt 0.500000 0.500000
vt 0.500000 0.375000
vt 0.625000 0.375000
vt 0.625000 0.500000
vt 0.500000 0.750000
vt 0.500000 0.500000
vt 0.625000 0.500000
vt 0.625000 0.750000
vt 0.500000 0.875000
vt 0.500000 0.750000
vt 0.625000 0.750000
vt 0.625000 0.875000
vt 0.750000 0.250000
vt 0.750000 0.000000
vt 0.875000 0.000000
vt 0.875000 0.250000
vt 0.125000 0.000000
vt 0.250000 0.000000
vt 0.250000 0.250000
vt 0.125000 0.250000
vt 0.375000 0.750000
vt 0.375000 0.500000
vt 0.375000 0.500000
vt 0.375000 0.750000
vt 0.375000 0.875000
vt 0.375000 0.375000
vt 0.500000 0.500000
vt 0.625000 0.500000
vt 0.625000 0.375000
vt 0.500000 0.375000
vt 0.500000 0.750000
vt 0.625000 0.750000
vt 0.625000 0.500000
vt 0.500000 0.500000
vt 0.500000 0.875000
vt 0.625000 0.875000
vt 0.625000 0.750000
vt 0.500000 0.750000
vt 0.750000 0.250000
vt 0.875000 0.250000
vt 0.875000 0.000000
vt 0.750000 0.000000
vt 0.125000 0.000000
vt 0.125000 0.250000
vt 0.250000 0.250000
vt 0.250000 0.000000
vt 0.375000 0.750000
vt 0.375000 0.750000
vt 0.375000 0.500000
vt 0.375000 0.500000
vt 0.375000 0.875000
vt 0.375000 0.375000
vn 0.000000 1.000000 0.000000
vn 0.000000 1.000000 0.000000
vn 0.000000 1.000000 0.000000
vn 0.000000 1.000000 0.000000
vn -1.000000 0.000000 0.000000
vn -1.000000 0.000000 0.000000
vn -0.974129 0.000000 -0.225993
vn -0.974129 0.000000 -0.225993
vn 0.000000 -1.000000 0.000000
vn 0.000000 -1.000000 0.000000
vn 0.000000 -1.000000 0.000000
vn 0.000000 -1.000000 0.000000
vn 0.000000 0.000000 -1.000000
vn 0.000000 0.000000 -1.000000
vn 0.262857 0.000000 -0.964835
vn 0.262857 0.000000 -0.964835
vn 0.262857 0.000000 0.964835
vn 0.000000 0.000000 1.000000
vn 0.000000 0.000000 1.000000
vn 0.262857 0.000000 0.964835
vn 0.000000 1.000000 0.000000
vn 0.000000 1.000000 0.000000
vn 0.000000 1.000000 0.000000
vn 0.000000 1.000000 0.000000
vn 0.262857 0.000000 -0.964835
vn 0.262857 0.000000 -0.964835
vn 0.466884 0.000000 -0.884319
vn 0.466884 0.000000 -0.884319
vn 0.000000 -1.000000 0.000000
vn 0.000000 -1.000000 0.000000
vn 0.000000 -1.000000 0.000000
vn 0.000000 -1.000000 0.000000
vn 0.262857 0.000000 0.964835
vn 0.262857 0.000000 0.964835
vn 0.466884 0.000000 0.884319
vn 0.466884 0.000000 0.884319
vn 0.000000 -1.000000 0.000000
vn 0.000000 -1.000000 0.000000
vn 0.000000 -1.000000 0.000000
vn 0.000000 -1.000000 0.000000
vn 0.000000 -1.000000 0.000000
vn 0.000000 -1.000000 0.000000
vn 0.000000 -1.000000 0.000000
vn 0.000000 -1.000000 0.000000
vn -0.974129 0.000000 0.225993
vn -1.000000 0.000000 0.000000
vn -1.000000 0.000000 0.000000
vn -0.974129 0.000000 0.225993
vn 0.000000 1.000000 0.000000
vn 0.000000 1.000000 0.000000
vn 0.000000 1.000000 0.000000
vn 0.000000 1.000000 0.000000
vn 0.000000 1.000000 0.000000
vn 0.000000 1.000000 0.000000
vn 0.000000 1.000000 0.000000
vn 0.000000 1.000000 0.000000
vn 0.000000 1.000000 0.000000
vn 0.000000 1.000000 0.000000
vn 0.000000 1.000000 0.000000
vn 0.000000 1.000000 0.000000
vn 1.000000 0.000000 0.000000
vn 0.974129 0.000000 -0.225993
vn 0.974129 0.000000 -0.225993
vn 1.000000 0.000000 0.000000
vn 0.000000 -1.000000 0.000000
vn 0.000000 -1.000000 0.000000
vn 0.000000 -1.000000 0.000000
vn 0.000000 -1.000000 0.000000
vn 0.000000 0.000000 -1.000000
vn -0.262857 0.000000 -0.964835
vn -0.262857 0.000000 -0.964835
vn 0.000000 0.000000 -1.000000
vn -0.262857 0.000000 0.964835
vn -0.262857 0.000000 0.964835
vn 0.000000 0.000000 1.000000
vn 0.000000 0.000000 1.000000
vn 0.000000 1.000000 0.000000
vn 0.000000 1.000000 0.000000
vn 0.000000 1.000000 0.000000
vn 0.000000 1.000000 0.000000
vn -0.262857 0.000000 -0.964835
vn -0.466884 0.000000 -0.884319
vn -0.466884 0.000000 -0.884319
vn -0.262857 0.000000 -0.964835
vn 0.000000 -1.000000 0.000000
vn 0.000000 -1.000000 0.000000
vn 0.000000 -1.000000 0.000000
vn 0.000000 -1.000000 0.000000
vn -0.262857 0.000000 0.964835
vn -0.466884 0.000000 0.884319
vn -0.466884 0.000000 0.884319
vn -0.262857 0.000000 0.964835
vn 0.000000 -1.000000 0.000000
vn 0.000000 -1.000000 0.000000
vn 0.000000 -1.000000 0.000000
vn 0.000000 -1.000000 0.000000
vn 0.000000 -1.000000 0.000000
vn 0.000000 -1.000000 0.000000
vn 0.000000 -1.000000 0.000000
vn 0.000000 -1.000000 0.000000
vn 0.974129 0.000000 0.225993
vn 0.974129 0.000000 0.225993
vn 1.000000 0.000000 0.000000
vn 1.000000 0.000000 0.000000
vn 0.000000 1.000000 0.000000
vn 0.000000 1.000000 0.000000
vn 0.000000 1.000000 0.000000
vn 0.000000 1.000000 0.000000
vn 0.000000 1.000000 0.000000
vn 0.000000 1.000000 0.000000
vn 0.000000 1.000000 0.000000
vn 0.000000 1.000000 0.000000
s off
g Axe_Shape
usemtl initialShadingGroup
f 17/1/1 18/2/2 6/3/3 2/4/4
f 15/5/5 16/6/6 10/7/7 11/8/8
f 13/9/9 14/10/10 4/11/11 7/12/12
f 6/13/13 7/14/14 4/15/15 2/16/16
f 3/17/17 8/18/18 5/19/19 1/20/20
f 16/6/21 17/1/22 2/4/23 10/7/24
f 2/4/25 4/11/26 11/8/27 10/7/28
f 4/11/29 14/10/30 15/5/31 11/8/32
f 3/21/33 1/22/34 9/23/35 12/24/36
f 3/21/37 14/10/38 13/9/39 8/25/40
f 15/5/41 14/10/42 3/21/43 12/24/44
f 9/23/45 16/6/46 15/5/47 12/24/48
f 1/22/49 17/1/50 16/6/51 9/23/52
f 5/26/53 18/2/54 17/1/55 1/22/56
f 30/27/57 20/28/58 6/29/59 18/30/60
f 28/31/61 25/32/62 24/33/63 29/34/64
f 13/35/65 7/36/66 22/37/67 27/38/68
f 6/39/69 20/40/70 22/41/71 7/42/72
f 21/43/73 19/44/74 5/45/75 8/46/76
f 29/34/77 24/33/78 20/28/79 30/27/80
f 20/28/81 24/33/82 25/32/83 22/37/84
f 22/37/85 25/32/86 28/31/87 27/38/88
f 21/47/89 26/48/90 23/49/91 19/50/92
f 21/47/93 8/51/94 13/35/95 27/38/96
f 28/31/97 26/48/98 21/47/99 27/38/100
f 23/49/101 26/48/102 28/31/103 29/34/104
f 19/50/105 23/49/106 29/34/107 30/27/108
f 5/52/109 19/50/110 30/27/111 18/30/112
