# This file uses centimeters as units for non-parametric coordinates.

mtllib Axe Hammered.mtl
g default
v -0.513337 0.072707 -4.627222
v -0.513337 0.072707 -5.627222
v -0.513337 -0.072707 -4.627222
v -0.513337 -0.072707 -5.627222
v 0.002056 0.216549 -4.489667
v 0.002056 0.216549 -5.764776
v 0.002056 -0.216549 -5.764776
v 0.002056 -0.216549 -4.489667
v -1.601183 0.021661 -4.052884
v -1.601183 0.021661 -6.201559
v -1.601183 -0.021661 -6.201559
v -1.601183 -0.021661 -4.052884
v 0.002056 -0.216549 -5.127222
v -0.513337 -0.072707 -5.127222
v -1.850423 -0.021661 -5.127222
v -1.850423 0.021661 -5.127222
v -0.513337 0.072707 -5.127222
v 0.002056 0.216549 -5.127222
v 0.517449 0.072707 -4.627222
v 0.517449 0.072707 -5.627222
v 0.517449 -0.072707 -4.627222
v 0.517449 -0.072707 -5.627222
v 1.605294 0.021661 -4.052884
v 1.605294 0.021661 -6.201559
v 1.605294 -0.021661 -6.201559
v 1.605294 -0.021661 -4.052884
v 0.517449 -0.072707 -5.127222
v 1.854535 -0.021661 -5.127222
v 1.854535 0.021661 -5.127222
v 0.517449 0.072707 -5.127222
v 1.185992 0.216549 -5.127222
v 1.061372 0.072707 -5.914390
v 1.061372 -0.072707 -5.914390
v 1.185992 -0.216549 -5.127222
v 1.061372 -0.216549 -4.340053
v 1.061372 0.216549 -4.340053
v -1.057260 0.216549 -4.340053
v -1.181880 0.216549 -5.127222
v -1.057260 0.216549 -5.914390
v -1.057260 -0.216549 -5.914390
v -1.181880 -0.216549 -5.127222
v -1.057260 -0.216549 -4.340053
vt 0.375000 0.500000
vt 0.625000 0.500000
vt 0.375000 0.750000
vt 0.625000 0.750000
vt 0.875000 0.000000
vt 0.875000 0.250000
vt 0.125000 0.000000
vt 0.125000 0.250000
vt 0.250000 0.250000
vt 0.375000 0.375000
vt 0.625000 0.375000
vt 0.750000 0.250000
vt 0.625000 0.875000
vt 0.750000 0.000000
vt 0.250000 0.000000
vt 0.375000 0.875000
vt 0.375000 0.500000
vt 0.625000 0.500000
vt 0.625000 0.750000
vt 0.375000 0.750000
vt 0.500000 0.875000
vt 0.500000 0.750000
vt 0.500000 0.750000
vt 0.500000 0.500000
vt 0.500000 0.500000
vt 0.500000 0.375000
vt 0.500000 0.500000
vt 0.500000 0.375000
vt 0.625000 0.375000
vt 0.625000 0.500000
vt 0.500000 0.750000
vt 0.500000 0.500000
vt 0.625000 0.500000
vt 0.625000 0.750000
vt 0.500000 0.875000
vt 0.500000 0.750000
vt 0.625000 0.750000
vt 0.625000 0.875000
vt 0.750000 0.250000
vt 0.750000 0.000000
vt 0.875000 0.000000
vt 0.875000 0.250000
vt 0.125000 0.000000
vt 0.250000 0.000000
vt 0.250000 0.250000
vt 0.125000 0.250000
vt 0.375000 0.750000
vt 0.375000 0.500000
vt 0.375000 0.500000
vt 0.375000 0.750000
vt 0.375000 0.875000
vt 0.375000 0.375000
vt 0.500000 0.500000
vt 0.625000 0.500000
vt 0.625000 0.750000
vt 0.500000 0.750000
vt 0.375000 0.750000
vt 0.375000 0.500000
vt 0.375000 0.500000
vt 0.500000 0.500000
vt 0.625000 0.500000
vt 0.625000 0.750000
vt 0.500000 0.750000
vt 0.375000 0.750000
vn 0.015542 0.999879 0.000000
vn 0.000000 1.000000 0.000000
vn 0.000000 1.000000 0.000000
vn 0.028779 0.999494 0.013523
vn -1.000000 0.000000 -0.000000
vn -1.000000 0.000000 -0.000000
vn -0.974129 0.000000 -0.225992
vn -0.974129 0.000000 -0.225992
vn 0.000000 -1.000000 0.000000
vn 0.015542 -0.999879 0.000000
vn 0.028779 -0.999494 0.013523
vn 0.000000 -1.000000 0.000000
vn 0.000000 0.000000 -1.000000
vn 0.000000 0.000000 -1.000000
vn 0.134161 0.000000 -0.990960
vn 0.134161 0.000000 -0.990960
vn 0.134161 0.000000 0.990960
vn 0.000000 0.000000 1.000000
vn 0.000000 0.000000 1.000000
vn 0.134161 0.000000 0.990960
vn -0.293372 0.955998 -0.000000
vn -0.111043 0.993816 -0.000000
vn -0.132795 0.990549 -0.034335
vn -0.292864 0.954343 -0.058818
vn 0.466884 0.000000 -0.884319
vn 0.466884 0.000000 -0.884319
vn 0.466884 0.000000 -0.884319
vn 0.466884 0.000000 -0.884319
vn -0.132795 -0.990549 -0.034335
vn -0.111043 -0.993816 0.000000
vn -0.293372 -0.955998 0.000000
vn -0.292864 -0.954343 -0.058818
vn 0.466884 0.000000 0.884319
vn 0.466884 0.000000 0.884319
vn 0.466884 0.000000 0.884319
vn 0.466884 0.000000 0.884319
vn 0.028779 -0.999494 -0.013523
vn 0.000000 -1.000000 0.000000
vn -0.132795 -0.990549 0.034335
vn -0.292864 -0.954343 0.058818
vn -0.974129 0.000000 0.225992
vn -0.974129 0.000000 0.225992
vn -0.132795 0.990549 0.034335
vn -0.292864 0.954343 0.058818
vn 0.000000 1.000000 0.000000
vn 0.028779 0.999494 -0.013523
vn 0.010423 0.999343 -0.034706
vn 0.022347 0.997969 -0.059651
vn 1.000000 0.000000 0.000000
vn 0.974129 0.000000 -0.225993
vn 0.974129 0.000000 -0.225993
vn 1.000000 0.000000 0.000000
vn 0.022347 -0.997969 -0.059651
vn 0.010423 -0.999343 -0.034706
vn 0.043145 0.000000 -0.999069
vn 0.043145 0.000000 -0.999069
vn -0.134161 0.000000 0.990960
vn -0.134161 0.000000 0.990960
vn 0.087008 0.995653 -0.033246
vn 0.078234 0.991153 -0.107220
vn -0.466884 0.000000 -0.884319
vn -0.466884 0.000000 -0.884319
vn 0.078234 -0.991153 -0.107220
vn 0.087008 -0.995653 -0.033246
vn -0.466884 0.000000 0.884319
vn -0.466884 0.000000 0.884319
vn -0.028779 -0.999494 -0.013523
vn 0.132795 -0.990549 0.034335
vn 0.974129 0.000000 0.225993
vn 0.974129 0.000000 0.225993
vn -0.028779 0.999494 -0.013523
vn 0.132795 0.990549 0.034335
vn 0.234693 0.971753 -0.024789
vn 0.172427 0.978831 -0.110266
vn -0.466884 0.000000 -0.884319
vn -0.466884 0.000000 -0.884319
vn 0.172427 -0.978831 -0.110266
vn 0.234693 -0.971753 -0.024789
vn 0.292864 -0.954343 0.058818
vn -0.466884 0.000000 0.884319
vn -0.466884 0.000000 0.884319
vn 0.292864 0.954343 0.058818
s 1
g pasted__pCube10 group22
usemtl initialShadingGroup
f 17/25/1 18/26/2 6/11/3 2/2/4
s 2
f 15/23/5 16/24/6 10/18/7 11/19/8
s 3
f 13/21/9 14/22/10 4/4/11 7/13/12
s 4
f 6/12/13 7/14/14 4/5/15 2/6/16
s 5
f 3/7/17 8/15/18 5/9/19 1/8/20
s 1
f 16/24/21 38/60/22 39/61/23 10/18/24
s 4
f 39/61/25 40/62/26 11/19/27 10/18/28
s 3
f 40/62/29 41/63/30 15/23/31 11/19/32
s 5
f 42/64/33 37/59/34 9/17/35 12/20/36
s 3
f 3/3/37 14/22/10 13/21/9 8/16/38
f 15/23/31 41/63/30 42/64/39 12/20/40
s 2
f 9/17/41 16/24/6 15/23/5 12/20/42
s 1
f 37/59/43 38/60/22 16/24/21 9/17/44
f 5/10/45 18/26/2 17/25/1 1/1/46
f 30/27/47 20/30/48 6/29/3 18/28/2
s 7
f 28/31/49 25/34/50 24/33/51 29/32/52
s 3
f 13/35/9 7/38/12 22/37/53 27/36/54
s 4
f 6/39/13 20/42/55 22/41/56 7/40/14
s 5
f 21/43/57 19/46/58 5/45/19 8/44/18
s 1
f 31/53/59 32/54/60 20/30/48 30/27/47
s 4
f 20/30/55 32/54/61 33/55/62 22/37/56
s 3
f 22/37/53 33/55/63 34/56/64 27/36/54
s 5
f 21/47/57 35/57/65 36/58/66 19/48/58
s 3
f 21/47/67 8/51/38 13/35/9 27/36/54
f 34/56/64 35/57/68 21/47/67 27/36/54
s 7
f 23/49/69 26/50/70 28/31/49 29/32/52
s 1
f 19/48/71 36/58/72 31/53/59 30/27/47
f 5/52/45 19/48/71 30/27/47 18/28/2
f 29/32/73 24/33/74 32/54/60 31/53/59
s 4
f 33/55/62 32/54/61 24/33/75 25/34/76
s 3
f 34/56/64 33/55/63 25/34/77 28/31/78
f 28/31/78 26/50/79 35/57/68 34/56/64
s 5
f 36/58/66 35/57/65 26/50/80 23/49/81
s 1
f 31/53/59 36/58/72 23/49/82 29/32/73
f 1/1/46 17/25/1 38/60/22 37/59/43
f 39/61/23 38/60/22 17/25/1 2/2/4
s 4
f 2/2/16 4/4/15 40/62/26 39/61/25
s 3
f 4/4/11 14/22/10 41/63/30 40/62/29
f 42/64/39 41/63/30 14/22/10 3/3/37
s 5
f 3/3/17 1/1/20 37/59/34 42/64/33
