# This file uses centimeters as units for non-parametric coordinates.

mtllib Sword.mtl
g default
v -10.351954 -0.033363 -1.346891
v -5.689129 -0.033363 -1.346891
v -10.351954 0.033363 -1.346891
v -5.689129 0.033363 -1.346891
v -10.351954 0.033363 -2.723142
v -5.689129 0.033363 -2.723142
v -10.351954 -0.033363 -2.723142
v -5.689129 -0.033363 -2.723142
v -10.351954 0.183677 -2.035016
v -5.130841 0.035582 -2.035016
v -5.130841 -0.035582 -2.035016
v -10.351954 -0.183677 -2.035016
v -5.689129 0.183677 -2.035016
v -5.689129 -0.183677 -2.035016
v -10.351954 0.065322 -2.035016
v -10.351954 -0.065322 -2.035016
v -10.351954 0.065322 -2.277484
v -10.351954 -0.065322 -2.277484
v -10.351954 -0.065322 -1.792549
v -10.351954 0.065322 -1.792549
v -11.095732 -0.065322 -1.792549
v -11.095732 0.065322 -1.792549
v -11.095732 0.065322 -2.035016
v -11.095732 -0.065322 -2.035016
v -11.095732 0.065322 -2.277484
v -11.095732 -0.065322 -2.277484
vt 0.375000 0.000000
vt 0.625000 0.000000
vt 0.375000 0.250000
vt 0.625000 0.250000
vt 0.375000 0.500000
vt 0.625000 0.500000
vt 0.375000 0.750000
vt 0.625000 0.750000
vt 0.375000 1.000000
vt 0.625000 1.000000
vt 0.875000 0.000000
vt 0.875000 0.250000
vt 0.125000 0.000000
vt 0.125000 0.250000
vt 0.250000 0.250000
vt 0.375000 0.375000
vt 0.625000 0.375000
vt 0.750000 0.250000
vt 0.625000 0.875000
vt 0.750000 0.000000
vt 0.250000 0.000000
vt 0.375000 0.875000
vt 0.598268 0.375000
vt 0.598268 0.875000
vt 0.250000 0.147705
vt 0.250000 0.102295
vt 0.187500 0.198853
vt 0.187500 0.051148
vt 0.312500 0.051148
vt 0.312500 0.198853
vt 0.312500 0.051148
vt 0.312500 0.198853
vt 0.250000 0.147705
vt 0.250000 0.102295
vt 0.187500 0.198853
vt 0.187500 0.051148
vn 0.000000 0.000000 1.000000
vn 0.000000 0.000000 1.000000
vn 0.000000 0.000000 1.000000
vn 0.000000 0.000000 1.000000
vn 0.009124 0.976922 -0.213399
vn 0.006242 0.999980 0.000000
vn 0.256399 0.966571 0.000000
vn 0.000000 0.000000 -1.000000
vn 0.000000 0.000000 -1.000000
vn 0.000000 0.000000 -1.000000
vn 0.000000 0.000000 -1.000000
vn 0.006242 -0.999980 0.000000
vn 0.009124 -0.976922 -0.213399
vn 0.256399 -0.966571 -0.000000
vn 1.000000 0.000000 0.000000
vn 1.000000 0.000000 0.000000
vn 0.776563 0.000000 -0.630040
vn 0.776563 0.000000 -0.630040
vn -1.000000 0.000000 0.000000
vn -1.000000 0.000000 0.000000
vn -1.000000 0.000000 0.000000
vn 0.009124 0.976922 0.213399
vn 0.776563 0.000000 0.630040
vn 0.776563 0.000000 0.630040
vn 0.009124 -0.976922 0.213399
vn -1.000000 0.000000 0.000000
vn -0.000000 1.000000 0.000000
vn -0.000000 0.976963 -0.213408
vn -0.000000 0.976963 0.213408
vn -0.000000 -1.000000 0.000000
vn -0.000000 -0.976963 0.213408
vn -0.000000 -0.976963 -0.213408
vn -1.000000 0.000000 0.000000
vn -1.000000 0.000000 0.000000
vn -1.000000 0.000000 0.000000
vn -1.000000 0.000000 0.000000
vn -1.000000 0.000000 0.000000
vn -1.000000 0.000000 0.000000
vn -1.000000 0.000000 0.000000
vn -1.000000 0.000000 0.000000
vn -1.000000 0.000000 0.000000
vn -1.000000 0.000000 0.000000
vn -1.000000 0.000000 0.000000
vn -1.000000 0.000000 0.000000
vn -1.000000 0.000000 0.000000
vn -1.000000 0.000000 0.000000
vn 0.000000 0.000000 1.000000
vn 0.000000 0.000000 1.000000
vn 0.000000 0.000000 1.000000
vn 0.000000 0.000000 1.000000
vn 0.000000 1.000000 0.000000
vn 0.000000 1.000000 0.000000
vn 0.000000 1.000000 0.000000
vn 0.000000 1.000000 0.000000
vn 0.000000 -1.000000 0.000000
vn 0.000000 -1.000000 -0.000000
vn 0.000000 -1.000000 -0.000000
vn 0.000000 -1.000000 0.000000
vn 0.000000 0.000000 -1.000000
vn 0.000000 0.000000 -1.000000
vn 0.000000 0.000000 -1.000000
vn 0.000000 0.000000 -1.000000
vn 0.000000 -1.000000 0.000000
vn 0.000000 -1.000000 0.000000
vn 0.000000 1.000000 -0.000000
vn 0.000000 1.000000 -0.000000
s off
g pasted__pCube9 group26
usemtl initialShadingGroup
f 1/1/1 2/2/2 4/4/3 3/3/4
s 1
f 6/6/5 13/23/6 10/17/7
s off
f 5/5/8 6/6/9 8/8/10 7/7/11
s 2
f 14/24/12 8/8/13 11/19/14
s 3
f 10/18/15 11/20/16 8/11/17 6/12/18
s 4
f 9/15/19 17/27/20 15/25/21
s 1
f 13/23/6 4/4/22 10/17/7
s 3
f 2/2/23 11/20/16 10/18/15 4/4/24
s 2
f 2/10/25 14/24/12 11/19/14
s 4
f 9/15/19 15/25/21 20/30/26
s 1
f 9/16/27 13/23/6 6/6/5 5/5/28
f 3/3/29 4/4/22 13/23/6 9/16/27
s 2
f 12/22/30 14/24/12 2/10/25 1/9/31
f 7/7/32 8/8/13 14/24/12 12/22/30
s 4
f 18/28/33 12/21/34 16/26/35
f 12/21/34 19/29/36 16/26/35
s 6
f 21/31/37 22/32/38 23/33/39 24/34/40
f 25/35/41 26/36/42 24/34/40 23/33/39
s 4
f 5/14/43 17/27/20 9/15/19
f 7/13/44 18/28/33 17/27/20 5/14/43
f 7/13/44 12/21/34 18/28/33
f 1/1/45 19/29/36 12/21/34
f 3/3/46 20/30/26 19/29/36 1/1/45
f 9/15/19 20/30/26 3/3/46
s off
f 19/29/47 20/30/48 22/32/49 21/31/50
s 7
f 20/30/51 15/25/52 23/33/53 22/32/54
s 8
f 16/26/55 19/29/56 21/31/57 24/34/58
s off
f 17/27/59 18/28/60 26/36/61 25/35/62
s 8
f 18/28/63 16/26/55 24/34/58 26/36/64
s 7
f 15/25/52 17/27/65 25/35/66 23/33/53
g default
v -12.114959 -0.178582 -1.732630
v -10.286053 -0.178582 -1.732630
v -12.114959 0.178582 -1.732630
v -10.286053 0.178582 -1.732630
v -12.114959 0.178582 -2.332827
v -10.286053 0.178582 -2.332827
v -12.114959 -0.178582 -2.332827
v -10.286053 -0.178582 -2.332827
v -12.114959 0.294801 -2.032729
v -10.286053 0.294801 -2.032729
v -10.286053 -0.294801 -2.032729
v -12.114959 -0.294801 -2.032729
v -12.114959 -0.260392 -2.182778
v -10.286053 -0.260392 -2.182778
v -10.286053 0.260392 -2.182778
v -12.114959 0.260392 -2.182778
v -12.114959 0.260392 -1.882680
v -10.286053 0.260392 -1.882680
v -10.286053 -0.260392 -1.882680
v -12.114959 -0.260392 -1.882680
v -10.684339 -0.178582 -1.732630
v -10.684339 -0.260392 -1.882680
v -10.684339 -0.294801 -2.032729
v -10.684339 -0.260392 -2.182778
v -10.684339 -0.178582 -2.332827
v -10.684339 0.178582 -2.332827
v -10.684339 0.260392 -2.182778
v -10.684339 0.294801 -2.032729
v -10.684339 0.260392 -1.882680
v -10.684339 0.178582 -1.732630
v -10.581058 0.111173 -0.971536
v -10.581058 -0.111173 -0.971536
v -10.224940 -0.111173 -0.971536
v -10.224940 0.111173 -0.971536
v -10.585148 -0.113843 -3.095730
v -10.585148 0.113843 -3.095730
v -10.220850 0.113843 -3.095730
v -10.220850 -0.113843 -3.095730
v -10.581058 0.111173 -1.122209
v -10.581058 -0.111173 -1.122209
v -10.224940 -0.111173 -1.122209
v -10.224940 0.111173 -1.122209
v -10.585148 -0.113843 -2.941439
v -10.585148 0.113843 -2.941439
v -10.220850 0.113843 -2.941439
v -10.220850 -0.113843 -2.941439
v -10.690775 0.111173 -1.122209
v -10.690775 -0.111173 -1.122209
v -10.690775 -0.111173 -0.971536
v -10.690775 0.111173 -0.971536
v -10.115223 -0.111173 -1.122209
v -10.115223 0.111173 -1.122209
v -10.115223 0.111173 -0.971536
v -10.115223 -0.111173 -0.971536
v -10.697499 -0.113843 -2.941439
v -10.697499 0.113843 -2.941439
v -10.697499 0.113843 -3.095730
v -10.697499 -0.113843 -3.095730
v -10.108499 0.113843 -2.941439
v -10.108499 -0.113843 -2.941439
v -10.108499 -0.113843 -3.095730
v -10.108499 0.113843 -3.095730
v -10.861323 -0.152458 -1.776532
v -10.861323 -0.222299 -1.904630
v -10.861323 -0.251675 -2.032729
v -10.861323 -0.222299 -2.160827
v -10.861323 -0.152458 -2.288926
v -10.861323 0.152458 -2.288926
v -10.861323 0.222299 -2.160827
v -10.861323 0.251675 -2.032729
v -10.861323 0.222299 -1.904630
v -10.861323 0.152458 -1.776532
vt 0.375000 0.000000
vt 0.625000 0.000000
vt 0.375000 0.250000
vt 0.625000 0.250000
vt 0.375000 0.500000
vt 0.625000 0.500000
vt 0.375000 0.750000
vt 0.625000 0.750000
vt 0.375000 1.000000
vt 0.625000 1.000000
vt 0.875000 0.000000
vt 0.875000 0.250000
vt 0.125000 0.000000
vt 0.125000 0.250000
vt 0.250000 0.250000
vt 0.375000 0.375000
vt 0.625000 0.375000
vt 0.750000 0.250000
vt 0.625000 0.875000
vt 0.750000 0.000000
vt 0.250000 0.000000
vt 0.375000 0.875000
vt 0.187500 0.000000
vt 0.375000 0.812500
vt 0.625000 0.812500
vt 0.812500 0.000000
vt 0.625000 0.437500
vt 0.812500 0.250000
vt 0.187500 0.250000
vt 0.375000 0.437500
vt 0.312500 0.250000
vt 0.375000 0.312500
vt 0.625000 0.312500
vt 0.687500 0.250000
vt 0.625000 0.937500
vt 0.687500 0.000000
vt 0.312500 0.000000
vt 0.375000 0.937500
vt 0.525000 0.000000
vt 0.525000 1.000000
vt 0.525000 0.937500
vt 0.525000 0.875000
vt 0.525000 0.812500
vt 0.525000 0.750000
vt 0.525000 0.500000
vt 0.525000 0.437500
vt 0.525000 0.375000
vt 0.525000 0.312500
vt 0.525000 0.250000
vt 0.525000 0.250000
vt 0.525000 0.000000
vt 0.625000 0.000000
vt 0.625000 0.250000
vt 0.525000 0.750000
vt 0.525000 0.500000
vt 0.625000 0.500000
vt 0.625000 0.750000
vt 0.525000 0.250000
vt 0.525000 0.000000
vt 0.625000 0.000000
vt 0.625000 0.250000
vt 0.525000 0.750000
vt 0.525000 0.500000
vt 0.625000 0.500000
vt 0.625000 0.750000
vt 0.525000 0.250000
vt 0.525000 0.000000
vt 0.525000 0.000000
vt 0.525000 0.250000
vt 0.625000 0.000000
vt 0.625000 0.250000
vt 0.625000 0.250000
vt 0.625000 0.000000
vt 0.525000 0.750000
vt 0.525000 0.500000
vt 0.525000 0.500000
vt 0.525000 0.750000
vt 0.625000 0.500000
vt 0.625000 0.750000
vt 0.625000 0.750000
vt 0.625000 0.500000
vt 0.506443 0.000000
vt 0.506443 1.000000
vt 0.506443 0.937500
vt 0.506443 0.875000
vt 0.506443 0.812500
vt 0.506443 0.750000
vt 0.506443 0.500000
vt 0.506443 0.437500
vt 0.506443 0.375000
vt 0.506443 0.312500
vt 0.506443 0.250000
vn 0.000000 0.000000 1.000000
vn 0.000000 0.000000 1.000000
vn 0.000000 0.000000 1.000000
vn 0.000000 0.000000 1.000000
vn -0.067074 0.931774 -0.356788
vn -0.062631 0.998037 0.000000
vn 0.000000 1.000000 0.000000
vn 0.000000 0.932514 -0.361135
vn 0.000000 0.000000 -1.000000
vn 0.000000 0.000000 -1.000000
vn 0.000000 0.000000 -1.000000
vn 0.000000 0.000000 -1.000000
vn -0.062631 -0.998037 0.000000
vn -0.067074 -0.931774 -0.356788
vn 0.000000 -0.932514 -0.361135
vn 0.000000 -1.000000 0.000000
vn 1.000000 0.000000 0.000000
vn 1.000000 0.000000 0.000000
vn 1.000000 0.000000 0.000000
vn 1.000000 0.000000 0.000000
vn -1.000000 0.000000 0.000000
vn -1.000000 0.000000 0.000000
vn -1.000000 0.000000 0.000000
vn -1.000000 0.000000 0.000000
vn -0.067074 0.931774 0.356788
vn 0.000000 0.932514 0.361135
vn 1.000000 0.000000 0.000000
vn 1.000000 0.000000 0.000000
vn -0.067074 -0.931774 0.356788
vn 0.000000 -0.932514 0.361135
vn -1.000000 0.000000 0.000000
vn -1.000000 0.000000 0.000000
vn -0.021824 -0.974976 -0.221236
vn 0.000000 -0.981662 -0.190628
vn 0.997804 0.000000 0.066236
vn 0.997804 0.000000 0.066236
vn -0.021824 0.974976 -0.221236
vn 0.000000 0.981662 -0.190628
vn -1.000000 0.000000 0.000000
vn -1.000000 0.000000 0.000000
vn -0.021957 0.974174 0.224728
vn 0.000000 0.980935 0.194336
vn 0.998097 0.000000 -0.061657
vn 0.998097 0.000000 -0.061657
vn -0.021957 -0.974174 0.224728
vn 0.000000 -0.980935 0.194336
vn -1.000000 0.000000 0.000000
vn -1.000000 0.000000 0.000000
vn -0.000436 -0.877982 0.478693
vn -0.002027 -0.931229 0.364428
vn -0.003687 -0.999993 0.000000
vn -0.002027 -0.931229 -0.364428
vn -0.000436 -0.877982 -0.478693
vn -0.006835 0.000000 -0.999977
vn -0.006835 0.000000 -0.999977
vn -0.240754 0.000000 -0.970586
vn -0.240754 0.000000 -0.970586
vn -0.000436 0.877982 -0.478693
vn -0.002027 0.931229 -0.364428
vn -0.003687 0.999993 0.000000
vn -0.002027 0.931229 0.364428
vn -0.000436 0.877982 0.478693
vn -0.006835 0.000000 0.999977
vn -0.006835 0.000000 0.999977
vn -0.240754 0.000000 0.970586
vn -0.240754 0.000000 0.970586
vn -1.000000 0.000000 0.000000
vn -1.000000 0.000000 0.000000
vn -1.000000 0.000000 0.000000
vn -1.000000 0.000000 0.000000
vn 0.000000 -0.996363 0.085207
vn 0.000000 -0.996484 0.083781
vn 0.000000 -1.000000 0.000000
vn 0.000000 -1.000000 0.000000
vn 1.000000 0.000000 0.000000
vn 1.000000 0.000000 0.000000
vn 1.000000 0.000000 0.000000
vn 1.000000 0.000000 0.000000
vn 0.000000 0.996484 0.083781
vn 0.000000 0.996363 0.085207
vn 0.000000 1.000000 0.000000
vn 0.000000 1.000000 0.000000
vn -1.000000 0.000000 0.000000
vn -1.000000 0.000000 0.000000
vn -1.000000 0.000000 0.000000
vn -1.000000 0.000000 0.000000
vn 0.000000 0.996686 -0.081345
vn 0.000000 0.996800 -0.079933
vn 0.000000 1.000000 0.000000
vn 0.000000 1.000000 0.000000
vn 1.000000 0.000000 0.000000
vn 1.000000 0.000000 0.000000
vn 1.000000 0.000000 0.000000
vn 1.000000 0.000000 0.000000
vn 0.000000 -0.996800 -0.079933
vn 0.000000 -0.996686 -0.081345
vn 0.000000 -1.000000 0.000000
vn 0.000000 -1.000000 0.000000
vn -0.985987 0.000000 0.166824
vn -0.985987 0.000000 0.166824
vn -0.985987 0.000000 0.166824
vn -0.985987 0.000000 0.166824
vn 0.995026 0.000000 -0.099619
vn 0.995026 0.000000 -0.099619
vn -0.986978 0.000000 -0.160855
vn -0.986978 0.000000 -0.160855
vn -0.986978 0.000000 -0.160855
vn -0.986978 0.000000 -0.160855
vn 0.994310 0.000000 0.106525
vn 0.994310 0.000000 0.106525
vn 0.000000 0.000000 -1.000000
vn 0.000000 0.000000 -1.000000
vn 0.000000 0.000000 -1.000000
vn 0.000000 0.000000 -1.000000
vn 0.000000 -1.000000 0.000000
vn 0.000000 -1.000000 0.000000
vn 0.000000 0.000000 1.000000
vn 0.000000 0.000000 1.000000
vn 0.000000 1.000000 0.000000
vn 0.000000 1.000000 0.000000
vn 0.000000 0.000000 -1.000000
vn 0.000000 0.000000 -1.000000
vn 0.000000 0.000000 -1.000000
vn 0.000000 0.000000 -1.000000
vn 0.000000 1.000000 0.000000
vn 0.000000 1.000000 0.000000
vn 0.000000 0.000000 1.000000
vn 0.000000 0.000000 1.000000
vn 0.000000 -1.000000 0.000000
vn 0.000000 -1.000000 0.000000
vn 0.000000 0.000000 1.000000
vn 0.000000 0.000000 1.000000
vn 0.000000 0.000000 1.000000
vn 0.000000 0.000000 1.000000
vn 0.000000 1.000000 0.000000
vn 0.000000 1.000000 0.000000
vn 0.000000 0.000000 -1.000000
vn 0.000000 0.000000 -1.000000
vn 0.000000 -1.000000 0.000000
vn 0.000000 -1.000000 0.000000
vn 0.000000 0.000000 1.000000
vn 0.000000 0.000000 1.000000
vn 0.000000 0.000000 1.000000
vn 0.000000 0.000000 1.000000
vn 0.000000 -1.000000 0.000000
vn 0.000000 -1.000000 0.000000
vn 0.000000 0.000000 -1.000000
vn 0.000000 0.000000 -1.000000
vn 0.000000 1.000000 0.000000
vn 0.000000 1.000000 0.000000
vn 0.034625 -0.932808 0.358707
vn 0.035038 -0.877443 0.478399
vn 0.034381 -0.999409 0.000000
vn 0.034625 -0.932808 -0.358707
vn 0.035038 -0.877443 -0.478399
vn 0.034998 0.000000 -0.999387
vn 0.034998 0.000000 -0.999387
vn 0.034625 0.932808 -0.358707
vn 0.035038 0.877443 -0.478399
vn 0.034381 0.999409 0.000000
vn 0.034625 0.932808 0.358707
vn 0.035038 0.877443 0.478399
vn 0.034998 0.000000 0.999387
vn 0.034998 0.000000 0.999387
s 1
g pCube12
usemtl initialShadingGroup
f 57/86/67 58/87/68 59/88/69 60/89/70
s 2
f 53/82/71 54/83/72 36/53/73 41/63/74
s 3
f 61/90/75 62/91/76 63/92/77 64/93/78
s 4
f 49/78/79 50/79/80 40/61/81 37/55/82
s 5
f 36/54/83 37/56/84 40/62/85 41/64/86
s 6
f 42/65/87 39/59/88 38/57/89 35/51/90
s 2
f 54/83/72 55/84/91 44/69/92 36/53/73
s 5
f 44/70/93 45/72/94 37/56/84 36/54/83
s 4
f 48/77/95 49/78/79 37/55/82 45/71/96
s 6
f 35/51/90 38/57/89 46/73/97 43/67/98
s 4
f 50/79/80 51/80/99 34/44/100 40/61/81
s 5
f 41/64/86 40/62/85 34/47/101 32/48/102
s 2
f 52/81/103 53/82/71 41/63/74 32/42/104
s 6
f 33/49/105 39/59/88 42/65/87 31/50/106
s 2
f 55/84/91 56/85/107 30/40/108 44/69/92
s 5
f 28/38/109 45/72/94 44/70/93 30/40/110
s 4
f 47/76/111 48/77/95 45/71/96 28/46/112
s 6
f 43/67/98 46/73/97 27/37/113 29/39/114
s 4
f 89/119/115 90/120/116 48/77/95 47/76/111
f 90/120/116 91/121/117 49/78/79 48/77/95
f 91/121/117 92/122/118 50/79/80 49/78/79
f 92/122/118 93/123/119 51/80/99 50/79/80
s 7
f 93/123/120 94/124/121 52/81/122 51/80/123
s 2
f 94/124/124 95/125/125 53/82/71 52/81/103
f 95/125/125 96/126/126 54/83/72 53/82/71
f 96/126/126 97/127/127 55/84/91 54/83/72
f 97/127/127 98/128/128 56/85/107 55/84/91
s 8
f 98/128/129 89/118/130 47/75/131 56/85/132
s off
f 73/102/133 74/103/134 75/104/135 76/105/136
s 4
f 66/95/137 67/96/138 59/88/139 58/87/140
s off
f 77/106/141 78/107/142 79/108/143 80/109/144
s 2
f 68/97/145 65/94/146 57/86/147 60/89/148
s off
f 81/110/149 82/111/150 83/112/151 84/113/152
s 2
f 70/99/153 71/100/154 63/92/155 62/91/156
s off
f 85/114/157 86/115/158 87/116/159 88/117/160
s 4
f 72/101/161 69/98/162 61/90/163 64/93/164
s off
f 56/85/165 47/75/166 66/95/167 65/94/168
s 4
f 47/75/111 28/38/112 67/96/138 66/95/137
s 5
f 28/38/109 30/40/110 68/97/169 67/96/170
s 2
f 30/40/108 56/85/107 65/94/146 68/97/145
s off
f 51/80/171 52/81/172 70/99/173 69/98/174
s 2
f 52/81/103 32/42/104 71/100/154 70/99/153
s 5
f 32/42/102 34/44/101 72/101/175 71/100/176
s 4
f 34/44/100 51/80/99 69/98/162 72/101/161
s off
f 65/94/177 66/95/178 74/103/179 73/102/180
s 4
f 66/95/137 58/87/140 75/104/181 74/103/182
s 1
f 58/87/68 57/86/67 76/105/183 75/104/184
s 2
f 57/86/147 65/94/146 73/102/185 76/105/186
s off
f 67/96/187 68/97/188 78/107/189 77/106/190
s 2
f 68/97/145 60/89/148 79/108/191 78/107/192
s 1
f 60/89/70 59/88/69 80/109/193 79/108/194
s 4
f 59/88/139 67/96/138 77/106/195 80/109/196
s off
f 69/98/197 70/99/198 82/111/199 81/110/200
s 2
f 70/99/153 62/91/156 83/112/201 82/111/202
s 3
f 62/91/76 61/90/75 84/113/203 83/112/204
s 4
f 61/90/163 69/98/162 81/110/205 84/113/206
s off
f 71/100/207 72/101/208 86/115/209 85/114/210
s 4
f 72/101/161 64/93/164 87/116/211 86/115/212
s 3
f 64/93/78 63/92/77 88/117/213 87/116/214
s 2
f 63/92/155 71/100/154 85/114/215 88/117/216
s 4
f 46/74/217 90/120/116 89/119/115 27/45/218
f 38/58/219 91/121/117 90/120/116 46/74/217
f 39/60/220 92/122/118 91/121/117 38/58/219
f 33/43/221 93/123/119 92/122/118 39/60/220
s 7
f 31/41/222 94/124/121 93/123/120 33/43/223
s 2
f 42/66/224 95/125/125 94/124/124 31/41/225
f 35/52/226 96/126/126 95/125/125 42/66/224
f 43/68/227 97/127/127 96/126/126 35/52/226
f 29/39/228 98/128/128 97/127/127 43/68/227
s 8
f 27/37/229 89/118/130 98/128/129 29/39/230
