# This file uses centimeters as units for non-parametric coordinates.

mtllib Sword from mold.mtl
g default
v 0.639737 0.192625 -2.238668
v 0.639737 0.157833 2.424156
v 0.639737 -0.192625 -2.238668
v 0.639737 -0.157833 2.424156
v 0.000000 0.183677 -2.238668
v -0.000000 0.168332 2.982445
v -0.000000 -0.168332 2.982445
v 0.000000 -0.183677 -2.238668
v 0.000000 0.183677 2.424158
v 0.000000 -0.183677 2.424158
v 0.000000 0.065322 -2.238668
v 0.000000 -0.065322 -2.238668
v 0.194079 0.065322 -2.238668
v 0.194079 -0.065322 -2.238668
v 0.000000 0.065322 -2.982445
v 0.000000 -0.065322 -2.982445
v 0.194079 0.065322 -2.982446
v 0.194079 -0.065322 -2.982446
v -0.639737 0.192625 -2.238668
v -0.639737 0.157833 2.424157
v -0.639737 -0.192625 -2.238668
v -0.639737 -0.157833 2.424157
v -0.194079 0.065322 -2.238668
v -0.194079 -0.065322 -2.238668
v -0.194079 0.065322 -2.982445
v -0.194079 -0.065322 -2.982445
vt 0.625000 0.500000
vt 0.598268 0.375000
vt 0.625000 0.375000
vt 0.375000 0.500000
vt 0.625000 0.750000
vt 0.375000 0.750000
vt 0.598268 0.875000
vt 0.625000 0.875000
vt 0.750000 0.250000
vt 0.750000 0.000000
vt 0.875000 0.000000
vt 0.875000 0.250000
vt 0.250000 0.250000
vt 0.187500 0.198853
vt 0.250000 0.147705
vt 0.375000 0.375000
vt 0.375000 0.875000
vt 0.187500 0.051148
vt 0.250000 0.000000
vt 0.250000 0.102295
vt 0.187500 0.198853
vt 0.187500 0.051148
vt 0.250000 0.102295
vt 0.250000 0.147705
vt 0.125000 0.250000
vt 0.125000 0.000000
vt 0.625000 0.500000
vt 0.625000 0.375000
vt 0.598268 0.375000
vt 0.375000 0.500000
vt 0.375000 0.750000
vt 0.625000 0.750000
vt 0.598268 0.875000
vt 0.625000 0.875000
vt 0.750000 0.250000
vt 0.875000 0.250000
vt 0.875000 0.000000
vt 0.750000 0.000000
vt 0.250000 0.250000
vt 0.250000 0.147705
vt 0.187500 0.198853
vt 0.375000 0.375000
vt 0.375000 0.875000
vt 0.187500 0.051148
vt 0.250000 0.102295
vt 0.250000 0.000000
vt 0.187500 0.198853
vt 0.250000 0.147705
vt 0.250000 0.102295
vt 0.187500 0.051148
vt 0.125000 0.250000
vt 0.125000 0.000000
vn 0.013511 0.999901 0.003999
vn 0.000000 0.999988 0.004965
vn 0.000000 0.999622 0.027476
vn 1.000000 0.000000 0.000000
vn 1.000000 0.000000 0.000000
vn 1.000000 0.000000 0.000000
vn 1.000000 0.000000 0.000000
vn 0.000000 -0.999988 0.004965
vn 0.013511 -0.999901 0.003999
vn 0.000000 -0.999622 0.027476
vn 0.657516 0.000000 0.753441
vn 0.657516 0.000000 0.753441
vn 0.657516 0.000000 0.753441
vn 0.657516 0.000000 0.753441
vn 0.000000 0.000000 -1.000000
vn 0.000000 0.000000 -1.000000
vn 0.000000 0.000000 -1.000000
vn 0.000000 0.999993 0.003731
vn 0.000000 0.999988 0.004965
vn 0.013511 0.999901 0.003999
vn 0.013204 0.999906 0.003730
vn 0.013204 -0.999906 0.003730
vn 0.013511 -0.999901 0.003999
vn 0.000000 -0.999988 0.004965
vn 0.000000 -0.999993 0.003731
vn 0.000000 0.000000 -1.000000
vn 0.000000 0.000000 -1.000000
vn 0.000000 0.000000 -1.000000
vn 0.000000 0.000000 -1.000000
vn 0.000000 0.000000 -1.000000
vn 0.000000 0.000000 -1.000000
vn 0.000000 0.000000 -1.000000
vn 0.000000 0.000000 -1.000000
vn 0.000000 0.000000 -1.000000
vn 0.000000 0.000000 -1.000000
vn 0.000000 0.000000 -1.000000
vn 0.000000 0.000000 -1.000000
vn 0.000000 0.000000 -1.000000
vn 0.000000 0.000000 -1.000000
vn 0.000000 0.000000 -1.000000
vn 0.000000 0.000000 -1.000000
vn 0.000000 0.000000 -1.000000
vn 1.000000 0.000000 0.000000
vn 1.000000 0.000000 0.000000
vn 1.000000 0.000000 0.000000
vn 1.000000 0.000000 0.000000
vn 0.000000 -1.000000 0.000000
vn 0.000000 -1.000000 0.000000
vn 0.000000 -1.000000 0.000000
vn 0.000000 -1.000000 0.000000
vn 0.000000 1.000000 0.000000
vn 0.000000 1.000000 0.000000
vn 0.000000 1.000000 0.000000
vn 0.000000 1.000000 0.000000
vn -0.013511 0.999901 0.003999
vn 0.000000 0.999622 0.027476
vn 0.000000 0.999988 0.004965
vn -1.000000 0.000000 0.000000
vn -1.000000 0.000000 0.000000
vn -1.000000 0.000000 0.000000
vn -1.000000 0.000000 0.000000
vn 0.000000 -0.999988 0.004965
vn 0.000000 -0.999622 0.027476
vn -0.013511 -0.999901 0.003999
vn -0.657516 0.000000 0.753440
vn -0.657516 0.000000 0.753440
vn -0.657516 0.000000 0.753440
vn -0.657516 0.000000 0.753440
vn 0.000000 0.000000 -1.000000
vn 0.000000 0.000000 -1.000000
vn 0.000000 0.000000 -1.000000
vn 0.000000 0.999993 0.003731
vn -0.013204 0.999906 0.003730
vn -0.013511 0.999901 0.003999
vn 0.000000 0.999988 0.004965
vn -0.013204 -0.999906 0.003730
vn 0.000000 -0.999993 0.003731
vn 0.000000 -0.999988 0.004965
vn -0.013511 -0.999901 0.003999
vn 0.000000 0.000000 -1.000000
vn 0.000000 0.000000 -1.000000
vn 0.000000 0.000000 -1.000000
vn 0.000000 0.000000 -1.000000
vn 0.000000 0.000000 -1.000000
vn 0.000000 0.000000 -1.000000
vn 0.000000 0.000000 -1.000000
vn 0.000000 0.000000 -1.000000
vn 0.000000 0.000000 -1.000000
vn 0.000000 0.000000 -1.000000
vn 0.000000 0.000000 -1.000000
vn 0.000000 0.000000 -1.000000
vn 0.000000 0.000000 -1.000000
vn 0.000000 0.000000 -1.000000
vn 0.000000 0.000000 -1.000000
vn 0.000000 0.000000 -1.000000
vn 0.000000 0.000000 -1.000000
vn -1.000000 0.000000 0.000000
vn -1.000000 0.000000 0.000000
vn -1.000000 0.000000 0.000000
vn -1.000000 0.000000 0.000000
vn 0.000000 -1.000000 0.000000
vn 0.000000 -1.000000 0.000000
vn 0.000000 -1.000000 0.000000
vn 0.000000 -1.000000 0.000000
vn 0.000000 1.000000 0.000000
vn 0.000000 1.000000 0.000000
vn 0.000000 1.000000 0.000000
vn 0.000000 1.000000 0.000000
s off
g Sword_Shape
usemtl initialShadingGroup
f 2/1/1 9/2/2 6/3/3
f 1/4/4 2/1/5 4/5/6 3/6/7
f 10/7/8 4/5/9 7/8/10
f 6/9/11 7/10/12 4/11/13 2/12/14
f 5/13/15 13/14/16 11/15/17
f 5/16/18 9/2/19 2/1/20 1/4/21
f 3/6/22 4/5/23 10/7/24 8/17/25
f 14/18/26 8/19/27 12/20/28
f 17/21/29 18/22/30 16/23/31 15/24/32
f 1/25/33 13/14/34 5/13/35
f 3/26/36 14/18/37 13/14/38 1/25/39
f 3/26/40 8/19/41 14/18/42
f 13/14/43 14/18/44 18/22/45 17/21/46
f 14/18/47 12/20/48 16/23/49 18/22/50
f 11/15/51 13/14/52 17/21/53 15/24/54
f 20/27/55 6/28/56 9/29/57
f 19/30/58 21/31/59 22/32/60 20/27/61
f 10/33/62 7/34/63 22/32/64
f 6/35/65 20/36/66 22/37/67 7/38/68
f 5/39/69 11/40/70 23/41/71
f 5/42/72 19/30/73 20/27/74 9/29/75
f 21/31/76 8/43/77 10/33/78 22/32/79
f 24/44/80 12/45/81 8/46/82
f 25/47/83 15/48/84 16/49/85 26/50/86
f 19/51/87 5/39/88 23/41/89
f 21/52/90 19/51/91 23/41/92 24/44/93
f 21/52/94 24/44/95 8/46/96
f 23/41/97 25/47/98 26/50/99 24/44/100
f 24/44/101 26/50/102 16/49/103 12/45/104
f 11/40/105 15/48/106 25/47/107 23/41/108
